<svg width="192" height="124" viewBox="0 0 192 124" fill="none" xmlns="http://www.w3.org/2000/svg">
<path d="M19.3261 91.0002C20.3426 93.6962 21.4962 96.3385 22.7826 98.9167C23.4672 100.297 24.289 101.604 25.2355 102.819C25.2355 102.819 20.5526 88.4357 22.2808 76.6168C24.0091 64.7979 25.793 58.4424 29.3613 52.533C32.9295 46.6235 38.8387 38.93 41.0687 37.146C41.9856 36.4772 42.8435 35.7311 43.6332 34.9159L43.1872 42.1634C43.1872 42.1634 36.6085 53.5367 36.6085 64.7979C36.6085 76.0591 37.612 87.3207 47.5355 99.4742C57.459 111.628 62.5879 113.523 64.1489 113.858C65.7099 114.192 67.6054 113.189 69.7239 113.858C71.8424 114.527 74.2953 115.307 75.5218 116.311C76.7483 117.314 82.7693 116.311 82.7693 116.311L92.1352 114.415L85.5568 107.502L72.6229 107.391L68.1626 107.837C68.1626 107.837 61.1382 102.819 58.7967 100.812C56.4552 98.8051 54.1137 96.0177 55.7304 94.3452C57.3472 92.6728 59.2427 91.8922 62.1417 93.7877C65.0406 95.6832 69.6123 96.1292 69.6123 96.1292C69.6123 96.1292 96.2606 95.5717 98.2676 95.4602C100.275 95.3488 102.728 94.1222 106.184 92.4499C109.64 90.7775 119.452 90.4429 119.898 89.7739C120.345 89.1049 121.459 84.1989 122.351 83.8645C123.243 83.53 125.027 83.976 126.254 83.976C127.48 83.976 129.487 84.868 131.829 81.1884C134.17 77.5089 135.843 70.0385 135.285 66.1361C134.728 62.2336 134.393 52.9791 126.811 39.1535C119.229 25.3278 101.389 16.0731 101.389 16.0731L106.853 22.6516L108.302 24.993L106.741 27C106.741 27 93.6959 22.2055 83.6609 22.317C73.6259 22.4286 63.2566 24.324 59.6887 26.1081C58.0166 26.9441 69.054 26.2043 69.9561 20.7387C71.8516 9.25428 72.553 7.45124 72.553 7.45124C72.553 7.45124 70.584 8.58543 79.4242 6.59574C88.7949 4.48668 102.17 7.4878 111.09 11.3903C120.01 15.2927 130.714 21.8712 138.407 33.6901C146.101 45.5091 149 54.0945 150.449 62.3454C151.899 70.5964 142.756 91.4468 140.972 93.4538C139.188 95.4609 141.864 98.4713 141.864 98.4713L146.101 95.6838C146.101 95.6838 150.202 80.1854 150.604 79.2934C151.007 78.4014 152.01 78.5131 152.679 78.6244C153.348 78.7357 154.575 80.0056 154.575 80.0056L156.47 84.8684C156.47 84.8684 157.92 80.8544 157.92 78.8473C157.92 76.8403 154.463 58.5545 152.568 52.5336C150.672 46.5126 144.651 32.6866 138.296 26.2197C131.94 19.7528 122.463 11.5017 112.54 7.59922C102.616 3.6967 89.9051 3.1393 83.6612 3.69677C79.8439 4.05285 76.1147 5.05386 72.6322 6.65718L69.9561 20.7387L61.8393 25.2689L50.7689 24.4353C50.7689 24.4353 36.274 31.6828 29.138 41.3832C22.0021 51.0837 15.6467 66.9166 15.0891 77.6206C14.5315 88.3245 18.4341 103.711 20.3296 108.729C22.2251 113.746 26.462 120.548 26.462 120.548C26.462 120.548 21.3331 107.502 20.6641 103.934C19.995 100.366 19.3261 91.0002 19.3261 91.0002Z" fill="url(#paint0_linear_910_24730)"/>
<path d="M87.5513 43.7113C87.7189 43.9494 87.908 44.1716 88.1161 44.3751C87.9929 44.1059 87.7974 43.8761 87.5513 43.7113ZM121.486 58.1983C121.347 58.1634 121.201 58.1285 121.061 58.0877L121.737 58.2973C121.658 58.2534 121.574 58.2201 121.486 58.1983ZM79.4926 6.72528C77.0238 6.40503 74.5491 6.08477 72.1152 5.77034C71.696 6.90434 71.3479 8.06335 71.0729 9.24068C70.9707 10.342 70.924 11.4478 70.9332 12.5538C70.5314 18.528 67.6783 22.4583 62.5601 23.914C58.9307 24.9606 55.0346 24.5272 51.7239 22.7087C46.6756 20.0652 42.8967 16.0941 40.0202 11.2088C39.1002 9.63663 38.1278 8.09362 37.1729 6.53895C37.0739 6.58553 36.9749 6.63211 36.8701 6.68452C37.8483 9.36298 38.8266 12.0473 39.8805 14.9412C31.0299 11.6921 23.0877 7.29008 16.9214 0C17.4245 1.91407 18.0528 3.79304 18.8022 5.62477C23.2624 16.1872 30.9251 22.9649 42.3668 24.933C45.6508 25.4978 49.0746 25.2707 52.4343 25.4454C52.8652 25.4687 53.4883 25.5735 53.6746 25.8646C55.6893 28.9682 58.5482 31.0876 61.6226 32.9859C62.0521 33.2984 62.4605 33.6388 62.8454 34.0048C61.6701 34.3831 60.4011 34.3502 59.2469 33.9116L62.4087 35.7458C63.3735 36.1737 64.3143 36.6539 65.2269 37.1841C67.1135 38.1681 68.9185 39.3909 70.9157 40.0547C71.1136 40.1221 71.3062 40.2038 71.4922 40.2992C71.1158 39.9428 70.8079 39.5205 70.5838 39.0531C70.2519 38.0458 71.4106 35.6294 71.4106 35.6294C68.179 33.6904 65.1978 31.9436 62.2631 30.1269C60.1786 28.84 60.1902 27.7803 62.2398 26.3654C62.6961 26.094 63.1686 25.8509 63.6547 25.6375C64.994 24.9563 66.3682 24.3274 67.6666 23.5647C70.3567 21.9925 72.1152 19.7274 72.2142 16.5191C72.2588 14.6632 72.1458 12.8069 71.8765 10.9701C71.7542 10.1199 71.9405 9.67156 72.6451 9.42118C74.6888 8.69916 76.7443 8.01791 78.7939 7.32501C79.0384 7.24349 79.2772 7.16198 79.5217 7.08046C79.5101 6.96395 79.5043 6.84168 79.4926 6.72528Z" fill="#52341C"/>
<path d="M86.9516 43.4146C86.3053 43.4729 85.5076 44.3929 84.8438 44.5908C84.2499 44.7713 83.9762 45.8777 83.8597 46.5939C83.561 46.4493 83.221 46.4143 82.899 46.4949C82.241 46.5706 81.3967 46.0465 80.8785 46.2911C79.219 47.0888 77.9962 46.1921 76.7385 45.4642C76.2061 45.0759 75.7732 44.5671 75.475 43.9795C74.8105 43.5634 74.2266 43.0308 73.7515 42.4073L75.4692 42.4713L76.9831 40.5964L76.3135 36.8233C77.9846 36.1828 78.6659 37.1144 79.0735 37.9762C80.436 40.8061 83.2658 41.726 85.723 42.9546C86.124 43.1299 86.5341 43.2835 86.9516 43.4146Z" fill="#52341C"/>
<path d="M91.2548 46.4013C90.9267 46.3571 90.6045 46.2771 90.294 46.1625C89.7816 45.883 89.5778 47.6648 89.0771 47.2164C88.5705 46.7739 88.6345 46.046 88.5181 45.2134C88.5031 45.0835 88.4778 44.955 88.4424 44.8291C88.5577 44.8759 88.6794 44.9054 88.8034 44.9164C89.5778 44.9455 90.3522 44.9281 91.3188 44.9281C91.1955 45.1522 91.1256 45.4017 91.1145 45.6572C91.1034 45.9127 91.1514 46.1673 91.2548 46.4013Z" fill="#52341C"/>
<path d="M130.814 66.7579C131.053 66.1102 131.209 65.4354 131.28 64.749C130.899 64.6556 130.548 64.4664 130.261 64.1995C129.974 63.9325 129.759 63.5965 129.638 63.2234C129.521 63.302 129.383 63.3444 129.242 63.3457C129.112 63.3473 128.985 63.3109 128.875 63.2409C128.835 63.369 128.794 63.4971 128.747 63.6252C127.705 63.9105 126.465 63.9396 126.366 65.4477C126.252 65.5557 126.116 65.6369 125.967 65.6852C125.818 65.7336 125.659 65.7479 125.504 65.7272C125.116 65.5406 124.803 65.226 124.619 64.8363C124.555 64.6791 124.992 64.2366 125.277 64.0328C125.929 63.567 126.634 63.1652 127.315 62.7401C127.303 62.6062 127.286 62.4665 127.263 62.3267L126.366 61.8143C126.275 61.765 126.199 61.6927 126.145 61.6047C126.121 61.7852 126.092 61.9599 126.063 62.1288C126.04 62.2452 125.463 62.4199 125.399 62.35C125.14 62.0317 124.934 61.6739 124.788 61.2903C124.675 60.9731 124.586 60.6481 124.52 60.3179C124.223 60.149 123.973 60.0209 123.746 59.887C123.607 59.8152 123.474 59.7315 123.35 59.6366C123.262 59.5726 123.175 59.4969 123.093 59.427C122.989 59.4154 122.907 59.4619 122.861 59.6075L122.698 60.1548L121.97 59.6075L121.265 60.4343H120.52L120.252 62.4723C120.638 62.762 121.007 63.0731 121.358 63.4039C121.528 63.6089 121.673 63.8337 121.789 64.0735C121.515 64.2016 121.23 64.4462 120.968 64.4229C120.62 64.3497 120.292 64.2006 120.007 63.9862C119.552 63.6703 119.023 63.4743 118.472 63.4163C117.92 63.3583 117.363 63.4401 116.851 63.6543C116.397 64.7432 116.071 65.5118 115.751 66.2571C117.306 66.5715 117.894 67.247 117.509 68.3475C117.69 68.295 117.865 68.1786 118.016 68.2019C118.435 68.2601 118.843 68.3766 119.25 68.4697C119.034 68.7902 118.84 69.1247 118.668 69.4712C118.225 70.3648 117.868 71.2987 117.603 72.2603C117.539 72.5631 118.115 73.1338 118.523 73.3783C119.111 73.6988 119.739 73.9377 120.392 74.0887C120.683 74.1702 121.195 74.2051 121.312 74.0421C121.882 73.2677 122.336 72.4059 122.866 71.6023C123.093 71.2588 123.542 70.6649 123.658 70.7173C124.107 70.9153 124.788 71.3171 124.794 71.6606C124.834 73.0289 125.819 73.3317 126.773 73.7684C126.979 73.8806 127.162 74.0285 127.315 74.2051C128.311 73.6694 129.219 73.1861 130.046 72.7436C129.37 71.2996 128.648 69.7565 127.792 67.934H129.929C130.277 67.5842 130.574 67.1885 130.814 66.7579ZM121.067 68.691C120.66 68.0971 120.252 67.7535 120.264 67.4391C120.281 67.1596 120.817 66.6472 121.044 66.6879C121.492 66.8576 121.908 67.1039 122.272 67.4158C121.952 67.7535 121.632 68.097 121.067 68.691ZM126.762 67.8176C126.25 68.069 125.708 68.2548 125.149 68.3707C124.945 68.3882 124.683 67.8292 124.45 67.5381C124.846 67.3052 125.225 66.9151 125.632 66.8859C125.999 66.8626 126.395 67.2353 126.785 67.4274C126.773 67.5555 126.768 67.6836 126.762 67.8176Z" fill="#EA644D"/>
<path d="M139.793 50.192C138.617 50.1338 137.447 50.1629 136.212 50.1629C136.591 51.8806 136.294 52.1193 133.749 52.1775C134.535 50.7393 135.251 49.4292 135.857 48.3229C135.24 47.7697 134.564 47.4611 134.454 47.0128C134.227 46.1044 133.674 46.0055 133.103 46.3374C132.369 46.7624 131.839 47.5543 131.094 47.9444C129.848 48.5908 130.291 48.9634 131.024 49.732C131.775 50.5181 132.497 51.5196 131.851 53.1965C131.49 52.5968 131.251 52.2707 131.082 51.9039C130.96 51.6302 131.024 51.2459 130.861 51.0247C129.877 49.6912 127.251 49.2953 125.76 50.1571C125.97 51.4672 126.168 52.7365 126.378 54.0699C127.437 54.1165 128.52 54.2679 128.788 55.3451C127.676 56.8008 126.715 58.0643 125.632 59.4851C125.851 59.7531 126.022 60.0564 126.139 60.3818C126.209 60.318 126.292 60.2695 126.383 60.2394C126.473 60.2093 126.568 60.1984 126.663 60.2071L129.167 60.4284C129.26 60.4364 129.35 60.4633 129.432 60.5074C129.514 60.5514 129.586 60.6117 129.644 60.6846C129.673 60.6147 129.706 60.5466 129.743 60.4808C131.403 60.4924 132.503 59.6831 132.701 57.8373C132.719 57.6801 133.26 57.4006 133.423 57.4763C133.566 57.556 133.69 57.6645 133.788 57.7948C133.886 57.9251 133.956 58.0744 133.994 58.2332C134.014 58.6334 134.177 59.013 134.454 59.3027C134.731 59.5924 135.103 59.7729 135.502 59.8112C135.975 59.9133 136.437 60.0595 136.882 60.2479C138.157 60.737 138.483 60.4924 138.256 59.1474C137.959 57.4064 137.755 55.6537 135.304 55.5664C134.489 55.5431 133.656 54.9201 134.238 53.5168C135.42 54.0583 136.498 54.5532 137.633 55.0715C137.72 54.9259 137.959 54.2796 138.105 54.3029C140.061 54.5765 139.945 53.2198 140.032 51.9854C140.12 51.6051 140.186 51.2202 140.23 50.8325C140.218 50.5996 139.956 50.1977 139.793 50.192ZM131.077 54.8793C130.617 54.792 130.226 54.3261 129.807 54.0233C130.122 53.738 130.436 53.4469 130.931 52.9927C131.42 53.4819 131.752 53.8079 132.084 54.134C131.746 54.4018 131.356 54.9318 131.077 54.8793Z" fill="#EA644D"/>
<path d="M94.5448 49.2897C94.5448 48.5793 92.5359 48.393 91.1967 48.096C89.8574 47.7991 91.2549 47.4963 91.8197 46.9373C91.5832 46.8177 91.3868 46.6315 91.2549 46.4016C90.9269 46.3575 90.6047 46.2774 90.2941 46.1629C89.7817 45.8834 89.5779 47.6652 89.0772 47.2168C88.5706 46.7743 88.6346 46.0464 88.5182 45.2138C88.5032 45.0839 88.4779 44.9554 88.4425 44.8295C88.3998 44.8181 88.3598 44.7984 88.3248 44.7714C88.2898 44.7444 88.2606 44.7107 88.2387 44.6722C88.2061 44.5701 88.1652 44.4708 88.1164 44.3753C87.9083 44.1718 87.7192 43.9496 87.5516 43.7115C87.3652 43.5873 87.1637 43.4875 86.9519 43.4146C86.3055 43.4728 85.5078 44.3928 84.844 44.5908C84.2501 44.7713 83.9765 45.8776 83.86 46.5938C83.9686 46.6768 84.0591 46.7811 84.1262 46.9002C84.1932 47.0193 84.2354 47.1508 84.2501 47.2867C84.3258 47.6069 84.7392 47.8689 85.0129 48.1368C85.403 48.5153 85.8048 48.8705 86.2008 49.2373L85.9212 49.7089C85.3623 49.4178 84.5937 49.2664 84.2967 48.8122C83.4582 47.5371 82.1481 47.4905 80.9137 47.2983C80.7153 47.2616 80.5108 47.2782 80.3209 47.3464C80.1311 47.4145 79.9627 47.5319 79.833 47.6864C79.7034 47.841 79.6171 48.0271 79.5829 48.226C79.5487 48.4248 79.5679 48.6291 79.6385 48.8181C80.1742 50.2912 80.1276 52.1953 82.1714 52.696C82.2005 52.7018 82.218 52.7659 82.3286 52.9347C82.0317 54.3438 79.8889 55.4793 81.4086 57.4299C82.0782 57.4066 82.9691 57.2902 82.8701 58.6061C85.6825 58.5712 85.3797 55.2988 87.4876 54.4953C87.603 55.0058 87.7648 55.5047 87.9709 55.9859C88.1777 56.4692 88.5297 56.8762 88.9782 57.1504C89.7598 57.4506 90.5925 57.595 91.4296 57.5755C92.303 57.5464 92.4544 56.8069 92.4777 56.015C92.5301 54.3671 92.1167 53.7674 90.3931 53.0046C91.2083 52.5854 92.0526 52.1487 92.9784 51.677H92.9842C93.0832 51.6304 93.1822 51.578 93.287 51.5256L94.9116 50.6988C94.6907 50.2604 94.5657 49.7801 94.5448 49.2897ZM85.8572 52.1254C84.9896 52.1953 84.1278 52.2651 83.2661 52.335C83.202 52.1778 83.138 52.0206 83.0798 51.8634C83.6038 51.4674 84.0929 50.856 84.6752 50.7454C85.0479 50.6814 85.5544 51.351 86.0028 51.6887C85.9562 51.8342 85.9038 51.9798 85.8572 52.1254ZM88.9375 52.7892C88.5391 52.4893 88.1758 52.1455 87.8544 51.7644C88.1339 51.5606 88.4541 51.1471 88.687 51.1937C89.0713 51.2636 89.3974 51.6363 89.9681 52.0322C89.4557 52.4223 89.0364 52.859 88.9375 52.7892ZM88.9666 50.4892C88.5939 49.9943 88.227 49.5051 87.8544 49.0102C88.3055 48.6559 88.7936 48.3514 89.3101 48.1019C89.4149 48.0669 89.5721 48.1776 89.7701 48.3348L89.7759 48.3406C89.9331 48.4687 90.102 48.6201 90.2941 48.7482C89.7643 49.4411 89.3625 49.9652 88.9666 50.4892Z" fill="#EA644D"/>
<path d="M147.747 70.2107C144.125 69.0403 140.556 67.7244 136.963 66.455C135.88 66.0765 134.809 65.6515 133.72 65.2846C133.091 65.0692 132.299 64.813 132.072 65.7097C132.002 65.995 132.631 66.5132 133.01 66.8509C133.334 67.0856 133.689 67.2756 134.064 67.4158C138.081 69.279 142.099 71.1423 146.117 73.0056C146.606 73.3103 147.118 73.577 147.648 73.8033C147.686 73.307 147.682 72.8084 147.636 72.3127C147.485 71.6664 148.155 71.3985 148.97 70.5135L149.022 70.4611C148.59 70.4232 148.162 70.3393 147.747 70.2107ZM149.54 74.3797C149.676 74.5599 149.877 74.6792 150.099 74.7117L149.54 74.3797ZM150.979 74.8107C150.973 74.8223 150.967 74.8281 150.961 74.8398C150.977 74.8388 150.993 74.8408 151.008 74.8456L151.025 74.8281C151.01 74.8214 150.995 74.8156 150.979 74.8107ZM160.808 76.4818C160.792 76.559 160.771 76.6349 160.743 76.7088L160.959 76.6157C160.895 76.5888 160.842 76.5418 160.808 76.4818ZM160.889 76.016L161.233 74.799C161.088 75.1956 160.973 75.6024 160.889 76.016Z" fill="#52341C"/>
<path d="M161.309 73.2441C161.955 71.3983 161.885 71.1246 160.319 70.7811C159.538 70.6122 158.653 70.9441 157.815 70.9441C157.372 70.8831 156.939 70.7637 156.528 70.589C156.831 70.3444 157.122 70.0707 157.448 69.8553C157.698 69.7195 157.959 69.6046 158.228 69.5117C158.234 69.3778 158.24 69.2439 158.24 69.1158C157.675 68.9993 157.105 68.8887 156.511 68.7723C156.709 67.4854 155.748 66.9323 154.793 66.6819C153.867 66.4432 153.261 67.1244 152.959 68.0328C152.668 68.8887 152.307 69.7214 151.951 70.6181C152.341 70.7287 152.551 70.7287 152.668 70.8393C152.904 71.0867 153.124 71.3493 153.326 71.6254C152.941 71.672 152.44 71.8932 152.184 71.7302C151.807 71.4093 151.481 71.0323 151.218 70.6122C150.74 70.5598 150.269 70.5424 149.809 70.5133C149.541 70.5016 149.279 70.4841 149.023 70.4608L148.97 70.5133C148.155 71.3983 147.485 71.6661 147.637 72.3125C147.682 72.8081 147.686 73.3068 147.648 73.8031C148.033 73.9106 148.444 73.8647 148.795 73.675C148.918 73.611 149.331 73.7915 149.349 73.9021C149.376 74.0735 149.442 74.2366 149.541 74.3795L150.1 74.7114L150.106 74.7173C150.379 74.7755 150.688 74.7755 150.961 74.8396C150.967 74.8279 150.973 74.8221 150.979 74.8105C150.995 74.8154 151.01 74.8212 151.026 74.8279C151.742 74.0535 152.458 73.279 153.326 72.3416C153.663 75.0724 153.098 75.5965 151.026 74.8279L151.008 74.8454C150.993 74.8406 150.977 74.8386 150.961 74.8396C150.307 75.7487 149.723 76.7064 149.215 77.7043C149.104 77.9988 149.061 78.3143 149.088 78.6276C149.115 78.9409 149.212 79.2442 149.372 79.5152C149.946 80.0478 150.613 80.4702 151.34 80.7613C152.097 81.1747 152.539 80.9069 152.854 80.1091C153.238 79.1484 153.745 78.2459 154.327 77.058C154.799 77.7102 155.305 78.1178 155.404 78.6069C155.666 79.8529 157.757 81.0058 158.747 80.1674C159.089 79.8717 159.479 79.6356 159.899 79.4687V77.4889L160.272 77.1453C160.177 77.1428 160.082 77.1251 159.993 77.093C159.789 77.0172 159.596 76.9175 159.416 76.796C158.752 76.3826 158.129 75.8935 157.25 75.2646C158.747 74.7231 159.864 73.8497 161.233 74.7988L161.611 73.6983L162.566 73.052C162.199 73.1218 161.78 73.1569 161.309 73.2441ZM157.04 73.3839C156.459 73.1084 155.895 72.7973 155.352 72.4522C155.195 72.3416 155.166 71.8933 155.241 71.6429C155.294 71.4624 155.637 71.2062 155.8 71.2411C156.58 71.3925 157.349 71.6371 158.164 71.8583C157.762 72.4057 157.466 72.8132 157.04 73.3839Z" fill="#EA644D"/>
<path d="M70.5844 3.19991C65.9391 2.18722 64.7198 4.93761 64.2857 8.4429C61.2992 6.96975 58.9171 8.16706 56.6544 9.7608C55.6831 10.4449 54.8686 11.3475 53.9447 12.1041C51.082 14.4485 48.1617 14.7306 44.9649 12.9006C42.27 11.3897 39.921 9.33188 38.0688 6.85917C39.7485 8.11059 41.1702 9.11326 42.5284 10.1956C44.2967 11.6047 45.8949 11.8273 47.7529 10.1835C49.9693 8.22254 52.367 6.45869 54.7511 4.69742C57.447 2.70604 60.3449 1.10134 63.7858 0.838788C65.0225 0.716057 66.271 0.863638 67.4449 1.27134C68.6188 1.67903 69.6901 2.3371 70.5844 3.19991Z" fill="#52341C"/>
<path d="M113.666 46.9151C113.202 48.1345 112.814 49.3052 112.289 50.4111C112.147 50.5479 111.973 50.6464 111.783 50.697C111.593 50.7477 111.393 50.7489 111.202 50.7005C110.587 50.3503 110.003 49.9491 109.455 49.501C108.993 49.1826 108.514 48.8885 107.987 48.5479C107.859 47.2065 110.937 46.1571 108.42 44.5602L109.047 43.5989L108.864 43.3439L107.609 43.9512L106.611 40.5545C108.305 41.5958 108.263 39.2582 109.514 39.2348C110.193 39.8475 110.916 40.5449 111.698 41.1687C111.823 41.2388 111.963 41.2758 112.106 41.2762C112.249 41.2766 112.39 41.2404 112.515 41.1711C112.616 41.0469 112.685 40.9007 112.718 40.7446C112.751 40.5884 112.746 40.4267 112.704 40.2726C112.545 39.94 112.075 39.7642 111.886 39.4361C111.644 38.9432 111.442 38.4319 111.281 37.907L112.314 37.5725L114.705 34.9253C115.318 36.0481 114.326 38.522 116.789 37.2534C117.923 38.4322 114.817 39.1206 116.841 40.2415L114.211 41.3976C114.746 41.6781 115.15 42.0724 115.534 42.0539C116.353 42.0145 117.42 42.2104 117.586 40.9174C117.694 40.0832 117.75 39.2132 118.949 39.0461L119.373 40.2559C119.52 40.2721 119.669 40.2704 119.816 40.2508C120.399 40.0834 120.977 39.8988 121.557 39.7203C121.519 40.5778 121.528 41.4408 121.428 42.291C121.308 42.9375 121.147 43.5757 120.945 44.2016C119.572 43.085 118.999 45.2713 117.712 45.246C117.649 45.2448 117.489 45.5765 117.536 45.6784C117.578 45.7687 117.64 45.8487 117.716 45.9126C117.792 45.9766 117.882 46.023 117.978 46.0485C118.374 46.0549 118.769 46.0318 119.162 45.9797L119.817 44.8645L120.165 44.9624C120.296 46.2821 118.937 47.6418 120.185 48.6462L118.232 50.1311L117.622 49.8234L116.635 51.1088L116.138 49.626L115.263 49.4377L115.593 48.5643L113.666 46.9151ZM117.872 43.546L117.89 43.2283C117.111 43.1649 116.327 43.1866 115.553 43.2928C115.334 43.3423 115.247 44.1632 115.212 44.6389C115.206 44.7163 115.892 45.0153 116.077 44.9057C116.704 44.4914 117.304 44.0373 117.872 43.546ZM111.147 43.33C112.052 43.153 111.461 45.3968 112.784 44.2759C113.106 44.0031 113.295 42.9802 113.09 42.7892C112.446 42.1877 111.736 42.4862 111.147 43.33Z" fill="#EA644D"/>
<path d="M151.079 95.7796L152.895 93.217C152.958 93.4232 153.068 93.788 153.217 94.28H155.566C155.072 94.8602 154.784 95.1983 154.423 95.622L155.156 95.7578C155.086 95.9316 154.909 96.1473 154.955 96.2917C155.593 98.2914 154.164 98.1258 152.966 98.2373C152.535 98.332 152.113 98.4589 151.701 98.6168L153.855 99.935L152.428 100.347L154.046 102.263L153.438 103.51C152.087 103.246 151.432 103.608 151.298 104.752C149.269 104.251 148.231 102.836 147.659 100.875C147.358 101.905 147.056 102.935 146.7 104.155L146.268 103.59L144.344 105.366L142.511 102.22L141.804 102.783C141.804 102.595 141.755 102.441 141.811 102.368C142.625 101.314 143.22 100.217 142.546 98.8594C142.372 98.5086 142.227 98.0563 141.93 97.8707C141.16 97.3888 140.885 96.9813 141.449 96.0757C141.751 95.59 141.586 94.8133 141.61 94.4664L144.272 94.0109L144.539 95.6762L144.88 95.701L145.542 94.3331L146.448 96.3104L146.956 96.1707C146.86 95.6806 146.795 95.1817 146.661 94.7023C146.391 94.0061 146.177 93.2891 146.023 92.5584C146.037 92.326 146.096 92.0987 146.199 91.8896C146.301 91.6806 146.444 91.494 146.619 91.3409C146.774 91.1944 147.29 91.4291 147.755 91.5112L148.535 89.9165C150.125 91.2039 150.235 91.6638 149.625 93.7945C149.932 93.3904 150.239 92.9863 150.713 92.3634C150.855 93.6729 150.972 94.7442 151.087 95.8105C150.585 95.4538 150.058 95.1344 149.509 94.8548C149.442 94.8242 149.095 95.4074 148.878 95.7061L149.087 96.0609L151.079 95.7796ZM145.233 97.5852V99.272C145.815 98.9738 146.337 98.8583 146.596 98.5332C146.857 98.1054 147.023 97.6257 147.08 97.1276C147.094 97.0641 146.536 96.7932 146.518 96.8178C146.275 97.1756 146.052 97.5461 145.849 97.9277L145.233 97.5852ZM151.466 97.1063L148.726 98.0526C149.987 99.0995 150.898 98.8389 151.466 97.1063Z" fill="#EA644D"/>
<path d="M135.635 79.9019C136.763 79.1045 138.139 78.7361 139.515 78.8629C140.592 78.9046 140.869 79.4614 140.46 80.3458C140.145 80.917 139.773 81.4551 139.351 81.9524C139.078 82.3222 138.749 82.6534 138.498 83.0365C138.376 83.2825 138.283 83.5426 138.224 83.8109C137.919 83.6757 137.608 83.552 137.31 83.4028C136.627 83.0207 135.923 82.6756 135.202 82.3688C135.049 82.3115 134.621 82.7052 134.495 82.9736C134.426 83.1188 134.673 83.5647 134.875 83.6559C135.559 83.9634 136.3 84.1405 136.994 84.428C137.802 84.7624 138.859 84.9259 138.543 86.2399C138.534 86.2761 138.569 86.3222 138.582 86.3642C139.31 88.7289 139.31 88.7289 137.063 89.5354C136.52 89.7303 134.936 88.5303 134.568 87.7023C134.329 87.1629 134.004 86.6613 133.681 86.0761C132.672 87.3585 131.816 88.5008 130.88 89.573C130.724 89.6376 130.554 89.6622 130.386 89.6447C130.217 89.6272 130.056 89.5681 129.917 89.4728C129.434 88.6482 128.923 88.0685 127.915 88.6829C127.481 86.8798 128.977 84.4083 130.637 83.9765C132.562 83.4758 132.562 83.4758 132.756 80.9983L129.22 84.5514C128.963 84.0348 128.857 83.5153 128.662 83.4795C127.391 83.2462 127.032 82.4625 126.65 81.2837C126.222 79.9633 126.309 79.1909 127.718 78.8459C128.212 78.7249 128.698 78.5661 129.354 78.376L132.087 80.4474L132.373 80.2193C131.969 79.5836 131.582 78.9353 131.155 78.3153C130.62 77.5387 130.554 76.9267 131.481 76.3436C132.144 75.8401 132.764 75.2833 133.336 74.6787L136.949 78.071L133.942 80.1944L134.143 80.4987C134.654 80.2884 135.163 80.0786 135.672 79.8694C135.541 79.9837 135.429 80.1176 135.339 80.2665C135.195 80.6224 135.096 80.9967 134.978 81.3636C135.374 81.3371 135.768 81.2889 136.158 81.2192C136.448 81.1288 136.728 81.0129 136.997 80.873L136.742 80.4104L135.635 79.9019Z" fill="#EA644D"/>
<path d="M70.7605 5.92535C70.005 6.31385 69.566 6.73116 69.2752 6.64545C68.8062 6.41048 68.3833 6.09293 68.0269 5.70799C68.3946 5.42268 68.7745 4.89593 69.1271 4.91352C69.563 4.93512 69.9763 5.40905 70.7605 5.92535Z" fill="#52341C"/>
<path d="M59.078 35.3032C59.4293 35.2575 59.7837 35.24 60.1377 35.2508C60.9184 35.2768 61.6879 35.4446 62.4086 35.7457L59.2468 33.9116C58.1872 33.4725 57.095 33.1163 55.9803 32.846C55.6326 32.5137 55.2587 32.21 54.8623 31.9376C54.5965 31.7461 54.4019 31.4716 54.3092 31.1574C54.2606 30.5667 54.2528 29.9733 54.2859 29.3815C54.1869 29.3349 54.0937 29.2883 53.9948 29.2417C53.6629 29.789 53.3251 30.3364 52.9932 30.8895C52.4109 29.9579 51.8694 30.2724 51.3279 31.0934C50.8213 31.8503 50.2624 32.5781 49.8839 33.1022C50.5768 34.0688 51.293 35.0819 52.0092 36.0951C51.9218 36.1766 51.8287 36.2523 51.7355 36.3338C50.9849 35.911 50.2561 35.4503 49.552 34.9538C49.0475 34.5939 48.4558 34.3755 47.8385 34.3213C47.2211 34.267 46.6004 34.3789 46.0409 34.6452C44.9462 35.0878 45.8487 36.3571 45.8313 37.2713C45.7963 38.6105 46.5125 38.8318 47.5548 38.8725C47.9097 38.9091 48.2618 38.9694 48.6087 39.053C47.7004 40.6077 46.8619 42.0401 45.9302 43.6239C47.8517 43.8684 49.2725 44.4857 49.7965 46.3897C49.9014 46.3373 50.012 46.2791 50.1226 46.2267C50.472 45.1436 50.8272 44.0606 51.2231 42.8495C51.4444 43.2978 51.6074 43.6239 51.8753 44.1538C52.1606 43.2338 52.3818 42.5234 52.5973 41.813C52.737 41.7606 52.871 41.7082 53.0049 41.6616C53.3135 43.8102 54.4082 45.1727 56.1317 45.5221C56.6726 45.1003 57.2384 44.7114 57.8261 44.3576C59.1304 43.6879 59.2702 42.995 58.2803 41.8538C58.0474 41.5859 57.7213 41.3123 57.6689 40.9978C57.5283 40.3399 57.5243 39.6601 57.6572 39.0006C57.7038 38.8143 58.6064 38.9191 59.0722 38.7619C59.4778 38.6507 59.8307 38.3989 60.0679 38.0515C60.5512 37.0267 60.2018 36.1067 59.078 35.3032ZM50.3788 39.7343L49.977 39.5596C50.0993 38.5872 50.2216 37.6148 50.3439 36.6366C50.4836 36.6366 50.6234 36.6424 50.7631 36.6424C50.9611 37.3644 51.1591 38.0923 51.3803 38.9016C51.0717 39.1577 50.7224 39.4432 50.3788 39.7343ZM52.9117 36.1708C53.4008 35.6467 53.8725 35.1402 54.6586 34.2959C54.9148 35.3265 55.1011 36.0776 55.2874 36.8346C55.1593 36.8928 55.0254 36.951 54.8973 37.0151C54.2684 36.7472 53.6396 36.4794 52.9117 36.1708ZM55.9745 40.5961C55.1535 40.0429 54.3208 39.5014 53.5231 38.9133C53.4358 38.8551 53.4707 38.4242 53.5755 38.3543C53.7676 38.2204 54.152 38.1039 54.2801 38.2087C55.0196 38.7852 55.7066 39.4315 56.4112 40.0545L55.9745 40.5961ZM57.5059 34.6685H55.3864C55.4563 34.3133 55.5261 33.9639 55.5902 33.6088C56.2482 33.7369 56.9061 33.8592 57.5641 33.9873C57.5466 34.2143 57.5233 34.4415 57.5059 34.6685Z" fill="#EA644D"/>
<path d="M62.4091 35.7459L60.1382 35.251C60.9189 35.277 61.6883 35.4448 62.4091 35.7459Z" fill="white"/>
<path d="M86.3114 28.0713C85.8397 27.8849 85.3623 27.7045 84.7916 27.4832C84.9121 27.1056 85.0074 26.7204 85.077 26.3303C85.1038 25.9543 85.1076 25.5771 85.0886 25.2007C84.4497 25.2236 83.8101 25.1846 83.1787 25.0842C81.6357 24.6708 80.7565 25.3288 80.8263 26.9417C80.838 27.2153 80.8613 27.489 80.8787 27.8267C80.5003 27.7277 80.2383 27.6695 79.9879 27.588C79.5279 27.4424 79.0737 27.2736 78.6137 27.1164C78.8684 26.612 79.2026 26.1519 79.6036 25.7538C80.3955 25.2065 80.7681 24.7174 79.9413 24.0128C80.3722 23.6635 80.7273 23.3781 81.0884 23.087C78.9689 23.9196 79.6443 21.3693 78.34 21.1597C77.6704 21.7594 76.9135 22.7668 75.7081 22.0738C75.5218 23.1045 75.3762 23.943 75.2307 24.7873C75.3355 25.8121 77.158 26.01 76.599 27.9374C75.353 26.732 74.2583 25.6723 73.0297 24.4903C72.9132 25.1075 72.8375 25.5035 72.7386 26.0217C72.4073 25.7711 72.0633 25.5378 71.7079 25.3229C71.4168 25.1657 70.9975 24.9153 70.7937 25.0143C70.6698 25.1278 70.5733 25.2681 70.5118 25.4245C70.4502 25.5809 70.4252 25.7493 70.4386 25.9169C70.5259 27.0348 70.6947 28.1528 70.8578 29.4746C71.3702 29.067 71.6846 28.8108 72.0398 28.5255C72.3892 28.9447 72.7153 29.3348 73.0588 29.7424C72.6163 29.9928 72.2611 30.1966 71.6439 30.5518C72.4882 30.8313 73.0355 31.0118 73.5421 31.1806C72.9307 32.7004 70.5143 33.108 71.411 35.6292C71.411 35.6292 70.2522 38.0457 70.5841 39.053C70.8082 39.5204 71.1161 39.9427 71.4925 40.299C72.3685 40.8344 73.1271 41.5415 73.7226 42.3778L73.7517 42.4069L75.4694 42.4709L76.9833 40.596L76.3137 36.8229C76.7853 35.2915 77.1638 34.0512 77.653 32.4733C78.9456 33.9115 79.1552 36.1765 81.1699 37.0034C81.2689 36.3396 81.3504 35.7923 81.4377 35.2274C81.921 35.1634 82.3344 35.111 82.7886 35.0528V34.1037C83.237 34.3715 83.5922 34.5811 83.9823 34.8198C84.157 33.4224 84.1977 33.3642 82.777 32.415C81.6124 31.6348 82.317 30.7439 82.5149 29.9346C82.6139 29.5328 83.1147 29.23 83.4291 28.8806C83.5513 28.9622 83.6736 29.0437 83.7959 29.1252V31.3262C83.8367 29.6085 84.6577 28.5837 86.3114 28.0713ZM75.2423 30.0801C74.7649 30.0161 74.3806 29.2708 73.9555 28.8283C74.0487 28.6361 74.1476 28.4439 74.2408 28.2518L76.9135 28.7583C76.9367 28.9447 76.96 29.1368 76.9833 29.329C76.3952 29.6027 75.778 30.1499 75.2423 30.0801ZM78.2702 29.9928C79.3648 28.4498 79.8306 28.3682 81.4494 29.4396C80.5527 30.7265 79.4231 30.1733 78.2702 29.9928Z" fill="#EA644D"/>
<path d="M85.0128 48.1368L83.7842 47.2168C83.7842 47.2168 83.8017 46.9548 83.8599 46.5938C83.9684 46.6768 84.059 46.781 84.1261 46.9001C84.1931 47.0192 84.2353 47.1508 84.25 47.2867C84.3257 47.6069 84.7392 47.8688 85.0128 48.1368Z" fill="#EA644D"/>
<path d="M87.5514 43.7113C87.365 43.587 87.1634 43.4872 86.9517 43.4143C87.0697 43.3996 87.1895 43.42 87.2961 43.4728C87.4027 43.5256 87.4915 43.6085 87.5514 43.7113Z" fill="#EA644D"/>
<path d="M88.4423 44.8292C88.3996 44.8178 88.3596 44.798 88.3246 44.771C88.2896 44.7441 88.2603 44.7104 88.2385 44.672C88.2059 44.5698 88.165 44.4705 88.1162 44.375C88.2658 44.4923 88.379 44.6499 88.4423 44.8292Z" fill="#EA644D"/>
<path d="M89.7701 48.3346L89.3101 48.1017C89.4149 48.0667 89.5721 48.1775 89.7701 48.3346Z" fill="#EA644D"/>
<path d="M91.8197 46.937C91.5831 46.8174 91.3868 46.6312 91.2549 46.4014C91.7498 46.4945 92.1516 46.6109 91.8197 46.937Z" fill="#EA644D"/>
<path d="M93.2872 51.5254L92.9844 51.6826V51.6768C93.0834 51.6301 93.1824 51.5777 93.2872 51.5254Z" fill="#EA644D"/>
<path d="M100.076 53.0745C100.006 53.1618 99.9364 53.2492 99.8666 53.3307L99.6919 53.2608L99.8258 52.9639C99.9132 52.9987 99.9947 53.0337 100.076 53.0745Z" fill="#EA644D"/>
<path d="M129.929 62.5944C129.942 62.7149 129.922 62.8366 129.87 62.9463C129.819 63.0561 129.739 63.1498 129.638 63.2174V63.2232C129.521 63.3017 129.383 63.3442 129.242 63.3455C129.112 63.3471 128.985 63.3107 128.875 63.2407L127.251 62.2101C127.258 62.2485 127.261 62.2875 127.262 62.3265L126.366 61.8141C126.275 61.7648 126.199 61.6925 126.145 61.6045C126.199 61.2164 126.201 60.8228 126.15 60.4341C126.149 60.4161 126.145 60.3985 126.139 60.3817C126.209 60.3179 126.292 60.2694 126.382 60.2393C126.473 60.2093 126.568 60.1983 126.663 60.207L129.167 60.4283C129.259 60.4364 129.35 60.4633 129.432 60.5073C129.514 60.5513 129.586 60.6116 129.644 60.6845C129.729 60.7914 129.782 60.9209 129.795 61.0572L129.929 62.5944Z" fill="#52341C"/>
<path d="M126.151 60.4343C126.201 60.8229 126.199 61.2165 126.145 61.6046C126.103 61.5531 126.071 61.4937 126.052 61.4299L125.947 61.1097C125.904 60.9829 125.9 60.8463 125.934 60.7169C125.968 60.5875 126.039 60.471 126.139 60.3818C126.146 60.3986 126.15 60.4163 126.151 60.4343Z" fill="#EA644D"/>
<path d="M128.876 63.2411L127.263 62.3269C127.262 62.2878 127.258 62.2489 127.251 62.2104L128.876 63.2411Z" fill="#EA644D"/>
<path d="M102.283 56.079L102.557 54.4486L99.8664 53.3307C99.9363 53.2491 100.006 53.1618 100.076 53.0745C99.9946 53.0337 99.913 52.9988 99.8257 52.9638L100.286 52.795L101.008 52.335L102.679 53.9362L102.283 56.079Z" fill="#52341C"/>
<path d="M108.176 60.9932L108.013 61.5463L107.792 60.8418L107.297 59.9102L108.176 60.9932Z" fill="#52341C"/>
<path d="M123.729 59.8695C123.647 59.7822 123.327 59.4444 123.094 59.427C123.071 59.4095 123.053 59.3862 123.03 59.3688C122.653 58.9516 122.217 58.5908 121.737 58.2974L122.75 58.606L123.729 59.8695Z" fill="#52341C"/>
<path d="M123.093 59.4268C122.988 59.4152 122.907 59.4618 122.86 59.6073L122.697 60.1547L121.969 59.6073L121.265 60.4342H120.52L120.252 62.4722C120.048 62.2612 119.805 62.0929 119.536 61.9772C116.781 61.3251 114.027 60.702 111.646 60.1547C110.749 60.6496 109.887 61.1329 109.031 61.6046C108.746 61.7618 107.581 61.1536 107.296 61.3108L106.863 60.7286L108.012 61.5467L108.175 60.9935L107.296 59.9105L106.609 58.6062L106.172 58.5189L104.565 58.1928L104.134 58.1055L103.302 57.0573L102.283 56.0791L102.679 53.9364L101.008 52.3351L100.286 52.7951L99.8255 52.964C99.5926 52.8533 99.3539 52.7485 99.1152 52.6379C97.6304 51.9508 96.1397 51.2637 94.9111 50.6989C94.6903 50.2605 94.5653 49.7802 94.5443 49.2898C94.5443 48.5794 92.5355 48.3931 91.1962 48.0962C89.857 47.7992 91.2544 47.4964 91.8192 46.9374C92.0458 47.0599 92.2813 47.165 92.5238 47.2519C94.7073 48.102 96.9491 48.8007 99.1326 49.6567C99.263 49.7369 99.4097 49.7868 99.5619 49.8028C99.7141 49.8187 99.868 49.8003 100.012 49.7489C100.156 49.6975 100.287 49.6144 100.395 49.5057C100.503 49.397 100.585 49.2655 100.635 49.1209C101.051 48.3028 101.602 47.5607 102.265 46.9258C102.201 47.7119 102.166 48.5037 102.067 49.2898C101.984 49.6513 102.039 50.0309 102.223 50.3534C102.406 50.6758 102.704 50.9176 103.057 51.0308C108.892 53.8141 114.773 56.4634 121.061 58.088L121.737 58.2976C122.216 58.591 122.652 58.9519 123.029 59.369C123.052 59.3862 123.07 59.4094 123.093 59.4268Z" fill="#52341C"/>
<path d="M99.8261 52.9638L99.3253 53.1443L99.1157 52.6377C99.3545 52.7484 99.5932 52.8532 99.8261 52.9638Z" fill="#52341C"/>
<path d="M107.297 59.9102L106.173 58.5186L106.61 58.6059L107.297 59.9102Z" fill="#52341C"/>
<path d="M106.572 60.9659L106.799 60.2212L106.572 60.9659Z" fill="#52341C"/>
<path d="M109.968 59.8106C109.968 59.1093 107.984 58.9256 106.662 58.6322C105.34 58.3389 106.72 58.0401 107.277 57.4884C107.044 57.3703 106.85 57.1864 106.72 56.9594C106.396 56.9159 106.078 56.8369 105.771 56.7238C105.266 56.4479 105.064 58.2069 104.57 57.7643C104.07 57.3275 104.133 56.6089 104.018 55.787C104.003 55.6587 103.978 55.5319 103.944 55.4076C103.901 55.3964 103.862 55.3769 103.827 55.3502C103.793 55.3236 103.764 55.2903 103.742 55.2524C103.71 55.1515 103.67 55.0534 103.622 54.9591C103.416 54.7582 103.229 54.5388 103.064 54.3038C102.88 54.1812 102.681 54.0828 102.472 54.0107C101.834 54.0683 101.046 54.9765 100.391 55.1718C99.8049 55.3501 99.5347 56.4421 99.4198 57.1492C99.527 57.2312 99.6163 57.3341 99.6825 57.4517C99.7487 57.5692 99.7904 57.6991 99.8049 57.8332C99.8796 58.1494 100.288 58.4079 100.558 58.6725C100.943 59.0461 101.34 59.3968 101.731 59.7588L101.455 60.2246C100.903 59.9372 100.144 59.788 99.8509 59.3396C99.0231 58.0808 97.7298 58.0348 96.5112 57.845C96.3154 57.8087 96.1134 57.8251 95.926 57.8924C95.7386 57.9598 95.5724 58.0756 95.4444 58.2282C95.3164 58.3807 95.2311 58.5645 95.1974 58.7608C95.1637 58.9571 95.1827 59.1588 95.2524 59.3454C95.7812 60.7996 95.7352 62.6793 97.7528 63.1736C97.7815 63.1794 97.7988 63.2426 97.908 63.4093C97.6148 64.8003 95.4996 65.9211 96.9997 67.8468C97.6607 67.8238 98.5402 67.7089 98.4425 69.008C101.219 68.9734 100.92 65.7431 103.001 64.9495C103.115 65.4535 103.274 65.9461 103.478 66.4211C103.682 66.8982 104.03 67.3 104.472 67.5707C105.244 67.8671 106.066 68.0096 106.892 67.9903C107.754 67.9616 107.904 67.2315 107.927 66.4499C107.979 64.8231 107.571 64.2311 105.869 63.478C106.674 63.0641 107.507 62.6331 108.421 62.1674H108.427C108.525 62.1215 108.622 62.0697 108.726 62.018L110.33 61.2017C110.112 60.769 109.988 60.2948 109.968 59.8106ZM101.391 62.6099C100.535 62.6789 99.6842 62.7478 98.8335 62.8169C98.7703 62.6617 98.707 62.5065 98.6495 62.3511C99.1668 61.9602 99.6496 61.3567 100.224 61.2475C100.592 61.1842 101.092 61.8452 101.535 62.1786C101.489 62.3225 101.437 62.4662 101.391 62.6099ZM104.432 63.2653C104.039 62.9692 103.68 62.6298 103.363 62.2536C103.639 62.0523 103.955 61.6442 104.185 61.6903C104.564 61.7592 104.886 62.127 105.45 62.518C104.944 62.903 104.53 63.3342 104.432 63.2653ZM104.461 60.9944C104.093 60.5059 103.731 60.023 103.363 59.5345C103.808 59.1847 104.29 58.8841 104.8 58.6378C104.903 58.6032 105.059 58.7125 105.254 58.8676L105.26 58.8734C105.415 59 105.582 59.1494 105.772 59.2759C105.248 59.9601 104.852 60.4771 104.461 60.9944Z" fill="#EA644D"/>
<path d="M192 79.7659C191.761 79.9814 191.517 80.4006 191.296 80.389C189.677 80.3133 187.994 80.3831 186.463 79.9581C184.431 79.3991 182.532 78.8285 180.372 79.4049C178.143 80.0962 175.75 80.0512 173.548 79.2768C174.87 80.5229 176.195 81.7748 177.525 83.0325C174.474 84.9889 168.954 85.2626 166.654 80.4879C166.246 79.6495 165.792 79.2594 164.82 79.4107C164.116 79.5028 163.403 79.4812 162.706 79.3467C161.899 79.1649 161.061 79.1669 160.255 79.3525L160.185 79.3758L159.963 79.4457L159.899 79.469V77.4892L160.272 77.1457C160.493 77.1399 160.639 76.9943 160.744 76.709L160.959 76.6158C160.895 76.5889 160.842 76.5419 160.808 76.4819C160.837 76.348 160.866 76.1966 160.889 76.0161L161.233 74.7991L161.611 73.6986L162.566 73.0523L162.59 73.0465C162.803 73.0097 163.01 72.9451 163.207 72.8543C164.43 72.2721 165.6 71.5791 167.032 70.7989C166.916 73.6113 166.904 76.0918 165.448 78.5839C166.281 78.5839 167.114 78.6072 167.941 78.5781C169.222 78.5257 170.503 78.3626 171.784 78.3859C172.826 78.4092 173.321 78.0715 173.676 77.0292C174.881 73.4424 177.356 71.1774 181.339 70.3447C180.873 72.6738 180.436 74.8923 179.97 77.2272C181.898 77.367 183.971 77.5067 186.038 77.6872C186.192 77.6882 186.344 77.7195 186.486 77.7795C186.628 77.8394 186.756 77.9268 186.865 78.0366C187.656 79.4049 188.955 79.1254 190.172 79.1429C190.522 79.1018 190.877 79.1076 191.226 79.1603C191.516 79.3179 191.777 79.5226 192 79.7659Z" fill="#52341C"/>
<path d="M160.889 76.0161C160.866 76.1966 160.837 76.348 160.808 76.4819C160.691 76.2781 160.889 76.0161 160.889 76.0161Z" fill="#EA644D"/>
<path d="M163.207 72.854C163.01 72.9448 162.803 73.0094 162.589 73.0462L163.207 72.854Z" fill="#EA644D"/>
<path d="M149.348 73.9026C149.376 74.074 149.442 74.2371 149.54 74.3801C149.54 74.3801 148.44 73.8094 147.933 74.3801C147.677 74.6596 147.642 74.3102 147.648 73.8036C148.033 73.9111 148.444 73.8652 148.795 73.6755C148.917 73.6115 149.331 73.7919 149.348 73.9026Z" fill="#EA644D"/>
<path d="M149.809 70.5137C149.541 70.502 149.279 70.4845 149.022 70.4612C149.791 69.6752 149.809 70.5137 149.809 70.5137Z" fill="#EA644D"/>
<path d="M160.744 76.709C160.639 76.9943 160.493 77.1399 160.272 77.1457L160.738 76.709H160.744Z" fill="#52341C"/>
<path d="M48.8824 123.871C47.4357 123.778 46.4091 123.615 45.8024 123.381C45.2424 123.148 44.7291 122.821 44.2624 122.401C43.8424 121.981 43.1191 121.445 42.0924 120.791V120.651C42.0924 120.418 42.2091 120.231 42.4424 120.091C42.7224 119.998 42.9557 119.951 43.1424 119.951C43.3757 120.278 43.6791 120.511 44.0524 120.651C44.4724 120.791 44.8691 120.885 45.2424 120.931C45.9424 121.211 46.5491 121.351 47.0624 121.351C47.4357 121.351 47.7857 121.305 48.1124 121.211C48.4391 121.165 48.8124 121.118 49.2324 121.071C49.3257 121.258 49.4891 121.305 49.7224 121.211C49.9557 121.165 50.0257 121.071 49.9324 120.931C50.5391 120.511 51.1457 120.091 51.7524 119.671C52.4057 119.298 52.9891 118.878 53.5024 118.411C53.4091 118.411 53.3857 118.341 53.4324 118.201C53.9457 117.875 54.3891 117.291 54.7624 116.451C55.1824 115.658 55.5324 114.795 55.8124 113.861C56.1391 112.928 56.3957 112.181 56.5824 111.621C56.6757 111.715 56.7691 111.761 56.8624 111.761C57.0024 111.761 57.0724 111.645 57.0724 111.411C57.0724 111.178 56.9791 110.968 56.7924 110.781C56.9324 110.268 57.0724 109.778 57.2124 109.311C57.3991 108.798 57.6324 108.331 57.9124 107.911C57.8657 107.911 57.8424 107.911 57.8424 107.911C57.7957 107.911 57.8191 107.678 57.9124 107.211C58.0524 106.745 58.0991 106.371 58.0524 106.091L58.4724 105.881L58.6124 103.501L59.1724 102.591V100.771C59.3591 100.818 59.5224 100.655 59.6624 100.281C59.8024 99.9082 59.6857 99.8382 59.3124 100.071L59.7324 97.8315L60.1524 97.6915H59.7324L60.4324 96.0115H60.0124C60.1057 95.2181 60.2224 94.4248 60.3624 93.6315C60.5024 92.7915 60.5724 91.9515 60.5724 91.1115C60.8057 91.3915 60.9457 91.2982 60.9924 90.8315C61.0391 90.3648 61.0391 89.8048 60.9924 89.1515C60.9924 88.4981 60.9924 88.0781 60.9924 87.8915H61.4124L61.4824 87.6115C61.4824 87.1915 61.3657 86.8648 61.1324 86.6315L61.5524 81.3815H61.6924C61.8324 81.3815 61.9024 81.3115 61.9024 81.1715C61.9024 80.9381 61.8091 80.6582 61.6224 80.3315C61.4357 80.0048 61.5991 80.0281 62.1124 80.4015L61.6924 78.7215C61.7857 78.7682 61.9491 78.7915 62.1824 78.7915C62.4157 78.7448 62.4857 78.6281 62.3924 78.4415L61.9724 78.1615L62.2524 78.0215L61.8324 76.9715C61.8324 76.9248 61.8324 76.9015 61.8324 76.9015V76.9715C61.8791 76.9715 61.9491 76.9715 62.0424 76.9715C62.1824 76.9715 62.2524 76.9015 62.2524 76.7615C62.2524 76.4815 62.1124 76.1548 61.8324 75.7815V75.5715C61.8324 75.2448 61.9724 75.0581 62.2524 75.0115C62.5324 74.9648 62.6491 74.8482 62.6024 74.6615L61.9724 74.8015L61.6924 74.2415V74.5215L60.2924 77.3215C60.1524 77.1815 60.0824 76.9948 60.0824 76.7615C60.0824 76.2481 60.2457 75.9215 60.5724 75.7815V73.8215C59.7791 73.6348 58.8691 73.3781 57.8424 73.0515C56.8157 72.7248 55.9057 72.6081 55.1124 72.7015L54.9024 72.2815H54.8324C54.7857 72.2815 54.6924 72.3048 54.5524 72.3515C54.4124 72.3982 54.2957 72.3982 54.2024 72.3515L54.1324 72.2815C53.8524 72.0015 53.4791 71.8615 53.0124 71.8615C52.5924 71.8148 52.1957 71.7915 51.8224 71.7915L51.7524 71.4415L50.0024 71.2315L49.9324 70.8815H47.9024L47.3424 70.4615H46.2224V70.3915C46.2224 70.1581 46.0824 70.0181 45.8024 69.9715C45.5224 69.8781 45.3357 69.9481 45.2424 70.1815L43.9824 69.7615L43.7024 69.2015L42.3024 69.3415C42.2557 69.2948 42.2091 69.1548 42.1624 68.9215C42.1624 68.6881 42.1391 68.5715 42.0924 68.5715C41.9991 68.5715 41.9291 68.7815 41.8824 69.2015L40.9024 68.8515V69.1315C40.9024 69.5515 41.0891 69.7848 41.4624 69.8315C41.8357 69.8781 42.1157 70.1115 42.3024 70.5315L41.1824 70.6715C40.8557 70.2981 40.3191 70.0648 39.5724 69.9715C38.8724 69.8781 38.3124 69.8081 37.8924 69.7615C37.9391 69.7148 37.9624 69.6448 37.9624 69.5515C37.9624 69.3181 37.7991 69.1781 37.4724 69.1315C37.1924 69.0848 37.0757 69.1781 37.1224 69.4115L35.5124 68.7115V68.1515L34.5324 68.5015C34.3924 68.4081 34.2291 68.2681 34.0424 68.0815C33.8557 67.8948 33.7391 67.8948 33.6924 68.0815L31.8024 66.6115L31.3124 66.8915L29.6324 65.7715L30.0524 64.0915C30.3324 64.0915 30.4957 64.0448 30.5424 63.9515C30.5891 63.8115 30.4724 63.6715 30.1924 63.5315L32.0124 61.2915L32.3624 61.5715C32.7357 61.3848 32.9224 61.3381 32.9224 61.4315C32.9224 61.4315 32.8757 61.4315 32.7824 61.4315C32.7357 61.4315 32.6657 61.4548 32.5724 61.5015L33.6924 61.7115L33.9724 61.9915C34.0657 61.9448 34.1124 61.8515 34.1124 61.7115C34.1591 61.5715 34.2057 61.5015 34.2524 61.5015C34.2991 61.4548 34.4624 61.5248 34.7424 61.7115C35.0224 61.8982 34.9057 61.9915 34.3924 61.9915L38.0324 62.8315L37.6824 62.9715L40.6224 63.5315L41.1824 64.4415L42.4424 64.0915L45.2424 65.7015C45.3357 65.4215 45.5224 65.3048 45.8024 65.3515C46.0824 65.3515 46.1757 65.4681 46.0824 65.7015H47.2024C47.2491 65.9815 47.4124 66.1448 47.6924 66.1915C48.0191 66.2382 48.2757 66.2148 48.4624 66.1215C48.8357 66.4481 49.3024 66.6815 49.8624 66.8215C50.4224 66.9615 50.9357 67.0315 51.4024 67.0315L51.6124 67.5915C51.8457 67.4515 52.0324 67.3815 52.1724 67.3815C52.5924 67.3815 52.9891 67.5448 53.3624 67.8715C53.7824 68.1981 54.1791 68.4548 54.5524 68.6415L54.6924 68.0815C55.8591 68.3148 56.9557 68.6881 57.9824 69.2015C59.0557 69.6681 60.1991 69.9248 61.4124 69.9715C61.7391 68.4315 61.9491 67.1248 62.0424 66.0515C62.1824 64.9781 62.5324 64.1615 63.0924 63.6015C63.6991 63.0415 64.8191 62.7848 66.4524 62.8315V63.3915L67.5724 62.9715L68.2724 63.5315L68.4824 66.8215L68.0624 67.0315L67.7124 69.4115C67.7591 69.3648 67.8057 69.3415 67.8524 69.3415C67.9924 69.3415 68.0857 69.4348 68.1324 69.6215C68.2257 69.7615 68.2257 69.8781 68.1324 69.9715C67.9457 70.1115 67.7824 70.1815 67.6424 70.1815H67.5724C67.5257 70.1815 67.5024 70.2048 67.5024 70.2515C67.5024 70.2981 67.5257 70.4381 67.5724 70.6715C67.6657 70.9048 67.7824 71.2782 67.9224 71.7915L69.6024 72.8415L69.9524 72.2815L72.8924 72.9115V73.1915C72.8924 73.6115 72.9624 73.8215 73.1024 73.8215C73.1491 73.8215 73.1491 73.5881 73.1024 73.1215L74.3624 73.8215C74.5024 73.8215 74.5257 73.7515 74.4324 73.6115C74.3391 73.4715 74.2691 73.4015 74.2224 73.4015C74.8291 73.4481 75.4357 73.5648 76.0424 73.7515C76.6491 73.9381 77.2557 74.1481 77.8624 74.3815L77.5824 74.6615L79.8224 74.5215L80.5224 75.0815L84.0924 75.3615C83.8124 75.5481 83.8591 75.6881 84.2324 75.7815C84.6057 75.8281 85.0491 75.8748 85.5624 75.9215C86.0757 75.9215 86.3791 75.9215 86.4724 75.9215L87.0324 75.6415L90.1124 76.3415V75.9215L91.6524 76.2015C91.9791 75.9681 92.3524 75.8048 92.7724 75.7115C93.2391 75.6182 93.6591 75.5481 94.0324 75.5015V75.4315C94.0324 75.2915 94.1024 75.1748 94.2424 75.0815C94.3824 74.9882 94.4991 74.9882 94.5924 75.0815L95.7824 74.2415C95.7824 73.2615 95.6657 72.3281 95.4324 71.4415C95.2457 70.5081 95.1057 69.5748 95.0124 68.6415L94.0324 67.9415L94.5924 67.7315L96.1324 69.3415L95.8524 69.4115C96.4124 69.4115 96.8091 69.7148 97.0424 70.3215C97.3224 70.8815 97.5091 71.5115 97.6024 72.2115C97.7424 72.9115 97.8591 73.4481 97.9524 73.8215L97.6024 74.1015L97.2524 76.0615H96.5524C96.6457 76.4348 96.4824 76.7848 96.0624 77.1115C95.6891 77.4381 95.2224 77.7181 94.6624 77.9515C94.1491 78.1381 93.7524 78.2781 93.4724 78.3715C93.5191 78.3248 93.5424 78.3015 93.5424 78.3015C93.5424 78.2548 93.5424 78.2315 93.5424 78.2315C93.5424 77.9048 93.4024 77.7415 93.1224 77.7415C93.0757 77.7415 92.9824 77.7648 92.8424 77.8115C92.7491 77.8582 92.6324 77.9281 92.4924 78.0215L91.6524 78.5815C91.3724 78.4881 91.0691 78.3481 90.7424 78.1615C90.4624 77.9748 90.2057 77.9748 89.9724 78.1615C89.7391 78.3481 89.3657 78.4881 88.8524 78.5815C88.3857 78.6281 87.8257 78.6515 87.1724 78.6515C86.3324 78.6515 85.4691 78.6281 84.5824 78.5815C83.7424 78.4881 83.0891 78.4415 82.6224 78.4415L82.4824 77.8815L80.8024 77.7415L80.5224 78.0215L78.1424 77.7415V77.1815H78.0724C77.9791 77.1815 77.8391 77.2282 77.6524 77.3215C77.4657 77.4148 77.4424 77.5081 77.5824 77.6015L76.1824 76.9015L75.7624 77.1815L73.2424 76.6215C73.2891 76.5281 73.3124 76.4348 73.3124 76.3415C73.3124 76.2482 73.2657 76.2015 73.1724 76.2015C73.0324 76.2015 72.8457 76.2482 72.6124 76.3415C72.4257 76.3881 72.2157 76.4115 71.9824 76.4115C71.6557 76.4115 71.4691 76.2481 71.4224 75.9215H70.1624C70.1624 76.0148 70.1391 76.0615 70.0924 76.0615C69.9991 76.0615 69.8591 75.9681 69.6724 75.7815C69.5324 75.5948 69.4391 75.5015 69.3924 75.5015C69.2991 75.4548 69.1591 75.4315 68.9724 75.4315C68.7857 75.4315 68.5757 75.4315 68.3424 75.4315C68.1091 75.4315 67.8757 75.4315 67.6424 75.4315C67.4091 75.4315 67.1991 75.4081 67.0124 75.3615V75.5015C67.2924 75.8281 67.4324 76.2015 67.4324 76.6215C67.4324 77.0881 67.2924 77.5081 67.0124 77.8815C67.0591 78.0215 67.0824 78.1848 67.0824 78.3715C67.0824 78.5115 67.0824 78.6515 67.0824 78.7915C67.0824 79.5381 66.9891 80.3781 66.8024 81.3115C66.6624 82.1981 66.5457 82.9915 66.4524 83.6915H66.1024L66.2424 83.7615L66.3124 84.9515C66.1257 84.9048 66.0091 84.9981 65.9624 85.2315C65.9624 85.4648 66.0557 85.5815 66.2424 85.5815L65.6124 87.1915L65.8924 87.8915L64.6324 92.5115L65.0524 92.6515L64.7724 94.3315L64.2124 94.7515L64.4924 96.0115L64.0724 96.1515L64.2124 96.2915L63.9324 98.5315C63.6057 98.5315 63.4424 98.6482 63.4424 98.8815C63.4424 99.0215 63.5591 99.2082 63.7924 99.4415L63.0924 102.241L62.6724 102.381L63.0924 102.801C62.6257 103.268 62.3224 103.921 62.1824 104.761C62.0891 105.601 62.0191 106.348 61.9724 107.001H61.8324C61.6457 107.468 61.3657 108.121 60.9924 108.961C60.6191 109.801 60.2224 110.711 59.8024 111.691C59.4291 112.625 59.1024 113.511 58.8224 114.351C58.5424 115.145 58.3791 115.751 58.3324 116.171L57.6324 116.521L57.7724 116.871L56.9324 118.341L56.5124 118.201C56.3257 118.388 56.2091 118.621 56.1624 118.901C56.1624 119.181 56.1157 119.438 56.0224 119.671H55.9524C55.9524 119.625 55.9291 119.461 55.8824 119.181C55.8357 118.901 55.7657 118.808 55.6724 118.901C55.2524 119.415 55.0657 119.951 55.1124 120.511L54.2024 121.211L54.4124 121.351L53.2924 122.401H52.9424L52.1724 122.961C52.2657 122.775 52.1257 122.728 51.7524 122.821C51.3791 122.961 50.9357 123.101 50.4224 123.241C49.9091 123.428 49.4424 123.545 49.0224 123.591L48.8824 123.871ZM62.1124 74.5215L62.6024 74.6615L62.6724 74.3815C62.6724 74.1948 62.5557 74.1715 62.3224 74.3115C62.1357 74.4515 62.0657 74.5215 62.1124 74.5215ZM86.6119 111.901C86.2852 111.948 85.8885 111.808 85.4219 111.481C84.9552 111.108 84.6285 110.805 84.4419 110.571L84.5119 109.941C84.4652 109.941 84.4185 109.965 84.3719 110.011C84.3252 110.058 84.2785 110.081 84.2319 110.081L84.5119 108.331C84.6052 108.331 84.6285 108.215 84.5819 107.981C84.5819 107.748 84.5819 107.608 84.5819 107.561L84.5119 107.491L84.5819 106.301H84.8619L84.5119 105.951L84.6519 104.901L84.7919 104.831L84.6519 104.621L84.7919 103.851L85.0719 103.711C85.0719 103.618 85.0252 103.525 84.9319 103.431C84.8852 103.291 84.8619 103.175 84.8619 103.081C84.8619 102.895 85.0252 102.638 85.3519 102.311L85.0719 102.171L85.4919 101.821L85.1419 101.681C85.3752 101.495 85.4219 101.331 85.2819 101.191C85.1885 101.005 85.2119 100.818 85.3519 100.631L85.8419 99.9315L85.4919 99.5815L85.5619 99.1615C85.7952 99.1615 85.9119 99.0915 85.9119 98.9515C85.9119 98.8582 85.8885 98.7415 85.8419 98.6015C85.7952 98.4615 85.7719 98.3215 85.7719 98.1815H85.8419L85.9119 98.3215L86.1219 96.9215L86.2619 96.8515V95.8015H86.6119L86.4019 95.0315L86.3319 95.1015L84.8619 97.4815L84.4419 97.5515L83.8819 98.3215L84.2319 98.4615L84.0219 98.8115H83.4619C83.5552 98.9982 83.6019 99.1382 83.6019 99.2315C83.6019 99.4182 83.4852 99.5815 83.2519 99.7215C83.0185 99.8148 82.8552 99.8848 82.7619 99.9315L82.9019 100.351L82.3419 101.261L81.9919 101.121C81.9919 101.121 81.9685 101.168 81.9219 101.261C81.9219 101.355 81.8752 101.401 81.7819 101.401L81.4319 101.261L81.2919 101.821L81.6419 101.891C81.4552 102.078 81.3152 102.241 81.2219 102.381C81.1285 102.521 80.8952 102.591 80.5219 102.591C80.4752 102.731 80.5219 102.871 80.6619 103.011C80.2885 103.525 79.8685 104.038 79.4019 104.551C78.9819 105.065 78.5152 105.508 78.0019 105.881H77.7919L77.2319 106.441L76.9519 106.301L76.8119 106.791L75.4819 107.351L75.3419 107.701L74.8519 107.561L74.5719 107.981H74.2919C73.1719 107.981 72.2385 107.678 71.4919 107.071C71.3519 106.791 71.2819 106.465 71.2819 106.091C71.1885 106.091 71.1185 106.138 71.0719 106.231C71.0252 106.278 70.9785 106.325 70.9319 106.371L70.5119 104.621L70.7219 104.201L70.5819 104.061L70.6519 103.501H70.8619L71.4219 100.981C71.4685 100.981 71.4919 101.005 71.4919 101.051C71.5385 101.098 71.5852 101.121 71.6319 101.121C71.7252 101.121 71.7719 101.051 71.7719 100.911C71.7719 100.771 71.7485 100.678 71.7019 100.631L71.5619 100.701C71.6552 100.001 72.0052 99.4882 72.6119 99.1615C72.5185 99.0682 72.4719 98.9515 72.4719 98.8115C72.4719 98.6715 72.4952 98.5548 72.5419 98.4615C72.6352 98.3215 72.7052 98.1815 72.7519 98.0415L72.9619 98.1115V98.0415L72.8919 97.9015L73.1719 97.7615C73.2185 97.7615 73.1952 97.6915 73.1019 97.5515C73.0552 97.4115 73.1252 97.4348 73.3119 97.6215V97.1315H73.7319C73.8719 96.9448 73.9885 96.7348 74.0819 96.5015C74.1752 96.2682 74.2685 96.0348 74.3619 95.8015H75.0619L74.8519 95.3115L75.2019 94.8915L75.6219 95.0315L75.8319 94.1215L76.9519 93.2815L76.6019 93.0715L77.0219 92.9315L77.0919 93.3515C77.0919 92.8382 77.3019 92.4648 77.7219 92.2315H77.7919L77.8619 92.5815L77.9319 92.4415L77.8619 92.0915L78.6319 91.5315L78.7019 91.8115C78.7485 91.3448 79.0052 90.9948 79.4719 90.7615C79.9385 90.4815 80.4285 90.2248 80.9419 89.9915C81.4552 89.7581 81.7352 89.5015 81.7819 89.2215L82.3419 89.2915C82.3885 89.2448 82.4119 89.1748 82.4119 89.0815C82.4585 88.9415 82.4352 88.8715 82.3419 88.8715C82.8085 88.8248 83.3452 88.6615 83.9519 88.3815H84.6519L84.3019 88.1715L84.3719 88.1015C85.2119 87.8682 86.0752 87.7515 86.9619 87.7515C87.5685 87.7515 88.1285 87.9382 88.6419 88.3115L90.0419 88.8715C90.0885 88.9182 90.0419 88.9415 89.9019 88.9415C89.8085 88.9415 89.7619 88.9881 89.7619 89.0815C89.7619 89.1281 89.8319 89.1981 89.9719 89.2915C90.1119 89.3382 90.2285 89.3615 90.3219 89.3615L90.3919 89.1515C90.4385 89.1515 90.4619 89.2448 90.4619 89.4315C90.5085 89.5715 90.5552 89.5948 90.6019 89.5015L91.1619 90.0615H90.8819L90.7419 92.0915H90.4619L90.3219 92.4415L90.5319 92.9315C90.5319 92.9781 90.5085 93.0715 90.4619 93.2115C90.4152 93.3048 90.3919 93.2815 90.3919 93.1415V93.0015L90.1819 93.0715C90.2285 93.1648 90.2519 93.3048 90.2519 93.4915C90.2519 93.6315 90.2285 93.7948 90.1819 93.9815C90.1819 94.1215 90.1585 94.2848 90.1119 94.4715C89.9252 94.4715 89.8085 94.4948 89.7619 94.5415L89.5519 95.1015C89.5052 95.2882 89.5285 95.4048 89.6219 95.4515C89.7152 95.4515 89.7619 95.4748 89.7619 95.5215L89.6219 95.8015C89.6219 95.9881 89.6219 96.1748 89.6219 96.3615C89.6685 96.5482 89.6685 96.7582 89.6219 96.9915H89.0619L88.2919 97.0615C88.4785 97.3415 88.6885 97.5748 88.9219 97.7615C89.1552 97.9015 89.2719 97.9715 89.2719 97.9715C89.3652 98.0648 89.3885 98.1582 89.3419 98.2515C89.2485 98.4848 89.1552 98.7182 89.0619 98.9515C88.9685 99.1848 88.8752 99.4182 88.7819 99.6515L88.9919 99.7215C89.0385 99.7682 89.0152 99.7915 88.9219 99.7915C88.8752 99.7915 88.8752 99.8148 88.9219 99.8615L88.9919 99.9315C89.0385 99.9782 89.0619 100.048 89.0619 100.141C89.0619 100.328 88.9919 100.515 88.8519 100.701C88.7119 100.888 88.5952 101.098 88.5019 101.331H88.7119C88.7119 101.705 88.6885 102.218 88.6419 102.871C88.5952 103.478 88.4552 103.921 88.2219 104.201H88.1519V103.851H87.8019L88.2919 104.551C88.1052 105.158 87.9885 105.811 87.9419 106.511C87.8952 107.165 87.8252 107.818 87.7319 108.471L88.2219 109.101H88.2919V108.611L88.7119 108.331H89.0619L89.2019 108.821L89.3419 107.981C89.3419 107.935 89.3419 107.911 89.3419 107.911C89.3885 107.911 89.4119 107.911 89.4119 107.911H89.5519C89.6452 107.585 89.6685 107.351 89.6219 107.211C89.9019 106.838 90.2285 106.348 90.6019 105.741C91.0219 105.088 91.4185 104.458 91.7919 103.851C92.1652 103.198 92.3985 102.685 92.4919 102.311C92.5852 102.311 92.6552 102.358 92.7019 102.451C92.7485 102.545 92.7952 102.591 92.8419 102.591C92.8885 102.591 92.8885 102.498 92.8419 102.311C92.8419 102.078 92.7952 101.985 92.7019 102.031C92.8419 101.845 92.9352 101.635 92.9819 101.401C93.0285 101.121 93.1452 100.981 93.3319 100.981C93.5652 100.981 93.6819 101.051 93.6819 101.191C93.6819 101.285 93.6585 101.401 93.6119 101.541C93.5652 101.635 93.5419 101.728 93.5419 101.821L93.4719 103.291L93.0519 103.641L93.1919 103.711H93.2619L93.0519 103.851L93.2619 104.061H93.0519C93.0519 104.295 93.0052 104.528 92.9119 104.761C92.8652 104.995 92.7952 105.228 92.7019 105.461L92.2819 105.601L92.4219 105.881L92.0719 106.371L91.6519 106.441L90.7419 108.751L90.3219 108.681L90.3919 109.241L88.5719 111.341L88.2219 111.271L88.1519 111.691L87.8719 111.901H86.6119ZM73.9419 105.601H74.0819L75.6219 104.831C75.7152 104.925 75.7385 104.971 75.6919 104.971C75.6452 104.971 75.6219 104.971 75.6219 104.971C75.6219 105.111 75.6685 105.228 75.7619 105.321C75.8552 105.368 75.9252 105.391 75.9719 105.391L75.8319 104.691C75.9252 104.411 76.1119 104.341 76.3919 104.481L76.3219 104.621L76.8119 104.411H76.4619C76.4152 104.271 76.4619 104.201 76.6019 104.201L77.7219 103.921C77.7685 103.875 77.6985 103.851 77.5119 103.851C77.3252 103.805 77.2319 103.758 77.2319 103.711L77.6519 103.501C78.0252 103.315 78.3285 103.105 78.5619 102.871C78.7952 102.638 78.9119 102.521 78.9119 102.521C79.0052 102.661 79.1452 102.731 79.3319 102.731H79.4019V101.821L79.8919 101.331L80.1719 101.401L80.1019 101.051L80.6619 100.841C80.7552 100.421 80.9652 100.118 81.2919 99.9315C81.6185 99.6982 81.8752 99.4415 82.0619 99.1615H81.9219C82.0152 98.9282 82.2019 98.7881 82.4819 98.7415C82.7619 98.6482 82.9252 98.4615 82.9719 98.1815L82.8319 97.9015L83.6019 97.2715L83.4619 97.2015C83.5552 97.1081 83.6019 97.0148 83.6019 96.9215C83.6485 96.7815 83.7652 96.7348 83.9519 96.7815L84.3019 96.8515V96.1515L84.5819 95.6615H85.1419C85.2352 95.3815 85.1419 95.2415 84.8619 95.2415L85.8419 93.9115L86.2619 94.1215V93.9815L85.8419 93.8415L86.1219 93.4215L86.4019 93.3515L86.4719 93.2815C86.3319 93.2815 86.2852 93.2348 86.3319 93.1415C86.3785 93.0015 86.4719 92.9548 86.6119 93.0015L86.6819 92.4415L87.0319 92.3015H86.8919L87.0319 91.9515H87.5219L87.3819 90.9015L87.5219 90.7615L87.3119 90.5515C87.2185 90.8781 86.9852 91.0648 86.6119 91.1115C86.2385 91.1581 85.9119 91.1815 85.6319 91.1815C85.7252 91.2281 85.7485 91.3215 85.7019 91.4615C85.6552 91.5548 85.5852 91.5781 85.4919 91.5315L85.0719 91.3215H84.8619L85.0719 91.8115L84.4419 91.6715L84.5819 91.9515H84.2319V92.2315L83.6019 92.6515C83.5552 92.6515 83.3452 92.6282 82.9719 92.5815C82.6452 92.5348 82.5752 92.6048 82.7619 92.7915H82.9019C82.9019 93.0248 82.8319 93.1182 82.6919 93.0715C82.5519 93.0248 82.4585 93.0015 82.4119 93.0015L82.5519 93.0715C81.6652 93.4915 80.8719 94.0981 80.1719 94.8915C80.2652 94.9381 80.2419 95.0081 80.1019 95.1015C80.0085 95.1948 79.9152 95.1715 79.8219 95.0315V95.4515L79.6819 95.3115C79.6819 95.5448 79.5419 95.7548 79.2619 95.9415C78.9819 96.0815 78.7252 96.1982 78.4919 96.2915C78.3519 96.5715 78.1885 96.8515 78.0019 97.1315C77.8152 97.4115 77.6052 97.6215 77.3719 97.7615L77.2319 97.6915L76.4619 98.1815V98.3915C76.4619 98.8582 76.3219 99.2782 76.0419 99.6515C75.8085 99.9782 75.5519 100.328 75.2719 100.701L75.0619 100.491L74.8519 101.401H74.3619V102.311H73.7319C73.6852 102.311 73.6852 102.358 73.7319 102.451C73.7785 102.545 73.8485 102.615 73.9419 102.661C73.8952 103.035 73.7785 103.408 73.5919 103.781C73.4519 104.108 73.3585 104.458 73.3119 104.831H73.6619C73.5685 105.205 73.7085 105.368 74.0819 105.321L73.9419 105.601ZM74.0819 102.731C74.0819 102.778 74.0352 102.755 73.9419 102.661V102.591L74.0819 102.661V102.731ZM98.0678 111.061C98.0211 110.781 97.9511 110.641 97.8578 110.641C97.8111 110.641 97.7645 110.688 97.7178 110.781C97.6711 110.828 97.6011 110.851 97.5078 110.851C97.4145 110.851 97.2978 110.665 97.1578 110.291L95.8278 109.731L96.0378 109.241L95.4078 109.171L95.3378 108.541H95.1978L95.0578 108.051L95.4078 107.491L95.1978 107.351L95.6878 107.001L95.4078 106.721C95.4078 106.488 95.4778 106.115 95.6178 105.601C95.7578 105.088 95.9211 104.761 96.1078 104.621C96.0611 104.528 96.0145 104.365 95.9678 104.131C95.9678 103.851 96.0611 103.735 96.2478 103.781L96.1078 102.801C96.2011 102.615 96.3178 102.381 96.4578 102.101C96.6445 101.821 96.5978 101.798 96.3178 102.031L96.6678 99.9315L96.8078 99.7215H97.0878C97.0411 99.6282 96.9945 99.4648 96.9478 99.2315C96.9478 98.9515 96.9478 98.6482 96.9478 98.3215C96.9478 97.3881 96.9945 96.3615 97.0878 95.2415C97.2278 94.0748 97.3678 93.2815 97.5078 92.8615C97.4145 92.5815 97.3678 92.2315 97.3678 91.8115C97.3678 91.3448 97.4845 91.0881 97.7178 91.0415L97.8578 87.5415C97.8578 87.5415 97.8578 87.4948 97.8578 87.4015C97.9045 87.3081 97.9278 87.1915 97.9278 87.0515C97.9278 86.7248 97.8578 86.3515 97.7178 85.9315C97.8578 85.8848 97.9511 85.8148 97.9978 85.7215C98.0911 85.5815 98.0211 85.5115 97.7878 85.5115L98.2778 85.0915L97.7878 84.4615L97.9278 83.0615C97.9745 83.1081 98.0445 83.1315 98.1378 83.1315C98.3245 83.1315 98.3945 83.0148 98.3478 82.7815C98.3011 82.5015 98.1611 82.4315 97.9278 82.5715L98.0678 81.1715H98.4878V81.1015C98.4878 81.0081 98.4411 80.8448 98.3478 80.6115C98.3011 80.3315 98.2311 80.1681 98.1378 80.1215C98.2778 80.1681 98.3478 79.8181 98.3478 79.0715C98.3478 78.7448 98.3245 78.3715 98.2778 77.9515C98.2778 77.5315 98.2778 77.1348 98.2778 76.7615C98.2778 76.2015 98.3245 75.6882 98.4178 75.2215C98.5111 74.7548 98.6511 74.4748 98.8378 74.3815C98.6511 73.6348 98.6045 72.9815 98.6978 72.4215L99.2578 72.4915L98.6978 72.0015L99.2578 71.7915L98.8378 71.2315V71.1615C98.8378 71.0682 98.8845 70.9515 98.9778 70.8115C99.0711 70.6715 99.1645 70.6481 99.2578 70.7415C99.1645 70.3681 99.1178 70.0648 99.1178 69.8315C99.1178 69.5048 99.1411 69.2015 99.1878 68.9215C99.2345 68.6415 99.2578 68.3615 99.2578 68.0815L99.5378 67.8015L99.3978 67.1715L99.7478 67.0315C99.8878 66.3781 100.004 65.7015 100.098 65.0015C100.191 64.2548 100.448 63.6248 100.868 63.1115H101.498L101.708 63.4615L102.478 63.5315C102.431 63.6715 102.478 63.7881 102.618 63.8815C102.804 63.9281 102.898 63.9048 102.898 63.8115C103.224 64.2781 103.388 64.5581 103.388 64.6515C103.434 64.7448 103.574 64.7915 103.808 64.7915C103.854 64.7915 103.924 64.8848 104.018 65.0715C104.111 65.2581 104.111 65.3515 104.018 65.3515C104.298 65.4448 104.461 65.6781 104.508 66.0515C104.601 66.3781 104.648 66.6582 104.648 66.8915H104.928L104.788 67.6615H105.068L104.998 68.5015L104.928 68.4315C104.834 68.4315 104.764 68.5715 104.718 68.8515C104.718 69.1315 104.788 69.2248 104.928 69.1315L104.788 70.6015H104.508C104.554 71.1148 104.508 71.6515 104.368 72.2115C104.228 72.7715 104.158 73.3315 104.158 73.8915C104.064 73.7981 103.948 73.8215 103.808 73.9615C103.948 74.2415 104.018 74.4981 104.018 74.7315C104.018 75.1515 103.924 75.5715 103.738 75.9915C103.551 76.3648 103.504 76.7615 103.598 77.1815L103.178 77.2515L103.318 77.8115L103.038 77.9515C103.131 78.3248 103.178 78.6515 103.178 78.9315C103.178 79.4915 103.108 80.0515 102.968 80.6115C102.828 81.1715 102.641 81.6148 102.408 81.9415L102.478 82.0815L102.058 82.2915L102.618 82.5715C102.524 82.7581 102.361 83.0148 102.128 83.3415C101.894 83.6681 101.964 83.8081 102.338 83.7615C102.244 84.3682 102.058 84.8115 101.778 85.0915L102.058 85.1615L101.778 85.7215L101.918 86.4215L101.288 86.6315L101.778 87.2615L101.008 87.9615C101.148 88.1015 101.218 88.4048 101.218 88.8715C101.218 89.4315 101.124 90.1548 100.938 91.0415C100.798 91.8815 100.634 92.6748 100.448 93.4215C100.261 94.1682 100.098 94.6582 99.9578 94.8915L100.238 94.7515L99.3978 99.4415L99.1878 99.5115V101.191H98.7678C98.7678 101.238 98.8145 101.285 98.9078 101.331C99.0478 101.378 99.1178 101.425 99.1178 101.471V101.821L98.9778 101.681L98.7678 101.611C98.7678 101.658 98.7678 101.728 98.7678 101.821C98.8145 101.868 98.8378 101.938 98.8378 102.031C98.8378 102.311 98.7911 102.591 98.6978 102.871C98.6511 103.105 98.6045 103.361 98.5578 103.641L98.6978 103.501L98.6278 104.061L98.7678 103.991L98.9778 103.291C99.0711 103.385 99.1645 103.431 99.2578 103.431C99.3978 103.431 99.4911 103.361 99.5378 103.221C99.6311 103.035 99.5845 102.848 99.3978 102.661L100.098 102.171C100.004 102.078 99.9578 101.961 99.9578 101.821C99.9578 101.635 100.074 101.541 100.308 101.541C100.541 101.495 100.728 101.425 100.868 101.331C101.054 101.238 100.984 101.028 100.658 100.701L101.218 100.071C101.311 100.165 101.474 99.9782 101.708 99.5115C101.988 99.0448 102.221 98.6715 102.408 98.3915L102.548 98.6015C102.641 98.6015 102.711 98.4615 102.758 98.1815C102.804 97.9015 102.851 97.7381 102.898 97.6915L103.108 97.2715C103.201 97.2715 103.294 97.3182 103.388 97.4115C103.481 97.5048 103.551 97.5515 103.598 97.5515C103.644 97.5515 103.644 97.4582 103.598 97.2715C103.598 97.0848 103.504 97.0148 103.318 97.0615L103.878 96.7115C103.831 96.5715 103.854 96.4315 103.948 96.2915C104.041 96.1515 104.088 96.1981 104.088 96.4315L104.578 95.9415L104.508 95.7315C104.741 95.3582 105.044 95.0315 105.418 94.7515C105.791 94.4248 106.141 94.0982 106.468 93.7715C106.374 93.6315 106.374 93.6082 106.468 93.7015C106.608 93.7481 106.701 93.7715 106.748 93.7715L106.678 93.1415L107.378 93.2115L107.518 93.0015L107.448 92.4415C108.054 92.1148 108.544 91.7182 108.918 91.2515C109.291 90.7382 109.804 90.4348 110.458 90.3415C110.504 90.2948 110.528 90.1781 110.528 89.9915L111.088 90.1315C111.088 90.0848 111.134 90.0382 111.228 89.9915C111.321 89.8982 111.368 89.8282 111.368 89.7815L111.998 89.6415C111.998 89.5481 111.974 89.4781 111.928 89.4315C111.881 89.3848 111.881 89.3382 111.928 89.2915L113.958 89.2215V89.5015L114.028 89.4315C114.541 89.6648 115.054 89.9215 115.568 90.2015L115.778 91.4615L116.268 91.2515C116.454 91.3448 116.454 91.4848 116.268 91.6715C116.128 91.8582 116.011 91.8815 115.918 91.7415L116.268 92.4415C116.361 92.4882 116.454 92.5115 116.548 92.5115C116.641 92.5115 116.664 92.5581 116.618 92.6515L116.268 93.0015L116.618 93.2815L115.988 94.2615L116.548 94.4715C116.594 94.4715 116.548 94.5181 116.408 94.6115C116.268 94.6582 116.198 94.7048 116.198 94.7515C116.338 94.9848 116.314 95.3581 116.128 95.8715C115.941 96.3848 115.684 96.8748 115.358 97.3415C115.078 97.7615 114.844 98.0182 114.658 98.1115C114.658 98.1582 114.634 98.1815 114.588 98.1815C114.541 98.2748 114.448 98.3915 114.308 98.5315C114.214 98.6715 114.168 98.7881 114.168 98.8815L114.378 99.4415L113.958 100.141H113.398C113.351 100.188 113.374 100.211 113.468 100.211C113.561 100.211 113.631 100.258 113.678 100.351L112.978 101.331L112.558 101.261L111.998 102.241L112.278 102.171C112.138 102.451 111.951 102.685 111.718 102.871C111.484 103.058 111.251 103.221 111.018 103.361V103.431C111.018 103.571 110.971 103.711 110.878 103.851C110.784 103.991 110.691 104.015 110.598 103.921L110.248 104.621H110.108L109.548 105.111L109.478 105.461L108.498 105.741L108.288 106.441C108.101 106.255 108.031 106.278 108.078 106.511L107.168 107.211C107.074 107.165 107.004 107.141 106.958 107.141C106.911 107.095 106.864 107.071 106.818 107.071C106.724 107.071 106.771 107.258 106.958 107.631L105.768 108.471L105.278 108.331L104.788 109.031H104.368C104.368 109.031 104.438 109.055 104.578 109.101C104.718 109.101 104.718 109.148 104.578 109.241C104.531 109.288 104.438 109.265 104.298 109.171C104.204 109.031 104.111 108.985 104.018 109.031V109.451L103.318 109.661L103.668 109.801C103.061 109.848 102.478 109.988 101.918 110.221C101.404 110.408 100.868 110.571 100.308 110.711L100.238 110.291C100.191 110.198 100.168 110.268 100.168 110.501C100.168 110.735 100.144 110.898 100.098 110.991L98.0678 111.061ZM97.9978 108.471C98.0911 108.565 98.1845 108.658 98.2778 108.751C98.3711 108.845 98.4411 108.938 98.4878 109.031L98.5578 108.751H98.8378C99.3511 108.751 99.7245 108.611 99.9578 108.331L99.8178 108.191C100.098 108.238 100.378 108.215 100.658 108.121L100.938 107.561C101.311 107.281 101.708 107.235 102.128 107.421C102.128 107.235 102.221 107.095 102.408 107.001L102.268 106.861C102.501 106.675 102.781 106.558 103.108 106.511C103.481 106.418 103.738 106.231 103.878 105.951L103.808 105.881C104.321 105.648 104.951 105.251 105.698 104.691C106.444 104.085 107.051 103.548 107.518 103.081L107.448 102.801C107.681 102.801 107.844 102.848 107.938 102.941V102.871C107.938 102.591 108.078 102.265 108.358 101.891C108.684 101.518 108.964 101.308 109.198 101.261L109.338 101.401L109.478 101.331C109.431 101.285 109.408 101.191 109.408 101.051C109.408 100.911 109.431 100.795 109.478 100.701C109.571 100.561 109.641 100.445 109.688 100.351H109.898V100.561C109.898 100.981 110.014 101.028 110.248 100.701C110.481 100.328 110.738 99.8382 111.018 99.2315C111.298 98.6248 111.484 98.1582 111.578 97.8315L111.438 97.4815L111.788 96.7815L112.208 96.7115L111.788 96.5715C112.161 96.2448 112.394 95.6615 112.488 94.8215C112.628 93.9815 112.698 93.3282 112.698 92.8615V92.0915C112.511 92.0448 112.394 91.9748 112.348 91.8815C112.348 91.7881 112.301 91.6715 112.208 91.5315C111.741 91.7182 111.368 91.8348 111.088 91.8815C110.854 91.9282 110.551 92.1382 110.178 92.5115L109.548 92.4415L109.688 92.9315L109.128 93.1415L108.988 93.4915L108.498 93.5615C108.498 94.0282 108.311 94.2848 107.938 94.3315V94.6115C107.704 94.6115 107.518 94.7048 107.378 94.8915C107.424 94.9381 107.448 94.9848 107.448 95.0315C107.448 95.1715 107.378 95.3115 107.238 95.4515C107.098 95.5448 106.981 95.6381 106.888 95.7315L106.748 95.3815C106.654 95.4748 106.538 95.6148 106.398 95.8015C106.304 95.9415 106.304 96.1048 106.398 96.2915L105.768 97.1315L104.998 97.4815L105.068 97.9715C104.694 98.1582 104.461 98.3682 104.368 98.6015C104.274 98.8348 104.181 99.0448 104.088 99.2315C103.994 99.4182 103.691 99.5815 103.178 99.7215L103.318 99.8615H103.598C103.411 100.048 103.224 100.211 103.038 100.351C102.898 100.491 102.688 100.585 102.408 100.631L102.618 101.121L102.198 101.191L102.408 101.541C102.128 101.728 101.824 102.078 101.498 102.591C101.218 103.058 101.031 103.455 100.938 103.781H100.728V103.361C100.681 103.548 100.611 103.688 100.518 103.781C100.471 103.828 100.401 103.898 100.308 103.991L100.448 104.271L100.308 104.691L100.098 104.621L100.238 104.761C100.004 105.088 99.7711 105.461 99.5378 105.881C99.3511 106.255 99.0245 106.465 98.5578 106.511V106.721C98.5578 107.095 98.4645 107.398 98.2778 107.631L98.0678 107.911L98.4178 107.981C98.3711 108.028 98.3011 108.098 98.2078 108.191C98.1145 108.285 98.0445 108.378 97.9978 108.471ZM114.658 98.1115C114.658 98.1115 114.634 98.1348 114.588 98.1815L114.658 98.1115ZM125.013 91.9515C124.593 91.9515 124.127 91.7882 123.613 91.4615L123.403 91.3915H123.263C123.217 91.3448 123.17 91.3215 123.123 91.3215C123.123 91.2282 123.147 91.1581 123.193 91.1115H122.843L122.913 90.2715C123.193 90.2715 123.357 90.2015 123.403 90.0615L123.263 89.9915H123.473V89.7815C123.473 89.5015 123.543 89.2915 123.683 89.1515C123.823 88.9648 123.987 88.7782 124.173 88.5915C124.267 88.6381 124.36 88.6615 124.453 88.6615C124.593 88.6615 124.687 88.7081 124.733 88.8015C124.687 88.5215 124.687 88.2648 124.733 88.0315L124.943 88.1015C125.037 87.7281 125.247 87.4948 125.573 87.4015C125.947 87.2615 126.273 87.1215 126.553 86.9815L126.623 87.4015L126.763 87.3315V87.1215H127.113C127.207 86.8415 127.37 86.7015 127.603 86.7015L127.673 86.9815C127.86 86.7948 128.07 86.7015 128.303 86.7015C128.677 86.8415 128.747 87.0748 128.513 87.4015C128.42 87.4481 128.327 87.5881 128.233 87.8215C128.14 87.5881 128.023 87.4481 127.883 87.4015L127.813 87.8915L127.743 87.6115H127.673L127.813 88.1715C127.673 88.2182 127.58 88.2882 127.533 88.3815C127.487 88.4748 127.417 88.5681 127.323 88.6615C127.23 88.7548 127.137 88.7781 127.043 88.7315C126.95 88.6848 126.857 88.7315 126.763 88.8715C126.857 88.8248 126.997 88.8248 127.183 88.8715C127.043 88.8715 126.95 88.8948 126.903 88.9415L127.183 89.0115C126.997 89.1981 126.857 89.4315 126.763 89.7115C126.67 89.9448 126.577 90.1781 126.483 90.4115H126.133V90.8315L126.343 90.9015C126.203 91.0415 126.04 91.1115 125.853 91.1115L125.923 91.4615C125.877 91.5548 125.76 91.6715 125.573 91.8115C125.433 91.9048 125.247 91.9515 125.013 91.9515ZM120.673 113.091C120.44 113.091 120.277 112.975 120.183 112.741L119.903 112.951L119.623 112.741L119.903 112.391L119.763 112.111H119.623V112.391L119.273 112.321L119.133 111.901C119.133 111.901 119.157 111.901 119.203 111.901C119.297 111.855 119.32 111.808 119.273 111.761H118.923C118.923 111.668 118.923 111.575 118.923 111.481C118.97 111.341 119.04 111.248 119.133 111.201C118.9 111.015 118.783 110.571 118.783 109.871C118.783 109.125 118.783 108.658 118.783 108.471L118.923 107.841H119.203L118.923 106.721C118.923 106.675 118.993 106.698 119.133 106.791C119.273 106.838 119.343 106.861 119.343 106.861V106.511C119.297 106.418 119.203 106.325 119.063 106.231C118.97 106.091 118.923 105.951 118.923 105.811L118.993 105.741C119.18 105.321 119.297 104.878 119.343 104.411C119.437 103.945 119.53 103.501 119.623 103.081L119.413 102.941L119.483 102.241C119.53 102.148 119.577 102.148 119.623 102.241C119.67 102.288 119.693 102.311 119.693 102.311H119.973C119.927 102.218 119.857 102.125 119.763 102.031C119.717 101.891 119.693 101.728 119.693 101.541L119.903 101.331C119.81 101.285 119.763 101.168 119.763 100.981C119.763 100.795 119.787 100.631 119.833 100.491C119.88 100.305 119.927 100.188 119.973 100.141L119.903 99.9315C120.137 99.8381 120.23 99.6281 120.183 99.3015C120.183 98.9281 120.207 98.6015 120.253 98.3215C120.347 97.9948 120.65 97.8548 121.163 97.9015C121.117 97.8082 121.07 97.7148 121.023 97.6215C120.977 97.5282 120.907 97.4582 120.813 97.4115H120.673V96.9215L121.303 96.2215L121.163 95.9415L121.373 95.8015V95.7315C121.373 95.4982 121.467 95.3348 121.653 95.2415C121.84 95.1015 122.027 95.0082 122.213 94.9615L122.143 94.7515H122.423L122.493 95.0315L122.423 95.1015H122.633C122.633 94.9148 122.633 94.8215 122.633 94.8215C122.633 94.8215 122.797 94.7981 123.123 94.7515L123.333 95.3115C123.987 95.4981 124.407 95.7782 124.593 96.1515C124.827 96.5248 125.037 96.9915 125.223 97.5515L125.433 97.4115V97.5515C125.433 97.9248 125.27 98.2048 124.943 98.3915L124.873 98.3215C124.92 98.4615 124.943 98.5782 124.943 98.6715C124.943 98.7648 124.827 98.8582 124.593 98.9515C124.547 99.2315 124.477 99.5348 124.383 99.8615C124.29 100.188 124.197 100.491 124.103 100.771C124.103 100.678 124.057 100.678 123.963 100.771C123.87 100.818 123.87 100.888 123.963 100.981L123.683 101.121H123.893C123.8 101.541 123.637 101.961 123.403 102.381C123.17 102.801 123.077 103.221 123.123 103.641H122.703L122.773 104.131L122.913 104.061C122.867 104.201 122.82 104.341 122.773 104.481C122.727 104.575 122.703 104.715 122.703 104.901H122.493L122.703 105.041H122.633L122.703 105.181L122.493 105.811H122.213L122.353 106.371C122.26 106.465 122.12 106.441 121.933 106.301C121.933 106.581 122.05 106.815 122.283 107.001L122.003 108.191H121.723L121.863 108.401L122.003 108.261L121.863 109.871V109.941H122.353L122.423 110.361C122.657 110.268 122.913 110.198 123.193 110.151C123.473 110.105 123.73 110.035 123.963 109.941L124.103 109.661L124.523 109.731V109.451L124.383 109.381L124.873 109.031V109.101L124.943 108.891L125.153 108.961C125.153 108.821 125.2 108.728 125.293 108.681C125.387 108.588 125.457 108.448 125.503 108.261L125.783 108.471L126.413 107.771C126.413 107.771 126.343 107.725 126.203 107.631L126.343 107.281L126.763 107.141C126.717 107.095 126.693 107.025 126.693 106.931C126.693 106.838 126.74 106.768 126.833 106.721C126.973 106.628 127.067 106.511 127.113 106.371C127.067 106.371 127.043 106.348 127.043 106.301C127.043 106.208 127.067 106.161 127.113 106.161L127.603 106.091C127.65 105.905 127.673 105.741 127.673 105.601C127.673 105.415 127.697 105.228 127.743 105.041C127.79 104.995 127.813 105.018 127.813 105.111C127.86 105.158 127.883 105.205 127.883 105.251C127.977 105.345 128.07 105.345 128.163 105.251V105.041L128.373 104.971L127.953 104.831L128.303 104.761H128.163V104.481C128.397 104.341 128.56 104.108 128.653 103.781C128.793 103.408 128.887 103.105 128.933 102.871L129.143 102.941V102.521L129.353 102.451C129.213 102.451 129.19 102.405 129.283 102.311H129.563C129.517 101.798 129.633 101.378 129.913 101.051C130.193 100.678 130.38 100.281 130.473 99.8615H130.753V99.5815H131.383C131.383 99.8615 131.337 100.001 131.243 100.001C131.197 100.001 131.127 100.095 131.033 100.281L131.313 100.981L131.173 101.191L130.893 101.051L131.033 101.471L130.823 101.331L130.893 101.891L130.753 101.821C130.707 102.008 130.59 102.405 130.403 103.011C130.263 103.571 130.077 103.921 129.843 104.061L129.563 103.991C129.563 104.085 129.587 104.178 129.633 104.271C129.68 104.365 129.727 104.458 129.773 104.551L129.423 105.251L129.143 105.111C129.19 105.531 129.05 105.998 128.723 106.511C128.397 106.978 128.117 107.398 127.883 107.771H127.463C127.463 107.958 127.44 108.121 127.393 108.261C127.347 108.401 127.323 108.588 127.323 108.821L126.833 109.031L127.113 109.101L126.623 109.311V109.381C126.623 109.568 126.553 109.755 126.413 109.941C126.32 110.081 126.25 110.198 126.203 110.291L125.783 110.221V110.711H125.433C125.433 110.945 125.34 111.131 125.153 111.271C125.153 111.225 125.107 111.201 125.013 111.201C124.967 111.155 124.92 111.155 124.873 111.201C124.967 111.295 124.967 111.411 124.873 111.551C124.78 111.645 124.687 111.715 124.593 111.761L124.383 111.691V111.971C123.963 112.391 123.38 112.648 122.633 112.741L122.563 112.881L122.213 113.021V112.741C121.933 112.788 121.723 112.858 121.583 112.951C121.49 113.045 121.257 113.091 120.883 113.091L120.813 112.881H120.743L120.673 113.091ZM122.213 105.111L122.493 105.251L122.633 105.041L122.213 105.111Z" fill="#52341C"/>
<defs>
<linearGradient id="paint0_linear_910_24730" x1="40.1339" y1="174.558" x2="129.558" y2="-17.2129" gradientUnits="userSpaceOnUse">
<stop stop-color="#FBC8B3"/>
<stop offset="0.4609" stop-color="#FBC7B2"/>
<stop offset="0.6322" stop-color="#EAA0A1"/>
<stop offset="0.7737" stop-color="#EAA0A1"/>
<stop offset="0.8073" stop-color="#FBC7B2"/>
</linearGradient>
</defs>
</svg>
