<svg width="80" height="52" viewBox="0 0 80 52" fill="none" xmlns="http://www.w3.org/2000/svg">
<path d="M8.05255 37.9166C8.47608 39.0399 8.95677 40.1409 9.49273 41.2151C9.77799 41.7901 10.1204 42.3348 10.5148 42.8412C10.5148 42.8412 8.56357 36.8481 9.28367 31.9235C10.0038 26.999 10.7471 24.3508 12.2339 21.8886C13.7206 19.4263 16.1828 16.2207 17.112 15.4773C17.494 15.1987 17.8515 14.8878 18.1805 14.5481L17.9947 17.5679C17.9947 17.5679 15.2536 22.3068 15.2536 26.9989C15.2536 31.6911 15.6717 36.3835 19.8065 41.4474C23.9412 46.5114 26.0783 47.3011 26.7287 47.4405C27.3791 47.5799 28.1689 47.1618 29.0516 47.4405C29.9343 47.7192 30.9564 48.0445 31.4674 48.4626C31.9785 48.8807 34.4872 48.4626 34.4872 48.4626L38.3897 47.6728L35.6487 44.7924L30.2595 44.7459L28.4011 44.9318C28.4011 44.9318 25.4742 42.8412 24.4986 42.0049C23.523 41.1686 22.5474 40.0072 23.221 39.3104C23.8947 38.6135 24.6845 38.2883 25.8924 39.078C27.1003 39.8678 29.0051 40.0537 29.0051 40.0537C29.0051 40.0537 40.1086 39.8214 40.9448 39.7749C41.7811 39.7285 42.8032 39.2174 44.2434 38.5206C45.6835 37.8238 49.7719 37.6844 49.9577 37.4056C50.1435 37.1269 50.6081 35.0827 50.9798 34.9434C51.3514 34.804 52.0948 34.9898 52.6058 34.9898C53.1169 34.9898 53.9531 35.3615 54.9287 33.8284C55.9043 32.2952 56.6012 29.1826 56.3689 27.5565C56.1366 25.9305 55.9973 22.0745 52.8381 16.3138C49.6789 10.5531 42.2455 6.69696 42.2455 6.69696L44.522 9.43799L45.126 10.4136L44.4755 11.2499C44.4755 11.2499 39.04 9.25214 34.8587 9.29861C30.6775 9.34507 26.3569 10.1348 24.8703 10.8782C24.1736 11.2265 28.7725 10.9183 29.1484 8.64097C29.9382 3.85579 30.2304 3.10452 30.2304 3.10452C30.2304 3.10452 29.41 3.5771 33.0934 2.74806C36.9979 1.86929 42.5709 3.11975 46.2875 4.74578C50.0041 6.37181 54.4641 9.11283 57.6697 14.0374C60.8754 18.962 62.0832 22.5392 62.6872 25.9771C63.2912 29.415 59.4816 38.1027 58.7383 38.9389C57.995 39.7752 59.1099 41.0295 59.1099 41.0295L60.8753 39.8681C60.8753 39.8681 62.5842 33.4104 62.7518 33.0387C62.9195 32.6671 63.3376 32.7136 63.6164 32.76C63.8951 32.8064 64.4062 33.3355 64.4062 33.3355L65.196 35.3616C65.196 35.3616 65.7999 33.6892 65.7999 32.8529C65.7999 32.0166 64.3597 24.3976 63.5699 21.8888C62.7801 19.3801 60.2714 13.6193 57.6233 10.9247C54.9752 8.23015 51.0262 4.79223 46.8915 3.16618C42.7567 1.54013 37.4605 1.30788 34.8588 1.54016C33.2683 1.68852 31.7145 2.10561 30.2634 2.77366L29.1484 8.64097L25.7664 10.5286L21.1537 10.1812C21.1537 10.1812 15.1141 13.201 12.1408 17.2429C9.16752 21.2847 6.51947 27.8818 6.28714 32.3417C6.05481 36.8017 7.68086 43.2129 8.47067 45.3035C9.26048 47.3941 11.0259 50.2281 11.0259 50.2281C11.0259 50.2281 8.88879 44.7925 8.61003 43.3058C8.33126 41.8192 8.05255 37.9166 8.05255 37.9166Z" fill="url(#paint0_linear_910_24730)"/>
<path d="M36.4799 18.2131C36.5498 18.3122 36.6285 18.4048 36.7152 18.4896C36.6639 18.3775 36.5824 18.2817 36.4799 18.2131ZM50.6195 24.2493C50.5612 24.2347 50.5006 24.2202 50.4424 24.2032L50.7238 24.2905C50.691 24.2723 50.6559 24.2584 50.6195 24.2493ZM33.1221 2.8022C32.0934 2.66876 31.0623 2.53532 30.0482 2.40431C29.8735 2.87681 29.7285 3.35973 29.6139 3.85028C29.5713 4.30917 29.5519 4.76991 29.5557 5.23076C29.3883 7.71998 28.1995 9.35763 26.0669 9.96417C24.5547 10.4002 22.9313 10.2197 21.5518 9.46195C19.4484 8.36048 17.8738 6.70585 16.6753 4.67032C16.292 4.01526 15.8868 3.37234 15.4889 2.72456C15.4477 2.74397 15.4064 2.76338 15.3628 2.78522C15.7703 3.90124 16.1779 5.01969 16.6171 6.22549C12.9293 4.8717 9.62007 3.03753 7.05078 0C7.26041 0.797529 7.5222 1.58043 7.83444 2.34366C9.69286 6.74468 12.8857 9.56871 17.653 10.3887C19.0214 10.6241 20.448 10.5295 21.8478 10.6022C22.0274 10.6119 22.287 10.6556 22.3646 10.7769C23.2041 12.0701 24.3953 12.9532 25.6763 13.7441C25.8552 13.8743 26.0254 14.0162 26.1858 14.1687C25.6961 14.3263 25.1673 14.3126 24.6864 14.1299L26.0038 14.8941C26.4058 15.0724 26.7978 15.2724 27.1781 15.4934C27.9641 15.9034 28.7163 16.4129 29.5484 16.6894C29.6309 16.7175 29.7111 16.7516 29.7886 16.7913C29.6318 16.6429 29.5035 16.4669 29.4101 16.2721C29.2718 15.8524 29.7546 14.8456 29.7546 14.8456C28.4081 14.0377 27.166 13.3098 25.9432 12.5529C25.0746 12.0167 25.0795 11.5751 25.9335 10.9856C26.1236 10.8725 26.3205 10.7712 26.523 10.6823C27.081 10.3985 27.6536 10.1364 28.1946 9.8186C29.3155 9.16355 30.0482 8.21977 30.0894 6.88296C30.108 6.10966 30.061 5.33619 29.9487 4.57085C29.8978 4.21664 29.9754 4.02982 30.269 3.92549C31.1206 3.62465 31.977 3.3408 32.831 3.05209C32.9329 3.01812 33.0324 2.98416 33.1343 2.95019C33.1294 2.90164 33.127 2.8507 33.1221 2.8022Z" fill="#52341C"/>
<path d="M36.23 18.0893C35.9607 18.1136 35.6284 18.4969 35.3518 18.5794C35.1043 18.6546 34.9903 19.1156 34.9418 19.414C34.8173 19.3538 34.6756 19.3392 34.5415 19.3727C34.2673 19.4043 33.9155 19.1859 33.6996 19.2878C33.0081 19.6202 32.4986 19.2466 31.9746 18.9433C31.7528 18.7815 31.5724 18.5695 31.4481 18.3246C31.1713 18.1513 30.928 17.9294 30.73 17.6696L31.4457 17.6963L32.0765 16.9151L31.7975 15.3429C32.4938 15.076 32.7776 15.4642 32.9475 15.8233C33.5152 17.0024 34.6943 17.3857 35.7181 17.8976C35.8852 17.9707 36.0561 18.0347 36.23 18.0893Z" fill="#52341C"/>
<path d="M38.0229 19.3338C37.8862 19.3154 37.752 19.282 37.6226 19.2343C37.4091 19.1178 37.3242 19.8602 37.1155 19.6734C36.9045 19.489 36.9311 19.1858 36.8826 18.8388C36.8764 18.7847 36.8658 18.7312 36.8511 18.6787C36.8991 18.6982 36.9498 18.7105 37.0015 18.7151C37.3242 18.7272 37.6469 18.72 38.0496 18.72C37.9982 18.8133 37.9691 18.9173 37.9645 19.0237C37.9598 19.1302 37.9798 19.2363 38.0229 19.3338Z" fill="#52341C"/>
<path d="M54.5059 27.816C54.6052 27.5461 54.6703 27.2649 54.7 26.979C54.5413 26.94 54.3951 26.8612 54.2754 26.75C54.1556 26.6387 54.0663 26.4988 54.0158 26.3433C53.967 26.376 53.9096 26.3937 53.8509 26.3942C53.7967 26.3949 53.7436 26.3797 53.698 26.3506C53.681 26.404 53.6641 26.4573 53.6446 26.5107C53.2104 26.6296 52.6936 26.6417 52.6523 27.2701C52.605 27.3151 52.5482 27.3489 52.486 27.3691C52.4239 27.3892 52.358 27.3952 52.2933 27.3865C52.1314 27.3088 52.0012 27.1777 51.9245 27.0153C51.8978 26.9498 52.0798 26.7654 52.1987 26.6805C52.4704 26.4864 52.764 26.319 53.0478 26.1419C53.043 26.0861 53.0357 26.0279 53.026 25.9697L52.6523 25.7562C52.6145 25.7356 52.5827 25.7055 52.5602 25.6688C52.5504 25.744 52.5383 25.8168 52.5262 25.8872C52.5165 25.9357 52.2763 26.0085 52.2496 25.9794C52.1416 25.8468 52.0556 25.6977 51.9949 25.5378C51.9479 25.4057 51.9106 25.2702 51.8833 25.1327C51.7595 25.0623 51.6552 25.0089 51.5606 24.9531C51.5027 24.9232 51.4475 24.8883 51.3956 24.8488C51.3592 24.8221 51.3228 24.7906 51.2889 24.7615C51.2452 24.7566 51.2112 24.776 51.1918 24.8367L51.1239 25.0647L50.8206 24.8367L50.527 25.1812H50.2165L50.1049 26.0303C50.2656 26.1511 50.4195 26.2807 50.5659 26.4185C50.6368 26.5039 50.6971 26.5976 50.7454 26.6975C50.6314 26.7509 50.5125 26.8528 50.4033 26.8431C50.2581 26.8126 50.1214 26.7505 50.003 26.6611C49.8131 26.5295 49.593 26.4478 49.3632 26.4237C49.1334 26.3995 48.9012 26.4336 48.688 26.5228C48.4988 26.9765 48.3629 27.2968 48.2295 27.6073C48.8773 27.7383 49.1223 28.0198 48.9622 28.4783C49.0374 28.4565 49.1102 28.408 49.1733 28.4177C49.3479 28.4419 49.5178 28.4904 49.6876 28.5293C49.5975 28.6628 49.5164 28.8022 49.445 28.9466C49.2602 29.3189 49.1116 29.708 49.001 30.1087C48.9743 30.2348 49.2145 30.4726 49.3843 30.5745C49.6293 30.708 49.8913 30.8076 50.1631 30.8705C50.2844 30.9044 50.4979 30.919 50.5465 30.8511C50.7842 30.5284 50.9735 30.1693 51.1942 29.8345C51.2889 29.6914 51.4757 29.4439 51.5242 29.4658C51.711 29.5482 51.9949 29.7156 51.9973 29.8588C52.0143 30.4289 52.4243 30.5551 52.8222 30.737C52.9076 30.7838 52.984 30.8454 53.0478 30.919C53.4627 30.6958 53.8412 30.4944 54.1857 30.31C53.9042 29.7084 53.6034 29.0654 53.2468 28.306H54.1371C54.2819 28.1603 54.406 27.9954 54.5059 27.816ZM50.4446 28.6214C50.2747 28.374 50.1049 28.2308 50.1098 28.0998C50.117 27.9834 50.3402 27.7699 50.4348 27.7868C50.6218 27.8576 50.795 27.9602 50.9468 28.0901C50.8133 28.2308 50.6799 28.374 50.4446 28.6214ZM52.8173 28.2575C52.6039 28.3623 52.3781 28.4397 52.1453 28.488C52.0604 28.4953 51.9512 28.2624 51.8542 28.1411C52.0191 28.044 52.1768 27.8815 52.3467 27.8693C52.4995 27.8596 52.6645 28.0149 52.827 28.095C52.8222 28.1483 52.8198 28.2017 52.8173 28.2575Z" fill="#EA644D"/>
<path d="M58.2471 20.9136C57.757 20.8893 57.2693 20.9015 56.755 20.9015C56.9127 21.6172 56.7889 21.7166 55.7287 21.7409C56.0563 21.1416 56.3547 20.5957 56.607 20.1348C56.3498 19.9043 56.0684 19.7757 56.0223 19.5889C55.9277 19.2104 55.6972 19.1692 55.4594 19.3075C55.1537 19.4846 54.933 19.8145 54.6224 19.9771C54.1032 20.2464 54.2876 20.4017 54.5933 20.7219C54.9063 21.0494 55.2071 21.4667 54.9378 22.1655C54.7874 21.9156 54.6879 21.7797 54.6176 21.6269C54.5666 21.5128 54.5933 21.3527 54.5254 21.2605C54.1153 20.7049 53.0212 20.54 52.4001 20.899C52.4874 21.4449 52.5699 21.9738 52.6572 22.5294C53.0988 22.5488 53.5501 22.6119 53.6617 23.0607C53.1983 23.6672 52.7979 24.1937 52.3467 24.7857C52.4377 24.8974 52.5091 25.0237 52.5578 25.1593C52.5871 25.1327 52.6217 25.1125 52.6593 25.1C52.6969 25.0875 52.7367 25.0829 52.7761 25.0866L53.8194 25.1787C53.858 25.1821 53.8956 25.1933 53.9298 25.2116C53.964 25.23 53.9941 25.2551 54.0183 25.2855C54.0303 25.2564 54.0441 25.228 54.0595 25.2006C54.751 25.2054 55.2095 24.8682 55.292 24.0991C55.2993 24.0336 55.5249 23.9171 55.5929 23.9487C55.6522 23.9819 55.7039 24.0271 55.7449 24.0814C55.7858 24.1357 55.815 24.1979 55.8306 24.2641C55.839 24.4308 55.9071 24.589 56.0225 24.7097C56.1379 24.8304 56.2928 24.9056 56.459 24.9216C56.6559 24.9641 56.8484 25.025 57.034 25.1035C57.5653 25.3073 57.7012 25.2054 57.6066 24.645C57.4828 23.9196 57.3979 23.1893 56.3765 23.1529C56.0369 23.1432 55.6899 22.8836 55.9325 22.2989C56.425 22.5245 56.8739 22.7308 57.347 22.9467C57.3834 22.886 57.4828 22.6167 57.5435 22.6264C58.3587 22.7405 58.3102 22.1752 58.3465 21.6608C58.383 21.5024 58.4106 21.342 58.429 21.1804C58.4242 21.0834 58.315 20.916 58.2471 20.9136ZM54.6151 22.8666C54.4235 22.8302 54.2609 22.6361 54.0862 22.51C54.2172 22.3911 54.3483 22.2698 54.5545 22.0806C54.7583 22.2844 54.8966 22.4202 55.0349 22.5561C54.8941 22.6677 54.7316 22.8885 54.6151 22.8666Z" fill="#EA644D"/>
<path d="M39.3938 20.5373C39.3938 20.2414 38.5568 20.1637 37.9988 20.04C37.4408 19.9162 38.023 19.7901 38.2584 19.5572C38.1598 19.5073 38.078 19.4297 38.023 19.334C37.8864 19.3156 37.7521 19.2822 37.6227 19.2345C37.4092 19.118 37.3243 19.8604 37.1157 19.6736C36.9046 19.4892 36.9313 19.186 36.8827 18.839C36.8765 18.7849 36.8659 18.7314 36.8512 18.6789C36.8334 18.6742 36.8167 18.6659 36.8022 18.6547C36.7876 18.6434 36.7754 18.6294 36.7663 18.6134C36.7527 18.5708 36.7356 18.5295 36.7153 18.4897C36.6286 18.4049 36.5498 18.3123 36.48 18.2131C36.4023 18.1613 36.3184 18.1198 36.2301 18.0894C35.9608 18.1136 35.6284 18.497 35.3518 18.5794C35.1044 18.6547 34.9904 19.1156 34.9418 19.414C34.9871 19.4486 35.0248 19.4921 35.0527 19.5417C35.0807 19.5913 35.0982 19.6461 35.1044 19.7027C35.1359 19.8362 35.3082 19.9454 35.4222 20.057C35.5848 20.2147 35.7522 20.3627 35.9171 20.5155L35.8007 20.712C35.5678 20.5907 35.2475 20.5276 35.1238 20.3384C34.7744 19.8071 34.2285 19.7877 33.7142 19.7076C33.6316 19.6923 33.5463 19.6992 33.4672 19.7276C33.3881 19.756 33.318 19.8049 33.2639 19.8693C33.2099 19.9337 33.1739 20.0113 33.1597 20.0941C33.1455 20.1769 33.1535 20.2621 33.1829 20.3408C33.4061 20.9546 33.3867 21.748 34.2383 21.9566C34.2504 21.9591 34.2577 21.9857 34.3038 22.0561C34.18 22.6432 33.2872 23.1163 33.9204 23.9291C34.1994 23.9194 34.5706 23.8709 34.5294 24.4192C35.7012 24.4046 35.575 23.0411 36.4533 22.7063C36.5014 22.919 36.5688 23.1269 36.6547 23.3274C36.7409 23.5288 36.8875 23.6984 37.0744 23.8126C37.4001 23.9377 37.7471 23.9979 38.0958 23.9897C38.4597 23.9776 38.5228 23.6695 38.5325 23.3395C38.5544 22.6529 38.3821 22.403 37.664 22.0852C38.0036 21.9105 38.3554 21.7286 38.7412 21.5321H38.7436C38.7848 21.5126 38.8261 21.4908 38.8698 21.469L39.5466 21.1245C39.4546 20.9418 39.4025 20.7417 39.3938 20.5373ZM35.774 21.7189C35.4125 21.748 35.0534 21.7771 34.6944 21.8062C34.6677 21.7407 34.641 21.6752 34.6167 21.6097C34.8351 21.4447 35.0389 21.19 35.2815 21.1439C35.4368 21.1172 35.6478 21.3962 35.8346 21.5369C35.8152 21.5975 35.7934 21.6582 35.774 21.7189ZM37.0574 21.9954C36.8915 21.8705 36.7401 21.7273 36.6062 21.5685C36.7226 21.4835 36.8561 21.3113 36.9531 21.3307C37.1132 21.3598 37.2491 21.5151 37.4869 21.68C37.2734 21.8426 37.0987 22.0245 37.0574 21.9954ZM37.0696 21.0371C36.9143 20.8309 36.7614 20.6271 36.6062 20.4209C36.7941 20.2733 36.9975 20.1464 37.2127 20.0424C37.2564 20.0278 37.3219 20.0739 37.4044 20.1395L37.4068 20.1419C37.4723 20.1953 37.5427 20.2583 37.6227 20.3117C37.4019 20.6004 37.2345 20.8188 37.0696 21.0371Z" fill="#EA644D"/>
<path d="M61.5613 29.2545C60.0522 28.7668 58.565 28.2185 57.068 27.6896C56.6168 27.5319 56.1704 27.3548 55.7167 27.202C55.4546 27.1122 55.1247 27.0055 55.0301 27.3791C55.001 27.498 55.263 27.7139 55.4207 27.8546C55.5558 27.9524 55.7035 28.0316 55.8598 28.0899C57.5339 28.8663 59.2079 29.6427 60.8819 30.419C61.0858 30.546 61.2991 30.6571 61.52 30.7514C61.5358 30.5446 61.5342 30.3369 61.5152 30.1303C61.4521 29.861 61.7311 29.7494 62.0707 29.3807L62.0926 29.3588C61.9123 29.343 61.7341 29.3081 61.5613 29.2545ZM62.3085 30.9916C62.3648 31.0666 62.4486 31.1164 62.5414 31.1299L62.3085 30.9916ZM62.9078 31.1711C62.9053 31.176 62.9029 31.1784 62.9005 31.1833C62.907 31.1829 62.9136 31.1837 62.9199 31.1857L62.9272 31.1784C62.9209 31.1756 62.9144 31.1732 62.9078 31.1711ZM67.0031 31.8675C66.9966 31.8996 66.9877 31.9312 66.9764 31.9621L67.0662 31.9232C67.0396 31.912 67.0175 31.8925 67.0031 31.8675ZM67.0371 31.6734L67.1802 31.1663C67.1201 31.3316 67.0722 31.501 67.0371 31.6734Z" fill="#52341C"/>
<path d="M67.2119 30.5185C67.4812 29.7494 67.4521 29.6353 66.7994 29.4922C66.4743 29.4218 66.1056 29.5601 65.7562 29.5601C65.5717 29.5347 65.3914 29.4849 65.22 29.4121C65.3462 29.3103 65.4675 29.1962 65.6034 29.1065C65.7076 29.0499 65.8163 29.002 65.9285 28.9633C65.9309 28.9075 65.9333 28.8517 65.9333 28.7983C65.698 28.7498 65.4602 28.7037 65.2127 28.6552C65.2952 28.119 64.8949 27.8885 64.497 27.7842C64.1113 27.6847 63.8589 27.9686 63.7328 28.3471C63.6115 28.7037 63.4611 29.0507 63.3131 29.4243C63.4756 29.4704 63.563 29.4704 63.6115 29.5165C63.7099 29.6195 63.8015 29.7289 63.8856 29.844C63.7255 29.8634 63.5169 29.9556 63.4101 29.8877C63.2528 29.754 63.1169 29.5969 63.0074 29.4218C62.8084 29.4 62.6119 29.3927 62.4203 29.3806C62.3087 29.3758 62.1995 29.3685 62.0927 29.3588L62.0709 29.3806C61.7312 29.7494 61.4522 29.861 61.5153 30.1303C61.5343 30.3368 61.536 30.5446 61.5201 30.7514C61.6804 30.7962 61.8517 30.777 61.9981 30.698C62.0491 30.6713 62.2213 30.7465 62.2286 30.7926C62.2402 30.8641 62.2675 30.932 62.3086 30.9916L62.5416 31.1298L62.544 31.1323C62.658 31.1565 62.7866 31.1565 62.9006 31.1832C62.9031 31.1784 62.9055 31.176 62.9079 31.1711C62.9145 31.1731 62.921 31.1756 62.9273 31.1784C63.2257 30.8557 63.5241 30.533 63.8856 30.1424C64.0264 31.2803 63.791 31.4986 62.9273 31.1784L62.92 31.1857C62.9138 31.1837 62.9072 31.1828 62.9006 31.1832C62.628 31.562 62.3847 31.9611 62.1728 32.3769C62.1268 32.4996 62.1088 32.631 62.1201 32.7616C62.1314 32.8921 62.1718 33.0185 62.2383 33.1314C62.4775 33.3533 62.7555 33.5293 63.0583 33.6506C63.3737 33.8229 63.5581 33.7113 63.6891 33.3789C63.8492 32.9786 64.0603 32.6025 64.3029 32.1076C64.4995 32.3793 64.7105 32.5491 64.7518 32.7529C64.861 33.2721 65.7319 33.7525 66.1444 33.4031C66.2871 33.28 66.4495 33.1816 66.6248 33.112V32.2871L66.78 32.144C66.7403 32.1429 66.701 32.1355 66.6636 32.1221C66.5789 32.0906 66.4983 32.0491 66.4234 31.9984C66.1468 31.8262 65.8872 31.6224 65.5209 31.3603C66.1444 31.1347 66.6102 30.7708 67.1803 31.1662L67.3381 30.7077L67.7359 30.4384C67.5831 30.4675 67.4084 30.4821 67.2119 30.5185ZM65.4335 30.5767C65.1912 30.4619 64.9562 30.3323 64.7299 30.1885C64.6644 30.1424 64.6523 29.9556 64.6838 29.8513C64.7057 29.7761 64.8488 29.6693 64.9168 29.6839C65.2419 29.747 65.5621 29.8489 65.9018 29.941C65.7344 30.1691 65.6106 30.3389 65.4335 30.5767Z" fill="#EA644D"/>
<path d="M29.41 1.33329C27.4744 0.91134 26.9664 2.05734 26.7855 3.51788C25.5411 2.90406 24.5486 3.40294 23.6058 4.067C23.2011 4.35205 22.8617 4.72813 22.4767 5.04338C21.284 6.0202 20.0672 6.13777 18.7352 5.37523C17.6123 4.74573 16.6336 3.88828 15.8618 2.85799C16.5617 3.37941 17.1541 3.79719 17.72 4.24816C18.4568 4.83529 19.1227 4.92806 19.8968 4.24311C20.8203 3.42606 21.8194 2.69112 22.8128 1.95726C23.9361 1.12752 25.1435 0.45889 26.5772 0.349495C27.0925 0.298357 27.6127 0.359849 28.1018 0.529723C28.591 0.699598 29.0373 0.97379 29.41 1.33329Z" fill="#52341C"/>
<path d="M47.361 19.548C47.1675 20.0561 47.0057 20.5439 46.7869 21.0047C46.728 21.0617 46.6555 21.1027 46.5763 21.1238C46.4971 21.1449 46.4138 21.1454 46.3344 21.1253C46.0781 20.9793 45.8345 20.8122 45.6062 20.6255C45.4137 20.4928 45.2142 20.3703 44.9947 20.2283C44.9411 19.6694 46.2238 19.2322 45.1752 18.5668L45.4364 18.1663L45.3601 18.06L44.8372 18.313L44.4214 16.8977C45.1269 17.3316 45.1098 16.3576 45.6307 16.3479C45.9139 16.6032 46.2151 16.8937 46.5408 17.1537C46.5928 17.1829 46.6514 17.1983 46.711 17.1985C46.7706 17.1986 46.8293 17.1836 46.8814 17.1547C46.9231 17.1029 46.952 17.042 46.9657 16.9769C46.9794 16.9119 46.9775 16.8445 46.9602 16.7803C46.8937 16.6417 46.698 16.5685 46.619 16.4317C46.5183 16.2264 46.4341 16.0133 46.3672 15.7946L46.7973 15.6553L47.794 14.5522C48.0492 15.0201 47.6357 16.0509 48.6622 15.5223C49.1347 16.0135 47.8403 16.3003 48.6836 16.7673L47.588 17.2491C47.8108 17.3659 47.9791 17.5302 48.1392 17.5225C48.4804 17.5061 48.9248 17.5877 48.9942 17.049C49.039 16.7014 49.0625 16.3389 49.5619 16.2692L49.7389 16.7733C49.8002 16.7801 49.8621 16.7794 49.9232 16.7712C50.1662 16.7015 50.4072 16.6245 50.6488 16.5502C50.6331 16.9075 50.6367 17.2671 50.595 17.6213C50.545 17.8907 50.4779 18.1566 50.3939 18.4174C49.8218 17.9521 49.5831 18.8631 49.0465 18.8525C49.0205 18.852 48.9539 18.9902 48.9735 19.0327C48.991 19.0703 49.0165 19.1036 49.0483 19.1303C49.0801 19.157 49.1173 19.1763 49.1574 19.1869C49.3223 19.1896 49.4872 19.18 49.6506 19.1582L49.9239 18.6936L50.0689 18.7344C50.1233 19.2842 49.5571 19.8508 50.0771 20.2693L49.2633 20.888L49.0093 20.7598L48.5981 21.2954L48.391 20.6775L48.0261 20.5991L48.1637 20.2352L47.361 19.548ZM49.1135 18.1442L49.1208 18.0118C48.7962 17.9854 48.4697 17.9944 48.147 18.0387C48.056 18.0593 48.0195 18.4014 48.0049 18.5996C48.0024 18.6318 48.2885 18.7564 48.3655 18.7107C48.6268 18.5381 48.8766 18.3489 49.1135 18.1442ZM46.3113 18.0542C46.6883 17.9804 46.4422 18.9154 46.9934 18.4483C47.1275 18.3347 47.2062 17.9085 47.1209 17.8289C46.8526 17.5783 46.5566 17.7026 46.3113 18.0542Z" fill="#EA644D"/>
<path d="M62.9497 39.9083L63.7063 38.8406C63.7324 38.9264 63.7784 39.0785 63.8405 39.2835H64.8192C64.6132 39.5252 64.4932 39.6661 64.3429 39.8426L64.6482 39.8992C64.6191 39.9716 64.5454 40.0615 64.5646 40.1217C64.8305 40.9549 64.2348 40.8859 63.7358 40.9323C63.5564 40.9718 63.3803 41.0246 63.2089 41.0904L64.1062 41.6397L63.5115 41.8113L64.1858 42.6095L63.9325 43.1292C63.3697 43.0195 63.0967 43.1703 63.0407 43.6468C62.1956 43.438 61.7632 42.8483 61.5247 42.0314C61.3991 42.4606 61.2735 42.8897 61.1248 43.3979L60.9451 43.1624L60.1435 43.9027L59.3795 42.592L59.085 42.8263C59.085 42.748 59.0646 42.6838 59.088 42.6534C59.427 42.2143 59.6749 41.7572 59.3943 41.1915C59.3218 41.0454 59.2611 40.8569 59.1376 40.7796C58.8169 40.5788 58.702 40.409 58.937 40.0316C59.0629 39.8293 58.9941 39.5057 59.0044 39.3611L60.1135 39.1713L60.2245 39.8652L60.3669 39.8755L60.6427 39.3056L61.0202 40.1295L61.2315 40.0712C61.1917 39.867 61.1648 39.6592 61.1088 39.4594C60.9962 39.1693 60.9073 38.8706 60.843 38.5661C60.8486 38.4693 60.8735 38.3746 60.9162 38.2875C60.9588 38.2004 61.0184 38.1226 61.0914 38.0588C61.156 37.9978 61.3707 38.0956 61.5645 38.1298L61.8898 37.4653C62.552 38.0017 62.5981 38.1934 62.3438 39.0812C62.4718 38.9128 62.5998 38.7444 62.797 38.4849C62.8564 39.0305 62.9049 39.4769 62.9528 39.9212C62.7437 39.7725 62.5241 39.6395 62.2955 39.5229C62.2675 39.5102 62.123 39.7532 62.0325 39.8777L62.1195 40.0255L62.9497 39.9083ZM60.5137 40.6606V41.3635C60.7562 41.2392 60.9736 41.1911 61.0817 41.0556C61.1907 40.8774 61.2594 40.6775 61.2833 40.47C61.2891 40.4435 61.0567 40.3306 61.0493 40.3409C60.9481 40.49 60.855 40.6443 60.7703 40.8033L60.5137 40.6606ZM63.1107 40.4611L61.9692 40.8554C62.4948 41.2916 62.8741 41.183 63.1107 40.4611Z" fill="#EA644D"/>
<path d="M56.5143 33.2925C56.9845 32.9603 57.5579 32.8068 58.1312 32.8596C58.5801 32.877 58.6953 33.109 58.5249 33.4775C58.3935 33.7155 58.2386 33.9397 58.0627 34.1469C57.9489 34.301 57.812 34.439 57.7075 34.5986C57.6564 34.7011 57.6179 34.8095 57.5931 34.9213C57.4661 34.8649 57.3366 34.8134 57.2125 34.7513C56.9277 34.592 56.6345 34.4482 56.3342 34.3204C56.2701 34.2966 56.0918 34.4606 56.0393 34.5724C56.0109 34.6329 56.1135 34.8187 56.198 34.8567C56.4828 34.9848 56.7916 35.0586 57.0808 35.1784C57.4172 35.3178 57.8578 35.3859 57.7261 35.9334C57.7225 35.9484 57.737 35.9677 57.7424 35.9852C58.0459 36.9705 58.0459 36.9704 57.1095 37.3065C56.8832 37.3877 56.2232 36.8877 56.0701 36.5427C55.9703 36.3179 55.8349 36.1089 55.7002 35.8651C55.2798 36.3994 54.9233 36.8754 54.5332 37.3222C54.4681 37.3491 54.3973 37.3593 54.3272 37.352C54.2571 37.3447 54.19 37.3201 54.1318 37.2804C53.9309 36.9368 53.7177 36.6953 53.2978 36.9513C53.1171 36.2 53.7404 35.1702 54.432 34.9903C55.2339 34.7816 55.2339 34.7817 55.3149 33.7494L53.8416 35.2298C53.7345 35.0146 53.6902 34.7981 53.609 34.7832C53.0794 34.686 52.9297 34.3595 52.7705 33.8683C52.5924 33.3181 52.6285 32.9963 53.2157 32.8526C53.4218 32.8021 53.6239 32.7359 53.8975 32.6567L55.0363 33.5198L55.1554 33.4248C54.9868 33.1599 54.8258 32.8898 54.6478 32.6315C54.425 32.3079 54.3973 32.0529 54.7837 31.8099C55.0597 31.6001 55.3181 31.3681 55.5563 31.1162L57.0618 32.5297L55.8089 33.4144L55.8929 33.5412C56.1056 33.4536 56.318 33.3662 56.5301 33.279C56.4755 33.3266 56.4287 33.3824 56.3913 33.4445C56.3311 33.5927 56.2897 33.7487 56.2408 33.9016C56.4057 33.8905 56.5699 33.8705 56.7326 33.8414C56.8531 33.8037 56.97 33.7555 57.0819 33.6972L56.9756 33.5044L56.5143 33.2925Z" fill="#EA644D"/>
<path d="M29.4838 2.46865C29.169 2.63053 28.986 2.80441 28.8649 2.76869C28.6694 2.67079 28.4932 2.53847 28.3447 2.37809C28.498 2.25921 28.6562 2.03973 28.8032 2.04705C28.9848 2.05605 29.157 2.25353 29.4838 2.46865Z" fill="#52341C"/>
<path d="M24.6158 14.7097C24.7622 14.6907 24.9099 14.6834 25.0574 14.6879C25.3827 14.6987 25.7033 14.7686 26.0036 14.8941L24.6862 14.1299C24.2446 13.9469 23.7896 13.7985 23.3251 13.6859C23.1802 13.5474 23.0245 13.4209 22.8593 13.3074C22.7485 13.2276 22.6675 13.1132 22.6288 12.9823C22.6086 12.7362 22.6053 12.4889 22.6191 12.2423C22.5779 12.2229 22.5391 12.2035 22.4978 12.1841C22.3595 12.4121 22.2188 12.6402 22.0805 12.8707C21.8379 12.4825 21.6123 12.6135 21.3866 12.9556C21.1756 13.271 20.9427 13.5743 20.785 13.7926C21.0737 14.1954 21.3721 14.6175 21.6705 15.0397C21.6341 15.0736 21.5953 15.1052 21.5565 15.1391C21.2437 14.9629 20.94 14.771 20.6467 14.5641C20.4364 14.4142 20.1899 14.3232 19.9327 14.3006C19.6755 14.278 19.4169 14.3246 19.1837 14.4356C18.7276 14.6199 19.1036 15.1488 19.0964 15.5297C19.0818 16.0878 19.3802 16.18 19.8145 16.1969C19.9624 16.2122 20.1091 16.2373 20.2536 16.2721C19.8752 16.9199 19.5258 17.5167 19.1376 18.1767C19.9382 18.2786 20.5302 18.5357 20.7486 19.3291C20.7922 19.3072 20.8383 19.283 20.8844 19.2612C21.03 18.8099 21.178 18.3586 21.343 17.854C21.4352 18.0408 21.5031 18.1767 21.6147 18.3974C21.7336 18.0141 21.8258 17.7181 21.9155 17.4221C21.9738 17.4003 22.0296 17.3785 22.0854 17.3591C22.214 18.2543 22.6701 18.822 23.3882 18.9676C23.6136 18.7918 23.8493 18.6298 24.0942 18.4824C24.6377 18.2034 24.6959 17.9146 24.2835 17.4391C24.1864 17.3275 24.0505 17.2135 24.0287 17.0825C23.9701 16.8083 23.9685 16.5251 24.0239 16.2503C24.0433 16.1727 24.4193 16.2163 24.6134 16.1508C24.7824 16.1045 24.9295 15.9996 25.0283 15.8548C25.2297 15.4278 25.0841 15.0445 24.6158 14.7097ZM20.9912 16.556L20.8238 16.4832C20.8747 16.0781 20.9257 15.6729 20.9766 15.2653C21.0348 15.2653 21.0931 15.2677 21.1513 15.2677C21.2338 15.5686 21.3163 15.8718 21.4085 16.2091C21.2799 16.3158 21.1343 16.4347 20.9912 16.556ZM22.0466 15.0712C22.2504 14.8528 22.4469 14.6418 22.7744 14.29C22.8811 14.7194 22.9588 15.0324 23.0364 15.3478C22.983 15.372 22.9272 15.3963 22.8739 15.423C22.6118 15.3114 22.3498 15.1998 22.0466 15.0712ZM23.3227 16.9151C22.9806 16.6846 22.6337 16.459 22.3013 16.2139C22.2649 16.1897 22.2795 16.0101 22.3231 15.981C22.4032 15.9252 22.5633 15.8767 22.6167 15.9203C22.9248 16.1605 23.2111 16.4298 23.5047 16.6894L23.3227 16.9151ZM23.9608 14.4453H23.0777C23.1068 14.2973 23.1359 14.1517 23.1626 14.0037C23.4367 14.0571 23.7109 14.108 23.985 14.1614C23.9778 14.256 23.968 14.3507 23.9608 14.4453Z" fill="#EA644D"/>
<path d="M26.0038 14.8942L25.0576 14.688C25.3829 14.6989 25.7035 14.7687 26.0038 14.8942Z" fill="white"/>
<path d="M35.9633 11.6962C35.7668 11.6186 35.5678 11.5434 35.3301 11.4512C35.3802 11.2939 35.4199 11.1334 35.4489 10.9708C35.4601 10.8142 35.4617 10.657 35.4538 10.5002C35.1876 10.5097 34.9211 10.4934 34.658 10.4516C34.0151 10.2794 33.6487 10.5535 33.6778 11.2256C33.6827 11.3396 33.6924 11.4536 33.6997 11.5943C33.542 11.5531 33.4328 11.5288 33.3285 11.4949C33.1368 11.4342 32.9476 11.3639 32.7559 11.2984C32.862 11.0882 33.0013 10.8965 33.1684 10.7306C33.4983 10.5026 33.6536 10.2988 33.3091 10.0052C33.4886 9.85965 33.6366 9.74077 33.787 9.61946C32.9039 9.9664 33.1853 8.90375 32.6419 8.81641C32.3629 9.0663 32.0475 9.48602 31.5453 9.19731C31.4676 9.62674 31.407 9.97611 31.3463 10.3279C31.39 10.7549 32.1494 10.8374 31.9165 11.6404C31.3973 11.1382 30.9412 10.6967 30.4292 10.2042C30.3807 10.4613 30.3492 10.6263 30.3079 10.8422C30.1699 10.7378 30.0266 10.6406 29.8785 10.5511C29.7572 10.4856 29.5825 10.3813 29.4976 10.4225C29.4459 10.4698 29.4058 10.5283 29.3801 10.5934C29.3545 10.6586 29.344 10.7288 29.3496 10.7986C29.386 11.2644 29.4563 11.7302 29.5243 12.2809C29.7378 12.1111 29.8688 12.0044 30.0168 11.8855C30.1624 12.0602 30.2982 12.2227 30.4414 12.3925C30.257 12.4969 30.109 12.5818 29.8518 12.7298C30.2036 12.8462 30.4317 12.9214 30.6427 12.9918C30.388 13.625 29.3811 13.7949 29.7548 14.8454C29.7548 14.8454 29.272 15.8522 29.4103 16.272C29.5036 16.4667 29.6319 16.6427 29.7887 16.7911C30.1537 17.0142 30.4698 17.3088 30.718 17.6573L30.7301 17.6694L31.4458 17.6961L32.0766 16.9149L31.7976 15.3427C31.9941 14.7047 32.1518 14.1879 32.3556 13.5304C32.8942 14.1297 32.9815 15.0734 33.821 15.4179C33.8622 15.1414 33.8962 14.9133 33.9326 14.678C34.134 14.6513 34.3062 14.6295 34.4955 14.6052V14.2097C34.6823 14.3213 34.8303 14.4087 34.9928 14.5081C35.0656 13.9259 35.0826 13.9016 34.4906 13.5061C34.0054 13.181 34.2989 12.8098 34.3814 12.4726C34.4227 12.3052 34.6313 12.179 34.7623 12.0335C34.8132 12.0674 34.8642 12.1014 34.9152 12.1354V13.0525C34.9322 12.3368 35.2743 11.9098 35.9633 11.6962ZM31.3512 12.5333C31.1522 12.5066 30.9921 12.196 30.815 12.0116C30.8538 11.9316 30.8951 11.8515 30.9339 11.7714L32.0475 11.9825C32.0572 12.0602 32.0669 12.1402 32.0766 12.2203C31.8315 12.3343 31.5744 12.5624 31.3512 12.5333ZM32.6128 12.4969C33.0689 11.8539 33.263 11.82 33.9374 12.2664C33.5638 12.8026 33.0931 12.5721 32.6128 12.4969Z" fill="#EA644D"/>
<path d="M35.4221 20.057L34.9102 19.6737C34.9102 19.6737 34.9174 19.5645 34.9417 19.4141C34.9869 19.4487 35.0247 19.4921 35.0526 19.5417C35.0806 19.5914 35.0981 19.6462 35.1042 19.7028C35.1358 19.8362 35.3081 19.9453 35.4221 20.057Z" fill="#EA644D"/>
<path d="M36.4799 18.2131C36.4022 18.1613 36.3182 18.1197 36.23 18.0893C36.2792 18.0832 36.3291 18.0917 36.3735 18.1137C36.4179 18.1357 36.4549 18.1702 36.4799 18.2131Z" fill="#EA644D"/>
<path d="M36.8507 18.679C36.8329 18.6743 36.8162 18.666 36.8017 18.6548C36.7871 18.6435 36.7749 18.6295 36.7658 18.6135C36.7522 18.5709 36.7352 18.5295 36.7148 18.4897C36.7772 18.5386 36.8243 18.6043 36.8507 18.679Z" fill="#EA644D"/>
<path d="M37.4041 20.1393L37.2124 20.0422C37.2561 20.0277 37.3216 20.0738 37.4041 20.1393Z" fill="#EA644D"/>
<path d="M38.2583 19.5572C38.1597 19.5074 38.0779 19.4298 38.0229 19.334C38.2292 19.3728 38.3966 19.4213 38.2583 19.5572Z" fill="#EA644D"/>
<path d="M38.8698 21.4688L38.7437 21.5342V21.5318C38.7849 21.5124 38.8262 21.4905 38.8698 21.4688Z" fill="#EA644D"/>
<path d="M41.6987 22.1145C41.6696 22.1508 41.6405 22.1872 41.6114 22.2212L41.5386 22.1921L41.5944 22.0684C41.6308 22.0829 41.6647 22.0974 41.6987 22.1145Z" fill="#EA644D"/>
<path d="M54.1375 26.0809C54.1428 26.1311 54.1343 26.1818 54.1129 26.2276C54.0915 26.2733 54.0581 26.3123 54.0162 26.3405V26.3429C53.9674 26.3756 53.91 26.3934 53.8512 26.3939C53.7971 26.3946 53.744 26.3794 53.6984 26.3502L53.0215 25.9208C53.0243 25.9368 53.0259 25.953 53.0263 25.9693L52.6527 25.7558C52.6149 25.7353 52.5831 25.7051 52.5605 25.6685C52.5832 25.5068 52.584 25.3427 52.563 25.1808C52.5625 25.1733 52.5609 25.1659 52.5581 25.159C52.5875 25.1324 52.6221 25.1122 52.6596 25.0996C52.6972 25.0871 52.737 25.0825 52.7765 25.0862L53.8197 25.1784C53.8584 25.1817 53.896 25.1929 53.9302 25.2113C53.9644 25.2296 53.9945 25.2548 54.0186 25.2851C54.0543 25.3297 54.0762 25.3836 54.0817 25.4404L54.1375 26.0809Z" fill="#52341C"/>
<path d="M52.5627 25.181C52.5837 25.3429 52.5829 25.507 52.5603 25.6687C52.5427 25.6472 52.5295 25.6225 52.5215 25.5959L52.4778 25.4624C52.46 25.4096 52.4581 25.3527 52.4723 25.2988C52.4866 25.2449 52.5163 25.1963 52.5579 25.1592C52.5606 25.1662 52.5623 25.1735 52.5627 25.181Z" fill="#EA644D"/>
<path d="M53.6984 26.3503L53.0263 25.9694C53.0259 25.9531 53.0243 25.9369 53.0215 25.9209L53.6984 26.3503Z" fill="#EA644D"/>
<path d="M42.6181 23.3662L42.7321 22.6868L41.6112 22.221C41.6403 22.1871 41.6695 22.1507 41.6986 22.1143C41.6646 22.0973 41.6306 22.0827 41.5942 22.0682L41.7859 21.9978L42.0868 21.8062L42.7831 22.4733L42.6181 23.3662Z" fill="#52341C"/>
<path d="M45.0734 25.4137L45.0054 25.6441L44.9132 25.3506L44.707 24.9624L45.0734 25.4137Z" fill="#52341C"/>
<path d="M51.5534 24.9456C51.5194 24.9092 51.386 24.7685 51.2889 24.7612C51.2792 24.7539 51.2719 24.7442 51.2622 24.7369C51.105 24.5631 50.9236 24.4128 50.7236 24.2905L51.1458 24.4191L51.5534 24.9456Z" fill="#52341C"/>
<path d="M51.2891 24.761C51.2455 24.7562 51.2115 24.7756 51.1921 24.8362L51.1242 25.0643L50.8209 24.8362L50.5273 25.1808H50.2168L50.1052 26.0299C50.0204 25.942 49.919 25.8719 49.8068 25.8237C48.6592 25.5519 47.5116 25.2923 46.5193 25.0643C46.1457 25.2705 45.7866 25.4719 45.43 25.6684C45.3111 25.7339 44.8259 25.4805 44.707 25.546L44.5266 25.3034L45.0054 25.6443L45.0733 25.4138L44.707 24.9625L44.4207 24.4191L44.2388 24.3827L43.5691 24.2468L43.3896 24.2104L43.0427 23.7737L42.6181 23.3661L42.7831 22.4733L42.0868 21.8061L41.7859 21.9978L41.5942 22.0682C41.4972 22.0221 41.3977 21.9784 41.2983 21.9323C40.6796 21.646 40.0585 21.3597 39.5466 21.1244C39.4546 20.9417 39.4025 20.7416 39.3937 20.5373C39.3937 20.2413 38.5567 20.1636 37.9987 20.0399C37.4407 19.9162 38.023 19.79 38.2583 19.5571C38.3527 19.6081 38.4508 19.6519 38.5519 19.6881C39.4617 20.0423 40.3957 20.3335 41.3055 20.6901C41.3599 20.7235 41.421 20.7443 41.4844 20.751C41.5478 20.7576 41.612 20.75 41.672 20.7285C41.7321 20.7071 41.7866 20.6725 41.8315 20.6272C41.8764 20.5819 41.9106 20.5271 41.9315 20.4669C42.1049 20.126 42.3346 19.8168 42.6108 19.5522C42.5841 19.8798 42.5696 20.2097 42.5283 20.5373C42.4936 20.6879 42.5167 20.846 42.5931 20.9804C42.6695 21.1148 42.7936 21.2155 42.9408 21.2627C45.3718 22.4224 47.8222 23.5263 50.4424 24.2032L50.7238 24.2905C50.9238 24.4128 51.1052 24.5631 51.2624 24.7369C51.2721 24.7441 51.2794 24.7537 51.2891 24.761Z" fill="#52341C"/>
<path d="M41.5943 22.068L41.3857 22.1432L41.2983 21.9321C41.3978 21.9782 41.4973 22.0219 41.5943 22.068Z" fill="#52341C"/>
<path d="M44.707 24.9627L44.2388 24.3828L44.4207 24.4192L44.707 24.9627Z" fill="#52341C"/>
<path d="M44.4053 25.4026L44.4999 25.0923L44.4053 25.4026Z" fill="#52341C"/>
<path d="M45.8197 24.921C45.8197 24.6288 44.9934 24.5522 44.4425 24.43C43.8917 24.3078 44.4665 24.1833 44.6988 23.9534C44.6015 23.9042 44.5207 23.8276 44.4665 23.733C44.3316 23.7149 44.199 23.682 44.0713 23.6349C43.8606 23.5199 43.7767 24.2528 43.5707 24.0684C43.3624 23.8864 43.3888 23.587 43.3408 23.2445C43.3346 23.1911 43.3242 23.1382 43.3097 23.0864C43.2921 23.0817 43.2757 23.0736 43.2613 23.0625C43.2469 23.0514 43.2348 23.0375 43.2259 23.0217C43.2124 22.9797 43.1956 22.9388 43.1756 22.8995C43.0899 22.8158 43.0122 22.7244 42.9432 22.6265C42.8666 22.5754 42.7837 22.5344 42.6966 22.5044C42.4307 22.5284 42.1026 22.9068 41.8296 22.9882C41.5853 23.0625 41.4727 23.5175 41.4248 23.8121C41.4694 23.8462 41.5067 23.8891 41.5343 23.9381C41.5618 23.9871 41.5792 24.0412 41.5852 24.0971C41.6164 24.2288 41.7865 24.3366 41.899 24.4468C42.0595 24.6024 42.2247 24.7486 42.3876 24.8994L42.2726 25.0935C42.0427 24.9738 41.7266 24.9116 41.6044 24.7248C41.2595 24.2002 40.7206 24.1811 40.2129 24.102C40.1313 24.0869 40.0471 24.0937 39.969 24.1218C39.8909 24.1498 39.8217 24.1981 39.7684 24.2617C39.715 24.3252 39.6795 24.4018 39.6655 24.4836C39.6514 24.5654 39.6593 24.6494 39.6884 24.7272C39.9087 25.3331 39.8895 26.1163 40.7302 26.3222C40.7422 26.3247 40.7494 26.351 40.7949 26.4205C40.6727 27.0001 39.7914 27.4671 40.4164 28.2694C40.6918 28.2599 41.0583 28.212 41.0176 28.7532C42.1744 28.7389 42.0498 27.3929 42.9169 27.0622C42.9643 27.2722 43.0309 27.4775 43.1156 27.6754C43.2007 27.8742 43.3455 28.0416 43.53 28.1544C43.8515 28.2779 44.194 28.3373 44.5383 28.3292C44.8976 28.3172 44.9598 28.013 44.9694 27.6874C44.991 27.0095 44.8209 26.7629 44.112 26.4491C44.4473 26.2766 44.7946 26.097 45.1754 25.903H45.1778C45.2185 25.8839 45.2593 25.8623 45.3023 25.8408L45.9706 25.5006C45.8797 25.3203 45.8283 25.1227 45.8197 24.921ZM42.2463 26.0874C41.8894 26.1161 41.535 26.1448 41.1805 26.1736C41.1542 26.109 41.1278 26.0443 41.1038 25.9795C41.3194 25.8167 41.5206 25.5652 41.7601 25.5197C41.9134 25.4933 42.1217 25.7687 42.3061 25.9077C42.287 25.9676 42.2654 26.0275 42.2463 26.0874ZM43.5133 26.3605C43.3494 26.2371 43.2 26.0957 43.0678 25.9389C43.1827 25.8551 43.3145 25.685 43.4103 25.7042C43.5684 25.7329 43.7025 25.8862 43.9372 26.0491C43.7264 26.2095 43.554 26.3892 43.5133 26.3605ZM43.5252 25.4143C43.372 25.2107 43.2211 25.0095 43.0678 24.8059C43.2534 24.6602 43.4541 24.535 43.6666 24.4323C43.7096 24.4179 43.7743 24.4635 43.8558 24.5281L43.8582 24.5305C43.9229 24.5833 43.9924 24.6455 44.0714 24.6982C43.8534 24.9833 43.6881 25.1987 43.5252 25.4143Z" fill="#EA644D"/>
<path d="M79.9998 33.2356C79.9004 33.3253 79.7985 33.5 79.7063 33.4952C79.0318 33.4636 78.3307 33.4927 77.6926 33.3156C76.8459 33.0827 76.0549 32.845 75.1548 33.0851C74.2259 33.3732 73.2289 33.3544 72.3114 33.0318C72.8621 33.551 73.4145 34.0726 73.9684 34.5966C72.6971 35.4118 70.3972 35.5258 69.4388 33.5364C69.269 33.187 69.0798 33.0245 68.6746 33.0876C68.3815 33.1259 68.0842 33.1169 67.7939 33.0609C67.4576 32.9851 67.1085 32.986 66.7725 33.0633L66.7434 33.073L66.6512 33.1021L66.6245 33.1118V32.2869L66.7798 32.1438C66.872 32.1414 66.9326 32.0807 66.9763 31.9618L67.0661 31.923C67.0395 31.9118 67.0173 31.8922 67.003 31.8672C67.0151 31.8114 67.0272 31.7483 67.0369 31.6731L67.1801 31.1661L67.3378 30.7075L67.7357 30.4382L67.7454 30.4358C67.8342 30.4205 67.9207 30.3936 68.0026 30.3557C68.512 30.1131 68.9997 29.8244 69.5965 29.4993C69.548 30.6711 69.5432 31.7047 68.9366 32.743C69.2836 32.743 69.6305 32.7527 69.975 32.7406C70.5088 32.7188 71.0425 32.6509 71.5763 32.6606C72.0105 32.6703 72.2168 32.5295 72.3648 32.0953C72.867 30.6008 73.8981 29.657 75.5576 29.3101C75.3635 30.2805 75.1815 31.2049 74.9874 32.1778C75.7905 32.236 76.6542 32.2942 77.5155 32.3694C77.5796 32.3698 77.6431 32.3829 77.7022 32.4079C77.7614 32.4329 77.815 32.4693 77.86 32.515C78.1899 33.0851 78.731 32.9687 79.238 32.976C79.3841 32.9588 79.5318 32.9613 79.6772 32.9832C79.7979 33.0489 79.907 33.1342 79.9998 33.2356Z" fill="#52341C"/>
<path d="M67.037 31.6733C67.0273 31.7486 67.0152 31.8116 67.0031 31.8674C66.9546 31.7825 67.037 31.6733 67.037 31.6733Z" fill="#EA644D"/>
<path d="M68.0028 30.356C67.9209 30.3938 67.8345 30.4207 67.7456 30.436L68.0028 30.356Z" fill="#EA644D"/>
<path d="M62.2287 30.7926C62.2403 30.864 62.2676 30.932 62.3088 30.9915C62.3088 30.9915 61.8502 30.7538 61.6391 30.9915C61.5324 31.108 61.5178 30.9624 61.5203 30.7513C61.6805 30.7961 61.8518 30.777 61.9982 30.698C62.0492 30.6713 62.2214 30.7464 62.2287 30.7926Z" fill="#EA644D"/>
<path d="M62.4203 29.3807C62.3087 29.3758 62.1995 29.3686 62.0928 29.3589C62.413 29.0313 62.4203 29.3807 62.4203 29.3807Z" fill="#EA644D"/>
<path d="M66.9763 31.9619C66.9326 32.0808 66.872 32.1414 66.7798 32.1439L66.9739 31.9619H66.9763Z" fill="#52341C"/>
<path d="M20.4381 51.5083C19.8388 51.4696 19.4134 51.4019 19.1621 51.3053C18.9301 51.2086 18.7174 51.0733 18.5241 50.8993C18.3501 50.7253 18.0504 50.5029 17.6251 50.2323V50.1743C17.6251 50.0776 17.6734 50.0003 17.7701 49.9423C17.8861 49.9036 17.9828 49.8843 18.0601 49.8843C18.1568 50.0196 18.2824 50.1163 18.4371 50.1743C18.6111 50.2323 18.7754 50.2709 18.9301 50.2903C19.2201 50.4063 19.4714 50.4643 19.6841 50.4643C19.8388 50.4643 19.9838 50.4449 20.1191 50.4063C20.2544 50.3869 20.4091 50.3676 20.5831 50.3483C20.6218 50.4256 20.6894 50.4449 20.7861 50.4063C20.8828 50.3869 20.9118 50.3483 20.8731 50.2903C21.1244 50.1163 21.3758 49.9423 21.6271 49.7683C21.8978 49.6136 22.1394 49.4396 22.3521 49.2463C22.3134 49.2463 22.3038 49.2173 22.3231 49.1593C22.5358 49.0239 22.7194 48.7823 22.8741 48.4343C23.0481 48.1056 23.1931 47.7479 23.3091 47.3613C23.4444 46.9746 23.5508 46.6653 23.6281 46.4333C23.6668 46.4719 23.7054 46.4913 23.7441 46.4913C23.8021 46.4913 23.8311 46.4429 23.8311 46.3463C23.8311 46.2496 23.7924 46.1626 23.7151 46.0853C23.7731 45.8726 23.8311 45.6696 23.8891 45.4763C23.9664 45.2636 24.0631 45.0703 24.1791 44.8963C24.1598 44.8963 24.1501 44.8963 24.1501 44.8963C24.1308 44.8963 24.1404 44.7996 24.1791 44.6063C24.2371 44.4129 24.2564 44.2583 24.2371 44.1423L24.4111 44.0553L24.4691 43.0693L24.7011 42.6923V41.9383C24.7784 41.9576 24.8461 41.8899 24.9041 41.7353C24.9621 41.5806 24.9138 41.5516 24.7591 41.6483L24.9331 40.7203L25.1071 40.6623H24.9331L25.2231 39.9663H25.0491C25.0878 39.6376 25.1361 39.3089 25.1941 38.9803C25.2521 38.6323 25.2811 38.2843 25.2811 37.9363C25.3778 38.0523 25.4358 38.0136 25.4551 37.8203C25.4744 37.6269 25.4744 37.3949 25.4551 37.1243C25.4551 36.8536 25.4551 36.6796 25.4551 36.6023H25.6291L25.6581 36.4863C25.6581 36.3123 25.6098 36.1769 25.5131 36.0803L25.6871 33.9053H25.7451C25.8031 33.9053 25.8321 33.8763 25.8321 33.8183C25.8321 33.7216 25.7934 33.6056 25.7161 33.4703C25.6388 33.3349 25.7064 33.3446 25.9191 33.4993L25.7451 32.8033C25.7838 32.8226 25.8514 32.8323 25.9481 32.8323C26.0448 32.8129 26.0738 32.7646 26.0351 32.6873L25.8611 32.5713L25.9771 32.5133L25.8031 32.0783C25.8031 32.0589 25.8031 32.0493 25.8031 32.0493V32.0783C25.8224 32.0783 25.8514 32.0783 25.8901 32.0783C25.9481 32.0783 25.9771 32.0493 25.9771 31.9913C25.9771 31.8753 25.9191 31.7399 25.8031 31.5853V31.4983C25.8031 31.3629 25.8611 31.2856 25.9771 31.2663C26.0931 31.2469 26.1414 31.1986 26.1221 31.1213L25.8611 31.1793L25.7451 30.9473V31.0633L25.1651 32.2233C25.1071 32.1653 25.0781 32.0879 25.0781 31.9913C25.0781 31.7786 25.1458 31.6433 25.2811 31.5853V30.7733C24.9524 30.6959 24.5754 30.5896 24.1501 30.4543C23.7248 30.3189 23.3478 30.2706 23.0191 30.3093L22.9321 30.1353H22.9031C22.8838 30.1353 22.8451 30.1449 22.7871 30.1643C22.7291 30.1836 22.6808 30.1836 22.6421 30.1643L22.6131 30.1353C22.4971 30.0193 22.3424 29.9613 22.1491 29.9613C21.9751 29.9419 21.8108 29.9323 21.6561 29.9323L21.6271 29.7873L20.9021 29.7003L20.8731 29.5553H20.0321L19.8001 29.3813H19.3361V29.3523C19.3361 29.2556 19.2781 29.1976 19.1621 29.1783C19.0461 29.1396 18.9688 29.1686 18.9301 29.2653L18.4081 29.0913L18.2921 28.8593L17.7121 28.9173C17.6928 28.8979 17.6734 28.8399 17.6541 28.7433C17.6541 28.6466 17.6444 28.5983 17.6251 28.5983C17.5864 28.5983 17.5574 28.6853 17.5381 28.8593L17.1321 28.7143V28.8303C17.1321 29.0043 17.2094 29.1009 17.3641 29.1203C17.5188 29.1396 17.6348 29.2363 17.7121 29.4103L17.2481 29.4683C17.1128 29.3136 16.8904 29.2169 16.5811 29.1783C16.2911 29.1396 16.0591 29.1106 15.8851 29.0913C15.9044 29.0719 15.9141 29.0429 15.9141 29.0043C15.9141 28.9076 15.8464 28.8496 15.7111 28.8303C15.5951 28.8109 15.5468 28.8496 15.5661 28.9463L14.8991 28.6563V28.4243L14.4931 28.5693C14.4351 28.5306 14.3674 28.4726 14.2901 28.3953C14.2128 28.3179 14.1644 28.3179 14.1451 28.3953L13.3621 27.7863L13.1591 27.9023L12.4631 27.4383L12.6371 26.7423C12.7531 26.7423 12.8208 26.7229 12.8401 26.6843C12.8594 26.6263 12.8111 26.5683 12.6951 26.5103L13.4491 25.5823L13.5941 25.6983C13.7488 25.6209 13.8261 25.6016 13.8261 25.6403C13.8261 25.6403 13.8068 25.6403 13.7681 25.6403C13.7488 25.6403 13.7198 25.6499 13.6811 25.6693L14.1451 25.7563L14.2611 25.8723C14.2998 25.8529 14.3191 25.8143 14.3191 25.7563C14.3384 25.6983 14.3578 25.6693 14.3771 25.6693C14.3964 25.6499 14.4641 25.6789 14.5801 25.7563C14.6961 25.8336 14.6478 25.8723 14.4351 25.8723L15.9431 26.2203L15.7981 26.2783L17.0161 26.5103L17.2481 26.8873L17.7701 26.7423L18.9301 27.4093C18.9688 27.2933 19.0461 27.2449 19.1621 27.2643C19.2781 27.2643 19.3168 27.3126 19.2781 27.4093H19.7421C19.7614 27.5253 19.8291 27.5929 19.9451 27.6123C20.0804 27.6316 20.1868 27.6219 20.2641 27.5833C20.4188 27.7186 20.6121 27.8153 20.8441 27.8733C21.0761 27.9313 21.2888 27.9603 21.4821 27.9603L21.5691 28.1923C21.6658 28.1343 21.7431 28.1053 21.8011 28.1053C21.9751 28.1053 22.1394 28.1729 22.2941 28.3083C22.4681 28.4436 22.6324 28.5499 22.7871 28.6273L22.8451 28.3953C23.3284 28.4919 23.7828 28.6466 24.2081 28.8593C24.6528 29.0526 25.1264 29.1589 25.6291 29.1783C25.7644 28.5403 25.8514 27.9989 25.8901 27.5543C25.9481 27.1096 26.0931 26.7713 26.3251 26.5393C26.5764 26.3073 27.0404 26.2009 27.7171 26.2203V26.4523L28.1811 26.2783L28.4711 26.5103L28.5581 27.8733L28.3841 27.9603L28.2391 28.9463C28.2584 28.9269 28.2778 28.9173 28.2971 28.9173C28.3551 28.9173 28.3938 28.9559 28.4131 29.0333C28.4518 29.0913 28.4518 29.1396 28.4131 29.1783C28.3358 29.2363 28.2681 29.2653 28.2101 29.2653H28.1811C28.1618 29.2653 28.1521 29.2749 28.1521 29.2943C28.1521 29.3136 28.1618 29.3716 28.1811 29.4683C28.2198 29.5649 28.2681 29.7196 28.3261 29.9323L29.0221 30.3673L29.1671 30.1353L30.3851 30.3963V30.5123C30.3851 30.6863 30.4141 30.7733 30.4721 30.7733C30.4914 30.7733 30.4914 30.6766 30.4721 30.4833L30.9941 30.7733C31.0521 30.7733 31.0618 30.7443 31.0231 30.6863C30.9844 30.6283 30.9554 30.5993 30.9361 30.5993C31.1874 30.6186 31.4388 30.6669 31.6901 30.7443C31.9414 30.8216 32.1928 30.9086 32.4441 31.0053L32.3281 31.1213L33.2561 31.0633L33.5461 31.2953L35.0251 31.4113C34.9091 31.4886 34.9284 31.5466 35.0831 31.5853C35.2378 31.6046 35.4214 31.6239 35.6341 31.6433C35.8468 31.6433 35.9724 31.6433 36.0111 31.6433L36.2431 31.5273L37.5191 31.8173V31.6433L38.1571 31.7593C38.2924 31.6626 38.4471 31.5949 38.6211 31.5563C38.8144 31.5176 38.9884 31.4886 39.1431 31.4693V31.4403C39.1431 31.3823 39.1721 31.3339 39.2301 31.2953C39.2881 31.2566 39.3364 31.2566 39.3751 31.2953L39.8681 30.9473C39.8681 30.5413 39.8198 30.1546 39.7231 29.7873C39.6458 29.4006 39.5878 29.0139 39.5491 28.6273L39.1431 28.3373L39.3751 28.2503L40.0131 28.9173L39.8971 28.9463C40.1291 28.9463 40.2934 29.0719 40.3901 29.3233C40.5061 29.5553 40.5834 29.8163 40.6221 30.1063C40.6801 30.3963 40.7284 30.6186 40.7671 30.7733L40.6221 30.8893L40.4771 31.7013H40.1871C40.2258 31.8559 40.1581 32.0009 39.9841 32.1363C39.8294 32.2716 39.6361 32.3876 39.4041 32.4843C39.1914 32.5616 39.0271 32.6196 38.9111 32.6583C38.9304 32.6389 38.9401 32.6293 38.9401 32.6293C38.9401 32.6099 38.9401 32.6003 38.9401 32.6003C38.9401 32.4649 38.8821 32.3973 38.7661 32.3973C38.7468 32.3973 38.7081 32.4069 38.6501 32.4263C38.6114 32.4456 38.5631 32.4746 38.5051 32.5133L38.1571 32.7453C38.0411 32.7066 37.9154 32.6486 37.7801 32.5713C37.6641 32.4939 37.5578 32.4939 37.4611 32.5713C37.3644 32.6486 37.2098 32.7066 36.9971 32.7453C36.8038 32.7646 36.5718 32.7743 36.3011 32.7743C35.9531 32.7743 35.5954 32.7646 35.2281 32.7453C34.8801 32.7066 34.6094 32.6873 34.4161 32.6873L34.3581 32.4553L33.6621 32.3973L33.5461 32.5133L32.5601 32.3973V32.1653H32.5311C32.4924 32.1653 32.4344 32.1846 32.3571 32.2233C32.2798 32.2619 32.2701 32.3006 32.3281 32.3393L31.7481 32.0493L31.5741 32.1653L30.5301 31.9333C30.5494 31.8946 30.5591 31.8559 30.5591 31.8173C30.5591 31.7786 30.5398 31.7593 30.5011 31.7593C30.4431 31.7593 30.3658 31.7786 30.2691 31.8173C30.1918 31.8366 30.1048 31.8463 30.0081 31.8463C29.8728 31.8463 29.7954 31.7786 29.7761 31.6433H29.2541C29.2541 31.6819 29.2444 31.7013 29.2251 31.7013C29.1864 31.7013 29.1284 31.6626 29.0511 31.5853C28.9931 31.5079 28.9544 31.4693 28.9351 31.4693C28.8964 31.4499 28.8384 31.4403 28.7611 31.4403C28.6838 31.4403 28.5968 31.4403 28.5001 31.4403C28.4034 31.4403 28.3068 31.4403 28.2101 31.4403C28.1134 31.4403 28.0264 31.4306 27.9491 31.4113V31.4693C28.0651 31.6046 28.1231 31.7593 28.1231 31.9333C28.1231 32.1266 28.0651 32.3006 27.9491 32.4553C27.9684 32.5133 27.9781 32.5809 27.9781 32.6583C27.9781 32.7163 27.9781 32.7743 27.9781 32.8323C27.9781 33.1416 27.9394 33.4896 27.8621 33.8763C27.8041 34.2436 27.7558 34.5723 27.7171 34.8623H27.5721L27.6301 34.8913L27.6591 35.3843C27.5818 35.3649 27.5334 35.4036 27.5141 35.5003C27.5141 35.5969 27.5528 35.6453 27.6301 35.6453L27.3691 36.3123L27.4851 36.6023L26.9631 38.5163L27.1371 38.5743L27.0211 39.2703L26.7891 39.4443L26.9051 39.9663L26.7311 40.0243L26.7891 40.0823L26.6731 41.0103C26.5378 41.0103 26.4701 41.0586 26.4701 41.1553C26.4701 41.2133 26.5184 41.2906 26.6151 41.3873L26.3251 42.5473L26.1511 42.6053L26.3251 42.7793C26.1318 42.9726 26.0061 43.2433 25.9481 43.5913C25.9094 43.9393 25.8804 44.2486 25.8611 44.5193H25.8031C25.7258 44.7126 25.6098 44.9833 25.4551 45.3313C25.3004 45.6793 25.1361 46.0563 24.9621 46.4623C24.8074 46.8489 24.6721 47.2163 24.5561 47.5643C24.4401 47.8929 24.3724 48.1443 24.3531 48.3183L24.0631 48.4633L24.1211 48.6083L23.7731 49.2173L23.5991 49.1593C23.5218 49.2366 23.4734 49.3333 23.4541 49.4493C23.4541 49.5653 23.4348 49.6716 23.3961 49.7683H23.3671C23.3671 49.7489 23.3574 49.6813 23.3381 49.5653C23.3188 49.4493 23.2898 49.4106 23.2511 49.4493C23.0771 49.6619 22.9998 49.8843 23.0191 50.1163L22.6421 50.4063L22.7291 50.4643L22.2651 50.8993H22.1201L21.8011 51.1313C21.8398 51.0539 21.7818 51.0346 21.6271 51.0733C21.4724 51.1313 21.2888 51.1893 21.0761 51.2473C20.8634 51.3246 20.6701 51.3729 20.4961 51.3923L20.4381 51.5083ZM25.9191 31.0633L26.1221 31.1213L26.1511 31.0053C26.1511 30.9279 26.1028 30.9183 26.0061 30.9763C25.9288 31.0343 25.8998 31.0633 25.9191 31.0633ZM36.0689 46.5493C35.9335 46.5686 35.7692 46.5106 35.5759 46.3753C35.3825 46.2206 35.2472 46.0949 35.1699 45.9983L35.1989 45.7373C35.1795 45.7373 35.1602 45.7469 35.1409 45.7663C35.1215 45.7856 35.1022 45.7953 35.0829 45.7953L35.1989 45.0703C35.2375 45.0703 35.2472 45.0219 35.2279 44.9253C35.2279 44.8286 35.2279 44.7706 35.2279 44.7513L35.1989 44.7223L35.2279 44.2293H35.3439L35.1989 44.0843L35.2569 43.6493L35.3149 43.6203L35.2569 43.5333L35.3149 43.2143L35.4309 43.1563C35.4309 43.1176 35.4115 43.0789 35.3729 43.0403C35.3535 42.9823 35.3439 42.9339 35.3439 42.8953C35.3439 42.8179 35.4115 42.7116 35.5469 42.5763L35.4309 42.5183L35.6049 42.3733L35.4599 42.3153C35.5565 42.2379 35.5759 42.1703 35.5179 42.1123C35.4792 42.0349 35.4889 41.9576 35.5469 41.8803L35.7499 41.5903L35.6049 41.4453L35.6339 41.2713C35.7305 41.2713 35.7789 41.2423 35.7789 41.1843C35.7789 41.1456 35.7692 41.0973 35.7499 41.0393C35.7305 40.9813 35.7209 40.9233 35.7209 40.8653H35.7499L35.7789 40.9233L35.8659 40.3433L35.9239 40.3143V39.8793H36.0689L35.9819 39.5603L35.9529 39.5893L35.3439 40.5753L35.1699 40.6043L34.9379 40.9233L35.0829 40.9813L34.9959 41.1263H34.7639C34.8025 41.2036 34.8219 41.2616 34.8219 41.3003C34.8219 41.3776 34.7735 41.4453 34.6769 41.5033C34.5802 41.5419 34.5125 41.5709 34.4739 41.5903L34.5319 41.7643L34.2999 42.1413L34.1549 42.0833C34.1549 42.0833 34.1452 42.1026 34.1259 42.1413C34.1259 42.1799 34.1065 42.1993 34.0679 42.1993L33.9229 42.1413L33.8649 42.3733L34.0099 42.4023C33.9325 42.4796 33.8745 42.5473 33.8359 42.6053C33.7972 42.6633 33.7005 42.6923 33.5459 42.6923C33.5265 42.7503 33.5459 42.8083 33.6039 42.8663C33.4492 43.0789 33.2752 43.2916 33.0819 43.5043C32.9079 43.7169 32.7145 43.9006 32.5019 44.0553H32.4149L32.1829 44.2873L32.0669 44.2293L32.0089 44.4323L31.4579 44.6643L31.3999 44.8093L31.1969 44.7513L31.0809 44.9253H30.9649C30.5009 44.9253 30.1142 44.7996 29.8049 44.5483C29.7469 44.4323 29.7179 44.2969 29.7179 44.1423C29.6792 44.1423 29.6502 44.1616 29.6309 44.2003C29.6115 44.2196 29.5922 44.2389 29.5729 44.2583L29.3989 43.5333L29.4859 43.3593L29.4279 43.3013L29.4569 43.0693H29.5439L29.7759 42.0253C29.7952 42.0253 29.8049 42.0349 29.8049 42.0543C29.8242 42.0736 29.8435 42.0833 29.8629 42.0833C29.9015 42.0833 29.9209 42.0543 29.9209 41.9963C29.9209 41.9383 29.9112 41.8996 29.8919 41.8803L29.8339 41.9093C29.8725 41.6193 30.0175 41.4066 30.2689 41.2713C30.2302 41.2326 30.2109 41.1843 30.2109 41.1263C30.2109 41.0683 30.2205 41.0199 30.2399 40.9813C30.2785 40.9233 30.3075 40.8653 30.3269 40.8073L30.4139 40.8363V40.8073L30.3849 40.7493L30.5009 40.6913C30.5202 40.6913 30.5105 40.6623 30.4719 40.6043C30.4525 40.5463 30.4815 40.5559 30.5589 40.6333V40.4303H30.7329C30.7909 40.3529 30.8392 40.2659 30.8779 40.1693C30.9165 40.0726 30.9552 39.9759 30.9939 39.8793H31.2839L31.1969 39.6763L31.3419 39.5023L31.5159 39.5603L31.6029 39.1833L32.0669 38.8353L31.9219 38.7483L32.0959 38.6903L32.1249 38.8643C32.1249 38.6516 32.2119 38.4969 32.3859 38.4003H32.4149L32.4439 38.5453L32.4729 38.4873L32.4439 38.3423L32.7629 38.1103L32.7919 38.2263C32.8112 38.0329 32.9175 37.8879 33.1109 37.7913C33.3042 37.6753 33.5072 37.5689 33.7199 37.4723C33.9325 37.3756 34.0485 37.2693 34.0679 37.1533L34.2999 37.1823C34.3192 37.1629 34.3289 37.1339 34.3289 37.0953C34.3482 37.0373 34.3385 37.0083 34.2999 37.0083C34.4932 36.9889 34.7155 36.9213 34.9669 36.8053H35.2569L35.1119 36.7183L35.1409 36.6893C35.4889 36.5926 35.8465 36.5443 36.2139 36.5443C36.4652 36.5443 36.6972 36.6216 36.9099 36.7763L37.4899 37.0083C37.5092 37.0276 37.4899 37.0373 37.4319 37.0373C37.3932 37.0373 37.3739 37.0566 37.3739 37.0953C37.3739 37.1146 37.4029 37.1436 37.4609 37.1823C37.5189 37.2016 37.5672 37.2113 37.6059 37.2113L37.6349 37.1243C37.6542 37.1243 37.6639 37.1629 37.6639 37.2403C37.6832 37.2983 37.7025 37.3079 37.7219 37.2693L37.9539 37.5013H37.8379L37.7799 38.3423H37.6639L37.6059 38.4873L37.6929 38.6903C37.6929 38.7096 37.6832 38.7483 37.6639 38.8063C37.6445 38.8449 37.6349 38.8353 37.6349 38.7773V38.7193L37.5479 38.7483C37.5672 38.7869 37.5769 38.8449 37.5769 38.9223C37.5769 38.9803 37.5672 39.0479 37.5479 39.1253C37.5479 39.1833 37.5382 39.2509 37.5189 39.3283C37.4415 39.3283 37.3932 39.3379 37.3739 39.3573L37.2869 39.5893C37.2675 39.6666 37.2772 39.7149 37.3159 39.7343C37.3545 39.7343 37.3739 39.7439 37.3739 39.7633L37.3159 39.8793C37.3159 39.9566 37.3159 40.0339 37.3159 40.1113C37.3352 40.1886 37.3352 40.2756 37.3159 40.3723H37.0839L36.7649 40.4013C36.8422 40.5173 36.9292 40.6139 37.0259 40.6913C37.1225 40.7493 37.1709 40.7783 37.1709 40.7783C37.2095 40.8169 37.2192 40.8556 37.1999 40.8943C37.1612 40.9909 37.1225 41.0876 37.0839 41.1843C37.0452 41.2809 37.0065 41.3776 36.9679 41.4743L37.0549 41.5033C37.0742 41.5226 37.0645 41.5323 37.0259 41.5323C37.0065 41.5323 37.0065 41.5419 37.0259 41.5613L37.0549 41.5903C37.0742 41.6096 37.0839 41.6386 37.0839 41.6773C37.0839 41.7546 37.0549 41.8319 36.9969 41.9093C36.9389 41.9866 36.8905 42.0736 36.8519 42.1703H36.9389C36.9389 42.3249 36.9292 42.5376 36.9099 42.8083C36.8905 43.0596 36.8325 43.2433 36.7359 43.3593H36.7069V43.2143H36.5619L36.7649 43.5043C36.6875 43.7556 36.6392 44.0263 36.6199 44.3163C36.6005 44.5869 36.5715 44.8576 36.5329 45.1283L36.7359 45.3893H36.7649V45.1863L36.9389 45.0703H37.0839L37.1419 45.2733L37.1999 44.9253C37.1999 44.9059 37.1999 44.8963 37.1999 44.8963C37.2192 44.8963 37.2289 44.8963 37.2289 44.8963H37.2869C37.3255 44.7609 37.3352 44.6643 37.3159 44.6063C37.4319 44.4516 37.5672 44.2486 37.7219 43.9973C37.8959 43.7266 38.0602 43.4656 38.2149 43.2143C38.3695 42.9436 38.4662 42.7309 38.5049 42.5763C38.5435 42.5763 38.5725 42.5956 38.5919 42.6343C38.6112 42.6729 38.6305 42.6923 38.6499 42.6923C38.6692 42.6923 38.6692 42.6536 38.6499 42.5763C38.6499 42.4796 38.6305 42.4409 38.5919 42.4603C38.6499 42.3829 38.6885 42.2959 38.7079 42.1993C38.7272 42.0833 38.7755 42.0253 38.8529 42.0253C38.9495 42.0253 38.9979 42.0543 38.9979 42.1123C38.9979 42.1509 38.9882 42.1993 38.9689 42.2573C38.9495 42.2959 38.9399 42.3346 38.9399 42.3733L38.9109 42.9823L38.7369 43.1273L38.7949 43.1563H38.8239L38.7369 43.2143L38.8239 43.3013H38.7369C38.7369 43.3979 38.7175 43.4946 38.6789 43.5913C38.6595 43.6879 38.6305 43.7846 38.5919 43.8813L38.4179 43.9393L38.4759 44.0553L38.3309 44.2583L38.1569 44.2873L37.7799 45.2443L37.6059 45.2153L37.6349 45.4473L36.8809 46.3173L36.7359 46.2883L36.7069 46.4623L36.5909 46.5493H36.0689ZM30.8199 43.9393H30.8779L31.5159 43.6203C31.5545 43.6589 31.5642 43.6783 31.5449 43.6783C31.5255 43.6783 31.5159 43.6783 31.5159 43.6783C31.5159 43.7363 31.5352 43.7846 31.5739 43.8233C31.6125 43.8426 31.6415 43.8523 31.6609 43.8523L31.6029 43.5623C31.6415 43.4463 31.7189 43.4173 31.8349 43.4753L31.8059 43.5333L32.0089 43.4463H31.8639C31.8445 43.3883 31.8639 43.3593 31.9219 43.3593L32.3859 43.2433C32.4052 43.2239 32.3762 43.2143 32.2989 43.2143C32.2215 43.1949 32.1829 43.1756 32.1829 43.1563L32.3569 43.0693C32.5115 42.9919 32.6372 42.9049 32.7339 42.8083C32.8305 42.7116 32.8789 42.6633 32.8789 42.6633C32.9175 42.7213 32.9755 42.7503 33.0529 42.7503H33.0819V42.3733L33.2849 42.1703L33.4009 42.1993L33.3719 42.0543L33.6039 41.9673C33.6425 41.7933 33.7295 41.6676 33.8649 41.5903C34.0002 41.4936 34.1065 41.3873 34.1839 41.2713H34.1259C34.1645 41.1746 34.2419 41.1166 34.3579 41.0973C34.4739 41.0586 34.5415 40.9813 34.5609 40.8653L34.5029 40.7493L34.8219 40.4883L34.7639 40.4593C34.8025 40.4206 34.8219 40.3819 34.8219 40.3433C34.8412 40.2853 34.8895 40.2659 34.9669 40.2853L35.1119 40.3143V40.0243L35.2279 39.8213H35.4599C35.4985 39.7053 35.4599 39.6473 35.3439 39.6473L35.7499 39.0963L35.9239 39.1833V39.1253L35.7499 39.0673L35.8659 38.8933L35.9819 38.8643L36.0109 38.8353C35.9529 38.8353 35.9335 38.8159 35.9529 38.7773C35.9722 38.7193 36.0109 38.6999 36.0689 38.7193L36.0979 38.4873L36.2429 38.4293H36.1849L36.2429 38.2843H36.4459L36.3879 37.8493L36.4459 37.7913L36.3589 37.7043C36.3202 37.8396 36.2235 37.9169 36.0689 37.9363C35.9142 37.9556 35.7789 37.9653 35.6629 37.9653C35.7015 37.9846 35.7112 38.0233 35.6919 38.0813C35.6725 38.1199 35.6435 38.1296 35.6049 38.1103L35.4309 38.0233H35.3439L35.4309 38.2263L35.1699 38.1683L35.2279 38.2843H35.0829V38.4003L34.8219 38.5743C34.8025 38.5743 34.7155 38.5646 34.5609 38.5453C34.4255 38.5259 34.3965 38.5549 34.4739 38.6323H34.5319C34.5319 38.7289 34.5029 38.7676 34.4449 38.7483C34.3869 38.7289 34.3482 38.7193 34.3289 38.7193L34.3869 38.7483C34.0195 38.9223 33.6909 39.1736 33.4009 39.5023C33.4395 39.5216 33.4299 39.5506 33.3719 39.5893C33.3332 39.6279 33.2945 39.6183 33.2559 39.5603V39.7343L33.1979 39.6763C33.1979 39.7729 33.1399 39.8599 33.0239 39.9373C32.9079 39.9953 32.8015 40.0436 32.7049 40.0823C32.6469 40.1983 32.5792 40.3143 32.5019 40.4303C32.4245 40.5463 32.3375 40.6333 32.2409 40.6913L32.1829 40.6623L31.8639 40.8653V40.9523C31.8639 41.1456 31.8059 41.3196 31.6899 41.4743C31.5932 41.6096 31.4869 41.7546 31.3709 41.9093L31.2839 41.8223L31.1969 42.1993H30.9939V42.5763H30.7329C30.7135 42.5763 30.7135 42.5956 30.7329 42.6343C30.7522 42.6729 30.7812 42.7019 30.8199 42.7213C30.8005 42.8759 30.7522 43.0306 30.6749 43.1853C30.6169 43.3206 30.5782 43.4656 30.5589 43.6203H30.7039C30.6652 43.7749 30.7232 43.8426 30.8779 43.8233L30.8199 43.9393ZM30.8779 42.7503C30.8779 42.7696 30.8585 42.7599 30.8199 42.7213V42.6923L30.8779 42.7213V42.7503ZM40.8149 46.2013C40.7956 46.0853 40.7666 46.0273 40.7279 46.0273C40.7086 46.0273 40.6892 46.0466 40.6699 46.0853C40.6506 46.1046 40.6216 46.1143 40.5829 46.1143C40.5442 46.1143 40.4959 46.0369 40.4379 45.8823L39.8869 45.6503L39.9739 45.4473L39.7129 45.4183L39.6839 45.1573H39.6259L39.5679 44.9543L39.7129 44.7223L39.6259 44.6643L39.8289 44.5193L39.7129 44.4033C39.7129 44.3066 39.7419 44.1519 39.7999 43.9393C39.8579 43.7266 39.9256 43.5913 40.0029 43.5333C39.9836 43.4946 39.9642 43.4269 39.9449 43.3303C39.9449 43.2143 39.9836 43.1659 40.0609 43.1853L40.0029 42.7793C40.0416 42.7019 40.0899 42.6053 40.1479 42.4893C40.2252 42.3733 40.2059 42.3636 40.0899 42.4603L40.2349 41.5903L40.2929 41.5033H40.4089C40.3896 41.4646 40.3702 41.3969 40.3509 41.3003C40.3509 41.1843 40.3509 41.0586 40.3509 40.9233C40.3509 40.5366 40.3702 40.1113 40.4089 39.6473C40.4669 39.1639 40.5249 38.8353 40.5829 38.6613C40.5442 38.5453 40.5249 38.4003 40.5249 38.2263C40.5249 38.0329 40.5732 37.9266 40.6699 37.9073L40.7279 36.4573C40.7279 36.4573 40.7279 36.4379 40.7279 36.3993C40.7472 36.3606 40.7569 36.3123 40.7569 36.2543C40.7569 36.1189 40.7279 35.9643 40.6699 35.7903C40.7279 35.7709 40.7666 35.7419 40.7859 35.7033C40.8246 35.6453 40.7956 35.6163 40.6989 35.6163L40.9019 35.4423L40.6989 35.1813L40.7569 34.6013C40.7762 34.6206 40.8052 34.6303 40.8439 34.6303C40.9212 34.6303 40.9502 34.5819 40.9309 34.4853C40.9116 34.3693 40.8536 34.3403 40.7569 34.3983L40.8149 33.8183H40.9889V33.7893C40.9889 33.7506 40.9696 33.6829 40.9309 33.5863C40.9116 33.4703 40.8826 33.4026 40.8439 33.3833C40.9019 33.4026 40.9309 33.2576 40.9309 32.9483C40.9309 32.8129 40.9212 32.6583 40.9019 32.4843C40.9019 32.3103 40.9019 32.1459 40.9019 31.9913C40.9019 31.7593 40.9212 31.5466 40.9599 31.3533C40.9986 31.1599 41.0566 31.0439 41.1339 31.0053C41.0566 30.6959 41.0372 30.4253 41.0759 30.1933L41.3079 30.2223L41.0759 30.0193L41.3079 29.9323L41.1339 29.7003V29.6713C41.1339 29.6326 41.1532 29.5843 41.1919 29.5263C41.2306 29.4683 41.2692 29.4586 41.3079 29.4973C41.2692 29.3426 41.2499 29.2169 41.2499 29.1203C41.2499 28.9849 41.2596 28.8593 41.2789 28.7433C41.2982 28.6273 41.3079 28.5113 41.3079 28.3953L41.4239 28.2793L41.3659 28.0183L41.5109 27.9603C41.5689 27.6896 41.6172 27.4093 41.6559 27.1193C41.6946 26.8099 41.8009 26.5489 41.9749 26.3363H42.2359L42.3229 26.4813L42.6419 26.5103C42.6226 26.5683 42.6419 26.6166 42.6999 26.6553C42.7772 26.6746 42.8159 26.6649 42.8159 26.6263C42.9512 26.8196 43.0189 26.9356 43.0189 26.9743C43.0382 27.0129 43.0962 27.0323 43.1929 27.0323C43.2122 27.0323 43.2412 27.0709 43.2799 27.1483C43.3186 27.2256 43.3186 27.2643 43.2799 27.2643C43.3959 27.3029 43.4636 27.3996 43.4829 27.5543C43.5216 27.6896 43.5409 27.8056 43.5409 27.9023H43.6569L43.5989 28.2213H43.7149L43.6859 28.5693L43.6569 28.5403C43.6182 28.5403 43.5892 28.5983 43.5699 28.7143C43.5699 28.8303 43.5989 28.8689 43.6569 28.8303L43.5989 29.4393H43.4829C43.5022 29.6519 43.4829 29.8743 43.4249 30.1063C43.3669 30.3383 43.3379 30.5703 43.3379 30.8023C43.2992 30.7636 43.2509 30.7733 43.1929 30.8313C43.2509 30.9473 43.2799 31.0536 43.2799 31.1503C43.2799 31.3243 43.2412 31.4983 43.1639 31.6723C43.0866 31.8269 43.0672 31.9913 43.1059 32.1653L42.9319 32.1943L42.9899 32.4263L42.8739 32.4843C42.9126 32.6389 42.9319 32.7743 42.9319 32.8903C42.9319 33.1223 42.9029 33.3543 42.8449 33.5863C42.7869 33.8183 42.7096 34.0019 42.6129 34.1373L42.6419 34.1953L42.4679 34.2823L42.6999 34.3983C42.6612 34.4756 42.5936 34.5819 42.4969 34.7173C42.4002 34.8526 42.4292 34.9106 42.5839 34.8913C42.5452 35.1426 42.4679 35.3263 42.3519 35.4423L42.4679 35.4713L42.3519 35.7033L42.4099 35.9933L42.1489 36.0803L42.3519 36.3413L42.0329 36.6313C42.0909 36.6893 42.1199 36.8149 42.1199 37.0083C42.1199 37.2403 42.0812 37.5399 42.0039 37.9073C41.9459 38.2553 41.8782 38.5839 41.8009 38.8933C41.7236 39.2026 41.6559 39.4056 41.5979 39.5023L41.7139 39.4443L41.3659 41.3873L41.2789 41.4163V42.1123H41.1049C41.1049 42.1316 41.1242 42.1509 41.1629 42.1703C41.2209 42.1896 41.2499 42.2089 41.2499 42.2283V42.3733L41.1919 42.3153L41.1049 42.2863C41.1049 42.3056 41.1049 42.3346 41.1049 42.3733C41.1242 42.3926 41.1339 42.4216 41.1339 42.4603C41.1339 42.5763 41.1146 42.6923 41.0759 42.8083C41.0566 42.9049 41.0372 43.0113 41.0179 43.1273L41.0759 43.0693L41.0469 43.3013L41.1049 43.2723L41.1919 42.9823C41.2306 43.0209 41.2692 43.0403 41.3079 43.0403C41.3659 43.0403 41.4046 43.0113 41.4239 42.9533C41.4626 42.8759 41.4432 42.7986 41.3659 42.7213L41.6559 42.5183C41.6172 42.4796 41.5979 42.4313 41.5979 42.3733C41.5979 42.2959 41.6462 42.2573 41.7429 42.2573C41.8396 42.2379 41.9169 42.2089 41.9749 42.1703C42.0522 42.1316 42.0232 42.0446 41.8879 41.9093L42.1199 41.6483C42.1586 41.6869 42.2262 41.6096 42.3229 41.4163C42.4389 41.2229 42.5356 41.0683 42.6129 40.9523L42.6709 41.0393C42.7096 41.0393 42.7386 40.9813 42.7579 40.8653C42.7772 40.7493 42.7966 40.6816 42.8159 40.6623L42.9029 40.4883C42.9416 40.4883 42.9802 40.5076 43.0189 40.5463C43.0576 40.5849 43.0866 40.6043 43.1059 40.6043C43.1252 40.6043 43.1252 40.5656 43.1059 40.4883C43.1059 40.4109 43.0672 40.3819 42.9899 40.4013L43.2219 40.2563C43.2026 40.1983 43.2122 40.1403 43.2509 40.0823C43.2896 40.0243 43.3089 40.0436 43.3089 40.1403L43.5119 39.9373L43.4829 39.8503C43.5796 39.6956 43.7052 39.5603 43.8599 39.4443C44.0146 39.3089 44.1596 39.1736 44.2949 39.0383C44.2562 38.9803 44.2562 38.9706 44.2949 39.0093C44.3529 39.0286 44.3916 39.0383 44.4109 39.0383L44.3819 38.7773L44.6719 38.8063L44.7299 38.7193L44.7009 38.4873C44.9522 38.3519 45.1552 38.1876 45.3099 37.9943C45.4646 37.7816 45.6772 37.6559 45.9479 37.6173C45.9672 37.5979 45.9769 37.5496 45.9769 37.4723L46.2089 37.5303C46.2089 37.5109 46.2282 37.4916 46.2669 37.4723C46.3056 37.4336 46.3249 37.4046 46.3249 37.3853L46.5859 37.3273C46.5859 37.2886 46.5762 37.2596 46.5569 37.2403C46.5376 37.2209 46.5376 37.2016 46.5569 37.1823L47.3979 37.1533V37.2693L47.4269 37.2403C47.6396 37.3369 47.8522 37.4433 48.0649 37.5593L48.1519 38.0813L48.3549 37.9943C48.4322 38.0329 48.4322 38.0909 48.3549 38.1683C48.2969 38.2456 48.2486 38.2553 48.2099 38.1973L48.3549 38.4873C48.3936 38.5066 48.4322 38.5163 48.4709 38.5163C48.5096 38.5163 48.5192 38.5356 48.4999 38.5743L48.3549 38.7193L48.4999 38.8353L48.2389 39.2413L48.4709 39.3283C48.4902 39.3283 48.4709 39.3476 48.4129 39.3863C48.3549 39.4056 48.3259 39.4249 48.3259 39.4443C48.3839 39.5409 48.3742 39.6956 48.2969 39.9083C48.2196 40.1209 48.1132 40.3239 47.9779 40.5173C47.8619 40.6913 47.7652 40.7976 47.6879 40.8363C47.6879 40.8556 47.6782 40.8653 47.6589 40.8653C47.6396 40.9039 47.6009 40.9523 47.5429 41.0103C47.5042 41.0683 47.4849 41.1166 47.4849 41.1553L47.5719 41.3873L47.3979 41.6773H47.1659C47.1466 41.6966 47.1562 41.7063 47.1949 41.7063C47.2336 41.7063 47.2626 41.7256 47.2819 41.7643L46.9919 42.1703L46.8179 42.1413L46.5859 42.5473L46.7019 42.5183C46.6439 42.6343 46.5666 42.7309 46.4699 42.8083C46.3732 42.8856 46.2766 42.9533 46.1799 43.0113V43.0403C46.1799 43.0983 46.1606 43.1563 46.1219 43.2143C46.0832 43.2723 46.0446 43.2819 46.0059 43.2433L45.8609 43.5333H45.8029L45.5709 43.7363L45.5419 43.8813L45.1359 43.9973L45.0489 44.2873C44.9716 44.2099 44.9426 44.2196 44.9619 44.3163L44.5849 44.6063C44.5462 44.5869 44.5172 44.5773 44.4979 44.5773C44.4786 44.5579 44.4592 44.5483 44.4399 44.5483C44.4012 44.5483 44.4206 44.6256 44.4979 44.7803L44.0049 45.1283L43.8019 45.0703L43.5989 45.3603H43.4249C43.4249 45.3603 43.4539 45.3699 43.5119 45.3893C43.5699 45.3893 43.5699 45.4086 43.5119 45.4473C43.4926 45.4666 43.4539 45.4569 43.3959 45.4183C43.3572 45.3603 43.3186 45.3409 43.2799 45.3603V45.5343L42.9899 45.6213L43.1349 45.6793C42.8836 45.6986 42.6419 45.7566 42.4099 45.8533C42.1972 45.9306 41.9749 45.9983 41.7429 46.0563L41.7139 45.8823C41.6946 45.8436 41.6849 45.8726 41.6849 45.9693C41.6849 46.0659 41.6752 46.1336 41.6559 46.1723L40.8149 46.2013ZM40.7859 45.1283C40.8246 45.1669 40.8632 45.2056 40.9019 45.2443C40.9406 45.2829 40.9696 45.3216 40.9889 45.3603L41.0179 45.2443H41.1339C41.3466 45.2443 41.5012 45.1863 41.5979 45.0703L41.5399 45.0123C41.6559 45.0316 41.7719 45.0219 41.8879 44.9833L42.0039 44.7513C42.1586 44.6353 42.3229 44.6159 42.4969 44.6933C42.4969 44.6159 42.5356 44.5579 42.6129 44.5193L42.5549 44.4613C42.6516 44.3839 42.7676 44.3356 42.9029 44.3163C43.0576 44.2776 43.1639 44.2003 43.2219 44.0843L43.1929 44.0553C43.4056 43.9586 43.6666 43.7943 43.9759 43.5623C44.2852 43.3109 44.5366 43.0886 44.7299 42.8953L44.7009 42.7793C44.7976 42.7793 44.8652 42.7986 44.9039 42.8373V42.8083C44.9039 42.6923 44.9619 42.5569 45.0779 42.4023C45.2132 42.2476 45.3292 42.1606 45.4259 42.1413L45.4839 42.1993L45.5419 42.1703C45.5226 42.1509 45.5129 42.1123 45.5129 42.0543C45.5129 41.9963 45.5226 41.9479 45.5419 41.9093C45.5806 41.8513 45.6096 41.8029 45.6289 41.7643H45.7159V41.8513C45.7159 42.0253 45.7642 42.0446 45.8609 41.9093C45.9576 41.7546 46.0639 41.5516 46.1799 41.3003C46.2959 41.0489 46.3732 40.8556 46.4119 40.7203L46.3539 40.5753L46.4989 40.2853L46.6729 40.2563L46.4989 40.1983C46.6536 40.0629 46.7502 39.8213 46.7889 39.4733C46.8469 39.1253 46.8759 38.8546 46.8759 38.6613V38.3423C46.7986 38.3229 46.7502 38.2939 46.7309 38.2553C46.7309 38.2166 46.7116 38.1683 46.6729 38.1103C46.4796 38.1876 46.3249 38.2359 46.2089 38.2553C46.1122 38.2746 45.9866 38.3616 45.8319 38.5163L45.5709 38.4873L45.6289 38.6903L45.3969 38.7773L45.3389 38.9223L45.1359 38.9513C45.1359 39.1446 45.0586 39.2509 44.9039 39.2703V39.3863C44.8072 39.3863 44.7299 39.4249 44.6719 39.5023C44.6912 39.5216 44.7009 39.5409 44.7009 39.5603C44.7009 39.6183 44.6719 39.6763 44.6139 39.7343C44.5559 39.7729 44.5076 39.8116 44.4689 39.8503L44.4109 39.7053C44.3722 39.7439 44.3239 39.8019 44.2659 39.8793C44.2272 39.9373 44.2272 40.0049 44.2659 40.0823L44.0049 40.4303L43.6859 40.5753L43.7149 40.7783C43.5602 40.8556 43.4636 40.9426 43.4249 41.0393C43.3862 41.1359 43.3476 41.2229 43.3089 41.3003C43.2702 41.3776 43.1446 41.4453 42.9319 41.5033L42.9899 41.5613H43.1059C43.0286 41.6386 42.9512 41.7063 42.8739 41.7643C42.8159 41.8223 42.7289 41.8609 42.6129 41.8803L42.6999 42.0833L42.5259 42.1123L42.6129 42.2573C42.4969 42.3346 42.3712 42.4796 42.2359 42.6923C42.1199 42.8856 42.0426 43.0499 42.0039 43.1853H41.9169V43.0113C41.8976 43.0886 41.8686 43.1466 41.8299 43.1853C41.8106 43.2046 41.7816 43.2336 41.7429 43.2723L41.8009 43.3883L41.7429 43.5623L41.6559 43.5333L41.7139 43.5913C41.6172 43.7266 41.5206 43.8813 41.4239 44.0553C41.3466 44.2099 41.2112 44.2969 41.0179 44.3163V44.4033C41.0179 44.5579 40.9792 44.6836 40.9019 44.7803L40.8149 44.8963L40.9599 44.9253C40.9406 44.9446 40.9116 44.9736 40.8729 45.0123C40.8342 45.0509 40.8052 45.0896 40.7859 45.1283ZM47.6879 40.8363C47.6879 40.8363 47.6782 40.8459 47.6589 40.8653L47.6879 40.8363ZM51.9781 38.2843C51.8041 38.2843 51.6107 38.2166 51.3981 38.0813L51.3111 38.0523H51.2531C51.2337 38.0329 51.2144 38.0233 51.1951 38.0233C51.1951 37.9846 51.2047 37.9556 51.2241 37.9363H51.0791L51.1081 37.5883C51.2241 37.5883 51.2917 37.5593 51.3111 37.5013L51.2531 37.4723H51.3401V37.3853C51.3401 37.2693 51.3691 37.1823 51.4271 37.1243C51.4851 37.0469 51.5527 36.9696 51.6301 36.8923C51.6687 36.9116 51.7074 36.9213 51.7461 36.9213C51.8041 36.9213 51.8427 36.9406 51.8621 36.9793C51.8427 36.8633 51.8427 36.7569 51.8621 36.6603L51.9491 36.6893C51.9877 36.5346 52.0747 36.4379 52.2101 36.3993C52.3647 36.3413 52.5001 36.2833 52.6161 36.2253L52.6451 36.3993L52.7031 36.3703V36.2833H52.8481C52.8867 36.1673 52.9544 36.1093 53.0511 36.1093L53.0801 36.2253C53.1574 36.1479 53.2444 36.1093 53.3411 36.1093C53.4957 36.1673 53.5247 36.2639 53.4281 36.3993C53.3894 36.4186 53.3507 36.4766 53.3121 36.5733C53.2734 36.4766 53.2251 36.4186 53.1671 36.3993L53.1381 36.6023L53.1091 36.4863H53.0801L53.1381 36.7183C53.0801 36.7376 53.0414 36.7666 53.0221 36.8053C53.0027 36.8439 52.9737 36.8826 52.9351 36.9213C52.8964 36.9599 52.8577 36.9696 52.8191 36.9503C52.7804 36.9309 52.7417 36.9503 52.7031 37.0083C52.7417 36.9889 52.7997 36.9889 52.8771 37.0083C52.8191 37.0083 52.7804 37.0179 52.7611 37.0373L52.8771 37.0663C52.7997 37.1436 52.7417 37.2403 52.7031 37.3563C52.6644 37.4529 52.6257 37.5496 52.5871 37.6463H52.4421V37.8203L52.5291 37.8493C52.4711 37.9073 52.4034 37.9363 52.3261 37.9363L52.3551 38.0813C52.3357 38.1199 52.2874 38.1683 52.2101 38.2263C52.1521 38.2649 52.0747 38.2843 51.9781 38.2843ZM50.1801 47.0423C50.0834 47.0423 50.0157 46.9939 49.9771 46.8973L49.8611 46.9843L49.7451 46.8973L49.8611 46.7523L49.8031 46.6363H49.7451V46.7523L49.6001 46.7233L49.5421 46.5493C49.5421 46.5493 49.5517 46.5493 49.5711 46.5493C49.6097 46.5299 49.6194 46.5106 49.6001 46.4913H49.4551C49.4551 46.4526 49.4551 46.4139 49.4551 46.3753C49.4744 46.3173 49.5034 46.2786 49.5421 46.2593C49.4454 46.1819 49.3971 45.9983 49.3971 45.7083C49.3971 45.3989 49.3971 45.2056 49.3971 45.1283L49.4551 44.8673H49.5711L49.4551 44.4033C49.4551 44.3839 49.4841 44.3936 49.5421 44.4323C49.6001 44.4516 49.6291 44.4613 49.6291 44.4613V44.3163C49.6097 44.2776 49.5711 44.2389 49.5131 44.2003C49.4744 44.1423 49.4551 44.0843 49.4551 44.0263L49.4841 43.9973C49.5614 43.8233 49.6097 43.6396 49.6291 43.4463C49.6677 43.2529 49.7064 43.0693 49.7451 42.8953L49.6581 42.8373L49.6871 42.5473C49.7064 42.5086 49.7257 42.5086 49.7451 42.5473C49.7644 42.5666 49.7741 42.5763 49.7741 42.5763H49.8901C49.8707 42.5376 49.8417 42.4989 49.8031 42.4603C49.7837 42.4023 49.7741 42.3346 49.7741 42.2573L49.8611 42.1703C49.8224 42.1509 49.8031 42.1026 49.8031 42.0253C49.8031 41.9479 49.8127 41.8803 49.8321 41.8223C49.8514 41.7449 49.8707 41.6966 49.8901 41.6773L49.8611 41.5903C49.9577 41.5516 49.9964 41.4646 49.9771 41.3293C49.9771 41.1746 49.9867 41.0393 50.0061 40.9233C50.0447 40.7879 50.1704 40.7299 50.3831 40.7493C50.3637 40.7106 50.3444 40.6719 50.3251 40.6333C50.3057 40.5946 50.2767 40.5656 50.2381 40.5463H50.1801V40.3433L50.4411 40.0533L50.3831 39.9373L50.4701 39.8793V39.8503C50.4701 39.7536 50.5087 39.6859 50.5861 39.6473C50.6634 39.5893 50.7407 39.5506 50.8181 39.5313L50.7891 39.4443H50.9051L50.9341 39.5603L50.9051 39.5893H50.9921C50.9921 39.5119 50.9921 39.4733 50.9921 39.4733C50.9921 39.4733 51.0597 39.4636 51.1951 39.4443L51.2821 39.6763C51.5527 39.7536 51.7267 39.8696 51.8041 40.0243C51.9007 40.1789 51.9877 40.3723 52.0651 40.6043L52.1521 40.5463V40.6043C52.1521 40.7589 52.0844 40.8749 51.9491 40.9523L51.9201 40.9233C51.9394 40.9813 51.9491 41.0296 51.9491 41.0683C51.9491 41.1069 51.9007 41.1456 51.8041 41.1843C51.7847 41.3003 51.7557 41.4259 51.7171 41.5613C51.6784 41.6966 51.6397 41.8223 51.6011 41.9383C51.6011 41.8996 51.5817 41.8996 51.5431 41.9383C51.5044 41.9576 51.5044 41.9866 51.5431 42.0253L51.4271 42.0833H51.5141C51.4754 42.2573 51.4077 42.4313 51.3111 42.6053C51.2144 42.7793 51.1757 42.9533 51.1951 43.1273H51.0211L51.0501 43.3303L51.1081 43.3013C51.0887 43.3593 51.0694 43.4173 51.0501 43.4753C51.0307 43.5139 51.0211 43.5719 51.0211 43.6493H50.9341L51.0211 43.7073H50.9921L51.0211 43.7653L50.9341 44.0263H50.8181L50.8761 44.2583C50.8374 44.2969 50.7794 44.2873 50.7021 44.2293C50.7021 44.3453 50.7504 44.4419 50.8471 44.5193L50.7311 45.0123H50.6151L50.6731 45.0993L50.7311 45.0413L50.6731 45.7083V45.7373H50.8761L50.9051 45.9113C51.0017 45.8726 51.1081 45.8436 51.2241 45.8243C51.3401 45.8049 51.4464 45.7759 51.5431 45.7373L51.6011 45.6213L51.7751 45.6503V45.5343L51.7171 45.5053L51.9201 45.3603V45.3893L51.9491 45.3023L52.0361 45.3313C52.0361 45.2733 52.0554 45.2346 52.0941 45.2153C52.1327 45.1766 52.1617 45.1186 52.1811 45.0413L52.2971 45.1283L52.5581 44.8383C52.5581 44.8383 52.5291 44.8189 52.4711 44.7803L52.5291 44.6353L52.7031 44.5773C52.6837 44.5579 52.6741 44.5289 52.6741 44.4903C52.6741 44.4516 52.6934 44.4226 52.7321 44.4033C52.7901 44.3646 52.8287 44.3163 52.8481 44.2583C52.8287 44.2583 52.8191 44.2486 52.8191 44.2293C52.8191 44.1906 52.8287 44.1713 52.8481 44.1713L53.0511 44.1423C53.0704 44.0649 53.0801 43.9973 53.0801 43.9393C53.0801 43.8619 53.0897 43.7846 53.1091 43.7073C53.1284 43.6879 53.1381 43.6976 53.1381 43.7363C53.1574 43.7556 53.1671 43.7749 53.1671 43.7943C53.2057 43.8329 53.2444 43.8329 53.2831 43.7943V43.7073L53.3701 43.6783L53.1961 43.6203L53.3411 43.5913H53.2831V43.4753C53.3797 43.4173 53.4474 43.3206 53.4861 43.1853C53.5441 43.0306 53.5827 42.9049 53.6021 42.8083L53.6891 42.8373V42.6633L53.7761 42.6343C53.7181 42.6343 53.7084 42.6149 53.7471 42.5763H53.8631C53.8437 42.3636 53.8921 42.1896 54.0081 42.0543C54.1241 41.8996 54.2014 41.7353 54.2401 41.5613H54.3561V41.4453H54.6171C54.6171 41.5613 54.5977 41.6193 54.5591 41.6193C54.5397 41.6193 54.5107 41.6579 54.4721 41.7353L54.5881 42.0253L54.5301 42.1123L54.4141 42.0543L54.4721 42.2283L54.3851 42.1703L54.4141 42.4023L54.3561 42.3733C54.3367 42.4506 54.2884 42.6149 54.2111 42.8663C54.1531 43.0983 54.0757 43.2433 53.9791 43.3013L53.8631 43.2723C53.8631 43.3109 53.8727 43.3496 53.8921 43.3883C53.9114 43.4269 53.9307 43.4656 53.9501 43.5043L53.8051 43.7943L53.6891 43.7363C53.7084 43.9103 53.6504 44.1036 53.5151 44.3163C53.3797 44.5096 53.2637 44.6836 53.1671 44.8383H52.9931C52.9931 44.9156 52.9834 44.9833 52.9641 45.0413C52.9447 45.0993 52.9351 45.1766 52.9351 45.2733L52.7321 45.3603L52.8481 45.3893L52.6451 45.4763V45.5053C52.6451 45.5826 52.6161 45.6599 52.5581 45.7373C52.5194 45.7953 52.4904 45.8436 52.4711 45.8823L52.2971 45.8533V46.0563H52.1521C52.1521 46.1529 52.1134 46.2303 52.0361 46.2883C52.0361 46.2689 52.0167 46.2593 51.9781 46.2593C51.9587 46.2399 51.9394 46.2399 51.9201 46.2593C51.9587 46.2979 51.9587 46.3463 51.9201 46.4043C51.8814 46.4429 51.8427 46.4719 51.8041 46.4913L51.7171 46.4623V46.5783C51.5431 46.7523 51.3014 46.8586 50.9921 46.8973L50.9631 46.9553L50.8181 47.0133V46.8973C50.7021 46.9166 50.6151 46.9456 50.5571 46.9843C50.5184 47.0229 50.4217 47.0423 50.2671 47.0423L50.2381 46.9553H50.2091L50.1801 47.0423ZM50.8181 43.7363L50.9341 43.7943L50.9921 43.7073L50.8181 43.7363Z" fill="#52341C"/>
<defs>
<linearGradient id="paint0_linear_910_24730" x1="16.7225" y1="72.7322" x2="53.9825" y2="-7.17222" gradientUnits="userSpaceOnUse">
<stop stop-color="#FBC8B3"/>
<stop offset="0.4609" stop-color="#FBC7B2"/>
<stop offset="0.6322" stop-color="#EAA0A1"/>
<stop offset="0.7737" stop-color="#EAA0A1"/>
<stop offset="0.8073" stop-color="#FBC7B2"/>
</linearGradient>
</defs>
</svg>
