<svg width="125" height="81" viewBox="0 0 125 81" fill="none" xmlns="http://www.w3.org/2000/svg">
<path d="M12.5822 59.245C13.2439 61.0002 13.995 62.7204 14.8325 64.3989C15.2782 65.2973 15.8132 66.1485 16.4295 66.9396C16.4295 66.9396 13.3806 57.5754 14.5058 49.8808C15.631 42.1862 16.7924 38.0485 19.1155 34.2012C21.4385 30.3539 25.2857 25.3451 26.7375 24.1836C27.3344 23.7482 27.893 23.2625 28.4071 22.7317L28.1167 27.4502C28.1167 27.4502 23.8337 34.8547 23.8337 42.1862C23.8337 49.5177 24.4871 56.8495 30.9477 64.7619C37.4083 72.6743 40.7474 73.9083 41.7637 74.1261C42.78 74.3439 44.014 73.6906 45.3932 74.1261C46.7724 74.5616 48.3694 75.0698 49.1679 75.7231C49.9664 76.3764 53.8863 75.7231 53.8863 75.7231L59.9839 74.4891L55.7011 69.9884L47.2806 69.9158L44.3768 70.2062C44.3768 70.2062 39.8036 66.9396 38.2792 65.633C36.7547 64.3263 35.2303 62.5116 36.2829 61.4227C37.3355 60.3339 38.5695 59.8257 40.4569 61.0598C42.3442 62.2938 45.3205 62.5842 45.3205 62.5842C45.3205 62.5842 62.6697 62.2212 63.9763 62.1486C65.283 62.0761 66.8801 61.2775 69.1303 60.1888C71.3805 59.1 77.7686 58.8821 78.059 58.4466C78.3493 58.0111 79.0752 54.8171 79.6559 54.5993C80.2367 54.3816 81.3981 54.6719 82.1966 54.6719C82.9951 54.6719 84.3018 55.2526 85.8262 52.8571C87.3505 50.4616 88.4394 45.598 88.0765 43.0574C87.7135 40.5167 87.4958 34.4917 82.5596 25.4906C77.6234 16.4895 66.0087 10.4643 66.0087 10.4643L69.5657 14.7472L70.5094 16.2716L69.4931 17.5782C69.4931 17.5782 61 14.4568 54.4668 14.5294C47.9336 14.602 41.1827 15.836 38.8599 16.9975C37.7713 17.5418 44.9571 17.0601 45.5444 13.5018C46.7784 6.02497 47.2351 4.85112 47.2351 4.85112C47.2351 4.85112 45.9532 5.58952 51.7085 4.29415C57.8092 2.92107 66.517 4.87492 72.3243 7.41559C78.1315 9.95625 85.1003 14.2391 90.109 21.9337C95.1178 29.6284 97.0051 35.2178 97.9488 40.5895C98.8925 45.9612 92.9401 59.5357 91.7786 60.8424C90.6172 62.149 92.3593 64.109 92.3593 64.109L95.1178 62.2942C95.1178 62.2942 97.7878 52.2041 98.0498 51.6233C98.3118 51.0426 98.9651 51.1154 99.4006 51.1878C99.8361 51.2602 100.635 52.087 100.635 52.087L101.869 55.2529C101.869 55.2529 102.812 52.6396 102.812 51.3329C102.812 50.0263 100.562 38.1215 99.3281 34.2016C98.094 30.2817 94.1741 21.2804 90.0364 17.0702C85.8987 12.8599 79.7285 7.48816 73.268 4.94746C66.8074 2.40676 58.532 2.04386 54.467 2.4068C51.9818 2.63862 49.5539 3.29033 47.2867 4.33415L45.5444 13.5018L40.26 16.4512L33.0528 15.9084C33.0528 15.9084 23.6159 20.6269 18.9701 26.9423C14.3243 33.2577 10.1867 43.5655 9.82372 50.5343C9.4607 57.503 12.0014 67.5205 13.2355 70.7871C14.4696 74.0536 17.228 78.4817 17.228 78.4817C17.228 78.4817 13.8888 69.9886 13.4532 67.6657C13.0177 65.3428 12.5822 59.245 12.5822 59.245Z" fill="url(#paint0_linear_1238_52759)"/>
<path d="M56.9996 28.4579C57.1087 28.6129 57.2318 28.7575 57.3673 28.8901C57.2871 28.7148 57.1598 28.5652 56.9996 28.4579ZM79.0927 37.8895C79.0017 37.8668 78.9069 37.844 78.816 37.8175L79.2557 37.954C79.2044 37.9254 79.1496 37.9037 79.0927 37.8895ZM51.7531 4.37844C50.1458 4.16994 48.5347 3.96144 46.9501 3.75673C46.6772 4.49501 46.4505 5.24958 46.2715 6.01607C46.2049 6.73308 46.1746 7.45299 46.1805 8.17306C45.919 12.0625 44.0614 14.6213 40.7293 15.569C38.3664 16.2504 35.8299 15.9682 33.6745 14.7843C30.3879 13.0633 27.9276 10.4779 26.0549 7.29737C25.456 6.27384 24.8229 5.26929 24.2012 4.25713C24.1367 4.28746 24.0723 4.31778 24.0041 4.3519C24.6409 6.09569 25.2778 7.84327 25.9639 9.72732C20.2019 7.61203 15.0311 4.74614 11.0166 0C11.3442 1.24614 11.7532 2.46943 12.2411 3.66196C15.1449 10.5386 20.1336 14.9511 27.5826 16.2324C29.7207 16.6001 31.9497 16.4523 34.137 16.566C34.4175 16.5812 34.8232 16.6494 34.9445 16.839C36.2561 18.8595 38.1174 20.2393 40.119 21.4752C40.3985 21.6786 40.6645 21.9003 40.9151 22.1386C40.1499 22.3848 39.3237 22.3634 38.5723 22.0779L40.6307 23.272C41.2589 23.5506 41.8714 23.8632 42.4655 24.2084C43.6937 24.849 44.8689 25.6451 46.1692 26.0773C46.298 26.1211 46.4234 26.1744 46.5445 26.2365C46.2994 26.0045 46.099 25.7295 45.9531 25.4252C45.737 24.7694 46.4914 23.1962 46.4914 23.1962C44.3875 21.9338 42.4466 20.7966 40.536 19.6138C39.1788 18.7761 39.1864 18.0861 40.5208 17.165C40.8179 16.9883 41.1255 16.83 41.442 16.6911C42.3139 16.2476 43.2085 15.8382 44.0539 15.3416C45.8052 14.318 46.9501 12.8434 47.0145 10.7546C47.0436 9.54635 46.97 8.3378 46.7946 7.14196C46.715 6.5885 46.8363 6.29659 47.295 6.13358C48.6256 5.66352 49.9638 5.22 51.2982 4.76888C51.4574 4.71581 51.6128 4.66275 51.772 4.60967C51.7644 4.53382 51.7607 4.45422 51.7531 4.37844Z" fill="#52341C"/>
<path d="M56.6095 28.2645C56.1887 28.3024 55.6693 28.9014 55.2372 29.0303C54.8505 29.1478 54.6724 29.868 54.5965 30.3343C54.402 30.2402 54.1807 30.2174 53.9711 30.2699C53.5427 30.3192 52.993 29.978 52.6556 30.1372C51.5752 30.6565 50.7792 30.0728 49.9603 29.5989C49.6137 29.3461 49.3318 29.0148 49.1377 28.6322C48.7051 28.3614 48.325 28.0147 48.0156 27.6087L49.1339 27.6504L50.1195 26.4298L49.6836 23.9733C50.7716 23.5563 51.2151 24.1628 51.4805 24.7239C52.3675 26.5662 54.2099 27.1652 55.8096 27.965C56.0707 28.0792 56.3377 28.1791 56.6095 28.2645Z" fill="#52341C"/>
<path d="M59.4106 30.2091C59.197 30.1804 58.9872 30.1282 58.7851 30.0536C58.4515 29.8717 58.3188 31.0317 57.9928 30.7398C57.663 30.4517 57.7047 29.9778 57.6289 29.4357C57.6191 29.3512 57.6026 29.2675 57.5796 29.1855C57.6547 29.216 57.7339 29.2352 57.8146 29.2424C58.3188 29.2614 58.823 29.25 59.4523 29.25C59.372 29.3959 59.3265 29.5583 59.3193 29.7247C59.312 29.891 59.3433 30.0568 59.4106 30.2091Z" fill="#52341C"/>
<path d="M85.1658 43.4623C85.3209 43.0406 85.4227 42.6013 85.4691 42.1544C85.2211 42.0936 84.9927 41.9705 84.8056 41.7967C84.6185 41.6228 84.4789 41.4041 84.4001 41.1612C84.3237 41.2123 84.2341 41.24 84.1423 41.2408C84.0577 41.2419 83.9747 41.2182 83.9035 41.1726C83.8769 41.256 83.8504 41.3394 83.8201 41.4228C83.1415 41.6086 82.334 41.6275 82.2696 42.6093C82.1956 42.6796 82.1068 42.7325 82.0097 42.764C81.9126 42.7955 81.8097 42.8048 81.7086 42.7913C81.4556 42.6698 81.2522 42.465 81.1323 42.2113C81.0906 42.1089 81.375 41.8208 81.5607 41.6881C81.9853 41.3849 82.444 41.1233 82.8875 40.8466C82.8799 40.7594 82.8685 40.6684 82.8534 40.5774L82.2696 40.2438C82.2105 40.2117 82.1608 40.1647 82.1255 40.1074C82.1104 40.2249 82.0914 40.3386 82.0725 40.4485C82.0573 40.5244 81.682 40.6381 81.6403 40.5926C81.4716 40.3854 81.3372 40.1524 81.2423 39.9027C81.1689 39.6962 81.1106 39.4846 81.0679 39.2696C80.8746 39.1597 80.7116 39.0762 80.5637 38.9891C80.4732 38.9423 80.387 38.8878 80.3059 38.8261C80.2491 38.7844 80.1922 38.7351 80.1391 38.6896C80.0709 38.682 80.0178 38.7123 79.9875 38.8071L79.8814 39.1634L79.4075 38.8071L78.9488 39.3454H78.4636L78.2892 40.6722C78.5404 40.8608 78.7808 41.0633 79.0095 41.2787C79.1203 41.4122 79.2145 41.5586 79.29 41.7147C79.1118 41.7981 78.9261 41.9573 78.7555 41.9421C78.5286 41.8945 78.3151 41.7974 78.13 41.6578C77.8332 41.4522 77.4894 41.3245 77.1303 41.2868C76.7712 41.249 76.4084 41.3023 76.0754 41.4417C75.7797 42.1506 75.5674 42.651 75.3589 43.1362C76.371 43.341 76.7539 43.7807 76.5037 44.4972C76.6212 44.4631 76.735 44.3872 76.8335 44.4024C77.1065 44.4403 77.3718 44.5161 77.6372 44.5768C77.4964 44.7854 77.3697 45.0032 77.2581 45.2288C76.9694 45.8105 76.7371 46.4186 76.5644 47.0446C76.5227 47.2417 76.898 47.6133 77.1633 47.7725C77.5461 47.9811 77.9555 48.1367 78.3802 48.2349C78.5697 48.288 78.9033 48.3108 78.9791 48.2046C79.3506 47.7004 79.6463 47.1394 79.9913 46.6162C80.1391 46.3926 80.4311 46.0059 80.5069 46.0401C80.7988 46.1689 81.2423 46.4305 81.2461 46.6542C81.2726 47.545 81.9133 47.7421 82.535 48.0265C82.6685 48.0995 82.7879 48.1958 82.8875 48.3108C83.5357 47.962 84.1271 47.6474 84.6654 47.3593C84.2257 46.4191 83.7556 45.4146 83.1984 44.228H84.5896C84.8157 44.0003 85.0096 43.7426 85.1658 43.4623ZM78.8199 44.7208C78.5546 44.3342 78.2892 44.1105 78.2968 43.9058C78.3082 43.7238 78.6569 43.3902 78.8048 43.4168C79.0968 43.5272 79.3674 43.6876 79.6046 43.8906C79.3961 44.1105 79.1876 44.3341 78.8199 44.7208ZM82.5274 44.1522C82.1939 44.3159 81.8411 44.4369 81.4773 44.5123C81.3446 44.5237 81.1741 44.1598 81.0224 43.9702C81.2802 43.8186 81.5266 43.5646 81.7919 43.5457C82.0308 43.5305 82.2886 43.7731 82.5426 43.8982C82.535 43.9816 82.5312 44.065 82.5274 44.1522Z" fill="#EA644D"/>
<path d="M91.0113 32.6772C90.2456 32.6393 89.4836 32.6582 88.68 32.6582C88.9264 33.7765 88.733 33.932 87.0764 33.9699C87.5882 33.0335 88.0545 32.1806 88.4487 31.4603C88.0469 31.1002 87.6072 30.8993 87.5351 30.6074C87.3873 30.016 87.0272 29.9516 86.6557 30.1677C86.178 30.4444 85.833 30.9599 85.3478 31.2139C84.5366 31.6347 84.8247 31.8773 85.3023 32.3777C85.7913 32.8895 86.2614 33.5415 85.8406 34.6333C85.6056 34.2428 85.4502 34.0305 85.3402 33.7917C85.2606 33.6135 85.3023 33.3633 85.1962 33.2193C84.5555 32.3512 82.8459 32.0934 81.8754 32.6544C82.0119 33.5074 82.1408 34.3338 82.2772 35.2019C82.9672 35.2322 83.6723 35.3308 83.8467 36.0321C83.1226 36.9798 82.4971 37.8024 81.792 38.7274C81.9342 38.9019 82.0457 39.0993 82.1218 39.3112C82.1677 39.2696 82.2217 39.238 82.2804 39.2185C82.3392 39.1989 82.4013 39.1917 82.463 39.1975L84.093 39.3415C84.1535 39.3467 84.2122 39.3642 84.2656 39.3929C84.3191 39.4216 84.3661 39.4608 84.4039 39.5083C84.4226 39.4628 84.4441 39.4185 84.4683 39.3756C85.5487 39.3832 86.2652 38.8563 86.3941 37.6546C86.4055 37.5522 86.758 37.3703 86.8642 37.4196C86.9568 37.4715 87.0377 37.5421 87.1017 37.6269C87.1656 37.7118 87.2113 37.809 87.2357 37.9124C87.2488 38.1729 87.3552 38.4201 87.5355 38.6087C87.7157 38.7973 87.9578 38.9147 88.2175 38.9397C88.5252 39.0062 88.826 39.1014 89.1159 39.224C89.9461 39.5424 90.1584 39.3832 90.0106 38.5075C89.8172 37.3741 89.6846 36.233 88.0886 36.1761C87.5579 36.161 87.0158 35.7553 87.3949 34.8418C88.1644 35.1943 88.8657 35.5165 89.605 35.8539C89.6618 35.7592 89.8172 35.3384 89.912 35.3535C91.1857 35.5317 91.1099 34.6484 91.1668 33.8448C91.2238 33.5972 91.2668 33.3466 91.2957 33.0942C91.2881 32.9425 91.1175 32.6809 91.0113 32.6772ZM85.3365 35.7288C85.037 35.672 84.783 35.3687 84.5101 35.1716C84.7148 34.9858 84.9195 34.7963 85.2417 34.5006C85.5601 34.819 85.7762 35.0313 85.9923 35.2436C85.7724 35.418 85.5184 35.763 85.3365 35.7288Z" fill="#EA644D"/>
<path d="M61.5528 32.0896C61.5528 31.6271 60.245 31.5058 59.3731 31.3125C58.5012 31.1191 59.4109 30.922 59.7787 30.5581C59.6247 30.4802 59.4969 30.359 59.411 30.2094C59.1974 30.1806 58.9876 30.1285 58.7855 30.0539C58.4519 29.872 58.3192 31.032 57.9932 30.7401C57.6634 30.452 57.7051 29.9781 57.6293 29.436C57.6195 29.3515 57.603 29.2678 57.58 29.1858C57.5522 29.1784 57.5261 29.1656 57.5033 29.148C57.4806 29.1304 57.4615 29.1085 57.4473 29.0835C57.4261 29.017 57.3994 28.9523 57.3677 28.8901C57.2322 28.7576 57.1091 28.613 57 28.458C56.8786 28.3771 56.7474 28.3121 56.6095 28.2646C56.1887 28.3026 55.6694 28.9015 55.2372 29.0304C54.8506 29.1479 54.6724 29.8682 54.5966 30.3345C54.6673 30.3885 54.7262 30.4564 54.7699 30.5339C54.8135 30.6115 54.841 30.6971 54.8506 30.7856C54.8998 30.9941 55.169 31.1646 55.3472 31.339C55.6011 31.5854 55.8627 31.8167 56.1205 32.0555L55.9385 32.3626C55.5746 32.173 55.0742 32.0745 54.8809 31.7788C54.335 30.9486 53.4821 30.9182 52.6784 30.7931C52.5493 30.7692 52.4161 30.78 52.2925 30.8244C52.1689 30.8688 52.0593 30.9452 51.9749 31.0458C51.8904 31.1464 51.8343 31.2676 51.812 31.3971C51.7897 31.5265 51.8022 31.6595 51.8482 31.7826C52.197 32.7417 52.1667 33.9813 53.4972 34.3073C53.5162 34.3111 53.5276 34.3527 53.5996 34.4627C53.4062 35.3801 52.0112 36.1193 53.0006 37.3892C53.4366 37.3741 54.0166 37.2983 53.9521 38.155C55.7831 38.1322 55.586 36.0018 56.9583 35.4786C57.0334 35.811 57.1387 36.1359 57.2729 36.4491C57.4076 36.7638 57.6367 37.0287 57.9287 37.2073C58.4376 37.4027 58.9797 37.4967 59.5247 37.484C60.0933 37.465 60.1919 36.9836 60.207 36.4681C60.2411 35.3952 59.972 35.0048 58.8499 34.5082C59.3806 34.2352 59.9303 33.9509 60.5331 33.6439H60.5368C60.6013 33.6135 60.6657 33.5794 60.734 33.5453L61.7916 33.007C61.6478 32.7216 61.5664 32.4089 61.5528 32.0896ZM55.8968 33.9358C55.332 33.9813 54.7709 34.0267 54.2099 34.0722C54.1682 33.9699 54.1265 33.8675 54.0886 33.7652C54.4298 33.5074 54.7482 33.1094 55.1273 33.0373C55.3699 32.9956 55.6997 33.4316 55.9916 33.6515C55.9613 33.7462 55.9272 33.841 55.8968 33.9358ZM57.9022 34.3679C57.6429 34.1727 57.4063 33.9489 57.1971 33.7007C57.3791 33.5681 57.5875 33.2989 57.7392 33.3292C57.9894 33.3747 58.2017 33.6173 58.5732 33.8751C58.2396 34.1291 57.9667 34.4134 57.9022 34.3679ZM57.9212 32.8705C57.6785 32.5483 57.4397 32.2299 57.1971 31.9076C57.4908 31.677 57.8085 31.4787 58.1448 31.3163C58.213 31.2935 58.3154 31.3656 58.4443 31.4679L58.4481 31.4717C58.5504 31.5551 58.6604 31.6537 58.7855 31.7371C58.4405 32.1882 58.1789 32.5294 57.9212 32.8705Z" fill="#EA644D"/>
<path d="M96.1894 45.71C93.8315 44.948 91.5077 44.0913 89.1688 43.2649C88.4637 43.0185 87.7662 42.7417 87.0573 42.5029C86.6479 42.3627 86.1323 42.1959 85.9845 42.7797C85.939 42.9654 86.3484 43.3028 86.5948 43.5227C86.806 43.6755 87.0368 43.7992 87.2809 43.8904C89.8966 45.1035 92.5123 46.3165 95.128 47.5296C95.4465 47.728 95.7798 47.9016 96.125 48.0489C96.1497 47.7258 96.1471 47.4012 96.1174 47.0785C96.0188 46.6577 96.4548 46.4833 96.9855 45.9071L97.0196 45.873C96.7379 45.8484 96.4596 45.7937 96.1894 45.71ZM97.357 48.4242C97.445 48.5415 97.5758 48.6192 97.7209 48.6403L97.357 48.4242ZM98.2934 48.7048C98.2896 48.7124 98.2858 48.7161 98.282 48.7237C98.2922 48.7231 98.3025 48.7244 98.3123 48.7275L98.3237 48.7161C98.3138 48.7117 98.3037 48.708 98.2934 48.7048ZM104.692 49.7927C104.682 49.843 104.668 49.8924 104.651 49.9406L104.791 49.8799C104.749 49.8624 104.715 49.8318 104.692 49.7927ZM104.745 49.4895L104.969 48.6972C104.875 48.9554 104.8 49.2202 104.745 49.4895Z" fill="#52341C"/>
<path d="M105.018 47.685C105.439 46.4833 105.394 46.3051 104.374 46.0814C103.866 45.9715 103.29 46.1876 102.744 46.1876C102.456 46.1478 102.174 46.0701 101.906 45.9563C102.103 45.7971 102.293 45.6189 102.505 45.4787C102.668 45.3903 102.838 45.3155 103.013 45.255C103.017 45.1678 103.021 45.0806 103.021 44.9972C102.653 44.9214 102.281 44.8494 101.895 44.7736C102.024 43.9358 101.398 43.5757 100.776 43.4127C100.174 43.2572 99.7795 43.7008 99.5823 44.2921C99.3928 44.8494 99.1578 45.3915 98.9265 45.9753C99.1805 46.0473 99.317 46.0473 99.3928 46.1193C99.5466 46.2804 99.6897 46.4513 99.8212 46.6311C99.571 46.6614 99.245 46.8055 99.0782 46.6993C98.8323 46.4904 98.6201 46.2449 98.4489 45.9715C98.138 45.9374 97.831 45.926 97.5315 45.907C97.3571 45.8995 97.1865 45.8881 97.0197 45.8729L96.9856 45.907C96.4549 46.4833 96.019 46.6576 96.1175 47.0784C96.1473 47.4011 96.1498 47.7257 96.1251 48.0489C96.3754 48.1188 96.6432 48.0889 96.8719 47.9655C96.9515 47.9238 97.2207 48.0413 97.232 48.1133C97.2501 48.2249 97.2929 48.3311 97.3571 48.4242L97.721 48.6402L97.7248 48.644C97.903 48.6819 98.1039 48.6819 98.2821 48.7236C98.2859 48.7161 98.2897 48.7123 98.2935 48.7047C98.3038 48.7079 98.3139 48.7117 98.3238 48.7161C98.7901 48.2119 99.2563 47.7077 99.8212 47.0974C100.041 48.8753 99.6733 49.2164 98.3238 48.7161L98.3124 48.7274C98.3026 48.7243 98.2923 48.723 98.2821 48.7236C97.8561 49.3155 97.4759 49.939 97.1448 50.5887C97.0729 50.7805 97.0448 50.9858 97.0625 51.1898C97.0802 51.3938 97.1433 51.5912 97.2472 51.7677C97.6209 52.1144 98.0552 52.3894 98.5285 52.5789C99.0213 52.8481 99.3094 52.6737 99.5141 52.1544C99.7643 51.5289 100.094 50.9413 100.473 50.168C100.78 50.5925 101.11 50.8579 101.174 51.1763C101.345 51.9876 102.706 52.7381 103.35 52.1923C103.573 51.9998 103.827 51.846 104.101 51.7374V50.4485L104.344 50.2248C104.282 50.2231 104.22 50.2116 104.162 50.1907C104.029 50.1414 103.903 50.0765 103.786 49.9974C103.354 49.7282 102.949 49.4098 102.376 49.0004C103.35 48.6478 104.078 48.0792 104.969 48.6971L105.216 47.9806L105.837 47.5599C105.598 47.6053 105.325 47.6281 105.018 47.685ZM102.24 47.7759C101.861 47.5966 101.494 47.394 101.14 47.1694C101.038 47.0974 101.019 46.8055 101.068 46.6425C101.102 46.525 101.326 46.3582 101.432 46.3809C101.94 46.4795 102.441 46.6387 102.971 46.7827C102.71 47.1391 102.516 47.4044 102.24 47.7759Z" fill="#EA644D"/>
<path d="M45.9532 2.08352C42.9289 1.42421 42.135 3.21483 41.8524 5.49693C39.9081 4.53784 38.3573 5.31734 36.8842 6.35493C36.2518 6.80032 35.7215 7.38795 35.12 7.88053C33.2563 9.4068 31.355 9.5905 29.2738 8.39904C27.5193 7.41544 25.99 6.07569 24.7842 4.46585C25.8777 5.28058 26.8033 5.93335 27.6875 6.638C28.8388 7.55538 29.8792 7.70034 31.0889 6.63011C32.5318 5.35346 34.0929 4.20512 35.645 3.05846C37.4002 1.76199 39.2868 0.71726 41.527 0.54633C42.3321 0.466427 43.1449 0.562508 43.9092 0.827937C44.6735 1.09337 45.3709 1.52179 45.9532 2.08352Z" fill="#52341C"/>
<path d="M74.0019 30.5437C73.6995 31.3376 73.4466 32.0997 73.1048 32.8197C73.0128 32.9088 72.8995 32.9729 72.7758 33.0059C72.652 33.0388 72.5219 33.0396 72.3977 33.0081C71.9973 32.7801 71.6167 32.5189 71.26 32.2272C70.9592 32.0199 70.6474 31.8284 70.3045 31.6067C70.2207 30.7333 72.225 30.0502 70.5865 29.0105L70.9947 28.3847L70.8754 28.2187L70.0583 28.614L69.4087 26.4026C70.5111 27.0806 70.4843 25.5587 71.2982 25.5434C71.7408 25.9424 72.2113 26.3964 72.7203 26.8025C72.8015 26.8481 72.893 26.8722 72.9862 26.8725C73.0793 26.8728 73.171 26.8492 73.2525 26.804C73.3177 26.7232 73.3628 26.628 73.3842 26.5264C73.4056 26.4247 73.4027 26.3194 73.3756 26.2191C73.2717 26.0026 72.9659 25.8881 72.8424 25.6745C72.6851 25.3536 72.5535 25.0207 72.449 24.679L73.1211 24.4612L74.6783 22.7378C75.0771 23.4688 74.431 25.0794 76.0349 24.2535C76.7732 25.021 74.7507 25.4691 76.0683 26.1988L74.3565 26.9516C74.7046 27.1342 74.9677 27.3909 75.2178 27.3788C75.751 27.3532 76.4453 27.4807 76.5537 26.6389C76.6237 26.0958 76.6604 25.5294 77.4408 25.4206L77.7172 26.2083C77.813 26.2188 77.9098 26.2177 78.0053 26.2049C78.385 26.096 78.7615 25.9758 79.139 25.8595C79.1145 26.4178 79.1201 26.9797 79.055 27.5332C78.9769 27.9541 78.8719 28.3696 78.7408 28.7771C77.8468 28.0501 77.4739 29.4734 76.6354 29.457C76.5948 29.4562 76.4907 29.6721 76.5214 29.7385C76.5487 29.7973 76.5885 29.8494 76.6382 29.891C76.6879 29.9327 76.7461 29.9629 76.8088 29.9795C77.0664 29.9836 77.324 29.9686 77.5794 29.9346L78.0063 29.2087L78.2329 29.2724C78.3179 30.1315 77.4333 31.0167 78.2458 31.6707L76.9741 32.6374L76.5773 32.4371L75.9348 33.2739L75.6112 32.3086L75.0411 32.186L75.256 31.6173L74.0019 30.5437ZM76.7401 28.3503L76.7515 28.1434C76.2443 28.1021 75.7342 28.1162 75.23 28.1854C75.0877 28.2176 75.0308 28.7521 75.0079 29.0617C75.0041 29.1122 75.451 29.3068 75.5714 29.2354C75.9796 28.9658 76.3699 28.6701 76.7401 28.3503ZM72.3617 28.2096C72.9508 28.0944 72.5662 29.5552 73.4275 28.8254C73.637 28.6478 73.7599 27.9819 73.6267 27.8575C73.2074 27.4659 72.745 27.6603 72.3617 28.2096Z" fill="#EA644D"/>
<path d="M98.359 62.3566L99.5412 60.6883C99.5818 60.8225 99.6538 61.0601 99.7508 61.3804H101.28C100.958 61.7581 100.771 61.9782 100.536 62.2541L101.013 62.3425C100.967 62.4557 100.852 62.596 100.882 62.6901C101.298 63.9919 100.367 63.8842 99.5871 63.9568C99.3069 64.0184 99.0318 64.101 98.7639 64.2038L100.166 65.062L99.2368 65.3302L100.29 66.5773L99.8946 67.3894C99.0151 67.2179 98.5885 67.4536 98.5011 68.1981C97.1806 67.8719 96.5049 66.9504 96.1323 65.6741C95.9361 66.3446 95.7399 67.0151 95.5076 67.8093L95.2267 67.4413L93.9742 68.598L92.7805 66.5499L92.3202 66.9161C92.3202 66.7936 92.2884 66.6934 92.325 66.6459C92.8547 65.9598 93.2421 65.2456 92.8036 64.3617C92.6903 64.1334 92.5955 63.8389 92.4024 63.7181C91.9014 63.4044 91.7219 63.1391 92.089 62.5494C92.2858 62.2333 92.1783 61.7276 92.1944 61.5017L93.9274 61.2052L94.1007 62.2894L94.3233 62.3055L94.7543 61.4149L95.344 62.7023L95.6743 62.6113C95.612 62.2922 95.5699 61.9674 95.4826 61.6553C95.3066 61.202 95.1677 60.7353 95.0672 60.2595C95.076 60.1083 95.1148 59.9602 95.1815 59.8241C95.2482 59.688 95.3413 59.5666 95.4554 59.4669C95.5563 59.3715 95.8918 59.5243 96.1946 59.5778L96.7028 58.5396C97.7375 59.3777 97.8095 59.6771 97.4122 61.0643C97.6122 60.8012 97.8121 60.5381 98.1203 60.1326C98.2131 60.9851 98.289 61.6826 98.3638 62.3768C98.0371 62.1446 97.6938 61.9366 97.3368 61.7546C97.2929 61.7346 97.0672 62.1143 96.9257 62.3088L97.0617 62.5398L98.359 62.3566ZM94.5527 63.5322V64.6304C94.9315 64.4363 95.2713 64.361 95.4402 64.1494C95.6104 63.8709 95.7179 63.5586 95.7551 63.2343C95.7641 63.193 95.4011 63.0166 95.3895 63.0326C95.2315 63.2655 95.086 63.5068 94.9535 63.7552L94.5527 63.5322ZM98.6105 63.2204L96.8268 63.8365C97.6482 64.5181 98.2407 64.3484 98.6105 63.2204Z" fill="#EA644D"/>
<path d="M88.304 52.0196C89.0387 51.5005 89.9347 51.2607 90.8305 51.3432C91.5318 51.3704 91.7118 51.7328 91.4456 52.3087C91.2403 52.6805 90.9983 53.0309 90.7234 53.3546C90.5456 53.5954 90.3317 53.811 90.1685 54.0604C90.0885 54.2206 90.0285 54.3899 89.9896 54.5646C89.7912 54.4765 89.5889 54.396 89.395 54.2989C88.9499 54.0501 88.4918 53.8254 88.0227 53.6257C87.9226 53.5884 87.6439 53.8447 87.5618 54.0194C87.5175 54.114 87.6777 54.4043 87.8098 54.4637C88.2549 54.6638 88.7373 54.7792 89.1892 54.9663C89.7149 55.1841 90.4033 55.2905 90.1975 56.146C90.1919 56.1695 90.2145 56.1996 90.2229 56.2269C90.6971 57.7664 90.6971 57.7664 89.234 58.2915C88.8804 58.4184 87.8492 57.6371 87.6099 57.0981C87.454 56.7468 87.2425 56.4203 87.032 56.0393C86.3751 56.8742 85.8181 57.6179 85.2086 58.316C85.1068 58.358 84.9962 58.374 84.8867 58.3626C84.7773 58.3512 84.6723 58.3128 84.5814 58.2507C84.2674 57.7139 83.9343 57.3365 83.2782 57.7364C82.9959 56.5626 83.9698 54.9535 85.0505 54.6724C86.3034 54.3464 86.3034 54.3464 86.4299 52.7334L84.1279 55.0466C83.9605 54.7103 83.8914 54.3721 83.7645 54.3488C82.937 54.1969 82.7031 53.6867 82.4544 52.9193C82.176 52.0596 82.2326 51.5567 83.1501 51.3322C83.4719 51.2534 83.7878 51.15 84.2153 51.0262L85.9947 52.3748L86.1807 52.2263C85.9174 51.8124 85.6657 51.3904 85.3877 50.9867C85.0395 50.4811 84.9962 50.0827 85.6 49.7031C86.0313 49.3753 86.435 49.0127 86.8072 48.6191L89.1596 50.8277L87.2019 52.2101L87.3332 52.4082C87.6654 52.2713 87.9973 52.1347 88.3287 51.9985C88.2434 52.0729 88.1703 52.1601 88.1118 52.257C88.0178 52.4887 87.9532 52.7324 87.8768 52.9713C88.1344 52.954 88.3909 52.9226 88.6451 52.8773C88.8334 52.8184 89.016 52.743 89.191 52.6519L89.0248 52.3507L88.304 52.0196Z" fill="#EA644D"/>
<path d="M46.0683 3.85776C45.5764 4.11068 45.2906 4.38237 45.1013 4.32657C44.7959 4.17359 44.5206 3.96686 44.2886 3.71625C44.528 3.5305 44.7753 3.18756 45.0049 3.19901C45.2886 3.21307 45.5577 3.52162 46.0683 3.85776Z" fill="#52341C"/>
<path d="M38.4622 22.9839C38.6909 22.9542 38.9216 22.9427 39.1521 22.9498C39.6604 22.9667 40.1614 23.0759 40.6306 23.272L38.5721 22.0779C37.8822 21.792 37.1712 21.5601 36.4455 21.3841C36.2191 21.1678 35.9757 20.9701 35.7176 20.7928C35.5446 20.6681 35.4179 20.4894 35.3575 20.2848C35.3258 19.9002 35.3208 19.5139 35.3423 19.1286C35.2779 19.0983 35.2172 19.0679 35.1528 19.0376C34.9367 19.3939 34.7168 19.7503 34.5008 20.1104C34.1217 19.5039 33.7691 19.7086 33.4166 20.2431C33.0868 20.7359 32.7229 21.2098 32.4765 21.5509C32.9276 22.1802 33.3938 22.8398 33.8601 23.4994C33.8032 23.5525 33.7426 23.6018 33.682 23.6549C33.1933 23.3796 32.7188 23.0797 32.2604 22.7564C31.9319 22.5221 31.5467 22.3799 31.1448 22.3446C30.7429 22.3093 30.3388 22.3821 29.9745 22.5555C29.2618 22.8436 29.8494 23.67 29.838 24.2652C29.8153 25.1371 30.2816 25.2811 30.9601 25.3077C31.1912 25.3315 31.4204 25.3708 31.6463 25.4252C31.0549 26.4374 30.509 27.3699 29.9025 28.401C31.1534 28.5602 32.0784 28.962 32.4196 30.2017C32.4878 30.1675 32.5599 30.1296 32.6319 30.0955C32.8593 29.3904 33.0906 28.6853 33.3484 27.8968C33.4924 28.1887 33.5986 28.401 33.7729 28.746C33.9587 28.147 34.1027 27.6845 34.243 27.2221C34.334 27.1879 34.4212 27.1538 34.5084 27.1235C34.7093 28.5223 35.4219 29.4094 36.544 29.6368C36.8962 29.3622 37.2646 29.109 37.6472 28.8787C38.4963 28.4427 38.5873 27.9916 37.9429 27.2486C37.7912 27.0742 37.5789 26.896 37.5448 26.6913C37.4533 26.263 37.4507 25.8204 37.5372 25.3911C37.5676 25.2698 38.1551 25.338 38.4584 25.2357C38.7225 25.1633 38.9523 24.9993 39.1067 24.7732C39.4213 24.1059 39.1938 23.507 38.4622 22.9839ZM32.7987 25.8687L32.5371 25.755C32.6167 25.1219 32.6963 24.4888 32.7759 23.852C32.8669 23.852 32.9579 23.8558 33.0489 23.8558C33.1778 24.3258 33.3067 24.7997 33.4507 25.3266C33.2498 25.4933 33.0223 25.6792 32.7987 25.8687ZM34.4477 23.5487C34.7661 23.2075 35.0732 22.8777 35.585 22.3281C35.7518 22.9991 35.8731 23.4881 35.9944 23.9809C35.911 24.0188 35.8238 24.0567 35.7404 24.0984C35.331 23.924 34.9216 23.7496 34.4477 23.5487ZM36.4417 26.4298C35.9072 26.0696 35.3651 25.7171 34.8457 25.3342C34.7889 25.2963 34.8116 25.0158 34.8799 24.9703C35.0049 24.8831 35.2552 24.8073 35.3386 24.8755C35.82 25.2508 36.2673 25.6716 36.726 26.0772L36.4417 26.4298ZM37.4387 22.5707H36.0588C36.1043 22.3394 36.1498 22.112 36.1915 21.8807C36.6199 21.9641 37.0482 22.0438 37.4766 22.1271C37.4652 22.275 37.45 22.4229 37.4387 22.5707Z" fill="#EA644D"/>
<path d="M40.6308 23.2719L39.1523 22.9497C39.6606 22.9667 40.1616 23.0759 40.6308 23.2719Z" fill="white"/>
<path d="M56.1926 18.2756C55.8855 18.1543 55.5747 18.0368 55.2032 17.8928C55.2816 17.6469 55.3436 17.3962 55.3889 17.1422C55.4064 16.8974 55.4089 16.6518 55.3965 16.4067C54.9806 16.4216 54.5642 16.3962 54.1531 16.3309C53.1485 16.0618 52.5761 16.4901 52.6216 17.5402C52.6292 17.7184 52.6443 17.8965 52.6557 18.1164C52.4093 18.052 52.2387 18.0141 52.0757 17.961C51.7763 17.8662 51.4806 17.7563 51.1811 17.6539C51.3469 17.3256 51.5645 17.026 51.8255 16.7669C52.3411 16.4105 52.5837 16.0921 52.0454 15.6334C52.3259 15.406 52.5572 15.2202 52.7922 15.0306C51.4123 15.5727 51.8521 13.9123 51.0029 13.7759C50.567 14.1663 50.0741 14.8222 49.2894 14.371C49.1681 15.042 49.0734 15.5879 48.9786 16.1376C49.0468 16.8048 50.2334 16.9337 49.8695 18.1884C49.0582 17.4037 48.3455 16.7138 47.5457 15.9443C47.4698 16.3461 47.4206 16.6039 47.3561 16.9413C47.1405 16.7781 46.9165 16.6263 46.6851 16.4863C46.4956 16.384 46.2226 16.221 46.09 16.2854C46.0092 16.3593 45.9465 16.4506 45.9064 16.5525C45.8663 16.6543 45.85 16.7639 45.8587 16.873C45.9156 17.6009 46.0255 18.3287 46.1317 19.1892C46.4653 18.9239 46.67 18.7571 46.9012 18.5713C47.1287 18.8443 47.341 19.0982 47.5646 19.3636C47.2765 19.5266 47.0453 19.6593 46.6434 19.8905C47.1931 20.0725 47.5495 20.19 47.8793 20.2999C47.4812 21.2894 45.908 21.5547 46.4918 23.1962C46.4918 23.1962 45.7374 24.7694 45.9535 25.4252C46.0994 25.7295 46.2998 26.0044 46.5449 26.2364C47.1152 26.5849 47.6091 27.0453 47.9968 27.5897L48.0157 27.6087L49.134 27.6504L50.1196 26.4297L49.6837 23.9733C49.9907 22.9763 50.2372 22.1688 50.5556 21.1415C51.3972 22.0778 51.5336 23.5525 52.8453 24.0908C52.9097 23.6586 52.9628 23.3023 53.0196 22.9346C53.3343 22.8929 53.6034 22.8588 53.8991 22.8209V22.203C54.191 22.3773 54.4223 22.5138 54.6762 22.6692C54.79 21.7594 54.8165 21.7215 53.8915 21.1036C53.1334 20.5956 53.5921 20.0156 53.7209 19.4887C53.7854 19.2271 54.1114 19.03 54.3161 18.8026C54.3957 18.8556 54.4753 18.9087 54.5549 18.9618V20.3947C54.5815 19.2764 55.116 18.6092 56.1926 18.2756ZM48.9862 19.5835C48.6753 19.5418 48.4251 19.0566 48.1484 18.7684C48.209 18.6433 48.2735 18.5182 48.3341 18.3931L50.0742 18.7229C50.0893 18.8442 50.1045 18.9694 50.1196 19.0945C49.7368 19.2727 49.3349 19.6289 48.9862 19.5835ZM50.9574 19.5266C51.6701 18.522 51.9734 18.469 53.0272 19.1665C52.4435 20.0043 51.708 19.6441 50.9574 19.5266Z" fill="#EA644D"/>
<path d="M55.3467 31.339L54.5469 30.7401C54.5469 30.7401 54.5582 30.5695 54.5962 30.3345C54.6668 30.3885 54.7258 30.4564 54.7695 30.5339C54.8131 30.6115 54.8406 30.6971 54.8501 30.7856C54.8994 30.994 55.1686 31.1646 55.3467 31.339Z" fill="#EA644D"/>
<path d="M56.9998 28.4581C56.8785 28.3772 56.7473 28.3122 56.6094 28.2647C56.6862 28.2552 56.7642 28.2684 56.8336 28.3028C56.903 28.3372 56.9608 28.3912 56.9998 28.4581Z" fill="#EA644D"/>
<path d="M57.5795 29.1858C57.5517 29.1784 57.5256 29.1656 57.5028 29.148C57.4801 29.1304 57.461 29.1085 57.4468 29.0835C57.4256 29.017 57.3989 28.9523 57.3672 28.8901C57.4646 28.9665 57.5382 29.0691 57.5795 29.1858Z" fill="#EA644D"/>
<path d="M58.444 31.4678L58.1445 31.3162C58.2128 31.2935 58.3151 31.3656 58.444 31.4678Z" fill="#EA644D"/>
<path d="M59.7783 30.5582C59.6244 30.4804 59.4965 30.3591 59.4106 30.2095C59.7329 30.2701 59.9944 30.3459 59.7783 30.5582Z" fill="#EA644D"/>
<path d="M60.7337 33.5454L60.5366 33.6477V33.644C60.6011 33.6136 60.6656 33.5795 60.7337 33.5454Z" fill="#EA644D"/>
<path d="M65.154 34.5535C65.1085 34.6103 65.063 34.6672 65.0175 34.7203L64.9038 34.6748L64.991 34.4814C65.0479 34.5042 65.1009 34.5269 65.154 34.5535Z" fill="#EA644D"/>
<path d="M84.5894 40.7515C84.5977 40.8299 84.5844 40.9091 84.551 40.9806C84.5176 41.0521 84.4653 41.1131 84.3999 41.1571V41.1609C84.3236 41.212 84.234 41.2397 84.1421 41.2405C84.0575 41.2416 83.9745 41.2178 83.9033 41.1723L82.8456 40.5013C82.85 40.5263 82.8526 40.5517 82.8532 40.5771L82.2694 40.2435C82.2103 40.2114 82.1606 40.1644 82.1254 40.107C82.1607 39.8544 82.162 39.5981 82.1292 39.3451C82.1285 39.3334 82.1259 39.3219 82.1216 39.311C82.1675 39.2694 82.2215 39.2378 82.2802 39.2183C82.339 39.1987 82.4011 39.1915 82.4628 39.1972L84.0928 39.3413C84.1532 39.3465 84.212 39.364 84.2654 39.3927C84.3188 39.4214 84.3659 39.4606 84.4037 39.5081C84.4593 39.5777 84.4936 39.662 84.5022 39.7507L84.5894 40.7515Z" fill="#52341C"/>
<path d="M82.1291 39.3452C82.162 39.5982 82.1607 39.8545 82.1253 40.1071C82.0978 40.0736 82.0772 40.0349 82.0647 39.9934L81.9965 39.7849C81.9686 39.7023 81.9656 39.6134 81.9879 39.5292C82.0101 39.445 82.0566 39.3691 82.1215 39.311C82.1259 39.3219 82.1284 39.3335 82.1291 39.3452Z" fill="#EA644D"/>
<path d="M83.9038 41.1724L82.8538 40.5773C82.8531 40.5518 82.8506 40.5265 82.8462 40.5015L83.9038 41.1724Z" fill="#EA644D"/>
<path d="M66.5905 36.5098L66.7686 35.4483L65.0173 34.7205C65.0628 34.6674 65.1083 34.6106 65.1537 34.5537C65.1007 34.5272 65.0476 34.5044 64.9907 34.4817L65.2902 34.3718L65.7603 34.0723L66.8483 35.1148L66.5905 36.5098Z" fill="#52341C"/>
<path d="M70.4274 39.709L70.3213 40.0691L70.1772 39.6105L69.855 39.0039L70.4274 39.709Z" fill="#52341C"/>
<path d="M80.5523 38.9776C80.4993 38.9208 80.2908 38.7009 80.1391 38.6895C80.124 38.6782 80.1126 38.663 80.0974 38.6516C79.8517 38.3801 79.5683 38.1452 79.2559 37.9541L79.9155 38.155L80.5523 38.9776Z" fill="#52341C"/>
<path d="M80.1391 38.6895C80.0709 38.6819 80.0178 38.7122 79.9875 38.807L79.8813 39.1634L79.4075 38.807L78.9488 39.3453H78.4636L78.2892 40.6721C78.1567 40.5348 77.9982 40.4252 77.8229 40.3499C76.0298 39.9253 74.2368 39.5197 72.6863 39.1634C72.1025 39.4856 71.5415 39.8002 70.9842 40.1073C70.7984 40.2096 70.0403 39.8137 69.8545 39.9161L69.5727 39.537L70.3208 40.0696L70.427 39.7095L69.8545 39.0044L69.4072 38.1552L69.1229 38.0984L68.0766 37.8861L67.7961 37.8292L67.254 37.1468L66.5906 36.51L66.8484 35.115L65.7604 34.0725L65.2904 34.3719L64.9909 34.4819C64.8392 34.4099 64.6838 34.3416 64.5284 34.2696C63.5617 33.8223 62.5913 33.375 61.7914 33.0072C61.6476 32.7218 61.5662 32.4091 61.5526 32.0899C61.5526 31.6274 60.2447 31.5061 59.3728 31.3127C58.5009 31.1194 59.4107 30.9223 59.7784 30.5583C59.9259 30.6381 60.0793 30.7065 60.2371 30.7631C61.6587 31.3165 63.1182 31.7714 64.5398 32.3287C64.6246 32.3809 64.7201 32.4134 64.8193 32.4238C64.9184 32.4342 65.0185 32.4222 65.1124 32.3888C65.2062 32.3553 65.2914 32.3012 65.3616 32.2304C65.4317 32.1597 65.4851 32.0741 65.5178 31.9799C65.7888 31.4473 66.1476 30.9641 66.5792 30.5508C66.5375 31.0625 66.5148 31.5781 66.4504 32.0899C66.3961 32.3252 66.4322 32.5723 66.5515 32.7823C66.6709 32.9922 66.8648 33.1496 67.0948 33.2233C70.8932 35.0354 74.722 36.7602 78.8161 37.8178L79.2558 37.9543C79.5683 38.1453 79.8517 38.3803 80.0974 38.6518C80.1126 38.663 80.1239 38.6781 80.1391 38.6895Z" fill="#52341C"/>
<path d="M64.9908 34.4813L64.6648 34.5988L64.5283 34.269C64.6837 34.3411 64.8392 34.4093 64.9908 34.4813Z" fill="#52341C"/>
<path d="M69.8547 39.0042L69.123 38.0981L69.4074 38.155L69.8547 39.0042Z" fill="#52341C"/>
<path d="M69.3833 39.6914L69.5312 39.2065L69.3833 39.6914Z" fill="#52341C"/>
<path d="M71.5938 38.9395C71.5938 38.483 70.3028 38.3633 69.4421 38.1724C68.5813 37.9814 69.4795 37.7869 69.8425 37.4276C69.6904 37.3508 69.5642 37.2311 69.4795 37.0833C69.2686 37.055 69.0616 37.0035 68.862 36.9299C68.5327 36.7503 68.4017 37.8954 68.0799 37.6073C67.7543 37.323 67.7956 36.8551 67.7206 36.32C67.711 36.2365 67.6947 36.1539 67.672 36.073C67.6445 36.0657 67.6188 36.053 67.5963 36.0356C67.5738 36.0183 67.555 35.9966 67.541 35.9719C67.52 35.9063 67.4937 35.8424 67.4624 35.781C67.3286 35.6502 67.2071 35.5074 67.0994 35.3544C66.9796 35.2746 66.85 35.2105 66.714 35.1636C66.2985 35.201 65.7859 35.7923 65.3593 35.9195C64.9775 36.0355 64.8016 36.7465 64.7268 37.2068C64.7966 37.2602 64.8548 37.3272 64.8979 37.4037C64.941 37.4803 64.9681 37.5648 64.9775 37.6522C65.0262 37.858 65.2919 38.0263 65.4678 38.1986C65.7185 38.4418 65.9767 38.6701 66.2312 38.9058L66.0516 39.2091C65.6923 39.022 65.1983 38.9248 65.0075 38.6329C64.4686 37.8133 63.6266 37.7834 62.8332 37.6598C62.7057 37.6362 62.5742 37.6469 62.4522 37.6907C62.3302 37.7346 62.222 37.81 62.1386 37.9093C62.0553 38.0086 61.9998 38.1283 61.9779 38.2561C61.9559 38.3838 61.9683 38.5152 62.0137 38.6366C62.3579 39.5834 62.328 40.8072 63.6415 41.129C63.6603 41.1327 63.6715 41.1739 63.7426 41.2825C63.5517 42.188 62.1746 42.9177 63.1512 44.1714C63.5816 44.1565 64.1542 44.0817 64.0906 44.9274C65.8981 44.9049 65.7034 42.8018 67.0582 42.2852C67.1323 42.6133 67.2363 42.934 67.3688 43.2432C67.5017 43.5538 67.7279 43.8154 68.0162 43.9917C68.5185 44.1846 69.0537 44.2774 69.5917 44.2649C70.153 44.2462 70.2503 43.7708 70.2653 43.262C70.299 42.2029 70.0333 41.8174 68.9256 41.3272C69.4495 41.0577 69.9921 40.7771 70.5871 40.4739H70.5909C70.6545 40.444 70.7182 40.4103 70.7855 40.3767L71.8296 39.8452C71.6877 39.5635 71.6073 39.2547 71.5938 38.9395ZM66.0104 40.762C65.4528 40.8069 64.899 40.8518 64.3451 40.8967C64.3039 40.7957 64.2628 40.6946 64.2253 40.5935C64.5621 40.339 64.8765 39.9461 65.2507 39.875C65.4902 39.8338 65.8158 40.2641 66.1039 40.4812C66.074 40.5748 66.0403 40.6684 66.0104 40.762ZM67.99 41.1887C67.7341 40.9959 67.5006 40.775 67.294 40.53C67.4736 40.399 67.6795 40.1333 67.8292 40.1633C68.0761 40.2081 68.2857 40.4476 68.6525 40.7021C68.3231 40.9528 68.0536 41.2335 67.99 41.1887ZM68.0088 39.7102C67.7693 39.3922 67.5335 39.0778 67.294 38.7597C67.584 38.5321 67.8976 38.3363 68.2296 38.176C68.2969 38.1535 68.398 38.2246 68.5253 38.3256L68.5291 38.3294C68.6301 38.4118 68.7386 38.509 68.8621 38.5914C68.5214 39.0368 68.2633 39.3735 68.0088 39.7102Z" fill="#EA644D"/>
<path d="M125 51.931C124.845 52.0712 124.685 52.3442 124.541 52.3366C123.487 52.2873 122.392 52.3328 121.395 52.056C120.072 51.6921 118.836 51.3206 117.43 51.6959C115.978 52.146 114.42 52.1167 112.987 51.6125C113.847 52.4238 114.71 53.2388 115.576 54.0576C113.59 55.3313 109.996 55.5095 108.498 52.401C108.233 51.8551 107.937 51.6012 107.304 51.6997C106.846 51.7597 106.382 51.7456 105.928 51.658C105.403 51.5397 104.857 51.541 104.332 51.6618L104.287 51.677L104.143 51.7225L104.101 51.7376V50.4487L104.344 50.2251C104.488 50.2213 104.582 50.1265 104.651 49.9408L104.791 49.8801C104.75 49.8626 104.715 49.832 104.692 49.7929C104.711 49.7057 104.73 49.6072 104.746 49.4896L104.969 48.6974L105.216 47.9809L105.837 47.5601L105.852 47.5563C105.991 47.5324 106.126 47.4903 106.254 47.4312C107.05 47.0521 107.812 46.601 108.745 46.093C108.669 47.924 108.661 49.5389 107.714 51.1614C108.256 51.1614 108.798 51.1766 109.336 51.1576C110.17 51.1235 111.004 51.0174 111.838 51.0325C112.517 51.0477 112.839 50.8278 113.07 50.1493C113.855 47.8141 115.466 46.3395 118.059 45.7974C117.756 47.3137 117.471 48.758 117.168 50.2782C118.423 50.3691 119.772 50.4601 121.118 50.5776C121.218 50.5783 121.318 50.5987 121.41 50.6377C121.502 50.6767 121.586 50.7336 121.656 50.8051C122.172 51.6959 123.017 51.514 123.81 51.5253C124.038 51.4986 124.269 51.5024 124.496 51.5367C124.685 51.6393 124.855 51.7725 125 51.931Z" fill="#52341C"/>
<path d="M104.745 49.4897C104.73 49.6073 104.711 49.7058 104.692 49.793C104.617 49.6603 104.745 49.4897 104.745 49.4897Z" fill="#EA644D"/>
<path d="M106.254 47.4312C106.126 47.4903 105.991 47.5323 105.853 47.5563L106.254 47.4312Z" fill="#EA644D"/>
<path d="M97.2318 48.1136C97.2499 48.2252 97.2927 48.3314 97.3569 48.4245C97.3569 48.4245 96.6404 48.053 96.3106 48.4245C96.1438 48.6064 96.1211 48.379 96.1249 48.0492C96.3752 48.1191 96.643 48.0892 96.8717 47.9658C96.9513 47.9241 97.2205 48.0415 97.2318 48.1136Z" fill="#EA644D"/>
<path d="M97.5318 45.9073C97.3574 45.8998 97.1868 45.8884 97.02 45.8732C97.5204 45.3615 97.5318 45.9073 97.5318 45.9073Z" fill="#EA644D"/>
<path d="M104.651 49.9409C104.583 50.1267 104.488 50.2214 104.344 50.2252L104.647 49.9409H104.651Z" fill="#52341C"/>
<path d="M32.0666 80.2533C31.1366 80.1933 30.4766 80.0883 30.0866 79.9383C29.7266 79.7883 29.3966 79.5783 29.0966 79.3083C28.8266 79.0383 28.3616 78.6933 27.7016 78.2733V78.1833C27.7016 78.0333 27.7766 77.9133 27.9266 77.8233C28.1066 77.7633 28.2566 77.7333 28.3766 77.7333C28.5266 77.9433 28.7216 78.0933 28.9616 78.1833C29.2316 78.2733 29.4866 78.3333 29.7266 78.3633C30.1766 78.5433 30.5666 78.6333 30.8966 78.6333C31.1366 78.6333 31.3616 78.6033 31.5716 78.5433C31.7816 78.5133 32.0216 78.4833 32.2916 78.4533C32.3516 78.5733 32.4566 78.6033 32.6066 78.5433C32.7566 78.5133 32.8016 78.4533 32.7416 78.3633C33.1316 78.0933 33.5216 77.8233 33.9116 77.5533C34.3316 77.3133 34.7066 77.0433 35.0366 76.7433C34.9766 76.7433 34.9616 76.6983 34.9916 76.6083C35.3216 76.3983 35.6066 76.0233 35.8466 75.4833C36.1166 74.9733 36.3416 74.4183 36.5216 73.8183C36.7316 73.2183 36.8966 72.7383 37.0166 72.3783C37.0766 72.4383 37.1366 72.4683 37.1966 72.4683C37.2866 72.4683 37.3316 72.3933 37.3316 72.2433C37.3316 72.0933 37.2716 71.9583 37.1516 71.8383C37.2416 71.5083 37.3316 71.1933 37.4216 70.8933C37.5416 70.5633 37.6916 70.2633 37.8716 69.9933C37.8416 69.9933 37.8266 69.9933 37.8266 69.9933C37.7966 69.9933 37.8116 69.8433 37.8716 69.5433C37.9616 69.2433 37.9916 69.0033 37.9616 68.8233L38.2316 68.6883L38.3216 67.1583L38.6816 66.5733V65.4033C38.8016 65.4333 38.9066 65.3283 38.9966 65.0883C39.0866 64.8483 39.0116 64.8033 38.7716 64.9533L39.0416 63.5133L39.3116 63.4233H39.0416L39.4916 62.3433H39.2216C39.2816 61.8333 39.3566 61.3233 39.4466 60.8133C39.5366 60.2733 39.5816 59.7333 39.5816 59.1933C39.7316 59.3733 39.8216 59.3133 39.8516 59.0133C39.8816 58.7133 39.8816 58.3533 39.8516 57.9333C39.8516 57.5133 39.8516 57.2433 39.8516 57.1233H40.1216L40.1666 56.9433C40.1666 56.6733 40.0916 56.4633 39.9416 56.3133L40.2116 52.9383H40.3016C40.3916 52.9383 40.4366 52.8933 40.4366 52.8033C40.4366 52.6533 40.3766 52.4733 40.2566 52.2633C40.1366 52.0533 40.2416 52.0683 40.5716 52.3083L40.3016 51.2283C40.3616 51.2583 40.4666 51.2733 40.6166 51.2733C40.7666 51.2433 40.8116 51.1683 40.7516 51.0483L40.4816 50.8683L40.6616 50.7783L40.3916 50.1033C40.3916 50.0733 40.3916 50.0583 40.3916 50.0583V50.1033C40.4216 50.1033 40.4666 50.1033 40.5266 50.1033C40.6166 50.1033 40.6616 50.0583 40.6616 49.9683C40.6616 49.7883 40.5716 49.5783 40.3916 49.3383V49.2033C40.3916 48.9933 40.4816 48.8733 40.6616 48.8433C40.8416 48.8133 40.9166 48.7383 40.8866 48.6183L40.4816 48.7083L40.3016 48.3483V48.5283L39.4016 50.3283C39.3116 50.2383 39.2666 50.1183 39.2666 49.9683C39.2666 49.6383 39.3716 49.4283 39.5816 49.3383V48.0783C39.0716 47.9583 38.4866 47.7933 37.8266 47.5833C37.1666 47.3733 36.5816 47.2983 36.0716 47.3583L35.9366 47.0883H35.8916C35.8616 47.0883 35.8016 47.1033 35.7116 47.1333C35.6216 47.1633 35.5466 47.1633 35.4866 47.1333L35.4416 47.0883C35.2616 46.9083 35.0216 46.8183 34.7216 46.8183C34.4516 46.7883 34.1966 46.7733 33.9566 46.7733L33.9116 46.5483L32.7866 46.4133L32.7416 46.1883H31.4366L31.0766 45.9183H30.3566V45.8733C30.3566 45.7233 30.2666 45.6333 30.0866 45.6033C29.9066 45.5433 29.7866 45.5883 29.7266 45.7383L28.9166 45.4683L28.7366 45.1083L27.8366 45.1983C27.8066 45.1683 27.7766 45.0783 27.7466 44.9283C27.7466 44.7783 27.7316 44.7033 27.7016 44.7033C27.6416 44.7033 27.5966 44.8383 27.5666 45.1083L26.9366 44.8833V45.0633C26.9366 45.3333 27.0566 45.4833 27.2966 45.5133C27.5366 45.5433 27.7166 45.6933 27.8366 45.9633L27.1166 46.0533C26.9066 45.8133 26.5616 45.6633 26.0816 45.6033C25.6316 45.5433 25.2716 45.4983 25.0016 45.4683C25.0316 45.4383 25.0466 45.3933 25.0466 45.3333C25.0466 45.1833 24.9416 45.0933 24.7316 45.0633C24.5516 45.0333 24.4766 45.0933 24.5066 45.2433L23.4716 44.7933V44.4333L22.8416 44.6583C22.7516 44.5983 22.6466 44.5083 22.5266 44.3883C22.4066 44.2683 22.3316 44.2683 22.3016 44.3883L21.0866 43.4433L20.7716 43.6233L19.6916 42.9033L19.9616 41.8233C20.1416 41.8233 20.2466 41.7933 20.2766 41.7333C20.3066 41.6433 20.2316 41.5533 20.0516 41.4633L21.2216 40.0233L21.4466 40.2033C21.6866 40.0833 21.8066 40.0533 21.8066 40.1133C21.8066 40.1133 21.7766 40.1133 21.7166 40.1133C21.6866 40.1133 21.6416 40.1283 21.5816 40.1583L22.3016 40.2933L22.4816 40.4733C22.5416 40.4433 22.5716 40.3833 22.5716 40.2933C22.6016 40.2033 22.6316 40.1583 22.6616 40.1583C22.6916 40.1283 22.7966 40.1733 22.9766 40.2933C23.1566 40.4133 23.0816 40.4733 22.7516 40.4733L25.0916 41.0133L24.8666 41.1033L26.7566 41.4633L27.1166 42.0483L27.9266 41.8233L29.7266 42.8583C29.7866 42.6783 29.9066 42.6033 30.0866 42.6333C30.2666 42.6333 30.3266 42.7083 30.2666 42.8583H30.9866C31.0166 43.0383 31.1216 43.1433 31.3016 43.1733C31.5116 43.2033 31.6766 43.1883 31.7966 43.1283C32.0366 43.3383 32.3366 43.4883 32.6966 43.5783C33.0566 43.6683 33.3866 43.7133 33.6866 43.7133L33.8216 44.0733C33.9716 43.9833 34.0916 43.9383 34.1816 43.9383C34.4516 43.9383 34.7066 44.0433 34.9466 44.2533C35.2166 44.4633 35.4716 44.6283 35.7116 44.7483L35.8016 44.3883C36.5516 44.5383 37.2566 44.7783 37.9166 45.1083C38.6066 45.4083 39.3416 45.5733 40.1216 45.6033C40.3316 44.6133 40.4666 43.7733 40.5266 43.0833C40.6166 42.3933 40.8416 41.8683 41.2016 41.5083C41.5916 41.1483 42.3116 40.9833 43.3616 41.0133V41.3733L44.0816 41.1033L44.5316 41.4633L44.6666 43.5783L44.3966 43.7133L44.1716 45.2433C44.2016 45.2133 44.2316 45.1983 44.2616 45.1983C44.3516 45.1983 44.4116 45.2583 44.4416 45.3783C44.5016 45.4683 44.5016 45.5433 44.4416 45.6033C44.3216 45.6933 44.2166 45.7383 44.1266 45.7383H44.0816C44.0516 45.7383 44.0366 45.7533 44.0366 45.7833C44.0366 45.8133 44.0516 45.9033 44.0816 46.0533C44.1416 46.2033 44.2166 46.4433 44.3066 46.7733L45.3866 47.4483L45.6116 47.0883L47.5016 47.4933V47.6733C47.5016 47.9433 47.5466 48.0783 47.6366 48.0783C47.6666 48.0783 47.6666 47.9283 47.6366 47.6283L48.4466 48.0783C48.5366 48.0783 48.5516 48.0333 48.4916 47.9433C48.4316 47.8533 48.3866 47.8083 48.3566 47.8083C48.7466 47.8383 49.1366 47.9133 49.5266 48.0333C49.9166 48.1533 50.3066 48.2883 50.6966 48.4383L50.5166 48.6183L51.9566 48.5283L52.4066 48.8883L54.7016 49.0683C54.5216 49.1883 54.5516 49.2783 54.7916 49.3383C55.0316 49.3683 55.3166 49.3983 55.6466 49.4283C55.9766 49.4283 56.1716 49.4283 56.2316 49.4283L56.5916 49.2483L58.5716 49.6983V49.4283L59.5616 49.6083C59.7716 49.4583 60.0116 49.3533 60.2816 49.2933C60.5816 49.2333 60.8516 49.1883 61.0916 49.1583V49.1133C61.0916 49.0233 61.1366 48.9483 61.2266 48.8883C61.3166 48.8283 61.3916 48.8283 61.4516 48.8883L62.2166 48.3483C62.2166 47.7183 62.1416 47.1183 61.9916 46.5483C61.8716 45.9483 61.7816 45.3483 61.7216 44.7483L61.0916 44.2983L61.4516 44.1633L62.4416 45.1983L62.2616 45.2433C62.6216 45.2433 62.8766 45.4383 63.0266 45.8283C63.2066 46.1883 63.3266 46.5933 63.3866 47.0433C63.4766 47.4933 63.5516 47.8383 63.6116 48.0783L63.3866 48.2583L63.1616 49.5183H62.7116C62.7716 49.7583 62.6666 49.9833 62.3966 50.1933C62.1566 50.4033 61.8566 50.5833 61.4966 50.7333C61.1666 50.8533 60.9116 50.9433 60.7316 51.0033C60.7616 50.9733 60.7766 50.9583 60.7766 50.9583C60.7766 50.9283 60.7766 50.9133 60.7766 50.9133C60.7766 50.7033 60.6866 50.5983 60.5066 50.5983C60.4766 50.5983 60.4166 50.6133 60.3266 50.6433C60.2666 50.6733 60.1916 50.7183 60.1016 50.7783L59.5616 51.1383C59.3816 51.0783 59.1866 50.9883 58.9766 50.8683C58.7966 50.7483 58.6316 50.7483 58.4816 50.8683C58.3316 50.9883 58.0916 51.0783 57.7616 51.1383C57.4616 51.1683 57.1016 51.1833 56.6816 51.1833C56.1416 51.1833 55.5866 51.1683 55.0166 51.1383C54.4766 51.0783 54.0566 51.0483 53.7566 51.0483L53.6666 50.6883L52.5866 50.5983L52.4066 50.7783L50.8766 50.5983V50.2383H50.8316C50.7716 50.2383 50.6816 50.2683 50.5616 50.3283C50.4416 50.3883 50.4266 50.4483 50.5166 50.5083L49.6166 50.0583L49.3466 50.2383L47.7266 49.8783C47.7566 49.8183 47.7716 49.7583 47.7716 49.6983C47.7716 49.6383 47.7416 49.6083 47.6816 49.6083C47.5916 49.6083 47.4716 49.6383 47.3216 49.6983C47.2016 49.7283 47.0666 49.7433 46.9166 49.7433C46.7066 49.7433 46.5866 49.6383 46.5566 49.4283H45.7466C45.7466 49.4883 45.7316 49.5183 45.7016 49.5183C45.6416 49.5183 45.5516 49.4583 45.4316 49.3383C45.3416 49.2183 45.2816 49.1583 45.2516 49.1583C45.1916 49.1283 45.1016 49.1133 44.9816 49.1133C44.8616 49.1133 44.7266 49.1133 44.5766 49.1133C44.4266 49.1133 44.2766 49.1133 44.1266 49.1133C43.9766 49.1133 43.8416 49.0983 43.7216 49.0683V49.1583C43.9016 49.3683 43.9916 49.6083 43.9916 49.8783C43.9916 50.1783 43.9016 50.4483 43.7216 50.6883C43.7516 50.7783 43.7666 50.8833 43.7666 51.0033C43.7666 51.0933 43.7666 51.1833 43.7666 51.2733C43.7666 51.7533 43.7066 52.2933 43.5866 52.8933C43.4966 53.4633 43.4216 53.9733 43.3616 54.4233H43.1366L43.2266 54.4683L43.2716 55.2333C43.1516 55.2033 43.0766 55.2633 43.0466 55.4133C43.0466 55.5633 43.1066 55.6383 43.2266 55.6383L42.8216 56.6733L43.0016 57.1233L42.1916 60.0933L42.4616 60.1833L42.2816 61.2633L41.9216 61.5333L42.1016 62.3433L41.8316 62.4333L41.9216 62.5233L41.7416 63.9633C41.5316 63.9633 41.4266 64.0383 41.4266 64.1883C41.4266 64.2783 41.5016 64.3983 41.6516 64.5483L41.2016 66.3483L40.9316 66.4383L41.2016 66.7083C40.9016 67.0083 40.7066 67.4283 40.6166 67.9683C40.5566 68.5083 40.5116 68.9883 40.4816 69.4083H40.3916C40.2716 69.7083 40.0916 70.1283 39.8516 70.6683C39.6116 71.2083 39.3566 71.7933 39.0866 72.4233C38.8466 73.0233 38.6366 73.5933 38.4566 74.1333C38.2766 74.6433 38.1716 75.0333 38.1416 75.3033L37.6916 75.5283L37.7816 75.7533L37.2416 76.6983L36.9716 76.6083C36.8516 76.7283 36.7766 76.8783 36.7466 77.0583C36.7466 77.2383 36.7166 77.4033 36.6566 77.5533H36.6116C36.6116 77.5233 36.5966 77.4183 36.5666 77.2383C36.5366 77.0583 36.4916 76.9983 36.4316 77.0583C36.1616 77.3883 36.0416 77.7333 36.0716 78.0933L35.4866 78.5433L35.6216 78.6333L34.9016 79.3083H34.6766L34.1816 79.6683C34.2416 79.5483 34.1516 79.5183 33.9116 79.5783C33.6716 79.6683 33.3866 79.7583 33.0566 79.8483C32.7266 79.9683 32.4266 80.0433 32.1566 80.0733L32.0666 80.2533ZM40.5716 48.5283L40.8866 48.6183L40.9316 48.4383C40.9316 48.3183 40.8566 48.3033 40.7066 48.3933C40.5866 48.4833 40.5416 48.5283 40.5716 48.5283ZM56.3212 72.5583C56.1112 72.5883 55.8562 72.4983 55.5562 72.2883C55.2562 72.0483 55.0462 71.8533 54.9262 71.7033L54.9712 71.2983C54.9412 71.2983 54.9112 71.3133 54.8812 71.3433C54.8512 71.3733 54.8212 71.3883 54.7912 71.3883L54.9712 70.2633C55.0312 70.2633 55.0462 70.1883 55.0162 70.0383C55.0162 69.8883 55.0162 69.7983 55.0162 69.7683L54.9712 69.7233L55.0162 68.9583H55.1962L54.9712 68.7333L55.0612 68.0583L55.1512 68.0133L55.0612 67.8783L55.1512 67.3833L55.3312 67.2933C55.3312 67.2333 55.3012 67.1733 55.2412 67.1133C55.2112 67.0233 55.1962 66.9483 55.1962 66.8883C55.1962 66.7683 55.3012 66.6033 55.5112 66.3933L55.3312 66.3033L55.6012 66.0783L55.3762 65.9883C55.5262 65.8683 55.5562 65.7633 55.4662 65.6733C55.4062 65.5533 55.4212 65.4333 55.5112 65.3133L55.8262 64.8633L55.6012 64.6383L55.6462 64.3683C55.7962 64.3683 55.8712 64.3233 55.8712 64.2333C55.8712 64.1733 55.8562 64.0983 55.8262 64.0083C55.7962 63.9183 55.7812 63.8283 55.7812 63.7383H55.8262L55.8712 63.8283L56.0062 62.9283L56.0962 62.8833V62.2083H56.3212L56.1862 61.7133L56.1412 61.7583L55.1962 63.2883L54.9262 63.3333L54.5662 63.8283L54.7912 63.9183L54.6562 64.1433H54.2962C54.3562 64.2633 54.3862 64.3533 54.3862 64.4133C54.3862 64.5333 54.3112 64.6383 54.1612 64.7283C54.0112 64.7883 53.9062 64.8333 53.8462 64.8633L53.9362 65.1333L53.5762 65.7183L53.3512 65.6283C53.3512 65.6283 53.3362 65.6583 53.3062 65.7183C53.3062 65.7783 53.2762 65.8083 53.2162 65.8083L52.9912 65.7183L52.9012 66.0783L53.1262 66.1233C53.0062 66.2433 52.9162 66.3483 52.8562 66.4383C52.7962 66.5283 52.6462 66.5733 52.4062 66.5733C52.3762 66.6633 52.4062 66.7533 52.4962 66.8433C52.2562 67.1733 51.9862 67.5033 51.6862 67.8333C51.4162 68.1633 51.1162 68.4483 50.7862 68.6883H50.6512L50.2912 69.0483L50.1112 68.9583L50.0212 69.2733L49.1662 69.6333L49.0762 69.8583L48.7612 69.7683L48.5812 70.0383H48.4012C47.6812 70.0383 47.0812 69.8433 46.6012 69.4533C46.5112 69.2733 46.4662 69.0633 46.4662 68.8233C46.4062 68.8233 46.3612 68.8533 46.3312 68.9133C46.3012 68.9433 46.2712 68.9733 46.2412 69.0033L45.9712 67.8783L46.1062 67.6083L46.0162 67.5183L46.0612 67.1583H46.1962L46.5562 65.5383C46.5862 65.5383 46.6012 65.5533 46.6012 65.5833C46.6312 65.6133 46.6612 65.6283 46.6912 65.6283C46.7512 65.6283 46.7812 65.5833 46.7812 65.4933C46.7812 65.4033 46.7662 65.3433 46.7362 65.3133L46.6462 65.3583C46.7062 64.9083 46.9312 64.5783 47.3212 64.3683C47.2612 64.3083 47.2312 64.2333 47.2312 64.1433C47.2312 64.0533 47.2462 63.9783 47.2762 63.9183C47.3362 63.8283 47.3812 63.7383 47.4112 63.6483L47.5462 63.6933V63.6483L47.5012 63.5583L47.6812 63.4683C47.7112 63.4683 47.6962 63.4233 47.6362 63.3333C47.6062 63.2433 47.6512 63.2583 47.7712 63.3783V63.0633H48.0412C48.1312 62.9433 48.2062 62.8083 48.2662 62.6583C48.3262 62.5083 48.3862 62.3583 48.4462 62.2083H48.8962L48.7612 61.8933L48.9862 61.6233L49.2562 61.7133L49.3912 61.1283L50.1112 60.5883L49.8862 60.4533L50.1562 60.3633L50.2012 60.6333C50.2012 60.3033 50.3362 60.0633 50.6062 59.9133H50.6512L50.6962 60.1383L50.7412 60.0483L50.6962 59.8233L51.1912 59.4633L51.2362 59.6433C51.2662 59.3433 51.4312 59.1183 51.7312 58.9683C52.0312 58.7883 52.3462 58.6233 52.6762 58.4733C53.0062 58.3233 53.1862 58.1583 53.2162 57.9783L53.5762 58.0233C53.6062 57.9933 53.6212 57.9483 53.6212 57.8883C53.6512 57.7983 53.6362 57.7533 53.5762 57.7533C53.8762 57.7233 54.2212 57.6183 54.6112 57.4383H55.0612L54.8362 57.3033L54.8812 57.2583C55.4212 57.1083 55.9762 57.0333 56.5462 57.0333C56.9362 57.0333 57.2962 57.1533 57.6262 57.3933L58.5262 57.7533C58.5562 57.7833 58.5262 57.7983 58.4362 57.7983C58.3762 57.7983 58.3462 57.8283 58.3462 57.8883C58.3462 57.9183 58.3912 57.9633 58.4812 58.0233C58.5712 58.0533 58.6462 58.0683 58.7062 58.0683L58.7512 57.9333C58.7812 57.9333 58.7962 57.9933 58.7962 58.1133C58.8262 58.2033 58.8562 58.2183 58.8862 58.1583L59.2462 58.5183H59.0662L58.9762 59.8233H58.7962L58.7062 60.0483L58.8412 60.3633C58.8412 60.3933 58.8262 60.4533 58.7962 60.5433C58.7662 60.6033 58.7512 60.5883 58.7512 60.4983V60.4083L58.6162 60.4533C58.6462 60.5133 58.6612 60.6033 58.6612 60.7233C58.6612 60.8133 58.6462 60.9183 58.6162 61.0383C58.6162 61.1283 58.6012 61.2333 58.5712 61.3533C58.4512 61.3533 58.3762 61.3683 58.3462 61.3983L58.2112 61.7583C58.1812 61.8783 58.1962 61.9533 58.2562 61.9833C58.3162 61.9833 58.3462 61.9983 58.3462 62.0283L58.2562 62.2083C58.2562 62.3283 58.2562 62.4483 58.2562 62.5683C58.2862 62.6883 58.2862 62.8233 58.2562 62.9733H57.8962L57.4012 63.0183C57.5212 63.1983 57.6562 63.3483 57.8062 63.4683C57.9562 63.5583 58.0312 63.6033 58.0312 63.6033C58.0912 63.6633 58.1062 63.7233 58.0762 63.7833C58.0162 63.9333 57.9562 64.0833 57.8962 64.2333C57.8362 64.3833 57.7762 64.5333 57.7162 64.6833L57.8512 64.7283C57.8812 64.7583 57.8662 64.7733 57.8062 64.7733C57.7762 64.7733 57.7762 64.7883 57.8062 64.8183L57.8512 64.8633C57.8812 64.8933 57.8962 64.9383 57.8962 64.9983C57.8962 65.1183 57.8512 65.2383 57.7612 65.3583C57.6712 65.4783 57.5962 65.6133 57.5362 65.7633H57.6712C57.6712 66.0033 57.6562 66.3333 57.6262 66.7533C57.5962 67.1433 57.5062 67.4283 57.3562 67.6083H57.3112V67.3833H57.0862L57.4012 67.8333C57.2812 68.2233 57.2062 68.6433 57.1762 69.0933C57.1462 69.5133 57.1012 69.9333 57.0412 70.3533L57.3562 70.7583H57.4012V70.4433L57.6712 70.2633H57.8962L57.9862 70.5783L58.0762 70.0383C58.0762 70.0083 58.0762 69.9933 58.0762 69.9933C58.1062 69.9933 58.1212 69.9933 58.1212 69.9933H58.2112C58.2712 69.7833 58.2862 69.6333 58.2562 69.5433C58.4362 69.3033 58.6462 68.9883 58.8862 68.5983C59.1562 68.1783 59.4112 67.7733 59.6512 67.3833C59.8912 66.9633 60.0412 66.6333 60.1012 66.3933C60.1612 66.3933 60.2062 66.4233 60.2362 66.4833C60.2662 66.5433 60.2962 66.5733 60.3262 66.5733C60.3562 66.5733 60.3562 66.5133 60.3262 66.3933C60.3262 66.2433 60.2962 66.1833 60.2362 66.2133C60.3262 66.0933 60.3862 65.9583 60.4162 65.8083C60.4462 65.6283 60.5212 65.5383 60.6412 65.5383C60.7912 65.5383 60.8662 65.5833 60.8662 65.6733C60.8662 65.7333 60.8512 65.8083 60.8212 65.8983C60.7912 65.9583 60.7762 66.0183 60.7762 66.0783L60.7312 67.0233L60.4612 67.2483L60.5512 67.2933H60.5962L60.4612 67.3833L60.5962 67.5183H60.4612C60.4612 67.6683 60.4312 67.8183 60.3712 67.9683C60.3412 68.1183 60.2962 68.2683 60.2362 68.4183L59.9662 68.5083L60.0562 68.6883L59.8312 69.0033L59.5612 69.0483L58.9762 70.5333L58.7062 70.4883L58.7512 70.8483L57.5812 72.1983L57.3562 72.1533L57.3112 72.4233L57.1312 72.5583H56.3212ZM48.1762 68.5083H48.2662L49.2562 68.0133C49.3162 68.0733 49.3312 68.1033 49.3012 68.1033C49.2712 68.1033 49.2562 68.1033 49.2562 68.1033C49.2562 68.1933 49.2862 68.2683 49.3462 68.3283C49.4062 68.3583 49.4512 68.3733 49.4812 68.3733L49.3912 67.9233C49.4512 67.7433 49.5712 67.6983 49.7512 67.7883L49.7062 67.8783L50.0212 67.7433H49.7962C49.7662 67.6533 49.7962 67.6083 49.8862 67.6083L50.6062 67.4283C50.6362 67.3983 50.5912 67.3833 50.4712 67.3833C50.3512 67.3533 50.2912 67.3233 50.2912 67.2933L50.5612 67.1583C50.8012 67.0383 50.9962 66.9033 51.1462 66.7533C51.2962 66.6033 51.3712 66.5283 51.3712 66.5283C51.4312 66.6183 51.5212 66.6633 51.6412 66.6633H51.6862V66.0783L52.0012 65.7633L52.1812 65.8083L52.1362 65.5833L52.4962 65.4483C52.5562 65.1783 52.6912 64.9833 52.9012 64.8633C53.1112 64.7133 53.2762 64.5483 53.3962 64.3683H53.3062C53.3662 64.2183 53.4862 64.1283 53.6662 64.0983C53.8462 64.0383 53.9512 63.9183 53.9812 63.7383L53.8912 63.5583L54.3862 63.1533L54.2962 63.1083C54.3562 63.0483 54.3862 62.9883 54.3862 62.9283C54.4162 62.8383 54.4912 62.8083 54.6112 62.8383L54.8362 62.8833V62.4333L55.0162 62.1183H55.3762C55.4362 61.9383 55.3762 61.8483 55.1962 61.8483L55.8262 60.9933L56.0962 61.1283V61.0383L55.8262 60.9483L56.0062 60.6783L56.1862 60.6333L56.2312 60.5883C56.1412 60.5883 56.1112 60.5583 56.1412 60.4983C56.1712 60.4083 56.2312 60.3783 56.3212 60.4083L56.3662 60.0483L56.5912 59.9583H56.5012L56.5912 59.7333H56.9062L56.8162 59.0583L56.9062 58.9683L56.7712 58.8333C56.7112 59.0433 56.5612 59.1633 56.3212 59.1933C56.0812 59.2233 55.8712 59.2383 55.6912 59.2383C55.7512 59.2683 55.7662 59.3283 55.7362 59.4183C55.7062 59.4783 55.6612 59.4933 55.6012 59.4633L55.3312 59.3283H55.1962L55.3312 59.6433L54.9262 59.5533L55.0162 59.7333H54.7912V59.9133L54.3862 60.1833C54.3562 60.1833 54.2212 60.1683 53.9812 60.1383C53.7712 60.1083 53.7262 60.1533 53.8462 60.2733H53.9362C53.9362 60.4233 53.8912 60.4833 53.8012 60.4533C53.7112 60.4233 53.6512 60.4083 53.6212 60.4083L53.7112 60.4533C53.1412 60.7233 52.6312 61.1133 52.1812 61.6233C52.2412 61.6533 52.2262 61.6983 52.1362 61.7583C52.0762 61.8183 52.0162 61.8033 51.9562 61.7133V61.9833L51.8662 61.8933C51.8662 62.0433 51.7762 62.1783 51.5962 62.2983C51.4162 62.3883 51.2512 62.4633 51.1012 62.5233C51.0112 62.7033 50.9062 62.8833 50.7862 63.0633C50.6662 63.2433 50.5312 63.3783 50.3812 63.4683L50.2912 63.4233L49.7962 63.7383V63.8733C49.7962 64.1733 49.7062 64.4433 49.5262 64.6833C49.3762 64.8933 49.2112 65.1183 49.0312 65.3583L48.8962 65.2233L48.7612 65.8083H48.4462V66.3933H48.0412C48.0112 66.3933 48.0112 66.4233 48.0412 66.4833C48.0712 66.5433 48.1162 66.5883 48.1762 66.6183C48.1462 66.8583 48.0712 67.0983 47.9512 67.3383C47.8612 67.5483 47.8012 67.7733 47.7712 68.0133H47.9962C47.9362 68.2533 48.0262 68.3583 48.2662 68.3283L48.1762 68.5083ZM48.2662 66.6633C48.2662 66.6933 48.2362 66.6783 48.1762 66.6183V66.5733L48.2662 66.6183V66.6633ZM63.6857 72.0183C63.6557 71.8383 63.6107 71.7483 63.5507 71.7483C63.5207 71.7483 63.4907 71.7783 63.4607 71.8383C63.4307 71.8683 63.3857 71.8833 63.3257 71.8833C63.2657 71.8833 63.1907 71.7633 63.1007 71.5233L62.2457 71.1633L62.3807 70.8483L61.9757 70.8033L61.9307 70.3983H61.8407L61.7507 70.0833L61.9757 69.7233L61.8407 69.6333L62.1557 69.4083L61.9757 69.2283C61.9757 69.0783 62.0207 68.8383 62.1107 68.5083C62.2007 68.1783 62.3057 67.9683 62.4257 67.8783C62.3957 67.8183 62.3657 67.7133 62.3357 67.5633C62.3357 67.3833 62.3957 67.3083 62.5157 67.3383L62.4257 66.7083C62.4857 66.5883 62.5607 66.4383 62.6507 66.2583C62.7707 66.0783 62.7407 66.0633 62.5607 66.2133L62.7857 64.8633L62.8757 64.7283H63.0557C63.0257 64.6683 62.9957 64.5633 62.9657 64.4133C62.9657 64.2333 62.9657 64.0383 62.9657 63.8283C62.9657 63.2283 62.9957 62.5683 63.0557 61.8483C63.1457 61.0983 63.2357 60.5883 63.3257 60.3183C63.2657 60.1383 63.2357 59.9133 63.2357 59.6433C63.2357 59.3433 63.3107 59.1783 63.4607 59.1483L63.5507 56.8983C63.5507 56.8983 63.5507 56.8683 63.5507 56.8083C63.5807 56.7483 63.5957 56.6733 63.5957 56.5833C63.5957 56.3733 63.5507 56.1333 63.4607 55.8633C63.5507 55.8333 63.6107 55.7883 63.6407 55.7283C63.7007 55.6383 63.6557 55.5933 63.5057 55.5933L63.8207 55.3233L63.5057 54.9183L63.5957 54.0183C63.6257 54.0483 63.6707 54.0633 63.7307 54.0633C63.8507 54.0633 63.8957 53.9883 63.8657 53.8383C63.8357 53.6583 63.7457 53.6133 63.5957 53.7033L63.6857 52.8033H63.9557V52.7583C63.9557 52.6983 63.9257 52.5933 63.8657 52.4433C63.8357 52.2633 63.7907 52.1583 63.7307 52.1283C63.8207 52.1583 63.8657 51.9333 63.8657 51.4533C63.8657 51.2433 63.8507 51.0033 63.8207 50.7333C63.8207 50.4633 63.8207 50.2083 63.8207 49.9683C63.8207 49.6083 63.8507 49.2783 63.9107 48.9783C63.9707 48.6783 64.0607 48.4983 64.1807 48.4383C64.0607 47.9583 64.0307 47.5383 64.0907 47.1783L64.4507 47.2233L64.0907 46.9083L64.4507 46.7733L64.1807 46.4133V46.3683C64.1807 46.3083 64.2107 46.2333 64.2707 46.1433C64.3307 46.0533 64.3907 46.0383 64.4507 46.0983C64.3907 45.8583 64.3607 45.6633 64.3607 45.5133C64.3607 45.3033 64.3757 45.1083 64.4057 44.9283C64.4357 44.7483 64.4507 44.5683 64.4507 44.3883L64.6307 44.2083L64.5407 43.8033L64.7657 43.7133C64.8557 43.2933 64.9307 42.8583 64.9907 42.4083C65.0507 41.9283 65.2157 41.5233 65.4857 41.1933H65.8907L66.0257 41.4183L66.5207 41.4633C66.4907 41.5533 66.5207 41.6283 66.6107 41.6883C66.7307 41.7183 66.7907 41.7033 66.7907 41.6433C67.0007 41.9433 67.1057 42.1233 67.1057 42.1833C67.1357 42.2433 67.2257 42.2733 67.3757 42.2733C67.4057 42.2733 67.4507 42.3333 67.5107 42.4533C67.5707 42.5733 67.5707 42.6333 67.5107 42.6333C67.6907 42.6933 67.7957 42.8433 67.8257 43.0833C67.8857 43.2933 67.9157 43.4733 67.9157 43.6233H68.0957L68.0057 44.1183H68.1857L68.1407 44.6583L68.0957 44.6133C68.0357 44.6133 67.9907 44.7033 67.9607 44.8833C67.9607 45.0633 68.0057 45.1233 68.0957 45.0633L68.0057 46.0083H67.8257C67.8557 46.3383 67.8257 46.6833 67.7357 47.0433C67.6457 47.4033 67.6007 47.7633 67.6007 48.1233C67.5407 48.0633 67.4657 48.0783 67.3757 48.1683C67.4657 48.3483 67.5107 48.5133 67.5107 48.6633C67.5107 48.9333 67.4507 49.2033 67.3307 49.4733C67.2107 49.7133 67.1807 49.9683 67.2407 50.2383L66.9707 50.2833L67.0607 50.6433L66.8807 50.7333C66.9407 50.9733 66.9707 51.1833 66.9707 51.3633C66.9707 51.7233 66.9257 52.0833 66.8357 52.4433C66.7457 52.8033 66.6257 53.0883 66.4757 53.2983L66.5207 53.3883L66.2507 53.5233L66.6107 53.7033C66.5507 53.8233 66.4457 53.9883 66.2957 54.1983C66.1457 54.4083 66.1907 54.4983 66.4307 54.4683C66.3707 54.8583 66.2507 55.1433 66.0707 55.3233L66.2507 55.3683L66.0707 55.7283L66.1607 56.1783L65.7557 56.3133L66.0707 56.7183L65.5757 57.1683C65.6657 57.2583 65.7107 57.4533 65.7107 57.7533C65.7107 58.1133 65.6507 58.5783 65.5307 59.1483C65.4407 59.6883 65.3357 60.1983 65.2157 60.6783C65.0957 61.1583 64.9907 61.4733 64.9007 61.6233L65.0807 61.5333L64.5407 64.5483L64.4057 64.5933V65.6733H64.1357C64.1357 65.7033 64.1657 65.7333 64.2257 65.7633C64.3157 65.7933 64.3607 65.8233 64.3607 65.8533V66.0783L64.2707 65.9883L64.1357 65.9433C64.1357 65.9733 64.1357 66.0183 64.1357 66.0783C64.1657 66.1083 64.1807 66.1533 64.1807 66.2133C64.1807 66.3933 64.1507 66.5733 64.0907 66.7533C64.0607 66.9033 64.0307 67.0683 64.0007 67.2483L64.0907 67.1583L64.0457 67.5183L64.1357 67.4733L64.2707 67.0233C64.3307 67.0833 64.3907 67.1133 64.4507 67.1133C64.5407 67.1133 64.6007 67.0683 64.6307 66.9783C64.6907 66.8583 64.6607 66.7383 64.5407 66.6183L64.9907 66.3033C64.9307 66.2433 64.9007 66.1683 64.9007 66.0783C64.9007 65.9583 64.9757 65.8983 65.1257 65.8983C65.2757 65.8683 65.3957 65.8233 65.4857 65.7633C65.6057 65.7033 65.5607 65.5683 65.3507 65.3583L65.7107 64.9533C65.7707 65.0133 65.8757 64.8933 66.0257 64.5933C66.2057 64.2933 66.3557 64.0533 66.4757 63.8733L66.5657 64.0083C66.6257 64.0083 66.6707 63.9183 66.7007 63.7383C66.7307 63.5583 66.7607 63.4533 66.7907 63.4233L66.9257 63.1533C66.9857 63.1533 67.0457 63.1833 67.1057 63.2433C67.1657 63.3033 67.2107 63.3333 67.2407 63.3333C67.2707 63.3333 67.2707 63.2733 67.2407 63.1533C67.2407 63.0333 67.1807 62.9883 67.0607 63.0183L67.4207 62.7933C67.3907 62.7033 67.4057 62.6133 67.4657 62.5233C67.5257 62.4333 67.5557 62.4633 67.5557 62.6133L67.8707 62.2983L67.8257 62.1633C67.9757 61.9233 68.1707 61.7133 68.4107 61.5333C68.6507 61.3233 68.8757 61.1133 69.0857 60.9033C69.0257 60.8133 69.0257 60.7983 69.0857 60.8583C69.1757 60.8883 69.2357 60.9033 69.2657 60.9033L69.2207 60.4983L69.6707 60.5433L69.7607 60.4083L69.7157 60.0483C70.1057 59.8383 70.4207 59.5833 70.6607 59.2833C70.9007 58.9533 71.2307 58.7583 71.6507 58.6983C71.6807 58.6683 71.6957 58.5933 71.6957 58.4733L72.0557 58.5633C72.0557 58.5333 72.0857 58.5033 72.1457 58.4733C72.2057 58.4133 72.2357 58.3683 72.2357 58.3383L72.6407 58.2483C72.6407 58.1883 72.6257 58.1433 72.5957 58.1133C72.5657 58.0833 72.5657 58.0533 72.5957 58.0233L73.9007 57.9783V58.1583L73.9457 58.1133C74.2757 58.2633 74.6057 58.4283 74.9357 58.6083L75.0707 59.4183L75.3857 59.2833C75.5057 59.3433 75.5057 59.4333 75.3857 59.5533C75.2957 59.6733 75.2207 59.6883 75.1607 59.5983L75.3857 60.0483C75.4457 60.0783 75.5057 60.0933 75.5657 60.0933C75.6257 60.0933 75.6407 60.1233 75.6107 60.1833L75.3857 60.4083L75.6107 60.5883L75.2057 61.2183L75.5657 61.3533C75.5957 61.3533 75.5657 61.3833 75.4757 61.4433C75.3857 61.4733 75.3407 61.5033 75.3407 61.5333C75.4307 61.6833 75.4157 61.9233 75.2957 62.2533C75.1757 62.5833 75.0107 62.8983 74.8007 63.1983C74.6207 63.4683 74.4707 63.6333 74.3507 63.6933C74.3507 63.7233 74.3357 63.7383 74.3057 63.7383C74.2757 63.7983 74.2157 63.8733 74.1257 63.9633C74.0657 64.0533 74.0357 64.1283 74.0357 64.1883L74.1707 64.5483L73.9007 64.9983H73.5407C73.5107 65.0283 73.5257 65.0433 73.5857 65.0433C73.6457 65.0433 73.6907 65.0733 73.7207 65.1333L73.2707 65.7633L73.0007 65.7183L72.6407 66.3483L72.8207 66.3033C72.7307 66.4833 72.6107 66.6333 72.4607 66.7533C72.3107 66.8733 72.1607 66.9783 72.0107 67.0683V67.1133C72.0107 67.2033 71.9807 67.2933 71.9207 67.3833C71.8607 67.4733 71.8007 67.4883 71.7407 67.4283L71.5157 67.8783H71.4257L71.0657 68.1933L71.0207 68.4183L70.3907 68.5983L70.2557 69.0483C70.1357 68.9283 70.0907 68.9433 70.1207 69.0933L69.5357 69.5433C69.4757 69.5133 69.4307 69.4983 69.4007 69.4983C69.3707 69.4683 69.3407 69.4533 69.3107 69.4533C69.2507 69.4533 69.2807 69.5733 69.4007 69.8133L68.6357 70.3533L68.3207 70.2633L68.0057 70.7133H67.7357C67.7357 70.7133 67.7807 70.7283 67.8707 70.7583C67.9607 70.7583 67.9607 70.7883 67.8707 70.8483C67.8407 70.8783 67.7807 70.8633 67.6907 70.8033C67.6307 70.7133 67.5707 70.6833 67.5107 70.7133V70.9833L67.0607 71.1183L67.2857 71.2083C66.8957 71.2383 66.5207 71.3283 66.1607 71.4783C65.8307 71.5983 65.4857 71.7033 65.1257 71.7933L65.0807 71.5233C65.0507 71.4633 65.0357 71.5083 65.0357 71.6583C65.0357 71.8083 65.0207 71.9133 64.9907 71.9733L63.6857 72.0183ZM63.6407 70.3533C63.7007 70.4133 63.7607 70.4733 63.8207 70.5333C63.8807 70.5933 63.9257 70.6533 63.9557 70.7133L64.0007 70.5333H64.1807C64.5107 70.5333 64.7507 70.4433 64.9007 70.2633L64.8107 70.1733C64.9907 70.2033 65.1707 70.1883 65.3507 70.1283L65.5307 69.7683C65.7707 69.5883 66.0257 69.5583 66.2957 69.6783C66.2957 69.5583 66.3557 69.4683 66.4757 69.4083L66.3857 69.3183C66.5357 69.1983 66.7157 69.1233 66.9257 69.0933C67.1657 69.0333 67.3307 68.9133 67.4207 68.7333L67.3757 68.6883C67.7057 68.5383 68.1107 68.2833 68.5907 67.9233C69.0707 67.5333 69.4607 67.1883 69.7607 66.8883L69.7157 66.7083C69.8657 66.7083 69.9707 66.7383 70.0307 66.7983V66.7533C70.0307 66.5733 70.1207 66.3633 70.3007 66.1233C70.5107 65.8833 70.6907 65.7483 70.8407 65.7183L70.9307 65.8083L71.0207 65.7633C70.9907 65.7333 70.9757 65.6733 70.9757 65.5833C70.9757 65.4933 70.9907 65.4183 71.0207 65.3583C71.0807 65.2683 71.1257 65.1933 71.1557 65.1333H71.2907V65.2683C71.2907 65.5383 71.3657 65.5683 71.5157 65.3583C71.6657 65.1183 71.8307 64.8033 72.0107 64.4133C72.1907 64.0233 72.3107 63.7233 72.3707 63.5133L72.2807 63.2883L72.5057 62.8383L72.7757 62.7933L72.5057 62.7033C72.7457 62.4933 72.8957 62.1183 72.9557 61.5783C73.0457 61.0383 73.0907 60.6183 73.0907 60.3183V59.8233C72.9707 59.7933 72.8957 59.7483 72.8657 59.6883C72.8657 59.6283 72.8357 59.5533 72.7757 59.4633C72.4757 59.5833 72.2357 59.6583 72.0557 59.6883C71.9057 59.7183 71.7107 59.8533 71.4707 60.0933L71.0657 60.0483L71.1557 60.3633L70.7957 60.4983L70.7057 60.7233L70.3907 60.7683C70.3907 61.0683 70.2707 61.2333 70.0307 61.2633V61.4433C69.8807 61.4433 69.7607 61.5033 69.6707 61.6233C69.7007 61.6533 69.7157 61.6833 69.7157 61.7133C69.7157 61.8033 69.6707 61.8933 69.5807 61.9833C69.4907 62.0433 69.4157 62.1033 69.3557 62.1633L69.2657 61.9383C69.2057 61.9983 69.1307 62.0883 69.0407 62.2083C68.9807 62.2983 68.9807 62.4033 69.0407 62.5233L68.6357 63.0633L68.1407 63.2883L68.1857 63.6033C67.9457 63.7233 67.7957 63.8583 67.7357 64.0083C67.6757 64.1583 67.6157 64.2933 67.5557 64.4133C67.4957 64.5333 67.3007 64.6383 66.9707 64.7283L67.0607 64.8183H67.2407C67.1207 64.9383 67.0007 65.0433 66.8807 65.1333C66.7907 65.2233 66.6557 65.2833 66.4757 65.3133L66.6107 65.6283L66.3407 65.6733L66.4757 65.8983C66.2957 66.0183 66.1007 66.2433 65.8907 66.5733C65.7107 66.8733 65.5907 67.1283 65.5307 67.3383H65.3957V67.0683C65.3657 67.1883 65.3207 67.2783 65.2607 67.3383C65.2307 67.3683 65.1857 67.4133 65.1257 67.4733L65.2157 67.6533L65.1257 67.9233L64.9907 67.8783L65.0807 67.9683C64.9307 68.1783 64.7807 68.4183 64.6307 68.6883C64.5107 68.9283 64.3007 69.0633 64.0007 69.0933V69.2283C64.0007 69.4683 63.9407 69.6633 63.8207 69.8133L63.6857 69.9933L63.9107 70.0383C63.8807 70.0683 63.8357 70.1133 63.7757 70.1733C63.7157 70.2333 63.6707 70.2933 63.6407 70.3533ZM74.3507 63.6933C74.3507 63.6933 74.3357 63.7083 74.3057 63.7383L74.3507 63.6933ZM81.0079 59.7333C80.7379 59.7333 80.4379 59.6283 80.1079 59.4183L79.9729 59.3733H79.8829C79.8529 59.3433 79.8229 59.3283 79.7929 59.3283C79.7929 59.2683 79.8079 59.2233 79.8379 59.1933H79.6129L79.6579 58.6533C79.8379 58.6533 79.9429 58.6083 79.9729 58.5183L79.8829 58.4733H80.0179V58.3383C80.0179 58.1583 80.0629 58.0233 80.1529 57.9333C80.2429 57.8133 80.3479 57.6933 80.4679 57.5733C80.5279 57.6033 80.5879 57.6183 80.6479 57.6183C80.7379 57.6183 80.7979 57.6483 80.8279 57.7083C80.7979 57.5283 80.7979 57.3633 80.8279 57.2133L80.9629 57.2583C81.0229 57.0183 81.1579 56.8683 81.3679 56.8083C81.6079 56.7183 81.8179 56.6283 81.9979 56.5383L82.0429 56.8083L82.1329 56.7633V56.6283H82.3579C82.4179 56.4483 82.5229 56.3583 82.6729 56.3583L82.7179 56.5383C82.8379 56.4183 82.9729 56.3583 83.1229 56.3583C83.3629 56.4483 83.4079 56.5983 83.2579 56.8083C83.1979 56.8383 83.1379 56.9283 83.0779 57.0783C83.0179 56.9283 82.9429 56.8383 82.8529 56.8083L82.8079 57.1233L82.7629 56.9433H82.7179L82.8079 57.3033C82.7179 57.3333 82.6579 57.3783 82.6279 57.4383C82.5979 57.4983 82.5529 57.5583 82.4929 57.6183C82.4329 57.6783 82.3729 57.6933 82.3129 57.6633C82.2529 57.6333 82.1929 57.6633 82.1329 57.7533C82.1929 57.7233 82.2829 57.7233 82.4029 57.7533C82.3129 57.7533 82.2529 57.7683 82.2229 57.7983L82.4029 57.8433C82.2829 57.9633 82.1929 58.1133 82.1329 58.2933C82.0729 58.4433 82.0129 58.5933 81.9529 58.7433H81.7279V59.0133L81.8629 59.0583C81.7729 59.1483 81.6679 59.1933 81.5479 59.1933L81.5929 59.4183C81.5629 59.4783 81.4879 59.5533 81.3679 59.6433C81.2779 59.7033 81.1579 59.7333 81.0079 59.7333ZM78.2179 73.3233C78.0679 73.3233 77.9629 73.2483 77.9029 73.0983L77.7229 73.2333L77.5429 73.0983L77.7229 72.8733L77.6329 72.6933H77.5429V72.8733L77.3179 72.8283L77.2279 72.5583C77.2279 72.5583 77.2429 72.5583 77.2729 72.5583C77.3329 72.5283 77.3479 72.4983 77.3179 72.4683H77.0929C77.0929 72.4083 77.0929 72.3483 77.0929 72.2883C77.1229 72.1983 77.1679 72.1383 77.2279 72.1083C77.0779 71.9883 77.0029 71.7033 77.0029 71.2533C77.0029 70.7733 77.0029 70.4733 77.0029 70.3533L77.0929 69.9483H77.2729L77.0929 69.2283C77.0929 69.1983 77.1379 69.2133 77.2279 69.2733C77.3179 69.3033 77.3629 69.3183 77.3629 69.3183V69.0933C77.3329 69.0333 77.2729 68.9733 77.1829 68.9133C77.1229 68.8233 77.0929 68.7333 77.0929 68.6433L77.1379 68.5983C77.2579 68.3283 77.3329 68.0433 77.3629 67.7433C77.4229 67.4433 77.4829 67.1583 77.5429 66.8883L77.4079 66.7983L77.4529 66.3483C77.4829 66.2883 77.5129 66.2883 77.5429 66.3483C77.5729 66.3783 77.5879 66.3933 77.5879 66.3933H77.7679C77.7379 66.3333 77.6929 66.2733 77.6329 66.2133C77.6029 66.1233 77.5879 66.0183 77.5879 65.8983L77.7229 65.7633C77.6629 65.7333 77.6329 65.6583 77.6329 65.5383C77.6329 65.4183 77.6479 65.3133 77.6779 65.2233C77.7079 65.1033 77.7379 65.0283 77.7679 64.9983L77.7229 64.8633C77.8729 64.8033 77.9329 64.6683 77.9029 64.4583C77.9029 64.2183 77.9179 64.0083 77.9479 63.8283C78.0079 63.6183 78.2029 63.5283 78.5329 63.5583C78.5029 63.4983 78.4729 63.4383 78.4429 63.3783C78.4129 63.3183 78.3679 63.2733 78.3079 63.2433H78.2179V62.9283L78.6229 62.4783L78.5329 62.2983L78.6679 62.2083V62.1633C78.6679 62.0133 78.7279 61.9083 78.8479 61.8483C78.9679 61.7583 79.0879 61.6983 79.2079 61.6683L79.1629 61.5333H79.3429L79.3879 61.7133L79.3429 61.7583H79.4779C79.4779 61.6383 79.4779 61.5783 79.4779 61.5783C79.4779 61.5783 79.5829 61.5633 79.7929 61.5333L79.9279 61.8933C80.3479 62.0133 80.6179 62.1933 80.7379 62.4333C80.8879 62.6733 81.0229 62.9733 81.1429 63.3333L81.2779 63.2433V63.3333C81.2779 63.5733 81.1729 63.7533 80.9629 63.8733L80.9179 63.8283C80.9479 63.9183 80.9629 63.9933 80.9629 64.0533C80.9629 64.1133 80.8879 64.1733 80.7379 64.2333C80.7079 64.4133 80.6629 64.6083 80.6029 64.8183C80.5429 65.0283 80.4829 65.2233 80.4229 65.4033C80.4229 65.3433 80.3929 65.3433 80.3329 65.4033C80.2729 65.4333 80.2729 65.4783 80.3329 65.5383L80.1529 65.6283H80.2879C80.2279 65.8983 80.1229 66.1683 79.9729 66.4383C79.8229 66.7083 79.7629 66.9783 79.7929 67.2483H79.5229L79.5679 67.5633L79.6579 67.5183C79.6279 67.6083 79.5979 67.6983 79.5679 67.7883C79.5379 67.8483 79.5229 67.9383 79.5229 68.0583H79.3879L79.5229 68.1483H79.4779L79.5229 68.2383L79.3879 68.6433H79.2079L79.2979 69.0033C79.2379 69.0633 79.1479 69.0483 79.0279 68.9583C79.0279 69.1383 79.1029 69.2883 79.2529 69.4083L79.0729 70.1733H78.8929L78.9829 70.3083L79.0729 70.2183L78.9829 71.2533V71.2983H79.2979L79.3429 71.5683C79.4929 71.5083 79.6579 71.4633 79.8379 71.4333C80.0179 71.4033 80.1829 71.3583 80.3329 71.2983L80.4229 71.1183L80.6929 71.1633V70.9833L80.6029 70.9383L80.9179 70.7133V70.7583L80.9629 70.6233L81.0979 70.6683C81.0979 70.5783 81.1279 70.5183 81.1879 70.4883C81.2479 70.4283 81.2929 70.3383 81.3229 70.2183L81.5029 70.3533L81.9079 69.9033C81.9079 69.9033 81.8629 69.8733 81.7729 69.8133L81.8629 69.5883L82.1329 69.4983C82.1029 69.4683 82.0879 69.4233 82.0879 69.3633C82.0879 69.3033 82.1179 69.2583 82.1779 69.2283C82.2679 69.1683 82.3279 69.0933 82.3579 69.0033C82.3279 69.0033 82.3129 68.9883 82.3129 68.9583C82.3129 68.8983 82.3279 68.8683 82.3579 68.8683L82.6729 68.8233C82.7029 68.7033 82.7179 68.5983 82.7179 68.5083C82.7179 68.3883 82.7329 68.2683 82.7629 68.1483C82.7929 68.1183 82.8079 68.1333 82.8079 68.1933C82.8379 68.2233 82.8529 68.2533 82.8529 68.2833C82.9129 68.3433 82.9729 68.3433 83.0329 68.2833V68.1483L83.1679 68.1033L82.8979 68.0133L83.1229 67.9683H83.0329V67.7883C83.1829 67.6983 83.2879 67.5483 83.3479 67.3383C83.4379 67.0983 83.4979 66.9033 83.5279 66.7533L83.6629 66.7983V66.5283L83.7979 66.4833C83.7079 66.4833 83.6929 66.4533 83.7529 66.3933H83.9329C83.9029 66.0633 83.9779 65.7933 84.1579 65.5833C84.3379 65.3433 84.4579 65.0883 84.5179 64.8183H84.6979V64.6383H85.1029C85.1029 64.8183 85.0729 64.9083 85.0129 64.9083C84.9829 64.9083 84.9379 64.9683 84.8779 65.0883L85.0579 65.5383L84.9679 65.6733L84.7879 65.5833L84.8779 65.8533L84.7429 65.7633L84.7879 66.1233L84.6979 66.0783C84.6679 66.1983 84.5929 66.4533 84.4729 66.8433C84.3829 67.2033 84.2629 67.4283 84.1129 67.5183L83.9329 67.4733C83.9329 67.5333 83.9479 67.5933 83.9779 67.6533C84.0079 67.7133 84.0379 67.7733 84.0679 67.8333L83.8429 68.2833L83.6629 68.1933C83.6929 68.4633 83.6029 68.7633 83.3929 69.0933C83.1829 69.3933 83.0029 69.6633 82.8529 69.9033H82.5829C82.5829 70.0233 82.5679 70.1283 82.5379 70.2183C82.5079 70.3083 82.4929 70.4283 82.4929 70.5783L82.1779 70.7133L82.3579 70.7583L82.0429 70.8933V70.9383C82.0429 71.0583 81.9979 71.1783 81.9079 71.2983C81.8479 71.3883 81.8029 71.4633 81.7729 71.5233L81.5029 71.4783V71.7933H81.2779C81.2779 71.9433 81.2179 72.0633 81.0979 72.1533C81.0979 72.1233 81.0679 72.1083 81.0079 72.1083C80.9779 72.0783 80.9479 72.0783 80.9179 72.1083C80.9779 72.1683 80.9779 72.2433 80.9179 72.3333C80.8579 72.3933 80.7979 72.4383 80.7379 72.4683L80.6029 72.4233V72.6033C80.3329 72.8733 79.9579 73.0383 79.4779 73.0983L79.4329 73.1883L79.2079 73.2783V73.0983C79.0279 73.1283 78.8929 73.1733 78.8029 73.2333C78.7429 73.2933 78.5929 73.3233 78.3529 73.3233L78.3079 73.1883H78.2629L78.2179 73.3233ZM79.2079 68.1933L79.3879 68.2833L79.4779 68.1483L79.2079 68.1933Z" fill="#52341C"/>
<defs>
<linearGradient id="paint0_linear_1238_52759" x1="26.1289" y1="113.644" x2="84.3478" y2="-11.2063" gradientUnits="userSpaceOnUse">
<stop stop-color="#FBC8B3"/>
<stop offset="0.4609" stop-color="#FBC7B2"/>
<stop offset="0.6322" stop-color="#EAA0A1"/>
<stop offset="0.7737" stop-color="#EAA0A1"/>
<stop offset="0.8073" stop-color="#FBC7B2"/>
</linearGradient>
</defs>
</svg>
