<svg width="400" height="258" viewBox="0 0 400 258" fill="none" xmlns="http://www.w3.org/2000/svg">
<path d="M40.2628 189.583C42.3804 195.2 44.7838 200.705 47.4637 206.076C48.89 208.951 50.602 211.675 52.5741 214.206C52.5741 214.206 42.8178 184.241 46.4184 159.618C50.0189 134.995 53.7355 121.755 61.1693 109.443C68.6031 97.132 80.914 81.1039 85.5598 77.3872C87.4699 75.9938 89.2574 74.4394 90.9024 72.7411L89.9733 87.84C89.9733 87.84 76.2678 111.534 76.2678 134.995C76.2678 158.456 78.3584 181.918 99.0323 207.238C119.706 232.557 130.391 236.506 133.644 237.203C136.896 237.9 140.845 235.809 145.258 237.203C149.672 238.597 154.782 240.223 157.337 242.313C159.892 244.404 172.436 242.313 172.436 242.313L191.948 238.365L178.243 223.962L151.298 223.73L142.005 224.659C142.005 224.659 127.371 214.206 122.493 210.025C117.615 205.844 112.737 200.037 116.105 196.552C119.473 193.068 123.422 191.442 129.462 195.391C135.501 199.34 145.026 200.269 145.026 200.269C145.026 200.269 200.543 199.107 204.724 198.875C208.905 198.643 214.016 196.088 221.217 192.604C228.417 189.12 248.859 188.422 249.789 187.029C250.718 185.635 253.041 175.414 254.899 174.717C256.757 174.021 260.474 174.95 263.029 174.95C265.584 174.95 269.766 176.808 274.644 169.142C279.522 161.477 283.006 145.913 281.845 137.783C280.683 129.653 279.986 110.373 264.19 81.5694C248.395 52.766 211.228 33.4853 211.228 33.4853L222.61 47.1905L225.63 52.0685L222.378 56.2498C222.378 56.2498 195.2 46.2612 174.294 46.4935C153.387 46.7258 131.785 50.6747 124.351 54.3914C120.868 56.1332 143.863 54.592 145.742 43.2053C149.691 19.2794 151.152 15.5231 151.152 15.5231C151.152 15.5231 147.05 17.886 165.467 13.7408C184.989 9.34692 212.854 15.5993 231.438 23.7294C250.021 31.8595 272.321 45.5646 288.349 70.1874C304.377 94.8103 310.416 112.697 313.436 129.886C316.456 147.075 297.408 190.514 293.691 194.695C289.975 198.876 295.55 205.148 295.55 205.148L304.377 199.341C304.377 199.341 312.921 167.053 313.759 165.194C314.598 163.336 316.688 163.569 318.082 163.801C319.475 164.032 322.031 166.678 322.031 166.678L325.98 176.809C325.98 176.809 328.999 168.446 328.999 164.265C328.999 160.084 321.799 121.988 317.85 109.445C313.901 96.9009 301.357 68.0968 288.116 54.624C274.876 41.1513 255.131 23.9616 234.457 15.8314C213.784 7.70113 187.302 6.53987 174.294 7.70127C166.342 8.44311 158.572 10.5286 151.317 13.8688L145.742 43.2053L128.832 52.6433L105.769 50.9065C105.769 50.9065 75.5707 66.0055 60.7042 86.2148C45.8376 106.424 32.5973 139.409 31.4357 161.709C30.2741 184.009 38.4043 216.065 42.3533 226.518C46.3024 236.971 55.1293 251.141 55.1293 251.141C55.1293 251.141 44.444 223.963 43.0501 216.53C41.6563 209.097 40.2628 189.583 40.2628 189.583Z" fill="url(#paint0_linear_1238_52759)"/>
<path d="M182.399 91.0653C182.748 91.5612 183.142 92.0241 183.576 92.4482C183.319 91.8873 182.912 91.4085 182.399 91.0653ZM253.097 121.247C252.806 121.174 252.503 121.101 252.211 121.016L253.619 121.453C253.455 121.361 253.279 121.292 253.097 121.247ZM165.61 14.011C160.467 13.3438 155.311 12.6766 150.241 12.0215C149.367 14.384 148.642 16.7986 148.069 19.2514C147.856 21.5458 147.759 23.8496 147.778 26.1538C146.941 38.5999 140.997 46.7882 130.334 49.8208C122.773 52.0012 114.656 51.0983 107.759 47.3098C97.2414 41.8024 89.3686 33.5293 83.376 23.3516C81.4594 20.0763 79.4335 16.8617 77.4441 13.6228C77.2379 13.7199 77.0316 13.8169 76.8133 13.9261C78.8512 19.5062 80.8892 25.0985 83.0849 31.1274C64.6462 24.3585 48.0999 15.1877 35.2534 0C36.3016 3.98765 37.6105 7.90216 39.1717 11.7183C48.4638 33.7234 64.4278 47.8435 88.2647 51.9437C95.1064 53.1204 102.239 52.6473 109.239 53.0112C110.136 53.0597 111.434 53.2781 111.823 53.8847C116.02 60.3503 121.976 64.7659 128.381 68.7205C129.276 69.3717 130.127 70.0808 130.928 70.8434C128.48 71.6314 125.836 71.5629 123.432 70.6493L130.019 74.4705C132.029 75.3619 133.989 76.3622 135.89 77.4668C139.82 79.5169 143.581 82.0643 147.742 83.4472C148.154 83.5877 148.555 83.7579 148.943 83.9567C148.158 83.2143 147.517 82.3344 147.05 81.3607C146.359 79.2621 148.773 74.2278 148.773 74.2278C142.04 70.1883 135.829 66.5491 129.715 62.7643C125.373 60.0834 125.397 57.8757 129.667 54.9279C130.617 54.3625 131.602 53.8561 132.615 53.4116C135.405 51.9923 138.268 50.6821 140.973 49.093C146.577 45.8177 150.241 41.0988 150.447 34.4148C150.54 30.5483 150.304 26.681 149.743 22.8543C149.488 21.0832 149.877 20.1491 151.344 19.6275C155.602 18.1232 159.884 16.704 164.154 15.2604C164.664 15.0906 165.161 14.9208 165.671 14.751C165.647 14.5082 165.634 14.2535 165.61 14.011Z" fill="#52341C"/>
<path d="M181.15 90.4465C179.803 90.5678 178.141 92.4845 176.758 92.897C175.521 93.273 174.951 95.5778 174.708 97.0699C174.086 96.7688 173.378 96.6958 172.707 96.8637C171.336 97.0214 169.577 95.9296 168.497 96.4391C165.04 98.101 162.493 96.2329 159.872 94.7166C158.763 93.9075 157.861 92.8476 157.24 91.6232C155.856 90.7566 154.639 89.647 153.649 88.3479L157.228 88.4814L160.382 84.5753L158.987 76.7145C162.468 75.3802 163.888 77.3211 164.737 79.1165C167.575 85.012 173.471 86.9286 178.59 89.4882C179.426 89.8534 180.28 90.1733 181.15 90.4465Z" fill="#52341C"/>
<path d="M190.115 96.6698C189.431 96.578 188.76 96.4111 188.113 96.1724C187.045 95.5902 186.621 99.3022 185.578 98.3681C184.522 97.4462 184.656 95.9298 184.413 94.1951C184.382 93.9245 184.329 93.6568 184.255 93.3945C184.496 93.4921 184.749 93.5534 185.007 93.5764C186.621 93.6371 188.234 93.6007 190.248 93.6007C189.991 94.0676 189.845 94.5874 189.822 95.1197C189.799 95.652 189.899 96.1825 190.115 96.6698Z" fill="#52341C"/>
<path d="M272.53 139.079C273.026 137.73 273.352 136.324 273.501 134.894C272.707 134.699 271.976 134.305 271.377 133.749C270.779 133.193 270.332 132.493 270.08 131.716C269.835 131.879 269.549 131.968 269.255 131.97C268.984 131.974 268.719 131.898 268.491 131.752C268.406 132.019 268.321 132.286 268.224 132.553C266.052 133.147 263.468 133.208 263.262 136.349C263.025 136.574 262.741 136.744 262.431 136.844C262.12 136.945 261.791 136.975 261.467 136.932C260.658 136.543 260.007 135.888 259.623 135.076C259.49 134.748 260.399 133.826 260.994 133.402C262.352 132.431 263.82 131.594 265.24 130.709C265.215 130.43 265.179 130.139 265.13 129.847L263.262 128.78C263.073 128.677 262.914 128.527 262.801 128.343C262.753 128.719 262.692 129.083 262.631 129.435C262.583 129.678 261.382 130.042 261.249 129.896C260.709 129.233 260.279 128.487 259.975 127.688C259.74 127.027 259.553 126.35 259.417 125.662C258.798 125.311 258.277 125.044 257.803 124.765C257.514 124.615 257.238 124.441 256.979 124.243C256.797 124.11 256.615 123.952 256.445 123.806C256.226 123.782 256.057 123.879 255.96 124.182L255.62 125.323L254.104 124.182L252.636 125.905H251.083L250.525 130.151C251.329 130.754 252.098 131.402 252.83 132.092C253.184 132.519 253.486 132.987 253.728 133.487C253.157 133.753 252.563 134.263 252.017 134.214C251.291 134.062 250.608 133.751 250.016 133.305C249.066 132.647 247.966 132.238 246.817 132.117C245.668 131.996 244.506 132.167 243.441 132.613C242.494 134.882 241.815 136.483 241.148 138.036C244.387 138.691 245.612 140.098 244.811 142.391C245.187 142.281 245.551 142.039 245.867 142.087C246.74 142.209 247.589 142.451 248.439 142.645C247.988 143.313 247.583 144.01 247.225 144.732C246.302 146.593 245.558 148.539 245.006 150.542C244.872 151.173 246.073 152.362 246.922 152.872C248.147 153.539 249.457 154.037 250.816 154.351C251.423 154.521 252.49 154.594 252.733 154.254C253.922 152.641 254.868 150.846 255.972 149.172C256.445 148.456 257.379 147.219 257.621 147.328C258.556 147.74 259.975 148.577 259.987 149.293C260.072 152.144 262.122 152.774 264.111 153.684C264.539 153.918 264.921 154.226 265.24 154.594C267.314 153.478 269.206 152.471 270.929 151.549C269.522 148.541 268.017 145.326 266.234 141.529H270.686C271.41 140.8 272.03 139.976 272.53 139.079ZM252.223 143.106C251.374 141.869 250.525 141.153 250.549 140.498C250.586 139.916 251.702 138.848 252.175 138.933C253.109 139.287 253.975 139.8 254.734 140.45C254.067 141.153 253.4 141.869 252.223 143.106ZM264.087 141.287C263.02 141.81 261.891 142.198 260.727 142.439C260.302 142.475 259.756 141.311 259.271 140.704C260.096 140.219 260.885 139.406 261.734 139.346C262.498 139.297 263.323 140.074 264.136 140.474C264.111 140.741 264.099 141.008 264.087 141.287Z" fill="#EA644D"/>
<path d="M291.236 104.567C288.786 104.446 286.348 104.506 283.776 104.506C284.564 108.085 283.946 108.582 278.645 108.703C280.282 105.707 281.774 102.978 283.036 100.673C281.75 99.5205 280.343 98.8776 280.112 97.9435C279.639 96.0511 278.487 95.8449 277.298 96.5364C275.77 97.4219 274.666 99.0717 273.113 99.8845C270.517 101.231 271.439 102.007 272.967 103.609C274.532 105.246 276.036 107.333 274.69 110.826C273.938 109.577 273.441 108.898 273.089 108.133C272.834 107.563 272.967 106.763 272.628 106.302C270.578 103.524 265.107 102.699 262.001 104.494C262.438 107.224 262.85 109.868 263.287 112.646C265.495 112.743 267.751 113.058 268.309 115.303C265.992 118.335 263.991 120.968 261.734 123.928C262.189 124.486 262.546 125.118 262.79 125.796C262.937 125.663 263.109 125.562 263.297 125.499C263.485 125.436 263.684 125.413 263.882 125.432L269.098 125.893C269.291 125.909 269.479 125.966 269.65 126.057C269.821 126.149 269.972 126.275 270.092 126.426C270.152 126.281 270.221 126.139 270.299 126.002C273.756 126.026 276.049 124.34 276.461 120.495C276.497 120.167 277.626 119.585 277.965 119.742C278.262 119.909 278.521 120.135 278.725 120.406C278.93 120.678 279.076 120.989 279.154 121.319C279.196 122.153 279.537 122.944 280.113 123.548C280.69 124.151 281.465 124.527 282.296 124.607C283.281 124.82 284.243 125.124 285.171 125.517C287.828 126.536 288.507 126.026 288.034 123.224C287.415 119.597 286.991 115.946 281.884 115.764C280.185 115.715 278.451 114.417 279.664 111.494C282.126 112.622 284.37 113.653 286.736 114.732C286.918 114.429 287.415 113.083 287.718 113.131C291.794 113.701 291.552 110.875 291.734 108.303C291.916 107.511 292.054 106.709 292.146 105.901C292.122 105.416 291.576 104.579 291.236 104.567ZM273.077 114.332C272.118 114.15 271.306 113.18 270.432 112.549C271.087 111.954 271.742 111.348 272.773 110.402C273.792 111.421 274.484 112.1 275.175 112.779C274.472 113.337 273.659 114.441 273.077 114.332Z" fill="#EA644D"/>
<path d="M196.969 102.687C196.969 101.207 192.783 100.819 189.993 100.2C187.203 99.5812 190.115 98.9504 191.291 97.7858C190.799 97.5367 190.39 97.1487 190.115 96.6698C189.431 96.578 188.76 96.4111 188.113 96.1724C187.046 95.5902 186.621 99.3022 185.578 98.3682C184.522 97.4462 184.656 95.9299 184.413 94.1952C184.382 93.9246 184.329 93.6568 184.256 93.3945C184.167 93.3708 184.083 93.3297 184.01 93.2735C183.937 93.2172 183.876 93.147 183.831 93.067C183.763 92.8542 183.678 92.6474 183.576 92.4484C183.143 92.0243 182.749 91.5614 182.4 91.0655C182.011 90.8067 181.591 90.5988 181.15 90.4468C179.804 90.5681 178.142 92.4848 176.759 92.8972C175.521 93.2733 174.951 95.5781 174.709 97.0702C174.935 97.2432 175.124 97.4603 175.263 97.7085C175.403 97.9566 175.491 98.2306 175.521 98.5137C175.679 99.1809 176.54 99.7268 177.111 100.285C177.923 101.073 178.76 101.813 179.585 102.577L179.003 103.56C177.838 102.954 176.237 102.638 175.618 101.692C173.872 99.0354 171.142 98.9383 168.571 98.5379C168.157 98.4614 167.731 98.496 167.336 98.6381C166.94 98.7801 166.589 99.0246 166.319 99.3465C166.049 99.6685 165.869 100.056 165.798 100.471C165.727 100.885 165.767 101.31 165.914 101.704C167.03 104.773 166.933 108.74 171.191 109.783C171.251 109.795 171.288 109.929 171.518 110.28C170.9 113.216 166.435 115.582 169.602 119.645C170.997 119.597 172.853 119.354 172.646 122.096C178.506 122.023 177.875 115.206 182.266 113.532C182.507 114.595 182.844 115.635 183.273 116.637C183.704 117.644 184.437 118.492 185.372 119.063C187 119.689 188.735 119.989 190.479 119.949C192.298 119.888 192.614 118.347 192.662 116.698C192.771 113.265 191.91 112.015 188.319 110.426C190.018 109.553 191.777 108.643 193.705 107.66H193.717C193.924 107.563 194.13 107.454 194.348 107.345L197.733 105.622C197.273 104.709 197.012 103.708 196.969 102.687ZM178.869 108.594C177.062 108.74 175.267 108.885 173.471 109.031C173.338 108.704 173.204 108.376 173.083 108.048C174.175 107.224 175.194 105.95 176.407 105.719C177.183 105.586 178.239 106.981 179.173 107.685C179.076 107.988 178.967 108.291 178.869 108.594ZM185.287 109.977C184.457 109.352 183.7 108.636 183.03 107.842C183.613 107.418 184.28 106.556 184.765 106.653C185.566 106.799 186.245 107.575 187.434 108.4C186.366 109.213 185.493 110.123 185.287 109.977ZM185.347 105.186C184.571 104.155 183.807 103.135 183.03 102.104C183.97 101.366 184.987 100.732 186.063 100.212C186.281 100.139 186.609 100.37 187.021 100.697L187.034 100.709C187.361 100.976 187.713 101.292 188.113 101.558C187.009 103.002 186.172 104.094 185.347 105.186Z" fill="#EA644D"/>
<path d="M307.807 146.272C300.261 143.834 292.825 141.093 285.341 138.448C283.084 137.66 280.852 136.774 278.584 136.01C277.274 135.561 275.624 135.027 275.151 136.895C275.005 137.49 276.315 138.569 277.104 139.273C277.78 139.762 278.518 140.158 279.3 140.45C287.67 144.332 296.04 148.213 304.41 152.095C305.43 152.73 306.496 153.286 307.601 153.757C307.68 152.723 307.671 151.684 307.576 150.652C307.261 149.305 308.656 148.747 310.354 146.903L310.463 146.794C309.562 146.715 308.671 146.54 307.807 146.272ZM311.543 154.958C311.825 155.333 312.243 155.582 312.708 155.649L311.543 154.958ZM314.539 155.856C314.527 155.88 314.515 155.892 314.503 155.916C314.536 155.914 314.569 155.919 314.6 155.929L314.636 155.892C314.605 155.878 314.572 155.866 314.539 155.856ZM335.016 159.337C334.984 159.498 334.939 159.656 334.883 159.81L335.331 159.616C335.199 159.56 335.088 159.462 335.016 159.337ZM335.186 158.367L335.902 155.831C335.601 156.658 335.362 157.505 335.186 158.367Z" fill="#52341C"/>
<path d="M336.059 152.592C337.406 148.747 337.26 148.177 333.997 147.461C332.372 147.109 330.528 147.801 328.781 147.801C327.859 147.674 326.957 147.425 326.1 147.061C326.731 146.551 327.337 145.981 328.017 145.532C328.538 145.249 329.082 145.01 329.642 144.817C329.654 144.538 329.667 144.259 329.667 143.992C328.49 143.749 327.301 143.519 326.064 143.276C326.476 140.595 324.475 139.443 322.485 138.921C320.556 138.424 319.295 139.843 318.664 141.735C318.057 143.519 317.305 145.253 316.565 147.121C317.378 147.352 317.815 147.352 318.057 147.582C318.55 148.098 319.008 148.645 319.428 149.22C318.628 149.317 317.584 149.778 317.051 149.438C316.264 148.77 315.585 147.984 315.037 147.109C314.042 147 313.06 146.964 312.101 146.903C311.543 146.879 310.997 146.842 310.464 146.794L310.354 146.903C308.656 148.747 307.261 149.305 307.577 150.651C307.672 151.684 307.68 152.723 307.601 153.757C308.402 153.981 309.259 153.885 309.991 153.49C310.245 153.357 311.107 153.733 311.143 153.963C311.201 154.32 311.338 154.66 311.543 154.958L312.708 155.649L312.72 155.661C313.29 155.783 313.933 155.783 314.503 155.916C314.515 155.892 314.527 155.88 314.54 155.856C314.573 155.866 314.605 155.878 314.637 155.892C316.129 154.278 317.621 152.665 319.428 150.712C320.132 156.401 318.955 157.493 314.637 155.892L314.6 155.928C314.569 155.918 314.536 155.914 314.503 155.916C313.14 157.81 311.923 159.805 310.864 161.884C310.634 162.498 310.544 163.155 310.6 163.808C310.657 164.461 310.859 165.092 311.191 165.657C312.387 166.767 313.777 167.647 315.292 168.253C316.869 169.114 317.791 168.556 318.446 166.894C319.246 164.893 320.302 163.013 321.515 160.538C322.497 161.897 323.553 162.746 323.759 163.765C324.305 166.361 328.66 168.763 330.722 167.016C331.436 166.4 332.248 165.908 333.124 165.56V161.436L333.9 160.72C333.702 160.715 333.505 160.678 333.318 160.611C332.894 160.453 332.491 160.245 332.117 159.992C330.734 159.131 329.436 158.112 327.604 156.802C330.722 155.674 333.051 153.854 335.902 155.831L336.69 153.539L338.68 152.192C337.915 152.338 337.042 152.411 336.059 152.592ZM327.168 152.883C325.956 152.31 324.781 151.661 323.65 150.943C323.322 150.712 323.262 149.778 323.419 149.256C323.528 148.88 324.244 148.347 324.584 148.419C326.209 148.735 327.811 149.244 329.509 149.705C328.672 150.846 328.053 151.695 327.168 152.883Z" fill="#EA644D"/>
<path d="M147.05 6.66696C137.373 4.55719 134.832 10.2872 133.928 17.5899C127.706 14.5208 122.743 17.0152 118.03 20.3355C116.006 21.7607 114.309 23.6411 112.384 25.2174C106.42 30.1015 100.336 30.6893 93.6764 26.8766C88.0621 23.7291 83.1683 19.4419 79.3096 14.2904C82.8089 16.8976 85.7708 18.9864 88.6003 21.2413C92.2844 24.1769 95.6138 24.6408 99.4847 21.2161C104.102 17.1308 109.097 13.4561 114.064 9.78679C119.681 5.63808 125.718 2.29494 132.887 1.74796C135.463 1.49227 138.064 1.79973 140.51 2.64911C142.955 3.49848 145.187 4.86944 147.05 6.66696Z" fill="#52341C"/>
<path d="M236.805 97.7405C235.838 100.281 235.028 102.72 233.935 105.024C233.64 105.309 233.278 105.514 232.882 105.62C232.486 105.725 232.069 105.728 231.672 105.627C230.391 104.897 229.173 104.061 228.031 103.128C227.068 102.464 226.071 101.852 224.974 101.142C224.705 98.3475 231.119 96.1613 225.876 92.8343L227.182 90.8318L226.8 90.3005L224.186 91.5657L222.107 84.4892C225.635 86.6586 225.549 81.7886 228.153 81.7398C229.57 83.0163 231.075 84.4692 232.704 85.7688C232.964 85.9148 233.257 85.992 233.555 85.9928C233.853 85.9937 234.146 85.9182 234.407 85.7737C234.616 85.515 234.76 85.2105 234.829 84.8852C234.897 84.5599 234.888 84.223 234.801 83.902C234.469 83.209 233.49 82.8427 233.095 82.1592C232.591 81.1324 232.17 80.0672 231.836 78.9735L233.987 78.2767L238.97 72.7617C240.246 75.1009 238.178 80.2548 243.311 77.6119C245.673 80.0678 239.201 81.502 243.418 83.8371L237.94 86.2457C239.054 86.8301 239.896 87.6516 240.696 87.613C242.402 87.5309 244.624 87.939 244.971 85.2452C245.195 83.5073 245.312 81.6949 247.81 81.3467L248.694 83.8672C249.001 83.9009 249.31 83.8973 249.616 83.8566C250.831 83.5079 252.036 83.1232 253.244 82.7513C253.165 84.5378 253.183 86.3358 252.975 88.107C252.725 89.4539 252.389 90.7834 251.97 92.0874C249.109 89.7611 247.916 94.3158 245.232 94.2632C245.102 94.2606 244.77 94.9517 244.868 95.1639C244.955 95.3521 245.082 95.5187 245.241 95.652C245.4 95.7853 245.587 95.882 245.787 95.9351C246.612 95.9483 247.436 95.9004 248.253 95.7917L249.619 93.4685L250.345 93.6723C250.617 96.4216 247.786 99.2544 250.386 101.347L246.316 104.44L245.047 103.799L242.99 106.477L241.955 103.388L240.131 102.996L240.818 101.176L236.805 97.7405ZM245.568 90.7216L245.604 90.0595C243.981 89.9276 242.348 89.9727 240.735 90.1941C240.28 90.2972 240.098 92.0074 240.024 92.9983C240.012 93.1597 241.442 93.7826 241.828 93.5542C243.134 92.6912 244.383 91.745 245.568 90.7216ZM231.557 90.2716C233.442 89.9027 232.211 94.5774 234.967 92.2421C235.638 91.6739 236.031 89.5428 235.605 89.1448C234.263 87.8918 232.783 88.5136 231.557 90.2716Z" fill="#EA644D"/>
<path d="M314.749 199.54L318.532 194.202C318.662 194.631 318.892 195.391 319.203 196.416H324.096C323.066 197.625 322.466 198.33 321.714 199.212L323.241 199.495C323.096 199.857 322.727 200.306 322.823 200.607C324.152 204.773 321.174 204.428 318.679 204.661C317.782 204.858 316.902 205.122 316.045 205.451L320.531 208.198L317.558 209.056L320.929 213.047L319.663 215.645C316.848 215.096 315.483 215.851 315.204 218.233C310.978 217.189 308.816 214.24 307.623 210.156C306.996 212.302 306.368 214.447 305.624 216.989L304.726 215.811L300.717 219.513L296.897 212.959L295.425 214.13C295.425 213.739 295.323 213.418 295.44 213.266C297.135 211.07 298.375 208.785 296.971 205.957C296.609 205.226 296.305 204.284 295.688 203.897C294.084 202.893 293.51 202.044 294.685 200.157C295.315 199.146 294.971 197.527 295.022 196.805L300.568 195.856L301.122 199.325L301.835 199.377L303.214 196.527L305.101 200.646L306.158 200.355C305.958 199.334 305.824 198.295 305.544 197.296C304.981 195.846 304.537 194.352 304.215 192.83C304.243 192.346 304.368 191.872 304.581 191.436C304.794 191.001 305.092 190.612 305.457 190.293C305.78 189.988 306.854 190.477 307.823 190.648L309.449 187.326C312.76 190.008 312.99 190.966 311.719 195.405C312.359 194.563 312.999 193.721 313.985 192.423C314.282 195.151 314.525 197.383 314.764 199.605C313.719 198.862 312.62 198.196 311.478 197.614C311.337 197.55 310.615 198.765 310.162 199.387L310.598 200.127L314.749 199.54ZM302.569 203.302V206.816C303.781 206.195 304.868 205.954 305.408 205.277C305.953 204.386 306.297 203.387 306.416 202.349C306.445 202.217 305.283 201.652 305.246 201.703C304.741 202.449 304.275 203.221 303.851 204.016L302.569 203.302ZM315.554 202.304L309.846 204.276C312.474 206.457 314.37 205.914 315.554 202.304Z" fill="#EA644D"/>
<path d="M282.572 166.462C284.923 164.801 287.79 164.033 290.657 164.298C292.901 164.385 293.477 165.544 292.625 167.387C291.968 168.577 291.194 169.698 290.314 170.734C289.745 171.505 289.06 172.194 288.538 172.993C288.282 173.505 288.09 174.047 287.966 174.606C287.331 174.324 286.684 174.067 286.063 173.756C284.639 172.96 283.173 172.241 281.672 171.602C281.351 171.482 280.459 172.302 280.197 172.862C280.055 173.164 280.568 174.093 280.99 174.283C282.415 174.924 283.958 175.293 285.404 175.892C287.087 176.588 289.29 176.929 288.631 179.666C288.613 179.742 288.685 179.838 288.712 179.925C290.23 184.852 290.23 184.852 285.548 186.532C284.416 186.938 281.117 184.438 280.351 182.713C279.852 181.589 279.175 180.544 278.501 179.325C276.399 181.997 274.617 184.377 272.667 186.61C272.341 186.745 271.987 186.796 271.637 186.76C271.286 186.723 270.95 186.6 270.659 186.402C269.655 184.684 268.589 183.476 266.489 184.756C265.586 180.999 268.702 175.851 272.161 174.951C276.17 173.908 276.17 173.908 276.575 168.746L269.208 176.149C268.673 175.072 268.452 173.99 268.046 173.916C265.397 173.429 264.649 171.797 263.853 169.341C262.962 166.59 263.143 164.981 266.079 164.262C267.109 164.01 268.12 163.679 269.488 163.283L275.182 167.599L275.777 167.124C274.935 165.799 274.129 164.448 273.24 163.157C272.125 161.539 271.987 160.264 273.919 159.049C275.299 158 276.591 156.84 277.782 155.581L285.31 162.648L279.045 167.072L279.465 167.706C280.528 167.267 281.59 166.83 282.651 166.394C282.378 166.633 282.144 166.912 281.957 167.222C281.656 167.963 281.449 168.743 281.205 169.507C282.029 169.452 282.85 169.352 283.663 169.207C284.266 169.018 284.85 168.777 285.41 168.485L284.878 167.522L282.572 166.462Z" fill="#EA644D"/>
<path d="M147.418 12.3442C145.844 13.1536 144.929 14.023 144.323 13.8444C143.346 13.3549 142.465 12.6934 141.723 11.8914C142.489 11.297 143.28 10.1996 144.015 10.2362C144.923 10.2813 145.784 11.2686 147.418 12.3442Z" fill="#52341C"/>
<path d="M123.08 73.5485C123.812 73.4534 124.55 73.4168 125.287 73.4393C126.914 73.4936 128.517 73.8431 130.018 74.4705L123.431 70.6493C121.224 69.7346 118.948 68.9924 116.626 68.4293C115.902 67.7372 115.123 67.1043 114.297 66.5369C113.743 66.1379 113.338 65.5661 113.145 64.9115C113.043 63.6808 113.027 62.4445 113.096 61.2116C112.89 61.1146 112.696 61.0175 112.49 60.9204C111.798 62.0607 111.094 63.201 110.403 64.3534C109.19 62.4125 108.062 63.0676 106.934 64.778C105.878 66.355 104.714 67.8713 103.925 68.9631C105.369 70.9768 106.861 73.0875 108.353 75.1983C108.171 75.3681 107.977 75.5259 107.783 75.6957C106.219 74.8147 104.701 73.8551 103.234 72.8206C102.183 72.0709 100.95 71.6159 99.664 71.5029C98.3778 71.3898 97.0848 71.6228 95.919 72.1778C93.6384 73.0997 95.5187 75.7442 95.4823 77.6487C95.4095 80.4388 96.9016 80.8998 99.073 80.9847C99.8124 81.0609 100.546 81.1865 101.269 81.3607C99.3762 84.5996 97.6294 87.5837 95.6885 90.8833C99.6916 91.3928 102.652 92.6787 103.743 96.6454C103.962 96.5362 104.192 96.415 104.423 96.3058C105.15 94.0495 105.89 91.7932 106.715 89.27C107.176 90.204 107.516 90.8833 108.074 91.9872C108.668 90.0706 109.129 88.5906 109.578 87.1107C109.869 87.0015 110.148 86.8923 110.427 86.7953C111.07 91.2715 113.351 94.1101 116.942 94.8379C118.068 93.9591 119.247 93.1489 120.472 92.4118C123.189 91.0168 123.48 89.5732 121.418 87.1956C120.933 86.6376 120.253 86.0674 120.144 85.4123C119.851 84.0417 119.843 82.6255 120.12 81.2515C120.217 80.8633 122.097 81.0817 123.068 80.7542C123.913 80.5225 124.648 79.9979 125.142 79.2742C126.149 77.1391 125.421 75.2224 123.08 73.5485ZM104.956 82.78L104.119 82.4161C104.374 80.3903 104.629 78.3644 104.884 76.3264C105.175 76.3264 105.466 76.3386 105.757 76.3386C106.169 77.8428 106.582 79.3591 107.043 81.0453C106.4 81.5788 105.672 82.1735 104.956 82.78ZM110.233 75.356C111.252 74.2642 112.235 73.2089 113.872 71.4499C114.406 73.5971 114.794 75.1619 115.183 76.7389C114.916 76.8602 114.637 76.9815 114.37 77.115C113.06 76.557 111.75 75.9989 110.233 75.356ZM116.614 84.5753C114.904 83.4229 113.169 82.2948 111.507 81.0696C111.325 80.9483 111.398 80.0506 111.616 79.905C112.016 79.626 112.817 79.3834 113.084 79.6017C114.625 80.8027 116.056 82.1492 117.524 83.4472L116.614 84.5753ZM119.804 72.2263H115.389C115.534 71.4863 115.68 70.7584 115.813 70.0185C117.184 70.2853 118.555 70.5401 119.926 70.807C119.889 71.28 119.841 71.7533 119.804 72.2263Z" fill="#EA644D"/>
<path d="M130.019 74.4706L125.288 73.4395C126.914 73.4938 128.517 73.8432 130.019 74.4706Z" fill="white"/>
<path d="M179.815 58.4822C178.833 58.094 177.838 57.718 176.649 57.257C176.9 56.4704 177.099 55.668 177.244 54.8551C177.3 54.0719 177.308 53.286 177.268 52.5017C175.937 52.5495 174.604 52.4682 173.289 52.2591C170.074 51.3978 168.243 52.7686 168.388 56.1288C168.412 56.6989 168.461 57.2691 168.497 57.9727C167.709 57.7665 167.163 57.6452 166.641 57.4754C165.683 57.1721 164.737 56.8203 163.779 56.4928C164.309 55.442 165.005 54.4835 165.841 53.6542C167.491 52.5139 168.267 51.4949 166.544 50.0271C167.442 49.2992 168.182 48.7048 168.934 48.0983C164.519 49.833 165.926 44.5197 163.208 44.083C161.813 45.3325 160.236 47.4311 157.725 45.9875C157.337 48.1347 157.034 49.8815 156.731 51.6405C156.949 53.7755 160.746 54.1879 159.581 58.2032C156.985 55.6921 154.705 53.4844 152.145 51.0218C151.903 52.3077 151.745 53.1326 151.539 54.2122C150.849 53.6901 150.132 53.2042 149.392 52.7565C148.785 52.429 147.912 51.9073 147.487 52.1135C147.229 52.35 147.028 52.6423 146.9 52.9681C146.771 53.294 146.719 53.6448 146.747 53.9939C146.929 56.323 147.281 58.652 147.62 61.4057C148.688 60.5566 149.343 60.0228 150.083 59.4284C150.811 60.3018 151.49 61.1145 152.206 61.9637C151.284 62.4853 150.544 62.9099 149.258 63.6499C151.017 64.2321 152.157 64.6082 153.213 64.96C151.939 68.1261 146.905 68.9753 148.773 74.2279C148.773 74.2279 146.359 79.2622 147.05 81.3608C147.517 82.3344 148.159 83.2142 148.943 83.9567C150.768 85.0719 152.348 86.5451 153.589 88.2874L153.649 88.348L157.228 88.4815L160.382 84.5754L158.987 76.7147C159.969 73.5243 160.758 70.9404 161.777 67.653C164.47 70.6493 164.907 75.3682 169.104 77.0907C169.31 75.7078 169.48 74.5676 169.662 73.3909C170.669 73.2574 171.53 73.1483 172.476 73.027V71.0497C173.41 71.6077 174.15 72.0443 174.963 72.5417C175.327 69.6303 175.412 69.509 172.452 67.5317C170.026 65.9062 171.494 64.0502 171.906 62.364C172.112 61.527 173.156 60.8962 173.811 60.1684C174.065 60.3382 174.32 60.508 174.575 60.6778V65.2633C174.66 61.6848 176.37 59.5498 179.815 58.4822ZM156.755 62.6673C155.76 62.5338 154.96 60.9812 154.074 60.0592C154.268 59.6589 154.474 59.2585 154.668 58.8582L160.236 59.9136C160.285 60.3018 160.333 60.7021 160.382 61.1024C159.157 61.6727 157.871 62.8127 156.755 62.6673ZM163.063 62.4854C165.343 59.2707 166.314 59.1009 169.686 61.3329C167.818 64.0139 165.465 62.8614 163.063 62.4854Z" fill="#EA644D"/>
<path d="M177.11 100.284L174.55 98.3678C174.55 98.3678 174.587 97.8219 174.708 97.0698C174.934 97.2429 175.123 97.46 175.263 97.7081C175.402 97.9563 175.49 98.2303 175.521 98.5134C175.678 99.1805 176.54 99.7262 177.11 100.284Z" fill="#EA644D"/>
<path d="M182.398 91.0653C182.01 90.8065 181.59 90.5986 181.149 90.4466C181.395 90.4161 181.644 90.4585 181.867 90.5685C182.089 90.6785 182.274 90.8512 182.398 91.0653Z" fill="#EA644D"/>
<path d="M184.255 93.3945C184.166 93.3708 184.082 93.3296 184.009 93.2733C183.936 93.2171 183.875 93.147 183.83 93.0669C183.762 92.8541 183.677 92.6472 183.575 92.4482C183.887 92.6927 184.123 93.0209 184.255 93.3945Z" fill="#EA644D"/>
<path d="M187.021 100.697L186.062 100.212C186.281 100.139 186.608 100.37 187.021 100.697Z" fill="#EA644D"/>
<path d="M191.291 97.7859C190.799 97.5368 190.39 97.1488 190.115 96.6699C191.146 96.8639 191.983 97.1065 191.291 97.7859Z" fill="#EA644D"/>
<path d="M194.348 107.345L193.717 107.672V107.66C193.924 107.563 194.13 107.454 194.348 107.345Z" fill="#EA644D"/>
<path d="M208.493 110.572C208.347 110.754 208.201 110.936 208.056 111.106L207.692 110.96L207.971 110.341C208.153 110.414 208.323 110.487 208.493 110.572Z" fill="#EA644D"/>
<path d="M270.687 130.405C270.713 130.656 270.67 130.91 270.564 131.138C270.457 131.367 270.29 131.562 270.08 131.703V131.715C269.836 131.879 269.549 131.967 269.255 131.97C268.985 131.973 268.719 131.897 268.491 131.752L265.107 129.604C265.121 129.685 265.129 129.766 265.131 129.847L263.263 128.779C263.073 128.677 262.914 128.526 262.802 128.343C262.915 127.534 262.919 126.714 262.814 125.905C262.812 125.867 262.803 125.83 262.79 125.795C262.936 125.662 263.109 125.561 263.297 125.499C263.485 125.436 263.684 125.413 263.881 125.431L269.098 125.892C269.291 125.909 269.479 125.965 269.65 126.057C269.821 126.149 269.971 126.274 270.092 126.426C270.27 126.649 270.38 126.919 270.408 127.203L270.687 130.405Z" fill="#52341C"/>
<path d="M262.814 125.905C262.919 126.714 262.915 127.534 262.801 128.343C262.713 128.236 262.648 128.112 262.607 127.979L262.389 127.312C262.3 127.048 262.29 126.763 262.362 126.494C262.433 126.224 262.581 125.981 262.789 125.795C262.803 125.83 262.811 125.867 262.814 125.905Z" fill="#EA644D"/>
<path d="M268.491 131.752L265.131 129.847C265.129 129.766 265.121 129.685 265.107 129.604L268.491 131.752Z" fill="#EA644D"/>
<path d="M213.09 116.831L213.66 113.435L208.056 111.106C208.201 110.936 208.347 110.754 208.492 110.572C208.323 110.487 208.153 110.414 207.971 110.341L208.929 109.99L210.433 109.031L213.915 112.367L213.09 116.831Z" fill="#52341C"/>
<path d="M225.367 127.069L225.027 128.221L224.566 126.753L223.535 124.812L225.367 127.069Z" fill="#52341C"/>
<path d="M257.768 124.728C257.598 124.546 256.931 123.842 256.446 123.806C256.397 123.77 256.361 123.721 256.312 123.685C255.526 122.816 254.619 122.064 253.619 121.453L255.73 122.096L257.768 124.728Z" fill="#52341C"/>
<path d="M256.445 123.806C256.226 123.782 256.056 123.879 255.959 124.182L255.62 125.322L254.103 124.182L252.636 125.905H251.083L250.525 130.151C250.101 129.711 249.594 129.36 249.033 129.119C243.295 127.761 237.557 126.463 232.596 125.322C230.728 126.354 228.932 127.36 227.149 128.343C226.555 128.671 224.128 127.404 223.534 127.731L222.632 126.518L225.026 128.222L225.366 127.07L223.534 124.814L222.103 122.096L221.193 121.914L217.845 121.235L216.947 121.053L215.212 118.87L213.089 116.832L213.914 112.368L210.433 109.032L208.929 109.99L207.97 110.342C207.485 110.111 206.988 109.893 206.49 109.662C203.397 108.231 200.292 106.8 197.732 105.623C197.272 104.71 197.011 103.709 196.968 102.687C196.968 101.207 192.783 100.819 189.993 100.2C187.203 99.5818 190.114 98.951 191.291 97.7864C191.763 98.0416 192.253 98.2606 192.758 98.4415C197.307 100.213 201.978 101.668 206.527 103.452C206.798 103.619 207.104 103.723 207.421 103.756C207.738 103.789 208.059 103.751 208.359 103.644C208.659 103.537 208.932 103.363 209.157 103.137C209.381 102.911 209.552 102.637 209.656 102.335C210.524 100.631 211.672 99.0849 213.053 97.7622C212.92 99.3999 212.847 101.05 212.641 102.687C212.467 103.44 212.582 104.231 212.964 104.903C213.346 105.575 213.967 106.079 214.703 106.314C226.858 112.113 239.11 117.632 252.211 121.017L253.618 121.453C254.618 122.065 255.525 122.817 256.311 123.686C256.36 123.721 256.396 123.77 256.445 123.806Z" fill="#52341C"/>
<path d="M207.971 110.341L206.927 110.717L206.491 109.662C206.988 109.892 207.485 110.111 207.971 110.341Z" fill="#52341C"/>
<path d="M223.535 124.813L221.194 121.914L222.104 122.096L223.535 124.813Z" fill="#52341C"/>
<path d="M222.026 127.012L222.499 125.46L222.026 127.012Z" fill="#52341C"/>
<path d="M229.099 124.606C229.099 123.145 224.968 122.762 222.214 122.151C219.459 121.54 222.333 120.917 223.495 119.768C223.009 119.522 222.605 119.139 222.333 118.666C221.659 118.575 220.996 118.411 220.358 118.175C219.304 117.6 218.885 121.265 217.855 120.343C216.813 119.433 216.945 117.936 216.705 116.223C216.674 115.956 216.622 115.692 216.549 115.433C216.462 115.41 216.379 115.369 216.307 115.314C216.235 115.258 216.175 115.189 216.13 115.11C216.063 114.9 215.979 114.695 215.879 114.499C215.451 114.08 215.062 113.623 214.717 113.134C214.334 112.878 213.919 112.673 213.484 112.523C212.154 112.643 210.514 114.535 209.149 114.942C207.927 115.313 207.364 117.588 207.125 119.061C207.348 119.232 207.534 119.447 207.672 119.692C207.81 119.936 207.897 120.207 207.927 120.486C208.083 121.145 208.933 121.684 209.496 122.235C210.298 123.013 211.125 123.744 211.939 124.498L211.364 125.469C210.214 124.87 208.634 124.559 208.023 123.625C206.299 121.002 203.604 120.906 201.065 120.511C200.657 120.435 200.237 120.47 199.846 120.61C199.456 120.75 199.109 120.991 198.843 121.309C198.576 121.627 198.399 122.01 198.328 122.419C198.258 122.828 198.298 123.248 198.443 123.637C199.545 126.667 199.449 130.582 203.652 131.612C203.712 131.624 203.748 131.756 203.975 132.103C203.365 135.001 198.958 137.336 202.083 141.348C203.46 141.3 205.292 141.061 205.089 143.767C210.873 143.695 210.25 136.965 214.585 135.312C214.823 136.362 215.155 137.388 215.579 138.378C216.005 139.372 216.729 140.209 217.651 140.773C219.258 141.39 220.971 141.687 222.693 141.647C224.489 141.587 224.8 140.066 224.848 138.438C224.956 135.049 224.106 133.815 220.561 132.246C222.237 131.384 223.974 130.486 225.878 129.516H225.89C226.094 129.42 226.297 129.312 226.513 129.205L229.854 127.504C229.4 126.603 229.142 125.615 229.099 124.606ZM211.232 130.438C209.448 130.582 207.676 130.725 205.903 130.869C205.772 130.546 205.64 130.222 205.52 129.899C206.598 129.084 207.604 127.827 208.801 127.6C209.568 127.468 210.61 128.845 211.532 129.539C211.436 129.839 211.328 130.138 211.232 130.438ZM217.567 131.803C216.748 131.186 216.001 130.479 215.34 129.696C215.915 129.276 216.573 128.426 217.052 128.522C217.843 128.666 218.513 129.432 219.687 130.246C218.633 131.049 217.771 131.947 217.567 131.803ZM217.627 127.072C216.861 126.054 216.106 125.048 215.34 124.031C216.268 123.302 217.272 122.676 218.334 122.163C218.549 122.091 218.873 122.318 219.28 122.641L219.292 122.654C219.615 122.917 219.963 123.228 220.358 123.492C219.268 124.917 218.442 125.995 217.627 127.072Z" fill="#EA644D"/>
<path d="M400 166.179C399.503 166.628 398.993 167.502 398.532 167.477C395.16 167.32 391.654 167.465 388.464 166.58C384.23 165.415 380.276 164.226 375.775 165.427C371.13 166.867 366.145 166.774 361.558 165.16C364.312 167.756 367.073 170.364 369.843 172.985C363.487 177.06 351.987 177.631 347.195 167.683C346.346 165.937 345.4 165.124 343.374 165.439C341.908 165.631 340.422 165.586 338.971 165.306C337.289 164.927 335.543 164.931 333.863 165.318L333.718 165.366L333.257 165.512L333.124 165.561V161.436L333.9 160.72C334.361 160.708 334.664 160.405 334.882 159.811L335.331 159.616C335.199 159.56 335.088 159.463 335.016 159.338C335.077 159.059 335.137 158.743 335.186 158.367L335.901 155.832L336.69 153.539L338.679 152.192L338.728 152.18C339.172 152.104 339.605 151.969 340.014 151.78C342.561 150.567 345 149.123 347.984 147.498C347.741 153.357 347.717 158.525 344.684 163.717C346.419 163.717 348.153 163.765 349.876 163.705C352.545 163.595 355.214 163.256 357.882 163.304C360.054 163.353 361.085 162.649 361.825 160.478C364.336 153.005 369.491 148.286 377.789 146.552C376.818 151.404 375.909 156.026 374.938 160.89C378.953 161.181 383.272 161.473 387.578 161.849C387.899 161.851 388.217 161.916 388.512 162.041C388.808 162.166 389.076 162.348 389.301 162.576C390.951 165.427 393.656 164.845 396.191 164.881C396.921 164.796 397.66 164.808 398.387 164.918C398.991 165.246 399.536 165.672 400 166.179Z" fill="#52341C"/>
<path d="M335.185 158.367C335.137 158.743 335.076 159.058 335.015 159.337C334.773 158.912 335.185 158.367 335.185 158.367Z" fill="#EA644D"/>
<path d="M340.013 151.779C339.604 151.968 339.172 152.103 338.728 152.18L340.013 151.779Z" fill="#EA644D"/>
<path d="M311.143 153.963C311.201 154.321 311.337 154.66 311.543 154.958C311.543 154.958 309.25 153.769 308.195 154.958C307.661 155.54 307.588 154.813 307.6 153.757C308.401 153.981 309.258 153.885 309.99 153.49C310.245 153.357 311.106 153.733 311.143 153.963Z" fill="#EA644D"/>
<path d="M312.101 146.903C311.543 146.879 310.997 146.842 310.463 146.794C312.065 145.156 312.101 146.903 312.101 146.903Z" fill="#EA644D"/>
<path d="M334.883 159.811C334.664 160.405 334.361 160.708 333.9 160.72L334.87 159.811H334.883Z" fill="#52341C"/>
<path d="M102.19 257.54C99.1938 257.347 97.0671 257.009 95.8104 256.525C94.6504 256.042 93.5871 255.365 92.6204 254.495C91.7504 253.625 90.2521 252.514 88.1254 251.16V250.87C88.1254 250.387 88.3671 250 88.8504 249.71C89.4304 249.517 89.9138 249.42 90.3004 249.42C90.7838 250.097 91.4121 250.58 92.1854 250.87C93.0554 251.16 93.8771 251.354 94.6504 251.45C96.1004 252.03 97.3571 252.32 98.4204 252.32C99.1938 252.32 99.9188 252.224 100.595 252.03C101.272 251.934 102.045 251.837 102.915 251.74C103.109 252.127 103.447 252.224 103.93 252.03C104.414 251.934 104.559 251.74 104.365 251.45C105.622 250.58 106.879 249.71 108.135 248.84C109.489 248.067 110.697 247.197 111.76 246.23C111.567 246.23 111.519 246.085 111.615 245.795C112.679 245.119 113.597 243.91 114.37 242.17C115.24 240.527 115.965 238.739 116.545 236.805C117.222 234.872 117.754 233.325 118.14 232.165C118.334 232.359 118.527 232.455 118.72 232.455C119.01 232.455 119.155 232.214 119.155 231.73C119.155 231.247 118.962 230.812 118.575 230.425C118.865 229.362 119.155 228.347 119.445 227.38C119.832 226.317 120.315 225.35 120.895 224.48C120.799 224.48 120.75 224.48 120.75 224.48C120.654 224.48 120.702 223.997 120.895 223.03C121.185 222.064 121.282 221.29 121.185 220.71L122.055 220.275L122.345 215.345L123.505 213.46V209.69C123.892 209.787 124.23 209.449 124.52 208.675C124.81 207.902 124.569 207.757 123.795 208.24L124.665 203.6L125.535 203.31H124.665L126.115 199.83H125.245C125.439 198.187 125.68 196.544 125.97 194.9C126.26 193.16 126.405 191.42 126.405 189.68C126.889 190.26 127.179 190.067 127.275 189.1C127.372 188.134 127.372 186.974 127.275 185.62C127.275 184.267 127.275 183.397 127.275 183.01H128.145L128.29 182.43C128.29 181.56 128.049 180.884 127.565 180.4L128.435 169.525H128.725C129.015 169.525 129.16 169.38 129.16 169.09C129.16 168.607 128.967 168.027 128.58 167.35C128.194 166.674 128.532 166.722 129.595 167.495L128.725 164.015C128.919 164.112 129.257 164.16 129.74 164.16C130.224 164.064 130.369 163.822 130.175 163.435L129.305 162.855L129.885 162.565L129.015 160.39C129.015 160.294 129.015 160.245 129.015 160.245V160.39C129.112 160.39 129.257 160.39 129.45 160.39C129.74 160.39 129.885 160.245 129.885 159.955C129.885 159.375 129.595 158.699 129.015 157.925V157.49C129.015 156.814 129.305 156.427 129.885 156.33C130.465 156.234 130.707 155.992 130.61 155.605L129.305 155.895L128.725 154.735V155.315L125.825 161.115C125.535 160.825 125.39 160.439 125.39 159.955C125.39 158.892 125.729 158.215 126.405 157.925V153.865C124.762 153.479 122.877 152.947 120.75 152.27C118.624 151.594 116.739 151.352 115.095 151.545L114.66 150.675H114.515C114.419 150.675 114.225 150.724 113.935 150.82C113.645 150.917 113.404 150.917 113.21 150.82L113.065 150.675C112.485 150.095 111.712 149.805 110.745 149.805C109.875 149.709 109.054 149.66 108.28 149.66L108.135 148.935L104.51 148.5L104.365 147.775H100.16L99.0004 146.905H96.6804V146.76C96.6804 146.277 96.3904 145.987 95.8104 145.89C95.2304 145.697 94.8438 145.842 94.6504 146.325L92.0404 145.455L91.4604 144.295L88.5604 144.585C88.4638 144.489 88.3671 144.199 88.2704 143.715C88.2704 143.232 88.2221 142.99 88.1254 142.99C87.9321 142.99 87.7871 143.425 87.6904 144.295L85.6604 143.57V144.15C85.6604 145.02 86.0471 145.504 86.8204 145.6C87.5938 145.697 88.1738 146.18 88.5604 147.05L86.2404 147.34C85.5638 146.567 84.4521 146.084 82.9054 145.89C81.4554 145.697 80.2954 145.552 79.4254 145.455C79.5221 145.359 79.5704 145.214 79.5704 145.02C79.5704 144.537 79.2321 144.247 78.5554 144.15C77.9754 144.054 77.7338 144.247 77.8304 144.73L74.4954 143.28V142.12L72.4654 142.845C72.1754 142.652 71.8371 142.362 71.4504 141.975C71.0638 141.589 70.8221 141.589 70.7254 141.975L66.8104 138.93L65.7954 139.51L62.3154 137.19L63.1854 133.71C63.7654 133.71 64.1038 133.614 64.2004 133.42C64.2971 133.13 64.0554 132.84 63.4754 132.55L67.2454 127.91L67.9704 128.49C68.7438 128.104 69.1304 128.007 69.1304 128.2C69.1304 128.2 69.0338 128.2 68.8404 128.2C68.7438 128.2 68.5988 128.249 68.4054 128.345L70.7254 128.78L71.3054 129.36C71.4988 129.264 71.5954 129.07 71.5954 128.78C71.6921 128.49 71.7888 128.345 71.8854 128.345C71.9821 128.249 72.3204 128.394 72.9004 128.78C73.4804 129.167 73.2388 129.36 72.1754 129.36L79.7154 131.1L78.9904 131.39L85.0804 132.55L86.2404 134.435L88.8504 133.71L94.6504 137.045C94.8438 136.465 95.2304 136.224 95.8104 136.32C96.3904 136.32 96.5838 136.562 96.3904 137.045H98.7104C98.8071 137.625 99.1454 137.964 99.7254 138.06C100.402 138.157 100.934 138.109 101.32 137.915C102.094 138.592 103.06 139.075 104.22 139.365C105.38 139.655 106.444 139.8 107.41 139.8L107.845 140.96C108.329 140.67 108.715 140.525 109.005 140.525C109.875 140.525 110.697 140.864 111.47 141.54C112.34 142.217 113.162 142.749 113.935 143.135L114.225 141.975C116.642 142.459 118.914 143.232 121.04 144.295C123.264 145.262 125.632 145.794 128.145 145.89C128.822 142.7 129.257 139.994 129.45 137.77C129.74 135.547 130.465 133.855 131.625 132.695C132.882 131.535 135.202 131.004 138.585 131.1V132.26L140.905 131.39L142.355 132.55L142.79 139.365L141.92 139.8L141.195 144.73C141.292 144.634 141.389 144.585 141.485 144.585C141.775 144.585 141.969 144.779 142.065 145.165C142.259 145.455 142.259 145.697 142.065 145.89C141.679 146.18 141.34 146.325 141.05 146.325H140.905C140.809 146.325 140.76 146.374 140.76 146.47C140.76 146.567 140.809 146.857 140.905 147.34C141.099 147.824 141.34 148.597 141.63 149.66L145.11 151.835L145.835 150.675L151.925 151.98V152.56C151.925 153.43 152.07 153.865 152.36 153.865C152.457 153.865 152.457 153.382 152.36 152.415L154.97 153.865C155.26 153.865 155.309 153.72 155.115 153.43C154.922 153.14 154.777 152.995 154.68 152.995C155.937 153.092 157.194 153.334 158.45 153.72C159.707 154.107 160.964 154.542 162.22 155.025L161.64 155.605L166.28 155.315L167.73 156.475L175.125 157.055C174.545 157.442 174.642 157.732 175.415 157.925C176.189 158.022 177.107 158.119 178.17 158.215C179.234 158.215 179.862 158.215 180.055 158.215L181.215 157.635L187.595 159.085V158.215L190.785 158.795C191.462 158.312 192.235 157.974 193.105 157.78C194.072 157.587 194.942 157.442 195.715 157.345V157.2C195.715 156.91 195.86 156.669 196.15 156.475C196.44 156.282 196.682 156.282 196.875 156.475L199.34 154.735C199.34 152.705 199.099 150.772 198.615 148.935C198.229 147.002 197.939 145.069 197.745 143.135L195.715 141.685L196.875 141.25L200.065 144.585L199.485 144.73C200.645 144.73 201.467 145.359 201.95 146.615C202.53 147.775 202.917 149.08 203.11 150.53C203.4 151.98 203.642 153.092 203.835 153.865L203.11 154.445L202.385 158.505H200.935C201.129 159.279 200.79 160.004 199.92 160.68C199.147 161.357 198.18 161.937 197.02 162.42C195.957 162.807 195.135 163.097 194.555 163.29C194.652 163.194 194.7 163.145 194.7 163.145C194.7 163.049 194.7 163 194.7 163C194.7 162.324 194.41 161.985 193.83 161.985C193.734 161.985 193.54 162.034 193.25 162.13C193.057 162.227 192.815 162.372 192.525 162.565L190.785 163.725C190.205 163.532 189.577 163.242 188.9 162.855C188.32 162.469 187.789 162.469 187.305 162.855C186.822 163.242 186.049 163.532 184.985 163.725C184.019 163.822 182.859 163.87 181.505 163.87C179.765 163.87 177.977 163.822 176.14 163.725C174.4 163.532 173.047 163.435 172.08 163.435L171.79 162.275L168.31 161.985L167.73 162.565L162.8 161.985V160.825H162.655C162.462 160.825 162.172 160.922 161.785 161.115C161.399 161.309 161.35 161.502 161.64 161.695L158.74 160.245L157.87 160.825L152.65 159.665C152.747 159.472 152.795 159.279 152.795 159.085C152.795 158.892 152.699 158.795 152.505 158.795C152.215 158.795 151.829 158.892 151.345 159.085C150.959 159.182 150.524 159.23 150.04 159.23C149.364 159.23 148.977 158.892 148.88 158.215H146.27C146.27 158.409 146.222 158.505 146.125 158.505C145.932 158.505 145.642 158.312 145.255 157.925C144.965 157.539 144.772 157.345 144.675 157.345C144.482 157.249 144.192 157.2 143.805 157.2C143.419 157.2 142.984 157.2 142.5 157.2C142.017 157.2 141.534 157.2 141.05 157.2C140.567 157.2 140.132 157.152 139.745 157.055V157.345C140.325 158.022 140.615 158.795 140.615 159.665C140.615 160.632 140.325 161.502 139.745 162.275C139.842 162.565 139.89 162.904 139.89 163.29C139.89 163.58 139.89 163.87 139.89 164.16C139.89 165.707 139.697 167.447 139.31 169.38C139.02 171.217 138.779 172.86 138.585 174.31H137.86L138.15 174.455L138.295 176.92C137.909 176.824 137.667 177.017 137.57 177.5C137.57 177.984 137.764 178.225 138.15 178.225L136.845 181.56L137.425 183.01L134.815 192.58L135.685 192.87L135.105 196.35L133.945 197.22L134.525 199.83L133.655 200.12L133.945 200.41L133.365 205.05C132.689 205.05 132.35 205.292 132.35 205.775C132.35 206.065 132.592 206.452 133.075 206.935L131.625 212.735L130.755 213.025L131.625 213.895C130.659 214.862 130.03 216.215 129.74 217.955C129.547 219.695 129.402 221.242 129.305 222.595H129.015C128.629 223.562 128.049 224.915 127.275 226.655C126.502 228.395 125.68 230.28 124.81 232.31C124.037 234.244 123.36 236.08 122.78 237.82C122.2 239.464 121.862 240.72 121.765 241.59L120.315 242.315L120.605 243.04L118.865 246.085L117.995 245.795C117.609 246.182 117.367 246.665 117.27 247.245C117.27 247.825 117.174 248.357 116.98 248.84H116.835C116.835 248.744 116.787 248.405 116.69 247.825C116.594 247.245 116.449 247.052 116.255 247.245C115.385 248.309 114.999 249.42 115.095 250.58L113.21 252.03L113.645 252.32L111.325 254.495H110.6L109.005 255.655C109.199 255.269 108.909 255.172 108.135 255.365C107.362 255.655 106.444 255.945 105.38 256.235C104.317 256.622 103.35 256.864 102.48 256.96L102.19 257.54ZM129.595 155.315L130.61 155.605L130.755 155.025C130.755 154.639 130.514 154.59 130.03 154.88C129.644 155.17 129.499 155.315 129.595 155.315ZM180.344 232.745C179.668 232.842 178.846 232.552 177.879 231.875C176.913 231.102 176.236 230.474 175.849 229.99L175.994 228.685C175.898 228.685 175.801 228.734 175.704 228.83C175.608 228.927 175.511 228.975 175.414 228.975L175.994 225.35C176.188 225.35 176.236 225.109 176.139 224.625C176.139 224.142 176.139 223.852 176.139 223.755L175.994 223.61L176.139 221.145H176.719L175.994 220.42L176.284 218.245L176.574 218.1L176.284 217.665L176.574 216.07L177.154 215.78C177.154 215.587 177.058 215.394 176.864 215.2C176.768 214.91 176.719 214.669 176.719 214.475C176.719 214.089 177.058 213.557 177.734 212.88L177.154 212.59L178.024 211.865L177.299 211.575C177.783 211.189 177.879 210.85 177.589 210.56C177.396 210.174 177.444 209.787 177.734 209.4L178.749 207.95L178.024 207.225L178.169 206.355C178.653 206.355 178.894 206.21 178.894 205.92C178.894 205.727 178.846 205.485 178.749 205.195C178.653 204.905 178.604 204.615 178.604 204.325H178.749L178.894 204.615L179.329 201.715L179.619 201.57V199.395H180.344L179.909 197.8L179.764 197.945L176.719 202.875L175.849 203.02L174.689 204.615L175.414 204.905L174.979 205.63H173.819C174.013 206.017 174.109 206.307 174.109 206.5C174.109 206.887 173.868 207.225 173.384 207.515C172.901 207.709 172.563 207.854 172.369 207.95L172.659 208.82L171.499 210.705L170.774 210.415C170.774 210.415 170.726 210.512 170.629 210.705C170.629 210.899 170.533 210.995 170.339 210.995L169.614 210.705L169.324 211.865L170.049 212.01C169.663 212.397 169.373 212.735 169.179 213.025C168.986 213.315 168.503 213.46 167.729 213.46C167.633 213.75 167.729 214.04 168.019 214.33C167.246 215.394 166.376 216.457 165.409 217.52C164.539 218.584 163.573 219.502 162.509 220.275H162.074L160.914 221.435L160.334 221.145L160.044 222.16L157.289 223.32L156.999 224.045L155.984 223.755L155.404 224.625H154.824C152.504 224.625 150.571 223.997 149.024 222.74C148.734 222.16 148.589 221.484 148.589 220.71C148.396 220.71 148.251 220.807 148.154 221C148.058 221.097 147.961 221.194 147.864 221.29L146.994 217.665L147.429 216.795L147.139 216.505L147.284 215.345H147.719L148.879 210.125C148.976 210.125 149.024 210.174 149.024 210.27C149.121 210.367 149.218 210.415 149.314 210.415C149.508 210.415 149.604 210.27 149.604 209.98C149.604 209.69 149.556 209.497 149.459 209.4L149.169 209.545C149.363 208.095 150.088 207.032 151.344 206.355C151.151 206.162 151.054 205.92 151.054 205.63C151.054 205.34 151.103 205.099 151.199 204.905C151.393 204.615 151.538 204.325 151.634 204.035L152.069 204.18V204.035L151.924 203.745L152.504 203.455C152.601 203.455 152.553 203.31 152.359 203.02C152.263 202.73 152.408 202.779 152.794 203.165V202.15H153.664C153.954 201.764 154.196 201.329 154.389 200.845C154.583 200.362 154.776 199.879 154.969 199.395H156.419L155.984 198.38L156.709 197.51L157.579 197.8L158.014 195.915L160.334 194.175L159.609 193.74L160.479 193.45L160.624 194.32C160.624 193.257 161.059 192.484 161.929 192H162.074L162.219 192.725L162.364 192.435L162.219 191.71L163.814 190.55L163.959 191.13C164.056 190.164 164.588 189.439 165.554 188.955C166.521 188.375 167.536 187.844 168.599 187.36C169.663 186.877 170.243 186.345 170.339 185.765L171.499 185.91C171.596 185.814 171.644 185.669 171.644 185.475C171.741 185.185 171.693 185.04 171.499 185.04C172.466 184.944 173.578 184.605 174.834 184.025H176.284L175.559 183.59L175.704 183.445C177.444 182.962 179.233 182.72 181.069 182.72C182.326 182.72 183.486 183.107 184.549 183.88L187.449 185.04C187.546 185.137 187.449 185.185 187.159 185.185C186.966 185.185 186.869 185.282 186.869 185.475C186.869 185.572 187.014 185.717 187.304 185.91C187.594 186.007 187.836 186.055 188.029 186.055L188.174 185.62C188.271 185.62 188.319 185.814 188.319 186.2C188.416 186.49 188.513 186.539 188.609 186.345L189.769 187.505H189.189L188.899 191.71H188.319L188.029 192.435L188.464 193.45C188.464 193.547 188.416 193.74 188.319 194.03C188.223 194.224 188.174 194.175 188.174 193.885V193.595L187.739 193.74C187.836 193.934 187.884 194.224 187.884 194.61C187.884 194.9 187.836 195.239 187.739 195.625C187.739 195.915 187.691 196.254 187.594 196.64C187.208 196.64 186.966 196.689 186.869 196.785L186.434 197.945C186.338 198.332 186.386 198.574 186.579 198.67C186.773 198.67 186.869 198.719 186.869 198.815L186.579 199.395C186.579 199.782 186.579 200.169 186.579 200.555C186.676 200.942 186.676 201.377 186.579 201.86H185.419L183.824 202.005C184.211 202.585 184.646 203.069 185.129 203.455C185.613 203.745 185.854 203.89 185.854 203.89C186.048 204.084 186.096 204.277 185.999 204.47C185.806 204.954 185.613 205.437 185.419 205.92C185.226 206.404 185.033 206.887 184.839 207.37L185.274 207.515C185.371 207.612 185.323 207.66 185.129 207.66C185.033 207.66 185.033 207.709 185.129 207.805L185.274 207.95C185.371 208.047 185.419 208.192 185.419 208.385C185.419 208.772 185.274 209.159 184.984 209.545C184.694 209.932 184.453 210.367 184.259 210.85H184.694C184.694 211.624 184.646 212.687 184.549 214.04C184.453 215.297 184.163 216.215 183.679 216.795H183.534V216.07H182.809L183.824 217.52C183.438 218.777 183.196 220.13 183.099 221.58C183.003 222.934 182.858 224.287 182.664 225.64L183.679 226.945H183.824V225.93L184.694 225.35H185.419L185.709 226.365L185.999 224.625C185.999 224.529 185.999 224.48 185.999 224.48C186.096 224.48 186.144 224.48 186.144 224.48H186.434C186.628 223.804 186.676 223.32 186.579 223.03C187.159 222.257 187.836 221.242 188.609 219.985C189.479 218.632 190.301 217.327 191.074 216.07C191.848 214.717 192.331 213.654 192.524 212.88C192.718 212.88 192.863 212.977 192.959 213.17C193.056 213.364 193.153 213.46 193.249 213.46C193.346 213.46 193.346 213.267 193.249 212.88C193.249 212.397 193.153 212.204 192.959 212.3C193.249 211.914 193.443 211.479 193.539 210.995C193.636 210.415 193.878 210.125 194.264 210.125C194.748 210.125 194.989 210.27 194.989 210.56C194.989 210.754 194.941 210.995 194.844 211.285C194.748 211.479 194.699 211.672 194.699 211.865L194.554 214.91L193.684 215.635L193.974 215.78H194.119L193.684 216.07L194.119 216.505H193.684C193.684 216.989 193.588 217.472 193.394 217.955C193.298 218.439 193.153 218.922 192.959 219.405L192.089 219.695L192.379 220.275L191.654 221.29L190.784 221.435L188.899 226.22L188.029 226.075L188.174 227.235L184.404 231.585L183.679 231.44L183.534 232.31L182.954 232.745H180.344ZM154.099 219.695H154.389L157.579 218.1C157.773 218.294 157.821 218.39 157.724 218.39C157.628 218.39 157.579 218.39 157.579 218.39C157.579 218.68 157.676 218.922 157.869 219.115C158.063 219.212 158.208 219.26 158.304 219.26L158.014 217.81C158.208 217.23 158.594 217.085 159.174 217.375L159.029 217.665L160.044 217.23H159.319C159.223 216.94 159.319 216.795 159.609 216.795L161.929 216.215C162.026 216.119 161.881 216.07 161.494 216.07C161.108 215.974 160.914 215.877 160.914 215.78L161.784 215.345C162.558 214.959 163.186 214.524 163.669 214.04C164.153 213.557 164.394 213.315 164.394 213.315C164.588 213.605 164.878 213.75 165.264 213.75H165.409V211.865L166.424 210.85L167.004 210.995L166.859 210.27L168.019 209.835C168.213 208.965 168.648 208.337 169.324 207.95C170.001 207.467 170.533 206.935 170.919 206.355H170.629C170.823 205.872 171.209 205.582 171.789 205.485C172.369 205.292 172.708 204.905 172.804 204.325L172.514 203.745L174.109 202.44L173.819 202.295C174.013 202.102 174.109 201.909 174.109 201.715C174.206 201.425 174.448 201.329 174.834 201.425L175.559 201.57V200.12L176.139 199.105H177.299C177.493 198.525 177.299 198.235 176.719 198.235L178.749 195.48L179.619 195.915V195.625L178.749 195.335L179.329 194.465L179.909 194.32L180.054 194.175C179.764 194.175 179.668 194.079 179.764 193.885C179.861 193.595 180.054 193.499 180.344 193.595L180.489 192.435L181.214 192.145H180.924L181.214 191.42H182.229L181.939 189.245L182.229 188.955L181.794 188.52C181.601 189.197 181.118 189.584 180.344 189.68C179.571 189.777 178.894 189.825 178.314 189.825C178.508 189.922 178.556 190.115 178.459 190.405C178.363 190.599 178.218 190.647 178.024 190.55L177.154 190.115H176.719L177.154 191.13L175.849 190.84L176.139 191.42H175.414V192L174.109 192.87C174.013 192.87 173.578 192.822 172.804 192.725C172.128 192.629 171.983 192.774 172.369 193.16H172.659C172.659 193.644 172.514 193.837 172.224 193.74C171.934 193.644 171.741 193.595 171.644 193.595L171.934 193.74C170.098 194.61 168.454 195.867 167.004 197.51C167.198 197.607 167.149 197.752 166.859 197.945C166.666 198.139 166.473 198.09 166.279 197.8V198.67L165.989 198.38C165.989 198.864 165.699 199.299 165.119 199.685C164.539 199.975 164.008 200.217 163.524 200.41C163.234 200.99 162.896 201.57 162.509 202.15C162.123 202.73 161.688 203.165 161.204 203.455L160.914 203.31L159.319 204.325V204.76C159.319 205.727 159.029 206.597 158.449 207.37C157.966 208.047 157.434 208.772 156.854 209.545L156.419 209.11L155.984 210.995H154.969V212.88H153.664C153.568 212.88 153.568 212.977 153.664 213.17C153.761 213.364 153.906 213.509 154.099 213.605C154.003 214.379 153.761 215.152 153.374 215.925C153.084 216.602 152.891 217.327 152.794 218.1H153.519C153.326 218.874 153.616 219.212 154.389 219.115L154.099 219.695ZM154.389 213.75C154.389 213.847 154.293 213.799 154.099 213.605V213.46L154.389 213.605V213.75ZM204.074 231.005C203.978 230.425 203.833 230.135 203.639 230.135C203.543 230.135 203.446 230.232 203.349 230.425C203.253 230.522 203.108 230.57 202.914 230.57C202.721 230.57 202.479 230.184 202.189 229.41L199.434 228.25L199.869 227.235L198.564 227.09L198.419 225.785H198.129L197.839 224.77L198.564 223.61L198.129 223.32L199.144 222.595L198.564 222.015C198.564 221.532 198.709 220.759 198.999 219.695C199.289 218.632 199.628 217.955 200.014 217.665C199.918 217.472 199.821 217.134 199.724 216.65C199.724 216.07 199.918 215.829 200.304 215.925L200.014 213.895C200.208 213.509 200.449 213.025 200.739 212.445C201.126 211.865 201.029 211.817 200.449 212.3L201.174 207.95L201.464 207.515H202.044C201.948 207.322 201.851 206.984 201.754 206.5C201.754 205.92 201.754 205.292 201.754 204.615C201.754 202.682 201.851 200.555 202.044 198.235C202.334 195.819 202.624 194.175 202.914 193.305C202.721 192.725 202.624 192 202.624 191.13C202.624 190.164 202.866 189.632 203.349 189.535L203.639 182.285C203.639 182.285 203.639 182.189 203.639 181.995C203.736 181.802 203.784 181.56 203.784 181.27C203.784 180.594 203.639 179.82 203.349 178.95C203.639 178.854 203.833 178.709 203.929 178.515C204.123 178.225 203.978 178.08 203.494 178.08L204.509 177.21L203.494 175.905L203.784 173.005C203.881 173.102 204.026 173.15 204.219 173.15C204.606 173.15 204.751 172.909 204.654 172.425C204.558 171.845 204.268 171.7 203.784 171.99L204.074 169.09H204.944V168.945C204.944 168.752 204.848 168.414 204.654 167.93C204.558 167.35 204.413 167.012 204.219 166.915C204.509 167.012 204.654 166.287 204.654 164.74C204.654 164.064 204.606 163.29 204.509 162.42C204.509 161.55 204.509 160.729 204.509 159.955C204.509 158.795 204.606 157.732 204.799 156.765C204.993 155.799 205.283 155.219 205.669 155.025C205.283 153.479 205.186 152.125 205.379 150.965L206.539 151.11L205.379 150.095L206.539 149.66L205.669 148.5V148.355C205.669 148.162 205.766 147.92 205.959 147.63C206.153 147.34 206.346 147.292 206.539 147.485C206.346 146.712 206.249 146.084 206.249 145.6C206.249 144.924 206.298 144.295 206.394 143.715C206.491 143.135 206.539 142.555 206.539 141.975L207.119 141.395L206.829 140.09L207.554 139.8C207.844 138.447 208.086 137.045 208.279 135.595C208.473 134.049 209.004 132.744 209.874 131.68H211.179L211.614 132.405L213.209 132.55C213.113 132.84 213.209 133.082 213.499 133.275C213.886 133.372 214.079 133.324 214.079 133.13C214.756 134.097 215.094 134.677 215.094 134.87C215.191 135.064 215.481 135.16 215.964 135.16C216.061 135.16 216.206 135.354 216.399 135.74C216.593 136.127 216.593 136.32 216.399 136.32C216.979 136.514 217.318 136.997 217.414 137.77C217.608 138.447 217.704 139.027 217.704 139.51H218.284L217.994 141.105H218.574L218.429 142.845L218.284 142.7C218.091 142.7 217.946 142.99 217.849 143.57C217.849 144.15 217.994 144.344 218.284 144.15L217.994 147.195H217.414C217.511 148.259 217.414 149.37 217.124 150.53C216.834 151.69 216.689 152.85 216.689 154.01C216.496 153.817 216.254 153.865 215.964 154.155C216.254 154.735 216.399 155.267 216.399 155.75C216.399 156.62 216.206 157.49 215.819 158.36C215.433 159.134 215.336 159.955 215.529 160.825L214.659 160.97L214.949 162.13L214.369 162.42C214.563 163.194 214.659 163.87 214.659 164.45C214.659 165.61 214.514 166.77 214.224 167.93C213.934 169.09 213.548 170.009 213.064 170.685L213.209 170.975L212.339 171.41L213.499 171.99C213.306 172.377 212.968 172.909 212.484 173.585C212.001 174.262 212.146 174.552 212.919 174.455C212.726 175.712 212.339 176.63 211.759 177.21L212.339 177.355L211.759 178.515L212.049 179.965L210.744 180.4L211.759 181.705L210.164 183.155C210.454 183.445 210.599 184.074 210.599 185.04C210.599 186.2 210.406 187.699 210.019 189.535C209.729 191.275 209.391 192.919 209.004 194.465C208.618 196.012 208.279 197.027 207.989 197.51L208.569 197.22L206.829 206.935L206.394 207.08V210.56H205.524C205.524 210.657 205.621 210.754 205.814 210.85C206.104 210.947 206.249 211.044 206.249 211.14V211.865L205.959 211.575L205.524 211.43C205.524 211.527 205.524 211.672 205.524 211.865C205.621 211.962 205.669 212.107 205.669 212.3C205.669 212.88 205.573 213.46 205.379 214.04C205.283 214.524 205.186 215.055 205.089 215.635L205.379 215.345L205.234 216.505L205.524 216.36L205.959 214.91C206.153 215.104 206.346 215.2 206.539 215.2C206.829 215.2 207.023 215.055 207.119 214.765C207.313 214.379 207.216 213.992 206.829 213.605L208.279 212.59C208.086 212.397 207.989 212.155 207.989 211.865C207.989 211.479 208.231 211.285 208.714 211.285C209.198 211.189 209.584 211.044 209.874 210.85C210.261 210.657 210.116 210.222 209.439 209.545L210.599 208.24C210.793 208.434 211.131 208.047 211.614 207.08C212.194 206.114 212.678 205.34 213.064 204.76L213.354 205.195C213.548 205.195 213.693 204.905 213.789 204.325C213.886 203.745 213.983 203.407 214.079 203.31L214.514 202.44C214.708 202.44 214.901 202.537 215.094 202.73C215.288 202.924 215.433 203.02 215.529 203.02C215.626 203.02 215.626 202.827 215.529 202.44C215.529 202.054 215.336 201.909 214.949 202.005L216.109 201.28C216.013 200.99 216.061 200.7 216.254 200.41C216.448 200.12 216.544 200.217 216.544 200.7L217.559 199.685L217.414 199.25C217.898 198.477 218.526 197.8 219.299 197.22C220.073 196.544 220.798 195.867 221.474 195.19C221.281 194.9 221.281 194.852 221.474 195.045C221.764 195.142 221.958 195.19 222.054 195.19L221.909 193.885L223.359 194.03L223.649 193.595L223.504 192.435C224.761 191.759 225.776 190.937 226.549 189.97C227.323 188.907 228.386 188.279 229.739 188.085C229.836 187.989 229.884 187.747 229.884 187.36L231.044 187.65C231.044 187.554 231.141 187.457 231.334 187.36C231.528 187.167 231.624 187.022 231.624 186.925L232.929 186.635C232.929 186.442 232.881 186.297 232.784 186.2C232.688 186.104 232.688 186.007 232.784 185.91L236.989 185.765V186.345L237.134 186.2C238.198 186.684 239.261 187.215 240.324 187.795L240.759 190.405L241.774 189.97C242.161 190.164 242.161 190.454 241.774 190.84C241.484 191.227 241.243 191.275 241.049 190.985L241.774 192.435C241.968 192.532 242.161 192.58 242.354 192.58C242.548 192.58 242.596 192.677 242.499 192.87L241.774 193.595L242.499 194.175L241.194 196.205L242.354 196.64C242.451 196.64 242.354 196.737 242.064 196.93C241.774 197.027 241.629 197.124 241.629 197.22C241.919 197.704 241.871 198.477 241.484 199.54C241.098 200.604 240.566 201.619 239.889 202.585C239.309 203.455 238.826 203.987 238.439 204.18C238.439 204.277 238.391 204.325 238.294 204.325C238.198 204.519 238.004 204.76 237.714 205.05C237.521 205.34 237.424 205.582 237.424 205.775L237.859 206.935L236.989 208.385H235.829C235.733 208.482 235.781 208.53 235.974 208.53C236.168 208.53 236.313 208.627 236.409 208.82L234.959 210.85L234.089 210.705L232.929 212.735L233.509 212.59C233.219 213.17 232.833 213.654 232.349 214.04C231.866 214.427 231.383 214.765 230.899 215.055V215.2C230.899 215.49 230.803 215.78 230.609 216.07C230.416 216.36 230.223 216.409 230.029 216.215L229.304 217.665H229.014L227.854 218.68L227.709 219.405L225.679 219.985L225.244 221.435C224.858 221.049 224.713 221.097 224.809 221.58L222.924 223.03C222.731 222.934 222.586 222.885 222.489 222.885C222.393 222.789 222.296 222.74 222.199 222.74C222.006 222.74 222.103 223.127 222.489 223.9L220.024 225.64L219.009 225.35L217.994 226.8H217.124C217.124 226.8 217.269 226.849 217.559 226.945C217.849 226.945 217.849 227.042 217.559 227.235C217.463 227.332 217.269 227.284 216.979 227.09C216.786 226.8 216.593 226.704 216.399 226.8V227.67L214.949 228.105L215.674 228.395C214.418 228.492 213.209 228.782 212.049 229.265C210.986 229.652 209.874 229.99 208.714 230.28L208.569 229.41C208.473 229.217 208.424 229.362 208.424 229.845C208.424 230.329 208.376 230.667 208.279 230.86L204.074 231.005ZM203.929 225.64C204.123 225.834 204.316 226.027 204.509 226.22C204.703 226.414 204.848 226.607 204.944 226.8L205.089 226.22H205.669C206.733 226.22 207.506 225.93 207.989 225.35L207.699 225.06C208.279 225.157 208.859 225.109 209.439 224.915L210.019 223.755C210.793 223.175 211.614 223.079 212.484 223.465C212.484 223.079 212.678 222.789 213.064 222.595L212.774 222.305C213.258 221.919 213.838 221.677 214.514 221.58C215.288 221.387 215.819 221 216.109 220.42L215.964 220.275C217.028 219.792 218.333 218.97 219.879 217.81C221.426 216.554 222.683 215.442 223.649 214.475L223.504 213.895C223.988 213.895 224.326 213.992 224.519 214.185V214.04C224.519 213.46 224.809 212.784 225.389 212.01C226.066 211.237 226.646 210.802 227.129 210.705L227.419 210.995L227.709 210.85C227.613 210.754 227.564 210.56 227.564 210.27C227.564 209.98 227.613 209.739 227.709 209.545C227.903 209.255 228.048 209.014 228.144 208.82H228.579V209.255C228.579 210.125 228.821 210.222 229.304 209.545C229.788 208.772 230.319 207.757 230.899 206.5C231.479 205.244 231.866 204.277 232.059 203.6L231.769 202.875L232.494 201.425L233.364 201.28L232.494 200.99C233.268 200.314 233.751 199.105 233.944 197.365C234.234 195.625 234.379 194.272 234.379 193.305V191.71C233.993 191.614 233.751 191.469 233.654 191.275C233.654 191.082 233.558 190.84 233.364 190.55C232.398 190.937 231.624 191.179 231.044 191.275C230.561 191.372 229.933 191.807 229.159 192.58L227.854 192.435L228.144 193.45L226.984 193.885L226.694 194.61L225.679 194.755C225.679 195.722 225.293 196.254 224.519 196.35V196.93C224.036 196.93 223.649 197.124 223.359 197.51C223.456 197.607 223.504 197.704 223.504 197.8C223.504 198.09 223.359 198.38 223.069 198.67C222.779 198.864 222.538 199.057 222.344 199.25L222.054 198.525C221.861 198.719 221.619 199.009 221.329 199.395C221.136 199.685 221.136 200.024 221.329 200.41L220.024 202.15L218.429 202.875L218.574 203.89C217.801 204.277 217.318 204.712 217.124 205.195C216.931 205.679 216.738 206.114 216.544 206.5C216.351 206.887 215.723 207.225 214.659 207.515L214.949 207.805H215.529C215.143 208.192 214.756 208.53 214.369 208.82C214.079 209.11 213.644 209.304 213.064 209.4L213.499 210.415L212.629 210.56L213.064 211.285C212.484 211.672 211.856 212.397 211.179 213.46C210.599 214.427 210.213 215.249 210.019 215.925H209.584V215.055C209.488 215.442 209.343 215.732 209.149 215.925C209.053 216.022 208.908 216.167 208.714 216.36L209.004 216.94L208.714 217.81L208.279 217.665L208.569 217.955C208.086 218.632 207.603 219.405 207.119 220.275C206.733 221.049 206.056 221.484 205.089 221.58V222.015C205.089 222.789 204.896 223.417 204.509 223.9L204.074 224.48L204.799 224.625C204.703 224.722 204.558 224.867 204.364 225.06C204.171 225.254 204.026 225.447 203.929 225.64ZM238.439 204.18C238.439 204.18 238.391 204.229 238.294 204.325L238.439 204.18ZM259.89 191.42C259.02 191.42 258.054 191.082 256.99 190.405L256.555 190.26H256.265C256.169 190.164 256.072 190.115 255.975 190.115C255.975 189.922 256.024 189.777 256.12 189.68H255.395L255.54 187.94C256.12 187.94 256.459 187.795 256.555 187.505L256.265 187.36H256.7V186.925C256.7 186.345 256.845 185.91 257.135 185.62C257.425 185.234 257.764 184.847 258.15 184.46C258.344 184.557 258.537 184.605 258.73 184.605C259.02 184.605 259.214 184.702 259.31 184.895C259.214 184.315 259.214 183.784 259.31 183.3L259.745 183.445C259.939 182.672 260.374 182.189 261.05 181.995C261.824 181.705 262.5 181.415 263.08 181.125L263.225 181.995L263.515 181.85V181.415H264.24C264.434 180.835 264.772 180.545 265.255 180.545L265.4 181.125C265.787 180.739 266.222 180.545 266.705 180.545C267.479 180.835 267.624 181.319 267.14 181.995C266.947 182.092 266.754 182.382 266.56 182.865C266.367 182.382 266.125 182.092 265.835 181.995L265.69 183.01L265.545 182.43H265.4L265.69 183.59C265.4 183.687 265.207 183.832 265.11 184.025C265.014 184.219 264.869 184.412 264.675 184.605C264.482 184.799 264.289 184.847 264.095 184.75C263.902 184.654 263.709 184.75 263.515 185.04C263.709 184.944 263.999 184.944 264.385 185.04C264.095 185.04 263.902 185.089 263.805 185.185L264.385 185.33C263.999 185.717 263.709 186.2 263.515 186.78C263.322 187.264 263.129 187.747 262.935 188.23H262.21V189.1L262.645 189.245C262.355 189.535 262.017 189.68 261.63 189.68L261.775 190.405C261.679 190.599 261.437 190.84 261.05 191.13C260.76 191.324 260.374 191.42 259.89 191.42ZM250.9 235.21C250.417 235.21 250.079 234.969 249.885 234.485L249.305 234.92L248.725 234.485L249.305 233.76L249.015 233.18H248.725V233.76L248 233.615L247.71 232.745C247.71 232.745 247.759 232.745 247.855 232.745C248.049 232.649 248.097 232.552 248 232.455H247.275C247.275 232.262 247.275 232.069 247.275 231.875C247.372 231.585 247.517 231.392 247.71 231.295C247.227 230.909 246.985 229.99 246.985 228.54C246.985 226.994 246.985 226.027 246.985 225.64L247.275 224.335H247.855L247.275 222.015C247.275 221.919 247.42 221.967 247.71 222.16C248 222.257 248.145 222.305 248.145 222.305V221.58C248.049 221.387 247.855 221.194 247.565 221C247.372 220.71 247.275 220.42 247.275 220.13L247.42 219.985C247.807 219.115 248.049 218.197 248.145 217.23C248.339 216.264 248.532 215.345 248.725 214.475L248.29 214.185L248.435 212.735C248.532 212.542 248.629 212.542 248.725 212.735C248.822 212.832 248.87 212.88 248.87 212.88H249.45C249.354 212.687 249.209 212.494 249.015 212.3C248.919 212.01 248.87 211.672 248.87 211.285L249.305 210.85C249.112 210.754 249.015 210.512 249.015 210.125C249.015 209.739 249.064 209.4 249.16 209.11C249.257 208.724 249.354 208.482 249.45 208.385L249.305 207.95C249.789 207.757 249.982 207.322 249.885 206.645C249.885 205.872 249.934 205.195 250.03 204.615C250.224 203.939 250.852 203.649 251.915 203.745C251.819 203.552 251.722 203.359 251.625 203.165C251.529 202.972 251.384 202.827 251.19 202.73H250.9V201.715L252.205 200.265L251.915 199.685L252.35 199.395V199.25C252.35 198.767 252.544 198.429 252.93 198.235C253.317 197.945 253.704 197.752 254.09 197.655L253.945 197.22H254.525L254.67 197.8L254.525 197.945H254.96C254.96 197.559 254.96 197.365 254.96 197.365C254.96 197.365 255.299 197.317 255.975 197.22L256.41 198.38C257.764 198.767 258.634 199.347 259.02 200.12C259.504 200.894 259.939 201.86 260.325 203.02L260.76 202.73V203.02C260.76 203.794 260.422 204.374 259.745 204.76L259.6 204.615C259.697 204.905 259.745 205.147 259.745 205.34C259.745 205.534 259.504 205.727 259.02 205.92C258.924 206.5 258.779 207.129 258.585 207.805C258.392 208.482 258.199 209.11 258.005 209.69C258.005 209.497 257.909 209.497 257.715 209.69C257.522 209.787 257.522 209.932 257.715 210.125L257.135 210.415H257.57C257.377 211.285 257.039 212.155 256.555 213.025C256.072 213.895 255.879 214.765 255.975 215.635H255.105L255.25 216.65L255.54 216.505C255.444 216.795 255.347 217.085 255.25 217.375C255.154 217.569 255.105 217.859 255.105 218.245H254.67L255.105 218.535H254.96L255.105 218.825L254.67 220.13H254.09L254.38 221.29C254.187 221.484 253.897 221.435 253.51 221.145C253.51 221.725 253.752 222.209 254.235 222.595L253.655 225.06H253.075L253.365 225.495L253.655 225.205L253.365 228.54V228.685H254.38L254.525 229.555C255.009 229.362 255.54 229.217 256.12 229.12C256.7 229.024 257.232 228.879 257.715 228.685L258.005 228.105L258.875 228.25V227.67L258.585 227.525L259.6 226.8V226.945L259.745 226.51L260.18 226.655C260.18 226.365 260.277 226.172 260.47 226.075C260.664 225.882 260.809 225.592 260.905 225.205L261.485 225.64L262.79 224.19C262.79 224.19 262.645 224.094 262.355 223.9L262.645 223.175L263.515 222.885C263.419 222.789 263.37 222.644 263.37 222.45C263.37 222.257 263.467 222.112 263.66 222.015C263.95 221.822 264.144 221.58 264.24 221.29C264.144 221.29 264.095 221.242 264.095 221.145C264.095 220.952 264.144 220.855 264.24 220.855L265.255 220.71C265.352 220.324 265.4 219.985 265.4 219.695C265.4 219.309 265.449 218.922 265.545 218.535C265.642 218.439 265.69 218.487 265.69 218.68C265.787 218.777 265.835 218.874 265.835 218.97C266.029 219.164 266.222 219.164 266.415 218.97V218.535L266.85 218.39L265.98 218.1L266.705 217.955H266.415V217.375C266.899 217.085 267.237 216.602 267.43 215.925C267.72 215.152 267.914 214.524 268.01 214.04L268.445 214.185V213.315L268.88 213.17C268.59 213.17 268.542 213.074 268.735 212.88H269.315C269.219 211.817 269.46 210.947 270.04 210.27C270.62 209.497 271.007 208.675 271.2 207.805H271.78V207.225H273.085C273.085 207.805 272.989 208.095 272.795 208.095C272.699 208.095 272.554 208.289 272.36 208.675L272.94 210.125L272.65 210.56L272.07 210.27L272.36 211.14L271.925 210.85L272.07 212.01L271.78 211.865C271.684 212.252 271.442 213.074 271.055 214.33C270.765 215.49 270.379 216.215 269.895 216.505L269.315 216.36C269.315 216.554 269.364 216.747 269.46 216.94C269.557 217.134 269.654 217.327 269.75 217.52L269.025 218.97L268.445 218.68C268.542 219.55 268.252 220.517 267.575 221.58C266.899 222.547 266.319 223.417 265.835 224.19H264.965C264.965 224.577 264.917 224.915 264.82 225.205C264.724 225.495 264.675 225.882 264.675 226.365L263.66 226.8L264.24 226.945L263.225 227.38V227.525C263.225 227.912 263.08 228.299 262.79 228.685C262.597 228.975 262.452 229.217 262.355 229.41L261.485 229.265V230.28H260.76C260.76 230.764 260.567 231.15 260.18 231.44C260.18 231.344 260.084 231.295 259.89 231.295C259.794 231.199 259.697 231.199 259.6 231.295C259.794 231.489 259.794 231.73 259.6 232.02C259.407 232.214 259.214 232.359 259.02 232.455L258.585 232.31V232.89C257.715 233.76 256.507 234.292 254.96 234.485L254.815 234.775L254.09 235.065V234.485C253.51 234.582 253.075 234.727 252.785 234.92C252.592 235.114 252.109 235.21 251.335 235.21L251.19 234.775H251.045L250.9 235.21ZM254.09 218.68L254.67 218.97L254.96 218.535L254.09 218.68Z" fill="#52341C"/>
<defs>
<linearGradient id="paint0_linear_1238_52759" x1="83.6123" y1="363.662" x2="269.913" y2="-35.8606" gradientUnits="userSpaceOnUse">
<stop stop-color="#FBC8B3"/>
<stop offset="0.4609" stop-color="#FBC7B2"/>
<stop offset="0.6322" stop-color="#EAA0A1"/>
<stop offset="0.7737" stop-color="#EAA0A1"/>
<stop offset="0.8073" stop-color="#FBC7B2"/>
</linearGradient>
</defs>
</svg>
